<svg width="390" height="250" viewBox="0 0 390 250" fill="none" xmlns="http://www.w3.org/2000/svg">
<g clip-path="url(#clip0_5876_31309)">
<path d="M0 16C0 7.16345 7.16344 0 16 0H374C382.837 0 390 7.16344 390 16V250H0V16Z" fill="white"/>
<path d="M161.035 -7.39928C140.316 -3.30752 112.047 25.582 105.869 48.6381C103.383 57.9167 100.697 57.7998 83.8399 46.3517C64.5984 33.662 32.2821 24.7015 5.96897 24.8835C-18.5788 25.2372 -43.5496 38.4359 -51.3943 55.3195C-61.5908 77.6001 -52.7419 98.6554 -19.1294 132.072C-10.5715 140.693 -3.27131 148.375 -2.85865 149.089C-2.446 149.802 -11.2402 155.582 -22.589 161.883C-69.2061 188.268 -83.6807 229.894 -55.8488 257.844C-49.2429 264.737 -43.066 267.598 -24.964 272.147C2.15135 279.111 23.6761 277.646 50.3728 267.019L68.3148 259.772L74.1998 276.116C83.5692 304.242 104.514 325.223 133.541 336.316C162.851 347.484 201.135 337.552 216.009 314.716C225.73 299.842 229.151 272.431 224.006 245.437C221.537 232.118 220.024 220.864 220.306 220.94C220.945 220.809 232.722 218.541 246.773 215.676C290.973 207.328 317.902 186.819 326.416 155.047C330.409 140.145 330.261 136.187 325.143 124.871C316.143 104.378 304.336 95.4886 277.784 88.6754C263.137 84.7508 250.292 83.1171 241.22 84.3024C233.5 84.9461 225.066 86.0013 222.662 85.9598C218.981 86.1789 217.651 81.0009 217.364 64.0477C216.67 37.3424 207.373 13.4547 192.939 0.847882C179.894 -10.1814 177.641 -10.7852 161.035 -7.39928Z" fill="#FAFAFA"/>
<path fill-rule="evenodd" clip-rule="evenodd" d="M273.666 29.6861C241.672 30.1899 109.857 30.464 76.8868 30.0449C74.9291 30.0203 74.7804 26.6837 76.8069 26.6837C110.794 26.7255 228.283 26.0779 273.602 27.0524C275.783 27.0967 275.191 29.6615 273.666 29.6861Z" fill="#0B1F33"/>
<path fill-rule="evenodd" clip-rule="evenodd" d="M234.403 125.51C232.196 126.463 229.851 127.058 227.456 127.271C227.686 130.086 227.655 132.915 227.365 135.724C227.334 135.876 227.249 136.011 227.127 136.107C227.006 136.202 226.854 136.252 226.699 136.246C226.544 136.24 226.396 136.18 226.282 136.076C226.167 135.972 226.093 135.831 226.072 135.677C225.842 133.757 226.38 131.676 225.992 127.366C223.118 127.444 221.771 126.553 219.245 126.21C212.965 125.352 206.929 123.21 201.513 119.917C201.352 119.794 201.246 119.612 201.218 119.411C201.19 119.211 201.243 119.007 201.364 118.845C206.921 112.058 211.194 104.316 213.974 95.9971C214.303 95.0569 215.39 93.7935 215.395 95.4121C215.409 99.561 214.924 103.708 214.924 107.863C214.924 115.403 215.125 123.47 222.471 125.365C226.977 126.524 231.17 125.054 233.958 124.31C234.621 124.127 235.112 125.167 234.403 125.51Z" fill="#0B1F33"/>
<path fill-rule="evenodd" clip-rule="evenodd" d="M223.776 109.374C223.132 110.621 225.327 110.474 226.643 110.537C226.81 110.551 226.965 110.623 227.083 110.741C227.201 110.858 227.274 111.014 227.288 111.18C227.302 111.347 227.256 111.512 227.16 111.648C227.063 111.784 226.922 111.881 226.76 111.923C225.89 112.04 225.005 111.99 224.154 111.775C222.632 111.46 221.471 110.899 222.299 109.195C222.835 108.044 223.443 106.929 224.12 105.856C224.203 105.726 224.331 105.63 224.479 105.587C224.627 105.545 224.786 105.557 224.926 105.623C225.065 105.688 225.176 105.803 225.238 105.944C225.3 106.085 225.308 106.244 225.261 106.391C224.842 107.422 224.346 108.419 223.776 109.374Z" fill="#0B1F33"/>
<path fill-rule="evenodd" clip-rule="evenodd" d="M232.112 104.572C232.126 105.361 232.185 106.556 231.023 106.587C230.086 106.613 229.823 105.785 229.828 104.677C229.833 102.683 232.064 102.127 232.112 104.572Z" fill="#0B1F33"/>
<path fill-rule="evenodd" clip-rule="evenodd" d="M221.142 104.521C221.123 105.275 220.802 105.987 219.931 105.951C219.203 105.922 218.941 104.939 218.962 104.291C218.993 103.335 219.294 102.847 219.899 102.714C220.826 102.51 221.168 103.575 221.142 104.521Z" fill="#0B1F33"/>
<path fill-rule="evenodd" clip-rule="evenodd" d="M220.31 98.892C219.823 98.8358 219.33 98.9167 218.886 99.1256C218.443 99.3344 218.067 99.663 217.8 100.074C217.127 101.07 216.407 100.252 216.662 99.6626C216.99 98.9454 217.54 98.3523 218.23 97.9705C218.92 97.5887 219.715 97.4383 220.496 97.5414C220.671 97.5711 220.827 97.6677 220.932 97.8106C221.037 97.9536 221.082 98.1317 221.058 98.3072C221.033 98.4828 220.942 98.642 220.802 98.7511C220.663 98.8603 220.486 98.9108 220.31 98.892Z" fill="#0B1F33"/>
<path fill-rule="evenodd" clip-rule="evenodd" d="M230.314 98.7232C230.161 98.7223 230.013 98.6667 229.896 98.5665C229.78 98.4663 229.703 98.3281 229.68 98.1764C229.656 98.0248 229.687 97.8696 229.767 97.7388C229.848 97.608 229.972 97.51 230.118 97.4623C231.056 97.2612 232.035 97.4063 232.874 97.8707C233.713 98.3351 234.356 99.0875 234.684 99.989C234.887 100.693 233.947 101.271 233.591 100.481C233.308 99.8728 232.836 99.373 232.245 99.0561C231.654 98.7393 230.977 98.6224 230.314 98.7232Z" fill="#0B1F33"/>
<path fill-rule="evenodd" clip-rule="evenodd" d="M224.459 115.986C224.987 117.176 225.925 118.137 227.102 118.694C228.279 119.251 229.616 119.368 230.872 119.022C232.166 118.604 233.254 117.711 233.916 116.522C234.577 115.333 234.763 113.938 234.436 112.617C234.286 112.003 233.735 111.789 233.074 112.31C230.308 114.49 228.26 114.83 224.991 114.884C224.46 114.893 224.149 115.369 224.459 115.986Z" fill="#0B1F33"/>
<path fill-rule="evenodd" clip-rule="evenodd" d="M135.068 139.654C135.361 140.208 134.542 140.803 134.085 140.391C131.439 137.996 126.595 134.615 125.228 131.42C123.385 127.119 124.391 121.732 120.744 118.252C120.612 118.139 120.529 117.98 120.511 117.808C120.494 117.636 120.543 117.464 120.649 117.327C120.755 117.19 120.91 117.1 121.081 117.074C121.252 117.048 121.426 117.089 121.568 117.189C125.599 120.024 124.835 125.575 126.701 129.601C128.594 133.677 132.994 135.732 135.068 139.654Z" fill="#0B1F33"/>
<path fill-rule="evenodd" clip-rule="evenodd" d="M108.1 133.377C104.34 132.631 100.823 130.966 97.8627 128.53C96.9127 127.693 98.0508 127.018 98.7439 127.486C101.688 129.566 105.057 130.966 108.607 131.585C112.073 132.097 115.602 132.007 119.036 131.317C119.883 131.204 119.865 132.443 119.282 132.792C116.633 134.383 111.074 134.032 108.1 133.377Z" fill="#0B1F33"/>
<path fill-rule="evenodd" clip-rule="evenodd" d="M92.4732 131.461C91.9472 130.884 92.832 130.119 93.4097 130.537C97.3537 133.563 101.882 135.739 106.709 136.927C110.48 137.787 109.434 139.552 106.049 138.854C100.864 137.866 96.1167 135.281 92.4732 131.461Z" fill="#0B1F33"/>
<path fill-rule="evenodd" clip-rule="evenodd" d="M107.124 144.928C102.645 144.668 96.4407 142.604 93.0783 139.657C92.9601 139.549 92.8843 139.402 92.8645 139.244C92.8448 139.085 92.8824 138.924 92.9706 138.791C93.0589 138.657 93.1919 138.56 93.3457 138.516C93.4996 138.472 93.6641 138.484 93.8096 138.551C98.9208 141.055 101.647 142.327 107.359 143.036C110.674 143.449 110.577 145.128 107.124 144.928Z" fill="#0B1F33"/>
<path fill-rule="evenodd" clip-rule="evenodd" d="M126.925 150.662C127.825 151.277 126.802 152.79 125.884 152.247C121.039 149.394 115.522 151.141 110.26 151.132C105.129 151.219 100.102 149.677 95.9021 146.729C95.2962 146.275 95.9636 145.368 96.6038 145.662C101.413 148.09 106.754 149.274 112.139 149.103C117.113 148.802 122.503 147.652 126.925 150.662Z" fill="#0B1F33"/>
<path fill-rule="evenodd" clip-rule="evenodd" d="M313.365 223.328C264.176 223.926 124.124 222.694 94.2085 222.345C92.2816 222.323 90.7527 220.147 94.1532 220.133C132.619 219.935 256.081 219.982 313.294 220.509C315.547 220.523 315.553 223.301 313.365 223.328Z" fill="#2554E7"/>
<path fill-rule="evenodd" clip-rule="evenodd" d="M218.584 134.41C207.769 136.13 187.054 147.693 175.773 162.612C186.465 160.993 218 160.717 227.063 161.78C223.653 157.628 219.877 153.79 215.781 150.314C217.354 148.511 218.834 147.108 220.128 145.875C217.538 144.277 213.281 141.728 211.402 140.851C213.531 138.425 215.942 136.263 218.584 134.41Z" fill="#0B1F33"/>
<path fill-rule="evenodd" clip-rule="evenodd" d="M242.234 146.429C243.62 147.811 244.803 149.384 245.746 151.099C241.955 153.272 234.602 157.341 230.164 162.056C234.401 162.612 237.169 164.668 238.644 170.905C239.278 173.58 240.153 177.873 241.021 182.692C249.05 180.937 257.211 179.858 265.42 179.466C263.98 175.777 262.054 172.298 259.695 169.118C259.188 168.448 260.127 167.598 260.686 168.248C263.537 171.519 265.742 175.301 267.186 179.392C270.863 179.175 274.552 179.227 278.221 179.548C279.057 179.643 279.067 180.893 278.201 180.872C265.809 180.468 253.415 181.636 241.316 184.347C242.551 191.392 243.713 199.263 244.078 204.775C263.127 204.589 294.03 214.002 298.82 202.648C309.546 177.219 276.969 137.085 253.789 133.572C255.746 136.28 257.116 139.366 257.812 142.634C255.273 143.515 245.564 145.827 242.234 146.429Z" fill="#0B1F33"/>
<path fill-rule="evenodd" clip-rule="evenodd" d="M227.972 153.643C224.077 143.921 224.182 138.745 223.071 133.98C223.046 133.815 222.958 133.667 222.826 133.565C222.694 133.464 222.529 133.417 222.363 133.434C222.198 133.451 222.045 133.531 221.937 133.658C221.829 133.784 221.773 133.947 221.782 134.113C221.743 139.866 224.674 149.448 227.054 154.958C227.13 155.091 227.236 155.205 227.363 155.29C227.491 155.375 227.636 155.428 227.789 155.446C227.941 155.464 228.095 155.446 228.239 155.393C228.383 155.34 228.512 155.254 228.616 155.142C236.326 144.437 240.177 140.569 249.017 133.703C249.155 133.606 249.249 133.459 249.281 133.293C249.312 133.128 249.278 132.956 249.186 132.815C249.094 132.674 248.951 132.574 248.787 132.537C248.622 132.499 248.45 132.526 248.305 132.613C240.102 138.088 233.168 145.259 227.972 153.643Z" fill="#2554E7"/>
<path fill-rule="evenodd" clip-rule="evenodd" d="M165.293 163.722C157.71 159.099 144.857 147.725 139.587 140.529C134.291 145.931 129.58 151.877 125.531 158.267C135.124 172.414 150.317 187.677 159.837 192.111C158.731 187.394 158.45 174.356 158.731 170.195C159.013 166.034 162.149 164.37 165.293 163.722Z" fill="#0B1F33"/>
<path fill-rule="evenodd" clip-rule="evenodd" d="M121.849 163.507C124.201 163.409 122.992 161.759 121.989 161.74C108.594 161.477 94.2369 161.15 84.1374 161.307C84.9178 102.948 84.4508 66.1246 84.7703 33.2415C84.7789 32.3702 83.4725 32.5041 83.4332 33.3337C82.1576 60.0671 82.9416 132.059 81.9585 161.108C81.9241 162.103 81.9929 162.739 84.146 162.835C90.1765 163.105 96.0533 163.116 102.118 163.221C107.692 163.318 116.448 163.733 121.849 163.507Z" fill="#2554E7"/>
<path fill-rule="evenodd" clip-rule="evenodd" d="M268.601 105.582C269.192 93.6 269.008 81.4592 269.062 69.4511C269.094 62.3526 269.416 43.294 269.336 33.9404C269.323 32.3207 267.653 33.2436 267.635 34.0633C267.312 49.9451 266.475 89.601 267.082 105.599C267.134 106.946 268.541 106.927 268.601 105.582Z" fill="#2554E7"/>
<path fill-rule="evenodd" clip-rule="evenodd" d="M100.173 69.7256C100.173 65.0525 100.214 60.3824 100.173 55.7093C121.739 55.5884 143.318 55.469 164.881 55.0887C164.899 59.178 164.881 63.2673 164.881 67.3566C144.283 67.8711 123.22 68.6288 102.561 68.99C101.23 69.0136 101.446 70.9536 102.733 70.9698C123.593 71.216 145.094 69.9172 166.02 69.388C166.297 69.36 166.552 69.2284 166.731 69.0209C166.911 68.8134 167.001 68.5461 166.983 68.275C166.983 63.5002 166.967 58.724 167 53.9492C166.971 53.6769 166.834 53.4263 166.62 53.2498C166.405 53.0734 166.129 52.9849 165.849 53.0028C143.569 53.016 121.273 53.3123 98.9932 53.6027C98.7083 53.6315 98.4459 53.7669 98.2612 53.9805C98.0764 54.1941 97.9837 54.4692 98.0024 54.7482C98.1262 59.7898 98.389 64.8196 98.5673 69.8583C98.5929 70.8828 100.171 70.7383 100.173 69.7256Z" fill="#2554E7"/>
<path fill-rule="evenodd" clip-rule="evenodd" d="M99.2375 99.0005C121.284 98.0795 143.982 97.9719 165.894 96.3562C166.055 96.3601 166.214 96.3258 166.36 96.2557C166.507 96.1856 166.637 96.0814 166.741 95.9508C166.845 95.8202 166.921 95.6664 166.963 95.5006C167.005 95.3347 167.011 95.161 166.982 94.9921C166.595 91.6467 166.206 88.3013 165.8 84.9591C165.63 83.5713 163.684 84.0461 163.826 85.4086C164.122 88.3124 164.45 91.2147 164.772 94.1122C143.367 95.0791 121.773 95.7327 100.46 96.4638C100.46 91.9268 100.438 87.3835 100.558 82.8544C122.106 82.6155 143.285 82.242 165.069 82.4319C165.279 82.4357 165.483 82.3519 165.636 82.1982C165.79 82.0445 165.881 81.8331 165.892 81.6084C165.903 81.3837 165.831 81.1635 165.693 80.9941C165.554 80.8247 165.36 80.7195 165.151 80.7007C143.282 79.623 121.321 80.0978 99.3602 80.1452C99.1899 80.1354 99.0196 80.1618 98.8589 80.2228C98.6983 80.2837 98.5505 80.3781 98.424 80.5005C98.2976 80.6229 98.1951 80.7708 98.1223 80.9358C98.0495 81.1008 98.0079 81.2796 98 81.4619C98.1818 86.8629 98.1138 92.2829 98.1316 97.6902C98.1202 98.0197 98.2293 98.3411 98.4359 98.5858C98.6424 98.8305 98.93 98.9793 99.2375 99.0005Z" fill="#2554E7"/>
<path fill-rule="evenodd" clip-rule="evenodd" d="M164.726 122.536C153.81 122.677 139.921 122.466 128.722 122.982C127.785 123.026 127.827 124.893 128.747 124.908C138.83 125.076 154.089 124.589 165.745 124.829C167.033 124.856 167.093 123.638 166.942 122.732C166.189 118.287 166.148 113.755 166.821 109.298C166.852 109.137 166.846 108.972 166.803 108.814C166.76 108.656 166.681 108.509 166.573 108.385C166.464 108.26 166.328 108.161 166.175 108.095C166.022 108.028 165.856 107.996 165.688 108.001C143.507 108.513 121.32 109.315 99.1405 109.662C98.8423 109.681 98.5636 109.813 98.3629 110.03C98.1622 110.246 98.0551 110.53 98.064 110.822C98.0244 115.51 98.0335 120.205 98 124.887C98.0208 125.196 98.1635 125.484 98.3979 125.692C98.6323 125.899 98.9401 126.01 99.2563 126C105.66 125.771 110.702 125.805 117.107 125.419C118.175 125.355 118.085 123.474 117.027 123.471C111.022 123.455 106.392 123.519 100.389 123.641C100.366 119.707 100.362 115.774 100.334 111.84C121.713 111.096 143.109 110.768 164.493 110.184C163.993 114.292 164.071 118.448 164.726 122.536Z" fill="#2554E7"/>
<path fill-rule="evenodd" clip-rule="evenodd" d="M198.207 133.12C199.021 133.313 199.242 132.007 198.453 131.775C189.847 129.034 182.628 123.081 178.298 115.154C168.306 97.307 174.488 73.9188 190.723 62.0545C205.102 51.5457 235.99 51.7596 245.95 68.9367C246.552 69.9751 248.116 69.4073 247.615 68.3025C239.828 51.1402 208.224 48.6823 192.726 58.1452C174.477 69.2918 166.014 93.399 175.054 113.157C179.601 123.097 188.046 130.714 198.207 133.12Z" fill="#0B1F33"/>
<path fill-rule="evenodd" clip-rule="evenodd" d="M268.456 136.717C268.768 134.068 268.49 127.009 268.501 122.878C268.501 121.396 267.11 121.94 267.059 122.561C266.764 127.276 266.752 132.004 267.023 136.72C267.078 137.424 268.374 137.413 268.456 136.717Z" fill="#2554E7"/>
<path fill-rule="evenodd" clip-rule="evenodd" d="M272.863 209.402C265.527 208.542 250.315 207.599 240.437 207.436C240.437 201.764 235.013 169.338 231.56 166.626C228.255 164.028 165.539 163.544 162.949 168.47C159.545 174.954 165.171 215.123 168.278 216.184C173.333 217.904 269.407 217.618 273.599 217.29C275.79 217.124 276.103 209.78 272.863 209.402ZM182.309 170.495C178.666 170.876 175.181 171.38 171.548 171.912C168.403 172.373 168.181 173.031 167.839 176.05C167.406 179.634 167.198 183.241 167.217 186.851C167.217 187.619 166.1 187.821 165.998 187.012C165.528 182.869 165.559 178.685 166.092 174.55C166.443 171.837 167.443 170.618 170.147 170.066C174.145 169.258 178.226 168.938 182.3 169.112C182.466 169.136 182.617 169.219 182.727 169.345C182.837 169.471 182.898 169.633 182.899 169.8C182.9 169.967 182.841 170.129 182.732 170.257C182.624 170.384 182.474 170.469 182.309 170.495ZM198.366 197.936C195.767 198.428 192.952 197.022 191.938 193.057C191.057 189.616 192.675 187.019 195.534 186.288C202.379 184.538 204.88 196.691 198.366 197.936Z" fill="#0B1F33"/>
<path fill-rule="evenodd" clip-rule="evenodd" d="M269.429 115.888C257.742 104.308 264.708 88.072 257.234 80.2153C255.82 78.6916 253.912 77.7193 251.848 77.4717C249.784 77.2241 247.7 77.7173 245.966 78.8635C240.208 69.5001 228.464 67.2339 218.465 70.3493C207.568 73.7449 203.664 87.0483 212.412 91.33C216.996 93.5741 233.089 93.7646 238.12 92.79C238.523 96.9561 240.081 100.927 242.619 104.255C242.88 104.568 243.244 105.002 243.676 104.624C244.144 104.202 244.694 103.882 245.292 103.684C245.89 103.487 246.522 103.415 247.149 103.475C247.776 103.534 248.384 103.723 248.934 104.029C249.484 104.336 249.964 104.753 250.344 105.255C250.694 105.772 250.938 106.353 251.063 106.964C251.187 107.576 251.19 108.206 251.071 108.818C250.951 109.43 250.712 110.013 250.366 110.533C250.021 111.053 249.576 111.499 249.058 111.846C247.555 112.84 246.483 112.695 244.799 112.611C244.272 112.585 244.174 113.026 244.138 113.429C243.618 119.284 243.042 125.964 243.935 131.787C243.958 131.949 244.044 132.095 244.173 132.195C244.302 132.295 244.465 132.34 244.627 132.322C244.789 132.303 244.938 132.222 245.041 132.095C245.145 131.969 245.195 131.807 245.18 131.645C245.193 130.067 245.134 128.489 245.082 126.909C253.31 127.83 263.728 123.017 269.453 117.515C270.36 116.654 269.712 116.168 269.429 115.888ZM225.162 75.8292C223.156 75.7932 221.171 76.2439 219.377 77.143C217.385 78.0991 214.003 80.4759 214.23 82.9682C214.298 83.7154 213.224 84.1726 212.945 83.402C211.599 79.6881 215.345 76.7866 217.842 75.4237C220.067 74.2098 222.559 73.5699 225.093 73.5618C228.335 73.5655 226.997 75.9066 225.162 75.8292Z" fill="#0B1F33"/>
<path d="M296.858 139.978C295.002 139.3 292.334 139.373 290.006 140.14C288.444 140.67 287.899 141.274 288.916 141.319C289.254 141.333 290.139 141.245 290.905 141.098C292.511 140.788 294.972 140.862 295.93 141.26C297.61 141.938 297.89 143.013 296.932 145.062C296.637 145.681 296.225 146.594 295.989 147.095C295.753 147.596 295.562 148.436 295.562 148.996C295.562 149.91 295.621 150.028 296.343 150.632C297.477 151.56 298.7 151.899 302.105 152.209C305.42 152.518 306.363 152.754 306.422 153.373C306.467 153.918 305.627 155.23 304.521 156.335C302.326 158.531 301.869 160.196 303.077 161.404C303.932 162.23 305.096 162.598 307.144 162.672C309.62 162.76 311.05 163.04 311.521 163.512C312.287 164.278 311.669 166.046 309.841 168.286C309.311 168.905 308.854 169.627 308.839 169.878C308.765 170.276 308.81 170.32 309.208 170.335C309.944 170.335 312.405 168.109 313.024 166.872C313.997 164.926 313.732 162.775 312.42 161.905C311.521 161.331 310.784 161.154 308.736 161.051C305.597 160.889 304.05 160.432 304.212 159.71C304.241 159.562 305.008 158.619 305.892 157.588C308.338 154.788 308.81 153.137 307.513 151.84C306.702 151.03 305.715 150.779 302.281 150.47C299.275 150.205 298.258 149.954 297.595 149.291C297.168 148.864 297.286 148.363 298.288 146.359C299.835 143.308 299.29 140.877 296.858 139.978Z" fill="#0B1F33"/>
</g>
<defs>
<clipPath id="clip0_5876_31309">
<path d="M0 16C0 7.16345 7.16344 0 16 0H374C382.837 0 390 7.16344 390 16V250H0V16Z" fill="white"/>
</clipPath>
</defs>
</svg>
