<svg width="390" height="250" viewBox="0 0 390 250" fill="none" xmlns="http://www.w3.org/2000/svg">
<g clip-path="url(#clip0_5876_30949)">
<rect width="390" height="250" fill="white"/>
<path d="M73.932 209C56.0274 209 37.4027 200.632 24.7939 185.504C19.8224 179.532 16.7238 173.738 15.3188 167.837C14.3821 163.832 14.2024 159.576 14.8509 155.463C-5.89968 150.528 -23.7328 135.472 -31.6944 115.695C-35.0807 107.291 -35.873 99.6022 -34.0357 92.9146C-30.181 78.9314 -16.924 72.6371 -5.50394 69.5973C-10.0431 63.9826 -13.3572 57.1877 -15.1224 49.7133C-18.2206 36.4811 -15.951 22.9629 -8.85405 12.6275C2.06161 -3.28683 21.2995 -10.2964 34.809 -14.1945C60.8553 -21.7046 80.6685 -20.4171 95.3308 -10.2963C103.148 -4.89612 108.696 2.72139 113.596 9.409C125.412 25.6452 136.832 42.9185 138.597 61.8369C154.376 57.152 172.173 61.9084 184.782 70.1696C199.192 79.6109 207.982 92.986 208.919 106.933C210.54 131.359 187.663 150.457 165.508 154.212C150.629 156.715 135.968 154.247 121.234 149.992C122.675 155.428 123.035 161.364 122.17 167.48C120.045 182.965 110.714 196.733 97.8172 203.385C90.468 207.176 82.2898 209 73.968 209H73.932Z" fill="#F9F9F9"/>
<path d="M62.5796 22.0505C65.3487 17.771 68.8131 15.5696 70.1992 15.0038" stroke="#0B1F33" stroke-width="2" stroke-linecap="round"/>
<path d="M71.5647 29.5283C75.459 23.388 80.3667 20.2525 82.3338 19.4522" stroke="#0B1F33" stroke-width="2" stroke-linecap="round"/>
<path d="M66.8471 26.3857C71.5217 17.4839 77.861 13.2225 80.4463 12.2044" stroke="#0B1F33" stroke-width="2" stroke-linecap="round"/>
<path d="M82 29L270.5 39L281 160L212 168.5L209.5 184L230 194V207.5L164.5 218L143 201.5L148.5 176L90.5 184L82 29Z" fill="#2554E7"/>
<g clip-path="url(#clip1_5876_30949)">
<path d="M202.592 46.5L278.592 52L279.094 62L280.094 76L280.594 91.5L282.094 116L283.094 127.5L284.094 148.5L285.094 159.5L281.094 160.5L253.594 164.5L216.594 169.5L216.094 172L215.094 177L213.094 187V191.5V194L214.594 195.5L219.094 197L228.594 200V204L217.594 206.5L198.594 210L182.594 213L174.094 210L167.594 207L165.094 203.5L168.094 189L171.594 175L112.094 181.5L107.094 117.5L102.094 43H107.094L150.594 44.5L202.592 46.5Z" fill="white"/>
<path fill-rule="evenodd" clip-rule="evenodd" d="M238.745 55.9533C257.868 57.303 270.453 58.3183 270.453 58.3183C270.791 58.2984 270.684 58.6439 270.704 58.982L276.258 152.877C276.268 153.046 275.75 153.225 275.561 153.257C260.042 155.956 237.123 159.093 213.623 162.073C197.661 164.077 120.422 172.843 120.422 172.843C120.203 172.857 119.987 172.786 119.818 172.646C119.728 172.578 119.654 172.491 119.6 172.392C119.547 172.293 119.516 172.183 119.509 172.071C118.913 164.155 110.714 51.2923 110.714 51.2923C110.709 51.1736 110.726 51.0549 110.767 50.9432C110.808 50.8316 110.87 50.7292 110.951 50.6422C111.033 50.5535 111.131 50.482 111.241 50.4318C111.351 50.3816 111.469 50.3538 111.59 50.35C136.583 50.4407 165.149 51.5498 191.108 52.9403C208.856 53.9472 225.401 55.004 238.745 55.9533ZM112.523 52.1818L121.126 171.148C125.206 170.737 197.504 162.856 213.493 160.957C236.836 158.177 259.703 155.234 275.189 152.685L269.69 59.7204C266.203 59.439 192.078 54.664 175.127 53.9067C154.103 52.9453 132.247 52.245 112.523 52.1818Z" fill="#0B1F33"/>
<path fill-rule="evenodd" clip-rule="evenodd" d="M101.344 42.3487C101.427 42.2627 101.526 42.1943 101.636 42.1478C101.746 42.1012 101.865 42.0773 101.984 42.0776C129.796 42.2348 161.59 43.5558 190.484 45.1968C210.249 46.3176 278.812 51.4853 278.812 51.4853C279.149 51.4653 279 51.8133 279.02 52.1514L285.385 159.758C285.395 159.927 284.856 160.108 284.667 160.14C267.643 163.14 242.565 166.637 216.778 169.944C216.355 172.089 214.557 180.676 213.824 187.25C213.548 189.249 213.476 191.27 213.61 193.284C213.614 193.647 213.723 194.002 213.924 194.304C216.157 196.292 228.373 199.28 228.74 199.407C228.921 199.449 229.082 199.554 229.195 199.702C229.308 199.85 229.366 200.032 229.36 200.218L229.265 204.337C229.266 204.527 229.199 204.711 229.075 204.855C228.951 204.999 228.779 205.093 228.592 205.119C179.664 214.628 182.589 214.349 182.137 214.228C177.726 212.666 173.429 210.794 169.28 208.627C167.995 207.936 166.801 207.088 165.724 206.103C165.118 205.575 164.722 204.845 164.608 204.048C164.899 201.012 165.429 198.003 166.192 195.05C167.879 187.805 170.269 178.483 171.034 175.681L112.057 182.329C111.945 182.345 111.83 182.335 111.722 182.302C111.614 182.268 111.515 182.21 111.432 182.132C111.344 182.063 111.273 181.976 111.224 181.876C111.174 181.777 111.147 181.667 111.144 181.556C110.459 172.479 101.116 43.1467 101.116 43.1467C101.09 43.005 101.097 42.8593 101.137 42.7208C101.176 42.5823 101.247 42.455 101.344 42.3487ZM205.272 207.94L227.632 203.565L227.7 200.783L227.511 200.794C225.776 201.151 212.761 203.617 210.164 204.068C204.529 205.037 184.283 208.291 182.92 208.499C183.302 209.759 183.381 211.091 183.15 212.387L205.272 207.94ZM167.45 195.209C166.765 198.02 166.312 200.884 166.094 203.77C166.194 204.172 166.432 204.526 166.767 204.769C167.771 205.636 168.873 206.382 170.051 206.992C173.793 208.934 177.661 210.625 181.628 212.053C181.38 210.803 181.405 209.514 181.701 208.274C180.577 207.874 176.705 206.45 173.235 205.022C171.262 204.263 169.359 203.333 167.548 202.242C167.514 202.212 167.486 202.176 167.466 202.135C167.446 202.095 167.434 202.05 167.431 202.005C167.429 201.96 167.435 201.914 167.45 201.871C167.465 201.829 167.489 201.789 167.52 201.756C167.583 201.685 167.672 201.642 167.767 201.636C167.861 201.631 167.955 201.663 168.026 201.726C169.382 202.469 170.799 203.095 172.262 203.596C176.219 205.037 181.349 206.62 182.404 206.939C183.332 206.885 223.641 200.472 225.631 200.142C212.719 196.475 212.647 195.249 212.344 193.359C212.24 191.224 212.362 189.085 212.708 186.977C213.556 180.566 215.505 172.394 216.093 169.815L171.053 175.638L171.791 175.594C171.192 177.983 168.913 187.744 167.452 195.251L167.45 195.209ZM112.726 180.402C117.079 179.954 197.827 171.128 215.614 168.868C241.6 165.698 267.047 162.369 284.31 159.461L278.002 52.8265C274.281 52.5165 191.577 46.8707 172.713 45.951C149.371 44.8086 124.882 43.946 102.914 43.846L112.726 180.402Z" fill="#0B1F33"/>
<path fill-rule="evenodd" clip-rule="evenodd" d="M181.561 196.684C182.699 196.617 197.983 194.949 199.394 194.845C200.806 194.74 208.355 194.315 208.355 194.315C208.402 194.309 208.45 194.313 208.495 194.325C208.541 194.338 208.583 194.36 208.621 194.389C208.658 194.419 208.689 194.455 208.712 194.496C208.735 194.538 208.749 194.583 208.755 194.63C208.761 194.722 208.731 194.812 208.672 194.883C208.613 194.953 208.53 194.998 208.439 195.009C207.532 195.063 195.98 197.209 181.717 198.244L172.755 198.774C172.711 198.782 172.665 198.781 172.621 198.771C172.577 198.76 172.535 198.74 172.5 198.712C172.464 198.684 172.434 198.649 172.414 198.608C172.393 198.568 172.381 198.523 172.378 198.478C172.373 198.431 172.376 198.383 172.389 198.338C172.402 198.292 172.424 198.249 172.453 198.212C172.482 198.175 172.518 198.144 172.56 198.121C172.601 198.098 172.646 198.083 172.693 198.078C172.693 198.078 179.504 196.975 181.561 196.684Z" fill="#0B1F33"/>
<g clip-path="url(#clip2_5876_30949)">
<path d="M136.813 101.285C136.516 100.954 136.793 100.454 137.03 100.063C136.152 99.3417 135.198 98.719 134.185 98.2054C132.503 97.5914 130.93 96.7134 129.526 95.6044C128.939 95.1182 127.825 94.108 128.121 93.4077C128.418 92.7075 129.072 92.5921 130.01 92.872C129.576 92.5085 129.206 92.0746 128.917 91.5884C128.538 90.8183 129.144 90.0936 130.683 90.5246C130.052 89.7309 129.827 88.8496 130.684 88.3155C131.375 87.8833 132.539 88.5962 133.218 89.0719C134.55 89.9945 135.816 91.0077 137.009 92.1042C137.504 90.673 138.356 88.9931 139.698 89.3421C141.04 89.691 140.291 92.0157 139.768 93.2937L142.286 94.6459C142.618 94.4156 143.006 94.2816 143.409 94.2589C146.115 94.4125 159.353 102.32 160.588 102.18C161.535 102.074 174.324 94.0682 185.802 90.8786C185.817 90.8059 185.851 90.7389 185.903 90.6852C185.954 90.6315 186.019 90.5934 186.091 90.5751C188.09 89.9975 190.14 89.6096 192.212 89.4165C192.275 89.4137 192.338 89.4246 192.397 89.4486C192.455 89.4726 192.508 89.5091 192.551 89.5555L193.415 89.4581C193.527 88.6015 194.071 86.5916 194.256 85.8207C193.487 85.2925 192.485 85.0928 191.871 84.1721C190.741 82.4655 190.428 79.3124 190.458 77.2667C189.195 76.5129 189.004 75.0964 189.108 73.6155C189.145 73.0175 189.315 71.6542 189.771 71.2693C190.028 71.0528 190.636 71.1719 191.161 71.3003C191.533 70.0706 191.593 70.6056 191.334 70.1555C191.214 69.9481 191.132 69.7209 191.092 69.4846C190.565 69.7107 189.31 68.7476 189.539 67.2631C189.686 66.7243 189.881 66.2 190.123 65.6968C189.939 65.3632 189.583 64.9761 190.406 63.581C190.771 63.0847 191.277 62.7086 191.857 62.5005L192.33 62.4471C192.616 61.913 193.076 61.4933 193.634 61.2582C194.481 60.9378 195.419 60.9631 196.247 61.3285C196.471 61.4597 196.658 61.6469 196.88 61.7678C197.314 61.4329 197.831 61.2233 198.375 61.162C198.919 61.1007 199.47 61.1899 199.967 61.42C200.251 61.4962 200.518 61.629 200.749 61.8106C200.981 61.9922 201.174 62.2188 201.316 62.4767C201.8 62.246 202.328 62.1187 202.864 62.1032C203.4 62.0876 203.934 62.1839 204.431 62.3862C206.317 63.1497 207.83 64.6212 208.644 66.4858C208.694 66.7752 208.727 67.0672 208.743 67.3603L208.856 67.3476C210.374 66.9473 212.752 70.3888 211.499 73.4163C211.352 73.7767 211.151 74.1224 210.967 74.5183C210.424 75.6214 210.716 75.9011 209.386 77.3221C208.996 77.7412 208.92 77.7185 208.678 77.975C208.436 78.2315 208.526 78.1067 208.437 78.7003C208.391 79.0492 208.276 79.3856 208.1 79.6899C207.923 79.9942 207.687 80.2604 207.407 80.4731C207.411 81.4918 207.088 82.485 206.486 83.3068C206.297 83.5744 206.067 83.8111 205.805 84.0088C205.734 84.06 205.652 84.0941 205.566 84.1086C205.473 86.0572 205.373 88.5901 205.328 89.6684L206.299 90.0591C207.552 90.4062 208.78 90.8352 209.976 91.3433C210.071 91.3944 210.144 91.479 210.18 91.5808C211.336 92.0341 212.426 92.4635 213.052 92.7472C221.767 96.6729 248.569 126.007 248.971 127.441C249.006 127.522 249.016 127.611 249 127.698C248.727 128.266 248.376 128.793 247.957 129.264C248.13 129.51 248.33 129.735 248.554 129.937C250.763 131.053 254.076 132.711 255.934 134.315C256.062 134.405 256.164 134.528 256.23 134.67C256.297 134.812 256.325 134.968 256.312 135.124C256.299 135.281 256.245 135.431 256.157 135.56C256.068 135.689 255.947 135.793 255.806 135.861C255.509 135.999 255.454 135.974 253.324 135.099C253.93 135.52 254.447 136.057 254.846 136.678C255.044 137.229 254.566 137.616 253.906 137.586C253.531 137.531 253.166 137.418 252.826 137.249C253.044 137.515 253.181 137.838 253.219 138.179C253.258 138.521 253.197 138.866 253.043 139.173C252.16 140.586 249.004 136.805 247.471 135.956C246.977 136.752 246.387 138.548 245.091 138.235C243.966 137.956 244.881 135.446 244.701 134.768C244.237 134.413 243.748 134.092 243.238 133.807C242.511 134.485 241.65 135.005 240.711 135.332C239.013 135.523 219.28 119.637 217.771 118.359C218.767 122.852 223.405 142.096 223.319 145.951C223.276 147.696 219.177 148.407 217.449 148.696C219.365 160.984 221.822 179.65 221.937 179.835C225.326 185.403 226.247 186.925 227.364 188.602C229.39 191.603 237.733 202.584 238.827 205.169C238.988 205.579 239.017 205.742 238.662 206.574C240.145 207.818 241.543 209.161 242.845 210.593C243.527 211.559 242.179 221.422 240.844 225.011C240.539 225.816 240.033 227.061 239.175 227.126C236.593 227.324 235.562 218.083 235.343 215.492C235.334 215.412 235.355 215.332 235.401 215.267C234.856 214.623 234.272 214.014 233.653 213.442C233.351 213.704 233.03 213.943 232.691 214.155C232.359 214.349 231.938 214.125 231.623 213.921C227.893 211.611 206.819 190.666 201.634 180.247C199.274 175.491 196.105 168.908 194.878 164.128C194.117 161.104 193.729 157.999 193.722 154.881C193.717 154.837 193.695 154.797 193.66 154.77C193.626 154.742 193.582 154.73 193.539 154.735C193.495 154.74 193.455 154.762 193.428 154.796C193.4 154.83 193.388 154.874 193.393 154.918C193.226 158.073 193.481 161.237 194.15 164.325C195.671 170.979 202.573 184.424 205.995 189.269C203.495 189.092 198.404 188.666 195.915 188.217C187.615 186.682 179.387 180.243 177.818 172.146C177.175 168.321 176.74 164.464 176.516 160.591C175.987 155.27 176.082 149.906 176.799 144.607C174.484 143.669 172.332 142.505 171.54 141.302C169.844 138.732 171.749 122.627 172.055 118.133C167.716 119.112 160.334 120.829 156.539 118.496C152.185 115.735 142.545 107.673 136.813 101.285ZM235.835 214.864C237.56 213.533 239.853 210.576 240.009 208.444C239.526 207.956 239.028 207.512 238.554 207.003C237.4 209.288 235.873 211.365 234.037 213.149C234.669 213.684 235.27 214.257 235.835 214.864ZM139.338 93.634C139.281 93.606 139.237 93.5572 139.214 93.4977C139.192 93.4382 139.194 93.3725 139.218 93.314C139.503 92.6046 140.318 90.1267 139.537 89.9438C139.086 89.8278 138.736 90.1383 138.457 90.5343C138.04 91.2071 137.739 91.9455 137.567 92.7185C137.555 92.7812 137.526 92.8393 137.483 92.8867C137.441 92.9341 137.386 92.969 137.325 92.9877C137.264 93.0064 137.199 93.0081 137.137 92.9926C137.075 92.9772 137.018 92.9452 136.973 92.9001C135.816 91.8739 133.115 89.542 131.678 88.9954C130.588 88.5763 130.453 89.5919 133.233 91.6126C133.862 91.9889 134.471 92.3967 135.059 92.8344C135.093 92.8715 135.114 92.9184 135.12 92.9683C135.125 93.0182 135.115 93.0686 135.09 93.1122C135.12 93.3798 134.938 93.7025 134.536 93.4664C133.553 92.7821 132.526 92.1634 131.462 91.6142C130.916 91.3122 130.304 91.152 129.68 91.1482C130.095 92.06 133.256 94.3088 133.535 94.5691C133.621 94.6305 133.68 94.7233 133.699 94.8275C133.717 94.9317 133.694 95.039 133.634 95.1263C133.574 95.2136 133.483 95.2739 133.379 95.2943C133.275 95.3147 133.167 95.2935 133.079 95.2353C131.853 94.6232 129.662 93.1195 129.002 93.4544C128.342 93.7893 130.605 95.4724 131.17 95.8671C134.412 98.0964 133.465 96.5359 137.273 99.6288C138.576 97.8324 140.124 96.227 141.872 94.8592L139.338 93.634ZM189.589 137.81C189.604 136.37 189.648 134.813 189.735 133.188L189.227 132.651C186.871 130.239 185.78 126.1 185.603 122.775C185.046 127.725 184.706 132.567 184.568 137.355L189.589 137.81ZM200.92 100.856C203.394 98.4931 207.346 94.4529 209.604 91.7395L205.256 90.1454C201.875 94.1012 199.098 98.5365 197.018 103.307C193.883 111.014 191.826 119.118 190.905 127.388L203.239 104.981L200.878 101.225C200.846 101.167 200.833 101.1 200.84 101.034C200.848 100.968 200.875 100.905 200.92 100.856ZM192.65 89.9716C192.601 90.0917 192.061 91.6842 191.279 94.4503C191.291 94.5634 191.777 97.1137 191.971 98.0087C193.226 97.3402 194.387 96.5087 195.423 95.5358C195.096 94.6662 193.619 90.7167 193.444 89.8091L192.65 89.9716ZM197.547 100.611C197.455 100.433 197.355 100.195 197.24 99.9158L196.591 100.354C196.229 100.655 196.295 99.8556 196.201 102.159C196.243 102.539 196.188 102.973 196.22 103.438C196.597 102.531 197.08 101.549 197.537 100.612L197.547 100.611ZM198.026 99.6814C199.659 96.7052 201.584 93.8985 203.772 91.3025L196.403 95.5401C196.781 96.2164 197.458 98.3387 198.016 99.6825L198.026 99.6814ZM190.793 106.602C191.506 103.677 191.944 100.45 192.243 99.5828C192.19 99.3287 192.161 99.0705 192.156 98.8111C192.013 98.8833 191.861 98.9355 191.704 98.9662C191.605 98.9785 191.505 98.9546 191.422 98.8988C191.339 98.843 191.279 98.7592 191.253 98.6627C191.133 98.3325 190.805 96.6292 190.742 96.2509C188.6 104.145 186.974 112.17 185.874 120.275C190.293 107.253 189.802 110.934 190.783 106.604L190.793 106.602ZM184.497 127.203C185.576 115.693 188.122 101.204 191.643 90.283C189.92 90.4781 188.215 90.8095 186.545 91.2742C186.551 99.1925 187.251 98.8427 186.7 99.2175C186.148 99.5922 182.779 101.41 182.278 101.685C182.419 102.471 184.231 125.212 184.487 127.204L184.497 127.203ZM190.257 71.8814C189.853 73.1124 189.81 74.4336 190.134 75.6882C190.254 76.0032 190.459 76.2787 190.727 76.4839C190.995 76.6891 191.314 76.8161 191.649 76.8507C191.985 76.8852 192.323 76.826 192.627 76.6797C192.931 76.5333 193.188 76.3055 193.37 76.0216C193.745 74.9321 193.992 73.8028 194.106 72.6565C193.788 72.3277 190.743 71.9413 190.257 71.8814ZM205.574 80.5754C205.931 80.3619 206.299 80.1675 206.676 79.9928C206.927 79.8551 207.142 79.6618 207.307 79.4276C207.472 79.1935 207.58 78.9248 207.625 78.6422C207.669 78.3595 207.649 78.0704 207.564 77.797C207.48 77.5236 207.334 77.2732 207.138 77.0649C206.428 76.5926 205.845 76.6896 205.402 77.5627C205.133 78.2286 205.149 78.2789 205.001 78.358C204.959 78.3825 204.913 78.3977 204.864 78.4027C204.816 78.4076 204.767 78.4021 204.721 78.3866C204.674 78.3711 204.632 78.3459 204.597 78.3127C204.561 78.2795 204.533 78.2391 204.514 78.1941C204.289 77.5673 204.189 76.9023 204.221 76.237C204.264 75.5131 203.93 72.3623 203.898 72.2617C203.615 72.454 203.286 72.5667 202.945 72.5879C201.074 72.7258 200.596 71.8106 199.767 71.1121C198.922 71.2906 198.794 71.7219 197.771 71.337C197.289 71.1304 196.838 70.8587 196.43 70.5295C196.148 70.6839 195.878 70.8606 195.624 71.0579C195.041 71.4239 194.356 71.5933 193.669 71.5413C192.983 71.4893 192.331 71.2185 191.809 70.7688C191.72 70.9976 191.642 71.2253 191.575 71.4621C192.553 71.6489 193.494 71.9972 194.358 72.4926C194.558 72.6889 194.433 73.8909 194.402 74.1757C195.276 74.187 196.141 74.3617 196.951 74.6908C197.045 74.1384 197.272 73.1021 197.775 72.764C197.931 72.6966 198.103 72.6772 198.269 72.7084C199.212 72.7481 202.647 73.3717 203.11 73.8718C203.503 74.2131 202.836 77.2682 202.582 77.7866C201.605 79.7514 198.078 79.607 197.188 77.5399C196.947 76.8398 196.863 76.095 196.942 75.3586C196.644 75.3922 195.713 75.1741 195.607 75.1549C195.076 76.8297 194.881 76.9455 194.251 78.7565C194.375 78.8364 194.578 78.9698 194.744 79.0553C195.529 79.4566 195.674 79.3569 195.656 79.5673C195.648 79.6095 195.626 79.6476 195.592 79.6744C195.559 79.7011 195.517 79.7148 195.474 79.7128C195.035 79.6998 194.6 79.6297 194.179 79.5044C193.929 79.4419 193.711 79.2881 193.568 79.0732C193.207 78.4574 194.527 75.8392 195.072 75.0379C194.949 75.0518 194.638 74.8785 194.409 74.7897C194.251 75.9745 194.157 76.902 193.097 77.4799C192.789 77.6374 192.453 77.7311 192.109 77.7556C191.764 77.7801 191.418 77.7349 191.092 77.6225C191.131 79.452 191.493 82.3912 192.539 83.8989C193.075 84.6825 194.201 84.8786 194.979 85.4891C195.207 85.6614 195.104 85.9543 195.066 86.2608C194.282 89.5688 194.26 89.5609 194.368 89.9655C194.864 91.6396 195.476 93.2767 196.202 94.8646C196.446 94.7224 199.165 92.8636 204.576 90.0241C204.62 88.8417 204.857 82.5318 205.027 81.3561C204.961 80.9571 205.002 80.8587 205.569 80.524L205.574 80.5754ZM197.899 77.1889C198.355 78.2734 199.963 78.5819 201.039 78.148C202.116 77.7141 202.124 77.1401 202.498 75.7434C202.686 75.2047 202.795 74.6413 202.82 74.0712C202.439 73.739 198.639 73.3961 198.167 73.3763C197.643 74.5604 197.546 75.8898 197.893 77.1375L197.899 77.1889ZM245.121 134.429C245.555 134.765 245.17 136.07 245.21 137.159C245.22 137.252 245.266 137.653 245.331 137.677C245.918 137.798 246.346 136.885 246.607 136.335C246.868 135.784 247.108 135.049 247.633 135.177C248.717 135.545 251.461 138.445 252.434 138.669C252.805 137.71 249.808 135.432 249.7 135.299C249.652 135.237 249.623 135.164 249.615 135.086C249.606 135.009 249.619 134.931 249.652 134.861C249.685 134.791 249.737 134.731 249.801 134.688C249.866 134.645 249.941 134.62 250.019 134.617C250.204 134.596 250.346 134.747 250.663 134.971C251.636 135.728 252.719 136.33 253.875 136.756C252.755 135.729 251.572 134.774 250.333 133.894C250.271 133.843 250.224 133.776 250.197 133.701C250.197 133.701 250.351 133.131 250.798 133.299C251.432 133.561 254.522 134.912 255.486 135.241C255.601 135.144 255.515 135.029 255.449 134.911C253.798 133.295 250.365 131.493 248.256 130.345C248 130.135 247.778 129.886 247.599 129.606C246.387 131.019 245.074 132.34 243.669 133.561C244.173 133.816 244.658 134.106 245.121 134.429ZM222.232 146.479C222.442 146.31 222.592 146.158 222.602 145.969C222.695 141.707 216.866 118.273 216.812 117.331C216.805 117.276 216.81 117.221 216.826 117.168C216.842 117.115 216.868 117.065 216.903 117.022C216.938 116.98 216.981 116.944 217.03 116.918C217.079 116.893 217.132 116.877 217.187 116.872C217.712 116.813 216.786 116.917 231.309 127.993C232.265 128.709 239.582 134.282 240.73 134.58C242.23 134.296 247.409 129.117 248.174 127.583C245.975 124.163 220.908 96.8115 212.883 93.0997C212.268 92.8148 211.218 92.3807 210.073 91.9263C209.739 92.3207 209.372 92.6862 208.977 93.0188C206.845 95.5514 203.839 98.7451 201.557 101.149L203.962 104.827C203.997 104.875 204.02 104.932 204.026 104.991C204.033 105.051 204.024 105.111 204 105.166C190.621 129.858 190.829 129.574 190.726 129.586C190.299 134.991 190.266 140.42 190.629 145.831C190.792 147.281 190.778 147.158 190.705 147.062C190.631 146.966 190.713 147.134 190.713 147.134C193.509 149.57 218.437 149.324 222.232 146.479ZM161.513 118.8C166.247 118.923 171.406 117.362 172.42 117.206C172.677 114.4 173.512 111.677 174.874 109.209C174.895 109.173 174.928 109.146 174.968 109.134C175.008 109.121 175.051 109.125 175.089 109.143C175.127 109.161 175.156 109.193 175.171 109.232C175.186 109.27 175.186 109.314 175.171 109.352C174.711 110.634 173.305 116.096 172.955 117.427C173.165 117.904 170.599 138.314 172.258 140.836C173.745 143.117 181.157 145.366 183.807 145.953C183.666 140.168 183.849 134.38 184.354 128.616C183.67 125.692 182.138 108.026 181.538 101.497C181.534 101.421 181.551 101.345 181.588 101.279C181.624 101.212 181.679 101.157 181.746 101.12L186.147 98.6546C185.892 96.2071 185.771 93.7475 185.785 91.2868C174.476 94.5825 161.782 102.692 160.661 102.829C159.035 103.012 145.913 95.1126 143.371 95.0239C142.24 94.9742 137.935 99.6792 137.509 100.894C143.154 107.156 152.733 115.142 157.054 117.792C158.43 118.503 159.965 118.85 161.513 118.8Z" fill="#0B1F33"/>
<path d="M198.729 75.0116C198.734 74.9426 198.753 74.8753 198.784 74.8136C198.815 74.7518 198.858 74.6968 198.911 74.6517C198.963 74.6066 199.024 74.5723 199.09 74.5507C199.156 74.5291 199.225 74.5207 199.294 74.5259C199.363 74.5312 199.43 74.5499 199.492 74.5812C199.554 74.6124 199.609 74.6555 199.654 74.708C199.699 74.7605 199.733 74.8213 199.755 74.8871C199.776 74.9528 199.785 75.0222 199.78 75.0912C199.69 76.1433 199.675 76.3846 199.222 76.4356C199.137 76.4455 199.05 76.434 198.97 76.402C198.89 76.37 198.82 76.3185 198.765 76.2523C198.71 76.1861 198.672 76.1072 198.655 76.0227C198.638 75.9383 198.643 75.851 198.668 75.7687C198.68 75.6006 198.718 75.1066 198.729 75.0116ZM196.348 82.1778C195.701 82.4487 195.027 82.2016 195.029 82.0346C195.031 81.8677 195.02 81.9523 195.887 81.5108C196.468 81.216 197.047 80.3381 197.297 80.4349C197.548 80.5317 197.262 81.2308 197.194 81.3635C197.011 81.7223 196.713 82.0092 196.348 82.1778Z" fill="#0B1F33"/>
<path d="M193.24 74.0458C193.25 74.1384 193.201 74.2585 193.114 74.8727C193.088 75.0067 193.012 75.1255 192.9 75.2041C192.789 75.2827 192.651 75.3151 192.516 75.2944C192.381 75.2709 192.26 75.1947 192.181 75.0825C192.102 74.9702 192.071 74.8312 192.094 74.6959C192.152 74.283 192.206 73.933 192.249 73.7614C192.297 73.6417 192.387 73.5438 192.502 73.4869C192.618 73.43 192.75 73.4182 192.874 73.4537C192.998 73.4892 193.104 73.5695 193.171 73.679C193.239 73.7885 193.264 73.9192 193.24 74.0458Z" fill="#0B1F33"/>
<path d="M257 77.0066L257 79L255 78.0193C255.205 77.6842 255.501 77.412 255.855 77.233C256.207 77.054 256.604 76.9756 257 77.0066Z" fill="#FFE8BB"/>
<path d="M235.002 68L237 69.0632C236.61 70.3587 235 69.9331 235 69.9331L235.002 68Z" fill="#FFE8BB"/>
<path d="M256.498 108C257.352 108 258.198 108.168 258.987 108.493C259.775 108.818 260.492 109.295 261.096 109.895C261.699 110.497 262.178 111.21 262.505 111.995C262.831 112.78 262.999 113.621 262.999 114.471C263 114.492 263 114.513 262.999 114.533C262.999 116.249 262.314 117.893 261.095 119.106C259.877 120.319 258.224 121 256.5 121C254.776 121 253.123 120.319 251.904 119.106C250.686 117.893 250.001 116.249 250.001 114.533C250 114.513 250 114.492 250.001 114.471C250.001 112.756 250.685 111.11 251.904 109.897C253.122 108.683 254.775 108.001 256.498 108Z" stroke="#0B1F33" stroke-width="0.698" stroke-linecap="round" stroke-linejoin="round"/>
<path d="M256 104L256 107.973L256 114.301L256 120.506L256 124" stroke="#0B1F33" stroke-width="0.698" stroke-linecap="round" stroke-linejoin="round"/>
<path d="M266 115L262.262 115L256 115L249.739 115L246 115" stroke="#0B1F33" stroke-width="0.698" stroke-linecap="round" stroke-linejoin="round"/>
<path d="M235 70.0897L235 74.2051L245.043 73.0224L257 71.6131L257 76.8585L257 79L254.887 77.9428L245.043 73.0224L237.299 69.1493L235 68L235 70.0897Z" stroke="#0B1F33" stroke-width="0.698" stroke-linecap="round" stroke-linejoin="round"/>
<path d="M235 69.9286C235 69.9286 236.61 70.3829 237 69" stroke="#0B1F33" stroke-width="0.698" stroke-linecap="round" stroke-linejoin="round"/>
<path d="M255 78C255.206 77.671 255.502 77.4031 255.855 77.2278C256.208 77.0524 256.605 76.976 257 77.0066" stroke="#0B1F33" stroke-width="0.698" stroke-linecap="round" stroke-linejoin="round"/>
<path d="M146.57 136.588L139.832 138.486L138.943 135.327L137.664 130.785L141.639 129.666L144.402 128.888L146.57 136.588Z" stroke="#0B1F33" stroke-width="0.698" stroke-linecap="round" stroke-linejoin="round"/>
<path d="M142.598 133.551L138.055 134.83L134.897 135.719L133 128.981L140.701 126.813L141.479 129.577L142.598 133.551Z" stroke="#0B1F33" stroke-width="0.698" stroke-linecap="round" stroke-linejoin="round"/>
<path d="M133 128.981L137.663 130.785" stroke="#0B1F33" stroke-width="0.698" stroke-linecap="round" stroke-linejoin="round"/>
<path d="M140.703 126.813L144.404 128.888" stroke="#0B1F33" stroke-width="0.698" stroke-linecap="round" stroke-linejoin="round"/>
<path d="M142.594 133.552L146.566 136.589" stroke="#0B1F33" stroke-width="0.698" stroke-linecap="round" stroke-linejoin="round"/>
<path d="M134.898 135.72L139.833 138.486" stroke="#0B1F33" stroke-width="0.698" stroke-linecap="round" stroke-linejoin="round"/>
<path d="M149.936 158.513C149.936 158.513 148.811 159.258 148.939 160.042C149.066 160.825 150.193 160.549 150.585 159.986C150.474 159.457 150.281 158.949 150.013 158.475C149.919 158.312 149.803 158.16 149.668 158.023C149.011 157.37 148.254 157.672 148.103 158.264" stroke="#0B1F33" stroke-width="0.698" stroke-linecap="round" stroke-linejoin="round"/>
<path d="M146.8 68.5862C146.8 68.5862 145.672 69.326 145.798 70.1125C145.923 70.899 147.05 70.6249 147.444 70.0628C147.334 69.5333 147.145 69.0236 146.878 68.548C146.784 68.3856 146.67 68.2345 146.535 68.0983C145.88 67.4406 145.122 67.7429 144.968 68.3328" stroke="#0B1F33" stroke-width="0.698" stroke-linecap="round" stroke-linejoin="round"/>
<path d="M152.117 157.86L154.059 157.381" stroke="#0B1F33" stroke-width="0.698" stroke-linecap="round" stroke-linejoin="round"/>
<path d="M152.359 158.831L154.301 158.352" stroke="#0B1F33" stroke-width="0.698" stroke-linecap="round" stroke-linejoin="round"/>
<path d="M154.936 156.733C154.817 155.889 157.351 155.248 157.214 156.793C157.119 157.845 155.566 159.07 155.566 159.07L158.429 158.363" stroke="#0B1F33" stroke-width="0.698" stroke-linecap="round" stroke-linejoin="round"/>
<path d="M138.199 70.1328C138.058 69.2985 139.751 68.8672 139.764 70.3727C139.778 71.4006 138.804 72.4775 138.804 72.4775L140.715 72.0129" stroke="#0B1F33" stroke-width="0.698" stroke-linecap="round" stroke-linejoin="round"/>
<path d="M132.091 70.392C132.015 69.8298 133.708 69.407 133.61 70.438C133.545 71.1358 132.509 71.9511 132.509 71.9511L134.416 71.4875" stroke="#0B1F33" stroke-width="0.698" stroke-linecap="round" stroke-linejoin="round"/>
<path d="M159.247 157.528C160.916 158.368 162.837 157.104 161.826 156.08C160.815 155.055 159.102 156.39 159.247 157.528Z" stroke="#0B1F33" stroke-width="0.698" stroke-linecap="round" stroke-linejoin="round"/>
<path d="M159.408 154C159.145 154.886 158.566 156.833 159.672 158.055" stroke="#0B1F33" stroke-width="0.698" stroke-linecap="round" stroke-linejoin="round"/>
<path d="M194 81L194 82.0004L194 83" stroke="#0B1F33" stroke-width="0.698" stroke-linecap="round" stroke-linejoin="round"/>
<path d="M141.219 69.834L142.227 69.5888L143.162 69.3615" stroke="#0B1F33" stroke-width="0.698" stroke-linecap="round" stroke-linejoin="round"/>
<path d="M136.391 68.9485C135.518 69.4161 135.11 71.1081 135.658 72.0958C135.845 72.5282 136.163 72.9027 136.58 73.1827C136.997 73.4627 137.5 73.6387 138.039 73.6936" stroke="#0B1F33" stroke-width="0.698" stroke-linecap="round" stroke-linejoin="round"/>
<path d="M147.035 66.3596C148.026 66.3741 149.167 67.69 149.133 68.8194C149.165 69.2891 149.054 69.7674 148.812 70.2075C148.57 70.6474 148.204 71.0346 147.752 71.3311" stroke="#0B1F33" stroke-width="0.698" stroke-linecap="round" stroke-linejoin="round"/>
</g>
</g>
<rect x="228.547" y="146.662" width="125" height="41" rx="5.5" transform="rotate(-5.62713 228.547 146.662)" fill="white"/>
<rect x="228.547" y="146.662" width="125" height="41" rx="5.5" transform="rotate(-5.62713 228.547 146.662)" stroke="#0B1F33"/>
<path d="M248.285 168.906C247.006 167.837 246.278 166.394 246.099 164.578C245.92 162.762 246.353 161.21 247.399 159.923C248.456 158.623 249.875 157.885 251.657 157.71C253.439 157.534 254.969 157.981 256.248 159.051C257.536 160.109 258.27 161.545 258.449 163.361C258.628 165.177 258.189 166.735 257.133 168.035C256.087 169.322 254.673 170.054 252.891 170.229C251.108 170.405 249.573 169.964 248.285 168.906ZM248.581 160.814C247.8 161.791 247.48 162.996 247.621 164.428C247.762 165.86 248.311 166.979 249.267 167.785C250.224 168.59 251.384 168.926 252.749 168.791C254.114 168.657 255.186 168.101 255.967 167.125C256.748 166.148 257.067 164.944 256.926 163.511C256.785 162.079 256.236 160.96 255.28 160.154C254.324 159.349 253.163 159.013 251.799 159.148C250.434 159.282 249.361 159.838 248.581 160.814ZM259.687 164.606C259.436 162.057 259.722 160.161 260.545 158.918C261.367 157.676 262.704 156.963 264.553 156.781L266.584 156.581L266.725 158.019L264.695 158.219C263.353 158.351 262.38 158.766 261.777 159.463C261.184 160.148 260.877 161.197 260.857 162.611L260.874 162.61C261.019 162.345 261.222 162.097 261.484 161.866C262.071 161.353 262.805 161.053 263.685 160.966C264.835 160.853 265.82 161.137 266.639 161.82C267.468 162.49 267.939 163.4 268.052 164.55C268.167 165.712 267.871 166.703 267.166 167.524C266.473 168.344 265.517 168.814 264.299 168.934C263.047 169.058 262.002 168.739 261.164 167.979C260.326 167.219 259.834 166.094 259.687 164.606ZM261.721 163.227C261.242 163.798 261.04 164.467 261.116 165.234C261.191 166.001 261.52 166.617 262.101 167.084C262.682 167.551 263.373 167.744 264.174 167.665C264.975 167.587 265.615 167.262 266.093 166.691C266.572 166.12 266.774 165.451 266.699 164.684C266.623 163.917 266.295 163.3 265.713 162.833C265.132 162.367 264.441 162.173 263.64 162.252C262.84 162.331 262.2 162.656 261.721 163.227ZM267.846 159.873L269.284 159.731L271.854 166.738L273.122 166.613L274.613 159.206L276.051 159.064L273.649 171.088L272.211 171.23L272.909 167.915L270.964 168.107L267.846 159.873ZM276.942 162.052L276.642 159.006L277.995 158.873L278.287 161.834C278.342 162.398 278.549 162.821 278.907 163.105C279.276 163.376 279.776 163.481 280.407 163.418C281.073 163.353 281.65 163.199 282.138 162.957C282.367 162.855 282.561 162.734 282.717 162.593L282.309 158.448L283.663 158.314L284.496 166.774L283.143 166.907L282.834 163.777C282.623 163.946 282.425 164.079 282.242 164.177C281.767 164.452 281.17 164.624 280.448 164.695C279.433 164.795 278.617 164.608 278.001 164.134C277.385 163.659 277.032 162.965 276.942 162.052ZM287.097 165.424C286.224 164.656 285.726 163.646 285.603 162.394C285.479 161.142 285.771 160.06 286.478 159.147C287.185 158.224 288.102 157.706 289.229 157.595C289.94 157.525 290.551 157.602 291.063 157.824C291.586 158.046 291.976 158.304 292.232 158.598L292.41 158.836L292.426 158.835L292.291 157.464L293.645 157.331L294.478 165.79L293.125 165.923L292.992 164.57L292.975 164.572L292.846 164.823C292.673 165.148 292.352 165.476 291.883 165.806C291.414 166.126 290.818 166.321 290.096 166.393C288.968 166.504 287.969 166.181 287.097 165.424ZM287.546 159.93C287.063 160.57 286.866 161.347 286.956 162.261C287.046 163.174 287.391 163.898 287.99 164.431C288.6 164.963 289.317 165.188 290.14 165.107C290.964 165.026 291.617 164.665 292.101 164.026C292.596 163.385 292.798 162.607 292.708 161.694C292.618 160.78 292.268 160.057 291.657 159.525C291.058 158.992 290.347 158.766 289.524 158.847C288.7 158.928 288.041 159.29 287.546 159.93ZM296.514 165.589L295.681 157.13L297.034 156.997L297.384 160.55L298.738 160.416C298.831 159.28 299.222 158.336 299.911 157.585C300.61 156.821 301.507 156.385 302.601 156.278C303.796 156.16 304.841 156.478 305.735 157.233C306.63 157.988 307.139 158.996 307.264 160.26C307.388 161.523 307.085 162.612 306.356 163.526C305.626 164.441 304.663 164.957 303.468 165.075C302.385 165.182 301.414 164.919 300.554 164.286C299.693 163.642 299.13 162.775 298.863 161.685L297.509 161.819L297.868 165.456L296.514 165.589ZM300.748 158.63C300.265 159.269 300.068 160.046 300.158 160.96C300.248 161.873 300.593 162.597 301.192 163.13C301.802 163.662 302.519 163.887 303.342 163.806C304.166 163.725 304.819 163.365 305.303 162.725C305.798 162.084 306 161.307 305.91 160.393C305.82 159.479 305.47 158.757 304.859 158.225C304.26 157.691 303.549 157.465 302.726 157.547C301.902 157.628 301.243 157.989 300.748 158.63ZM309.195 164.34L308.362 155.881L309.715 155.748L310.423 162.938L313.807 162.604L313.099 155.414L314.452 155.281L315.161 162.471L318.544 162.138L317.836 154.947L319.189 154.814L319.898 162.004L321.082 161.888L321.399 165.102L320.045 165.235L319.853 163.29L309.195 164.34ZM322.305 163.048L321.472 154.589L322.825 154.456L323.45 160.8L323.45 160.971L323.484 160.968L327.393 154.006L328.916 153.856L329.749 162.315L328.396 162.448L327.771 156.104L327.771 155.933L327.737 155.936L323.828 162.898L322.305 163.048ZM332.401 160.96C331.496 160.207 330.981 159.198 330.856 157.935C330.732 156.672 331.04 155.582 331.781 154.667C332.522 153.751 333.508 153.232 334.737 153.111C335.967 152.99 337.033 153.301 337.938 154.043C338.842 154.785 339.355 155.771 339.476 157L339.526 157.508L332.252 158.225C332.42 159.005 332.805 159.622 333.408 160.075C334.01 160.528 334.701 160.717 335.479 160.64C336.314 160.558 337.005 160.233 337.552 159.667C337.801 159.415 337.99 159.14 338.12 158.842L339.474 158.709C339.323 159.259 339.082 159.755 338.749 160.198C337.961 161.21 336.912 161.78 335.604 161.909C334.375 162.03 333.307 161.714 332.401 160.96ZM332.169 157.037L337.972 156.465C337.805 155.81 337.439 155.282 336.876 154.882C336.312 154.471 335.64 154.304 334.862 154.38C334.084 154.457 333.453 154.753 332.968 155.267C332.482 155.771 332.216 156.361 332.169 157.037Z" fill="#0B1F33"/>
<rect x="254.18" y="185.161" width="109" height="42" rx="6" transform="rotate(-11.1333 254.18 185.161)" fill="#0B1F33"/>
<path d="M275.555 207.452L273.914 199.112L278 198.308C278.779 198.155 279.429 198.229 279.95 198.531C280.471 198.832 280.792 199.289 280.913 199.9C280.967 200.178 280.979 200.442 280.947 200.691C280.913 200.928 280.853 201.125 280.768 201.28C280.681 201.425 280.58 201.554 280.464 201.669C280.357 201.771 280.262 201.848 280.18 201.899C280.106 201.936 280.053 201.958 280.019 201.965L280.023 201.981C280.056 201.975 280.126 201.978 280.233 201.992C280.337 201.995 280.477 202.031 280.652 202.1C280.837 202.156 281.014 202.237 281.185 202.342C281.356 202.447 281.517 202.617 281.667 202.853C281.829 203.087 281.94 203.36 282.001 203.671C282.143 204.394 282.008 205.027 281.595 205.57C281.194 206.111 280.548 206.47 279.658 206.645L275.555 207.452ZM275.921 202.269L278.59 201.744C279.424 201.58 279.77 201.136 279.627 200.413C279.485 199.69 278.997 199.411 278.163 199.575L275.494 200.1L275.921 202.269ZM276.643 205.939L279.395 205.397C279.885 205.301 280.235 205.116 280.447 204.843C280.659 204.571 280.727 204.24 280.65 203.85C280.574 203.461 280.386 203.181 280.086 203.009C279.787 202.836 279.392 202.799 278.903 202.895L276.151 203.437L276.643 205.939ZM284.492 204.584C283.518 203.921 282.909 202.967 282.664 201.722C282.419 200.476 282.621 199.362 283.271 198.379C283.921 197.397 284.852 196.786 286.064 196.548C287.276 196.309 288.368 196.516 289.339 197.168C290.311 197.82 290.916 198.752 291.154 199.964L291.253 200.464L284.08 201.876C284.322 202.637 284.765 203.214 285.409 203.607C286.052 204 286.757 204.121 287.525 203.97C288.347 203.808 289.004 203.419 289.495 202.803C289.718 202.528 289.88 202.236 289.981 201.928L291.316 201.665C291.218 202.227 291.026 202.744 290.738 203.217C290.05 204.299 289.061 204.968 287.771 205.221C286.559 205.46 285.466 205.248 284.492 204.584ZM283.884 200.702L289.605 199.576C289.376 198.94 288.962 198.449 288.363 198.105C287.762 197.75 287.077 197.648 286.31 197.799C285.543 197.95 284.943 198.305 284.51 198.863C284.075 199.411 283.866 200.024 283.884 200.702ZM292.103 199.517C291.609 197.004 291.711 195.09 292.411 193.774C293.111 192.458 294.372 191.621 296.196 191.262L298.198 190.868L298.477 192.286L296.475 192.68C295.152 192.94 294.223 193.446 293.69 194.198C293.165 194.936 292.961 196.011 293.077 197.42L293.093 197.417C293.212 197.139 293.391 196.873 293.629 196.618C294.164 196.051 294.866 195.682 295.733 195.511C296.867 195.288 297.875 195.477 298.755 196.077C299.645 196.665 300.201 197.525 300.424 198.66C300.65 199.805 300.451 200.82 299.828 201.705C299.216 202.588 298.31 203.147 297.109 203.384C295.875 203.627 294.804 203.41 293.897 202.734C292.99 202.057 292.392 200.985 292.103 199.517ZM293.995 197.95C293.573 198.564 293.437 199.249 293.585 200.005C293.734 200.762 294.12 201.344 294.744 201.753C295.367 202.161 296.073 202.288 296.863 202.133C297.652 201.977 298.258 201.592 298.68 200.978C299.102 200.364 299.239 199.678 299.09 198.922C298.941 198.166 298.555 197.584 297.932 197.175C297.308 196.766 296.602 196.64 295.812 196.795C295.023 196.95 294.417 197.335 293.995 197.95ZM302.49 202.151L300.849 193.811L302.183 193.549L303.414 199.804L303.43 199.974L303.464 199.967L306.687 192.662L308.188 192.367L309.829 200.707L308.495 200.97L307.264 194.715L307.248 194.545L307.214 194.551L303.991 201.856L302.49 202.151ZM311.832 200.313L310.191 191.973L311.525 191.71L312.198 195.13L316.869 194.211L316.196 190.791L317.53 190.529L319.171 198.869L317.837 199.131L317.115 195.462L312.444 196.381L313.167 200.05L311.832 200.313ZM321.631 197.276C320.689 196.595 320.096 195.637 319.853 194.403C319.61 193.169 319.797 192.063 320.414 191.087C321.028 190.1 321.891 189.497 323.003 189.278C323.704 189.14 324.319 189.158 324.85 189.331C325.392 189.501 325.804 189.72 326.088 189.988L326.287 190.209L326.304 190.205L326.038 188.854L327.373 188.592L329.014 196.932L327.68 197.194L327.417 195.86L327.4 195.863L327.296 196.126C327.155 196.466 326.867 196.823 326.433 197.197C325.996 197.56 325.422 197.812 324.71 197.952C323.598 198.171 322.572 197.945 321.631 197.276ZM321.552 191.764C321.132 192.448 321.01 193.24 321.188 194.14C321.365 195.041 321.777 195.728 322.425 196.201C323.084 196.672 323.819 196.828 324.631 196.668C325.442 196.508 326.058 196.087 326.478 195.403C326.909 194.718 327.036 193.925 326.859 193.024C326.682 192.123 326.264 191.438 325.605 190.967C324.957 190.493 324.228 190.337 323.416 190.496C322.604 190.656 321.983 191.079 321.552 191.764ZM331.645 199.706L329.38 188.196L330.715 187.934L330.977 189.268L330.994 189.265L331.111 188.982C331.244 188.656 331.528 188.311 331.965 187.948C332.399 187.573 332.972 187.316 333.684 187.176C334.796 186.957 335.823 187.188 336.766 187.869C337.706 188.539 338.298 189.491 338.541 190.725C338.784 191.96 338.598 193.07 337.984 194.057C337.367 195.034 336.503 195.631 335.391 195.85C334.679 195.99 334.047 195.976 333.494 195.807C332.95 195.626 332.56 195.402 332.323 195.137L332.11 194.936L332.093 194.94L332.979 199.443L331.645 199.706ZM331.899 189.728C331.479 190.411 331.358 191.203 331.535 192.104C331.712 193.005 332.125 193.692 332.772 194.165C333.431 194.636 334.166 194.791 334.978 194.632C335.79 194.472 336.406 194.05 336.826 193.367C337.257 192.682 337.384 191.889 337.206 190.988C337.029 190.087 336.611 189.401 335.952 188.93C335.305 188.457 334.575 188.3 333.763 188.46C332.952 188.62 332.33 189.042 331.899 189.728ZM348.458 193.105L346.817 184.765L348.151 184.502L349.792 192.842L348.458 193.105ZM340.868 194.599L339.227 186.259L340.562 185.996L341.12 188.832L343.121 188.438C344.055 188.254 344.87 188.371 345.564 188.789C346.256 189.195 346.679 189.788 346.832 190.566C346.985 191.345 346.82 192.059 346.335 192.708C345.849 193.347 345.139 193.758 344.205 193.942L340.868 194.599ZM341.957 193.085L343.958 192.691C344.537 192.577 344.96 192.35 345.227 192.008C345.495 191.667 345.585 191.274 345.498 190.829C345.41 190.384 345.178 190.054 344.801 189.84C344.423 189.625 343.946 189.575 343.367 189.689L341.366 190.083L341.957 193.085Z" fill="white"/>
<path d="M297.102 75.0002C297.102 75.0002 288.672 72.6485 288.62 71.8923C288.567 71.136 295.939 67.9544 295.893 67.3004C295.848 66.6463 288.021 63.267 287.951 62.2655C287.882 61.264 293.549 59.6999 293.542 59.0022C293.534 58.3044 287.355 53.6811 287.292 52.7614C287.228 51.8416 293.338 48.1314 293.338 48.1314" stroke="#2554E7" stroke-width="2" stroke-linecap="round"/>
</g>
<defs>
<clipPath id="clip0_5876_30949">
<rect width="390" height="250" fill="white"/>
</clipPath>
<clipPath id="clip1_5876_30949">
<rect width="178.612" height="177.561" fill="white" transform="matrix(-0.998255 0.0590442 0.0590442 0.998255 278.703 31.3555)"/>
</clipPath>
<clipPath id="clip2_5876_30949">
<rect width="153.913" height="104.79" fill="white" transform="matrix(-0.993712 0.111965 0.111965 0.993712 262.023 50.2422)"/>
</clipPath>
</defs>
</svg>
