<svg width="390" height="250" viewBox="0 0 390 250" fill="none" xmlns="http://www.w3.org/2000/svg">
<g clip-path="url(#clip0_5876_31371)">
<path d="M0 16C0 7.16345 7.16344 0 16 0H374C382.837 0 390 7.16344 390 16V250H0V16Z" fill="white"/>
<path d="M267.247 43.7506C250.28 55.3198 240.414 66.2407 230.089 84.8094C218.223 106.049 211.458 126.673 208.74 150.227C207.504 160.591 206.422 169.66 206.079 170.254C205.971 170.784 200.053 168.357 192.823 164.776C172.319 154.718 147.428 156.371 136.409 168.605C124.299 182.384 118.012 210.406 119.565 243.35C120.047 254.508 119.592 265.917 118.456 268.228C117.382 270.773 105.072 286.613 91.2487 303.36C65.1612 335.182 57.2637 347.833 59.3331 355.556C60.838 361.172 65.7526 359.855 75.8862 350.869C80.1109 346.978 92.1044 340.253 102.493 335.964C112.711 331.972 129.385 323.993 139.694 318.472C173.243 300.453 179.779 297.698 184.338 299.737C186.649 300.873 195.522 307.777 204.052 315.273C229.58 337.529 254.514 345.396 278.447 339.234C298.105 333.967 312.551 315.799 318.324 288.668L320.467 279.816L330.105 286.765C347.662 299.869 374.865 313.399 388.899 316.16C406.882 319.619 425.324 315.43 435.036 305.804C446.072 294.57 449.292 272.888 443.564 246.832L439.091 225.456L446.722 224.917C514.043 219.67 562.238 195.469 581.981 156.819C588.521 143.779 591.712 123.861 588.827 113.096C586.131 103.033 573.517 86.8486 562.287 79.5737C533.219 60.0221 490.246 66.2694 434.069 98.1275C421.842 104.915 410.533 110.454 408.707 110.191C406.943 110.161 402.985 101.942 398.349 88.3848C386.728 54.3762 377.897 42.9471 355.116 33.7508C328.072 22.6868 291.526 26.7102 267.247 43.7506Z" fill="#FAFAFA"/>
<path d="M176.422 92.5958H176.432C176.576 92.6096 176.721 92.6041 176.865 92.611V92.4897C176.72 92.5351 176.572 92.5705 176.422 92.5958Z" fill="#D1A9FF"/>
<path d="M211.83 80.7944C211.621 77.7585 211.054 74.758 210.14 71.8552C209.498 69.5574 208.559 67.3529 207.347 65.2975C207.144 64.9721 206.921 64.6602 206.678 64.3636C206.132 63.6124 205.378 63.0377 204.51 62.7107C203.55 62.4946 202.566 62.4062 201.583 62.4476C199.42 62.376 197.258 62.2718 195.097 62.135C190.747 61.8595 186.408 61.4527 182.08 60.9146C179.619 60.6079 177.164 60.2581 174.715 59.865C174.64 59.8554 174.564 59.8624 174.492 59.8857C175.429 59.9103 176.32 60.3015 176.971 60.9752L176.989 60.9972C177.801 62.1205 178.336 63.4198 178.55 64.7892C179.298 68.0381 179.828 71.3332 180.138 74.6527C180.309 76.3055 180.447 77.9694 180.576 79.6305C180.69 81.0974 180.825 82.5671 180.834 84.0382C180.849 86.6442 180.42 89.5477 178.492 91.476C178.038 91.9393 177.479 92.2865 176.863 92.4884V92.6096C177.089 92.6193 177.313 92.6372 177.538 92.6331C178.748 92.6052 179.947 92.3882 181.09 91.9898C184.114 90.9319 186.613 88.7455 188.062 85.888C189.458 82.9698 190.165 79.7701 190.128 76.5355C189.971 75.2278 190.281 73.9066 191.004 72.8056C191.188 72.5827 191.423 72.4082 191.69 72.2972C191.956 72.1863 192.246 72.1423 192.533 72.1692C192.909 72.2372 193.265 72.3852 193.578 72.6031C193.892 72.8211 194.154 73.1039 194.349 73.4323C195.782 75.6646 196.593 78.2389 196.698 80.8895C196.902 79.5001 196.945 78.0918 196.826 76.6926C196.696 75.2298 195.897 73.1348 197.08 71.9006C198.263 70.6665 199.99 71.6252 200.945 72.6238C201.522 73.2782 202.006 74.0097 202.382 74.7973C202.819 75.6328 203.2 76.497 203.521 77.384C203.552 77.4735 203.576 77.5644 203.607 77.6595L203.457 74.8896C203.297 74.0126 203.482 73.1078 203.972 72.3634C204.661 71.5907 205.611 72.0136 206.251 72.6031C206.814 73.1418 207.334 73.7234 207.807 74.3427C209.797 76.9711 210.913 80.1571 210.998 83.4528C211.007 83.8343 210.998 84.2158 210.982 84.5974C210.932 85.669 210.792 86.742 210.649 87.7998C210.547 88.5367 210.431 89.2715 210.299 90.0036C210.436 89.7516 210.56 89.4954 210.673 89.2337C211.713 86.5496 212.109 83.6593 211.83 80.7944Z" fill="#2554E7"/>
<path d="M171.64 76.1638L171.662 76.212C171.681 76.2492 171.691 76.2897 171.694 76.3311C171.696 76.3725 171.691 76.414 171.677 76.4531C171.664 76.4923 171.642 76.5284 171.615 76.5594C171.587 76.5903 171.554 76.6155 171.516 76.6335C171.499 76.6418 171.482 76.6487 171.464 76.6541C171.408 76.691 171.343 76.7132 171.277 76.7189C170.599 76.7726 169.92 76.807 169.242 76.8332C169.271 77.5577 169.324 78.2817 169.403 79.0053C169.522 80.1072 169.688 81.2174 169.901 82.311C170.103 81.9391 170.304 81.5673 170.5 81.1967C171.102 80.0498 171.709 78.9043 172.321 77.7602C172.321 77.7519 172.332 77.7491 172.336 77.7423L172.35 77.7257C172.39 77.6611 172.451 77.6118 172.522 77.5856C172.594 77.5594 172.672 77.5579 172.745 77.5811C172.8 77.5896 172.852 77.61 172.898 77.641C172.945 77.6719 172.983 77.7126 173.012 77.7602C174.571 80.1403 176.114 82.5314 177.708 84.8881C177.742 84.9492 177.76 85.0182 177.76 85.0882C177.759 85.1583 177.741 85.2271 177.706 85.2879C177.671 85.3487 177.621 85.3994 177.561 85.4351C177.5 85.4708 177.432 85.4902 177.362 85.4914L176.293 85.5383L170.759 85.7862C171.13 87.2794 171.784 88.6874 172.687 89.9335C173.403 90.923 174.467 91.6053 175.665 91.8439C176.3 91.8349 176.92 91.6499 177.457 91.3095C177.993 90.9691 178.425 90.4866 178.703 89.9156C179.871 87.6458 180.312 85.0715 179.967 82.5424C179.829 80.0879 179.617 77.6321 179.363 75.1831C179.325 75.234 179.277 75.276 179.221 75.3062C179.165 75.3364 179.103 75.3541 179.04 75.358C177.42 75.3718 175.803 75.5522 174.184 75.4214C174.078 75.4171 173.977 75.3717 173.903 75.2946C173.829 75.2176 173.787 75.1149 173.788 75.0081C173.789 74.9416 173.806 74.8764 173.839 74.8181C175.192 72.4765 176.546 70.1515 177.727 67.7204C177.758 67.6453 177.816 67.5843 177.89 67.5493C177.963 67.5142 178.047 67.5074 178.125 67.5303C178.189 67.5319 178.251 67.5509 178.304 67.5854C178.11 66.5565 177.888 65.5332 177.637 64.5166C177.485 63.2799 176.928 62.1283 176.053 61.2412C175.667 60.9349 175.203 60.7436 174.713 60.689C174.223 60.6344 173.728 60.7189 173.283 60.9326C172.94 61.2298 172.63 61.5637 172.359 61.9285C171.223 63.6695 170.475 65.6352 170.168 67.6915C169.869 69.1749 169.679 70.6735 169.508 72.1749C170.327 73.4154 171.028 74.729 171.604 76.099C171.619 76.119 171.631 76.1408 171.64 76.1638Z" fill="#0B1F33"/>
<path d="M169.409 78.9983C169.331 78.2756 169.278 77.5516 169.248 76.8262C168.981 76.8372 168.713 76.8468 168.445 76.8537C168.469 77.3854 168.505 77.9161 168.553 78.446C168.705 80.1163 168.96 81.7755 169.317 83.4142C169.51 83.0423 169.707 82.675 169.907 82.3123C169.695 81.2104 169.528 80.1057 169.409 78.9983Z" fill="white"/>
<path d="M171.666 76.2046L171.644 76.1564C171.637 76.1327 171.627 76.1101 171.614 76.0889C171.038 74.7204 170.336 73.4081 169.518 72.1689C169.297 71.8328 169.068 71.5013 168.829 71.1744C168.596 70.8549 168.365 70.5326 168.114 70.2226C168.038 70.147 167.935 70.1046 167.828 70.1046C167.721 70.1046 167.618 70.147 167.543 70.2226C167.52 70.2447 167.501 70.2697 167.486 70.297C166.296 72.2288 165.229 74.2341 164.293 76.301C164.267 76.3475 164.251 76.3986 164.244 76.4515C164.238 76.5044 164.242 76.558 164.257 76.6092C164.272 76.6604 164.296 76.7083 164.329 76.7499C164.363 76.7916 164.404 76.8263 164.45 76.852C164.508 76.8838 164.573 76.9013 164.639 76.903C165.908 76.903 167.176 76.8961 168.443 76.8603C168.711 76.852 168.979 76.8437 169.246 76.8327C169.924 76.8065 170.603 76.7721 171.281 76.7184C171.348 76.7128 171.412 76.6905 171.468 76.6537C171.549 76.6309 171.617 76.577 171.658 76.504C171.699 76.4309 171.71 76.3446 171.687 76.2639C171.682 76.2435 171.675 76.2237 171.666 76.2046ZM169.255 68.9127C169.233 68.8535 169.202 68.7984 169.179 68.7392C168.383 66.977 167.476 65.2666 166.465 63.6181C166.41 63.5269 166.322 63.4612 166.218 63.4353C166.115 63.4095 166.006 63.4257 165.914 63.4803C165.858 63.5146 165.811 63.5618 165.777 63.6181C164.956 65.4645 164.099 67.2945 163.206 69.107C163.173 69.1681 163.156 69.2368 163.156 69.3065C163.157 69.3762 163.176 69.4446 163.21 69.5051C163.245 69.5655 163.295 69.616 163.355 69.6517C163.414 69.6874 163.483 69.7071 163.552 69.7089C165.362 69.5711 167.179 69.6772 168.978 69.4058C169.011 69.3989 169.043 69.3868 169.073 69.37C169.145 69.343 169.204 69.2892 169.237 69.2199C169.264 69.174 169.28 69.122 169.283 69.0685C169.287 69.015 169.277 68.9616 169.255 68.9127ZM177.712 84.8822C176.118 82.5255 174.575 80.1343 173.016 77.7542C172.988 77.7066 172.949 77.6659 172.903 77.635C172.856 77.6041 172.804 77.5836 172.749 77.5751C172.676 77.5519 172.598 77.5535 172.527 77.5797C172.455 77.6058 172.394 77.6551 172.354 77.7198L172.34 77.7363C172.34 77.7363 172.329 77.7459 172.325 77.7542C171.713 78.8974 171.106 80.0429 170.504 81.1908C170.308 81.5613 170.107 81.9332 169.905 82.3051C169.702 82.677 169.509 83.042 169.315 83.407C168.979 84.0393 168.676 84.6889 168.409 85.3532C168.395 85.4042 168.391 85.4575 168.398 85.51C168.405 85.5624 168.422 85.613 168.448 85.6588C168.474 85.7047 168.51 85.7448 168.552 85.777C168.594 85.8092 168.642 85.8328 168.693 85.8463C168.726 85.8557 168.76 85.8604 168.795 85.8601L169.931 85.8105L170.757 85.7733L176.292 85.5254L177.361 85.4786C177.414 85.4777 177.466 85.4663 177.515 85.445C177.564 85.4237 177.608 85.3929 177.645 85.3545C177.682 85.3161 177.711 85.2708 177.73 85.2212C177.749 85.1715 177.758 85.1186 177.757 85.0653C177.757 85.0015 177.741 84.9387 177.712 84.8822ZM178.468 67.8067C178.461 67.76 178.444 67.7153 178.419 67.6755C178.393 67.6356 178.36 67.6015 178.321 67.5753C178.267 67.5406 178.204 67.5216 178.14 67.5202C178.062 67.4974 177.979 67.5042 177.905 67.5393C177.832 67.5744 177.774 67.6353 177.743 67.7103C176.563 70.1414 175.209 72.4719 173.855 74.808C173.805 74.9023 173.793 75.0123 173.823 75.1151C173.852 75.2178 173.92 75.3052 174.012 75.3589C174.07 75.3907 174.135 75.4082 174.201 75.4099C175.819 75.5407 177.436 75.3603 179.056 75.3465C179.119 75.3426 179.181 75.3249 179.237 75.2947C179.293 75.2645 179.342 75.2225 179.38 75.1716C179.407 75.1411 179.428 75.1053 179.441 75.0664C179.454 75.0276 179.459 74.9865 179.456 74.9457C179.147 72.5614 178.943 70.1662 178.468 67.8067Z" fill="#2554E7"/>
<path d="M157.447 41.8334C157.096 40.6943 156.318 39.7353 155.276 39.1579C154.233 38.5805 153.007 38.4296 151.856 38.7371C152.611 36.7636 152.843 34.6284 152.529 32.5388C152.328 31.6753 151.955 30.8611 151.433 30.1446C150.911 29.4281 150.25 28.824 149.489 28.3681C147.976 27.458 146.239 26.9846 144.473 27.0004C142.481 27.0567 140.531 27.5904 138.787 28.5568C136.721 29.712 134.782 31.0819 133.002 32.6435C132.642 31.9034 132.133 31.2447 131.509 30.708C130.885 30.1713 130.157 29.7678 129.371 29.5224C127.385 28.8984 125.238 29.0404 123.351 29.9204C121.264 30.92 119.361 32.2633 117.72 33.8942C116.237 35.2606 114.823 36.6976 113.476 38.2054C107.673 44.6943 102.828 52.668 101.639 61.4254C101.263 64.201 101.314 67.0177 101.791 69.7779C102.045 69.7277 102.303 69.6942 102.562 69.6773C102.917 69.6493 103.274 69.6557 103.628 69.6966C104.69 69.8769 105.707 70.2604 106.624 70.826C106.647 70.3605 106.68 69.8977 106.734 69.4349C107.466 63.9243 109.865 58.769 113.609 54.6597C117.192 50.4798 121.68 47.1696 126.731 44.9794C128.79 44.1486 130.936 43.5512 133.129 43.1984C135.414 42.7909 137.734 42.6156 140.054 42.675C142.117 42.6466 144.158 43.1013 146.014 44.0028C148.246 45.3897 150.123 47.2793 151.495 49.5206C152.046 50.3402 152.539 51.1928 153.01 52.0578C153.177 52.3608 153.343 52.6638 153.502 52.971C153.824 52.157 154.191 51.3608 154.582 50.5757C155.634 48.6895 156.52 46.7151 157.229 44.675C157.542 43.7618 157.617 42.7837 157.447 41.8334Z" fill="#0B1F33"/>
<path d="M117.465 89.4576C113.664 87.7602 110.583 84.7761 108.766 81.0308C108.687 81.1988 108.592 81.3586 108.5 81.5197C108.088 83.8212 107.767 86.1379 107.536 88.4645C107.398 89.8336 107.278 91.2041 107.158 92.5746C106.95 93.9423 107.056 95.3393 107.468 96.66C108.007 97.9356 108.86 99.0542 109.947 99.912C111.008 100.871 112.142 101.746 113.339 102.529C115.738 104.112 118.468 105.124 121.319 105.489C124.396 105.84 127.509 105.715 130.548 105.118C132.026 104.836 133.493 104.493 134.943 104.09C136.276 103.82 137.56 103.345 138.747 102.682C139.527 102.16 140.195 101.488 140.711 100.705C141.227 99.9211 141.581 99.0424 141.753 98.12L142.441 94.7798L143.667 88.8681C139.663 90.5564 135.384 91.5011 131.041 91.6559C126.409 91.9299 121.774 91.1793 117.465 89.4576Z" fill="white"/>
<path d="M106.317 95.3088C106.483 96.5734 106.968 97.7748 107.728 98.7991C108.658 99.9175 109.726 100.914 110.906 101.765C113.142 103.59 115.722 104.948 118.492 105.759C124.613 107.412 131.134 106.072 137.064 104.303C138.366 103.913 139.545 103.193 140.488 102.214C141.254 101.423 141.843 100.478 142.215 99.4409C142.51 98.4593 142.74 97.4595 142.904 96.4479L144.556 88.459C144.296 88.5789 144.037 88.7042 143.776 88.8171L143.656 88.864C143.248 90.8355 142.839 92.8061 142.43 94.7757L141.741 98.1159C141.57 99.0382 141.215 99.917 140.699 100.7C140.183 101.484 139.515 102.156 138.736 102.678C137.548 103.341 136.265 103.816 134.931 104.085C133.481 104.489 132.015 104.832 130.536 105.114C127.497 105.711 124.385 105.836 121.308 105.485C118.457 105.12 115.727 104.108 113.328 102.525C112.131 101.743 110.996 100.868 109.936 99.9079C108.849 99.0501 107.996 97.9315 107.457 96.6559C107.045 95.3352 106.939 93.9382 107.147 92.5705C107.267 91.1931 107.386 89.8295 107.524 88.4604C107.76 86.1326 108.075 83.8172 108.488 81.5156C108.19 82.0357 107.838 82.5225 107.436 82.9674C107.238 84.1728 107.067 85.3824 106.924 86.5954C106.762 87.9728 106.63 89.3502 106.51 90.7207C106.342 91.9773 106.255 93.2435 106.25 94.5113C106.258 94.6945 106.25 94.879 106.275 95.0622C106.282 95.1476 106.305 95.2289 106.317 95.3088Z" fill="#0B1F33"/>
<path d="M155.482 75.5956L155.446 75.5846C155.414 75.577 155.383 75.5655 155.354 75.5502C155.265 75.5097 155.196 75.4356 155.162 75.3442C155.127 75.2528 155.131 75.1516 155.171 75.0626C155.183 75.0069 155.209 74.9549 155.245 74.9111C155.896 73.8214 156.525 72.7193 157.132 71.6054C157.193 70.4221 157.171 69.236 157.066 68.0558H152.424C152.371 68.0551 152.318 68.0438 152.269 68.0227C152.22 68.0015 152.176 67.9708 152.139 67.9324C152.102 67.894 152.072 67.8486 152.053 67.7989C152.033 67.7491 152.024 67.696 152.025 67.6426C152.025 67.6091 152.03 67.5758 152.039 67.5434C152.778 65.622 153.67 63.7639 154.411 61.8438C154.434 61.7697 154.477 61.7038 154.537 61.6538C154.596 61.6038 154.669 61.5719 154.745 61.5617C154.822 61.5516 154.901 61.5637 154.971 61.5966C155.041 61.6295 155.1 61.6818 155.142 61.7474C155.61 62.5917 156.066 63.443 156.528 64.2901C156.515 64.2253 156.507 64.1592 156.493 64.0931C155.93 61.2388 155.068 58.4517 153.922 55.7778C152.872 53.2221 151.505 50.8088 149.853 48.5947C148.51 46.6434 146.64 45.1146 144.46 44.1871C142.451 43.5786 140.348 43.3369 138.252 43.4736C133.723 43.5507 129.264 44.6031 125.178 46.559C120.422 48.9843 116.26 52.4294 112.988 56.6483C109.584 60.8731 107.624 66.0773 107.394 71.4979C107.392 71.5511 107.381 71.6035 107.36 71.6523C107.338 71.701 107.307 71.745 107.269 71.7819C107.231 71.8187 107.185 71.8476 107.136 71.867C107.086 71.8863 107.033 71.8957 106.98 71.8946C106.913 71.893 106.848 71.8756 106.789 71.8436C105.735 71.1106 104.523 70.6363 103.252 70.4594C102.18 70.4061 101.116 70.6711 100.194 71.2211C96.3179 73.469 96.3111 78.6865 98.6499 82.0652C99.7876 83.7084 101.799 85.1698 103.884 84.5569C104.892 84.1991 105.794 83.5944 106.508 82.798C107.35 82.0152 107.976 81.0285 108.326 79.933C108.411 79.6259 108.913 79.5116 109.059 79.838C110.008 82.0043 111.367 83.9661 113.063 85.6147C114.917 87.3482 117.138 88.6419 119.56 89.3998C123.752 90.6964 128.158 91.1596 132.528 90.7634C136.737 90.4464 140.851 89.3532 144.663 87.539C146.586 86.6177 148.407 85.4958 150.094 84.1919C151.86 82.8772 153.41 81.2943 154.687 79.5005C155.477 78.3253 156.077 77.0337 156.467 75.6728C156.157 75.6535 155.847 75.6411 155.539 75.6122C155.519 75.6085 155.5 75.603 155.482 75.5956ZM104.023 77.816C103.207 77.8964 102.42 78.1571 101.717 78.5791C101.627 78.6227 101.523 78.6308 101.427 78.6015C101.33 78.5723 101.249 78.5079 101.198 78.4212C101.147 78.3345 101.13 78.2317 101.151 78.1334C101.173 78.0351 101.23 77.9483 101.312 77.8904C102.14 77.4016 103.066 77.1037 104.023 77.0185C104.537 76.9689 104.531 77.7705 104.023 77.8187V77.816ZM119.155 60.8273C117.275 61.475 115.721 62.8291 114.822 64.6027C114.586 65.0628 113.896 64.6564 114.133 64.1992C115.141 62.2444 116.87 60.7582 118.954 60.0546C119.432 59.8879 119.643 60.662 119.155 60.8273ZM120.835 70.4415C120.835 70.5478 120.793 70.6497 120.718 70.7249C120.643 70.8001 120.541 70.8423 120.435 70.8423C120.328 70.8423 120.226 70.8001 120.151 70.7249C120.076 70.6497 120.034 70.5478 120.034 70.4415V67.6605C120.034 67.5542 120.076 67.4523 120.151 67.3771C120.226 67.3019 120.328 67.2597 120.435 67.2597C120.541 67.2597 120.643 67.3019 120.718 67.3771C120.793 67.4523 120.835 67.5542 120.835 67.6605V70.4415ZM143.637 69.4332V69.4429C143.215 71.3408 142.531 73.1706 141.604 74.8794C140.815 76.4019 139.614 77.6721 138.138 78.5452C136.662 79.4183 134.971 79.8591 133.257 79.8173C129.698 79.5529 126.736 77.0254 124.601 74.3477C124.546 74.2909 124.509 74.2192 124.494 74.1416C124.479 74.0639 124.487 73.9836 124.518 73.9105C124.548 73.8374 124.599 73.7747 124.664 73.73C124.729 73.6853 124.806 73.6607 124.885 73.659C131.228 73.6802 137.471 72.0764 143.018 69.0007C143.06 68.9726 143.107 68.9538 143.156 68.9456C143.225 68.929 143.298 68.9331 143.365 68.9576C143.433 68.9821 143.491 69.0259 143.533 69.0834C143.608 69.183 143.642 69.3067 143.631 69.4305L143.637 69.4332ZM142.042 54.0699C141.587 54.3137 141.184 53.6222 141.638 53.3812C142.282 53.0302 142.991 52.8166 143.722 52.7541C144.452 52.6915 145.188 52.7812 145.882 53.0175C146.368 53.1842 146.157 53.9569 145.67 53.7889C145.078 53.5815 144.45 53.4997 143.826 53.5485C143.201 53.5974 142.593 53.7759 142.042 54.0726V54.0699ZM146.668 64.498C146.767 65.0022 145.995 65.217 145.896 64.7115C145.696 63.6941 145.496 62.6771 145.295 61.6606C145.196 61.1551 145.969 60.9416 146.068 61.4471L146.668 64.498ZM145.438 75.6976C145.097 76.086 144.532 75.5171 144.872 75.1315C145.597 74.2854 146.044 73.2367 146.152 72.1277C146.261 71.0188 146.025 69.9034 145.477 68.9332C145.433 68.8426 145.425 68.7389 145.454 68.6426C145.484 68.5464 145.548 68.4646 145.635 68.4136C145.721 68.3626 145.824 68.3461 145.923 68.3674C146.021 68.3886 146.108 68.446 146.166 68.5283C146.8 69.6525 147.07 70.9455 146.939 72.2295C146.808 73.5136 146.283 74.7256 145.436 75.6989L145.438 75.6976ZM148.692 77.0887C148.464 77.5515 147.773 77.1452 148.003 76.6852C148.692 75.2664 149.039 73.706 149.016 72.1291C148.993 70.5521 148.602 69.0024 147.872 67.6041C147.631 67.1481 148.324 66.7446 148.561 67.2005C149.357 68.7227 149.784 70.4111 149.807 72.129C149.83 73.8469 149.448 75.546 148.692 77.0887Z" fill="white"/>
<path d="M108.761 81.031C110.579 84.7769 113.661 87.761 117.463 89.4579C121.771 91.1776 126.404 91.9268 131.034 91.652C135.378 91.4972 139.656 90.5525 143.661 88.8642L143.781 88.8174C144.042 88.7044 144.301 88.5791 144.562 88.4593C148.392 86.7807 151.792 84.2555 154.506 81.0737C155.786 79.4953 156.732 77.6741 157.289 75.7198C157.013 75.7116 156.738 75.6895 156.462 75.673C156.073 77.034 155.472 78.3255 154.683 79.5008C153.406 81.2945 151.856 82.8774 150.089 84.1921C148.402 85.496 146.581 86.618 144.658 87.5392C140.847 89.3534 136.733 90.4467 132.523 90.7636C128.153 91.1598 123.748 90.6966 119.555 89.4C117.133 88.6421 114.912 87.3484 113.058 85.615C111.363 83.9663 110.003 82.0045 109.054 79.8382C108.908 79.5118 108.407 79.6261 108.321 79.9332C107.972 81.0287 107.345 82.0154 106.503 82.7982C105.789 83.5946 104.887 84.1993 103.879 84.5571C101.793 85.1701 99.7815 83.7087 98.6452 82.0654C96.3036 78.6867 96.3133 73.4692 100.189 71.2213C101.111 70.6713 102.175 70.4063 103.247 70.4596C104.52 70.6357 105.734 71.11 106.79 71.8439C106.884 71.8942 106.994 71.9063 107.096 71.8775C107.199 71.8488 107.286 71.7814 107.341 71.6896C107.374 71.6312 107.391 71.5653 107.392 71.4981C107.623 66.0775 109.584 60.8735 112.988 56.6485C116.259 52.4296 120.422 48.9846 125.178 46.5592C129.264 44.6033 133.723 43.5509 138.252 43.4738C140.347 43.3372 142.45 43.5788 144.46 44.1873C146.639 45.1148 148.51 46.6436 149.852 48.595C151.505 50.809 152.872 53.2223 153.921 55.778C155.07 58.4556 155.932 61.247 156.494 64.1057C156.508 64.1718 156.516 64.2434 156.528 64.3027C156.901 64.9904 157.283 65.6727 157.673 66.3495L157.632 66.0313C156.981 61.4819 155.588 57.0702 153.508 52.9723C153.349 52.6651 153.183 52.3621 153.016 52.0591C152.545 51.1938 152.039 50.3474 151.501 49.5219C150.129 47.2806 148.252 45.391 146.02 44.0041C144.165 43.1026 142.123 42.6479 140.06 42.6763C137.74 42.6169 135.42 42.7922 133.135 43.1997C130.942 43.5525 128.796 44.1499 126.737 44.9807C121.685 47.1705 117.198 50.4808 113.615 54.661C109.87 58.77 107.47 63.9253 106.737 69.4362C106.684 69.899 106.651 70.3618 106.627 70.8274C105.71 70.2617 104.693 69.8782 103.631 69.6979C103.277 69.6564 102.919 69.6495 102.562 69.6772C102.304 69.6942 102.048 69.7278 101.794 69.7778C101.356 69.8629 100.928 69.9931 100.517 70.1662C99.4881 70.6152 98.58 71.3013 97.8669 72.1683C97.1537 73.0354 96.6558 74.0588 96.4138 75.1551C95.9402 77.5622 96.4123 80.0593 97.732 82.1274C98.8945 83.9938 100.976 85.7293 103.31 85.48C104.63 85.2691 105.844 84.6314 106.766 83.6646C107 83.4442 107.225 83.2114 107.443 82.9759C107.844 82.531 108.197 82.0443 108.495 81.5241C108.584 81.3588 108.679 81.1991 108.761 81.031Z" fill="#0B1F33"/>
<path d="M157.131 71.6182C157.406 71.1251 157.681 70.6348 157.957 70.1472C157.951 69.453 157.917 68.7601 157.856 68.0687H157.064C157.169 69.2489 157.191 70.4349 157.131 71.6182ZM120.032 67.661V70.4419C120.032 70.5482 120.074 70.6502 120.149 70.7254C120.225 70.8005 120.327 70.8427 120.433 70.8427C120.539 70.8427 120.641 70.8005 120.716 70.7254C120.791 70.6502 120.834 70.5482 120.834 70.4419V67.661C120.834 67.5547 120.791 67.4527 120.716 67.3776C120.641 67.3024 120.539 67.2602 120.433 67.2602C120.327 67.2602 120.225 67.3024 120.149 67.3776C120.074 67.4527 120.032 67.5547 120.032 67.661ZM145.293 61.6611L145.894 64.712C145.993 65.2175 146.766 65.0026 146.667 64.4985C146.465 63.482 146.265 62.465 146.066 61.4476C145.967 60.9421 145.194 61.1501 145.293 61.6611ZM118.94 60.0551C116.856 60.7587 115.127 62.2449 114.119 64.1996C113.886 64.6569 114.576 65.0632 114.808 64.6032C115.707 62.829 117.262 61.4749 119.144 60.8278C119.641 60.6625 119.43 59.8884 118.94 60.0551ZM145.88 53.0152C145.186 52.7789 144.45 52.6892 143.72 52.7518C142.99 52.8144 142.28 53.0279 141.636 53.3789C141.182 53.6227 141.585 54.3141 142.04 54.0676C142.592 53.7708 143.199 53.5923 143.824 53.5435C144.449 53.4946 145.077 53.5765 145.668 53.7838C146.155 53.9546 146.362 53.1819 145.88 53.0152ZM143.537 69.0866C143.495 69.0291 143.436 68.9854 143.369 68.9609C143.302 68.9364 143.229 68.9322 143.16 68.9488C143.11 68.957 143.063 68.9758 143.022 69.0039C137.471 72.0829 131.223 73.6877 124.875 73.665C124.796 73.666 124.718 73.6903 124.653 73.7349C124.587 73.7794 124.536 73.8423 124.506 73.9157C124.475 73.989 124.467 74.0697 124.483 74.1475C124.498 74.2254 124.536 74.2971 124.591 74.3537C126.733 77.0313 129.687 79.5588 133.254 79.8233C134.968 79.865 136.659 79.4242 138.135 78.5512C139.611 77.6781 140.812 76.4079 141.6 74.8854C142.528 73.1766 143.212 71.3468 143.634 69.4488V69.4392C143.645 69.3154 143.61 69.1918 143.536 69.0921L143.537 69.0866ZM104.021 77.0093C103.064 77.0946 102.138 77.3924 101.311 77.8812C101.228 77.9391 101.171 78.0259 101.15 78.1242C101.128 78.2226 101.145 78.3253 101.196 78.412C101.247 78.4987 101.329 78.5631 101.425 78.5923C101.521 78.6216 101.625 78.6136 101.716 78.5699C102.419 78.1513 103.206 77.894 104.021 77.8165C104.53 77.7614 104.535 76.9597 104.021 77.0093ZM145.475 68.9323C146.023 69.9025 146.259 71.0179 146.151 72.1268C146.042 73.2358 145.595 74.2845 144.87 75.1306C144.53 75.5162 145.095 76.0851 145.437 75.6967C146.284 74.7233 146.809 73.5113 146.94 72.2272C147.071 70.9432 146.801 69.6502 146.167 68.526C146.109 68.4437 146.022 68.3863 145.923 68.3651C145.825 68.3438 145.722 68.3604 145.636 68.4113C145.549 68.4623 145.485 68.5441 145.455 68.6403C145.426 68.7366 145.434 68.8403 145.478 68.9309L145.475 68.9323ZM147.868 67.6045C148.597 69.0028 148.989 70.5526 149.011 72.1295C149.034 73.7065 148.687 75.2669 147.998 76.6856C147.771 77.1457 148.463 77.552 148.687 77.0892C149.443 75.5464 149.825 73.8473 149.803 72.1294C149.78 70.4116 149.353 68.7232 148.556 67.2009C148.319 66.745 147.627 67.1486 147.868 67.6045Z" fill="#0B1F33"/>
<path d="M158.325 67.4586C158.1 67.0922 157.884 66.7203 157.669 66.3484C157.279 65.6707 156.898 64.9884 156.526 64.3016C156.065 63.4545 155.609 62.6033 155.14 61.7589C155.099 61.6928 155.04 61.64 154.97 61.6067C154.899 61.5735 154.821 61.5612 154.744 61.5713C154.666 61.5815 154.594 61.6137 154.535 61.6641C154.475 61.7145 154.432 61.7809 154.409 61.8554C153.668 63.7754 152.777 65.6335 152.037 67.5536C152.023 67.6049 152.02 67.6584 152.027 67.711C152.034 67.7636 152.051 67.8143 152.078 67.8603C152.104 67.9062 152.14 67.9464 152.182 67.9787C152.224 68.0109 152.272 68.0345 152.324 68.0481C152.356 68.0561 152.389 68.0607 152.423 68.0619H157.978C158.086 68.0572 158.188 68.0101 158.262 67.9307C158.336 67.8513 158.376 67.7461 158.373 67.6376C158.371 67.5751 158.354 67.5139 158.325 67.4586ZM162.476 75.0066C161.454 73.1209 160.267 71.3293 158.93 69.6527C158.873 69.5615 158.782 69.4961 158.678 69.4704C158.574 69.4447 158.463 69.4607 158.37 69.515C158.314 69.5487 158.266 69.596 158.233 69.6527C158.138 69.8125 158.049 69.9778 157.957 70.1403C157.675 70.6279 157.4 71.1183 157.131 71.6114C156.515 72.7133 155.899 73.8276 155.244 74.9171C155.207 74.9609 155.182 75.0129 155.169 75.0686C155.129 75.1576 155.126 75.2589 155.16 75.3502C155.195 75.4416 155.264 75.5157 155.353 75.5562C155.382 75.5715 155.413 75.5831 155.445 75.5906C155.456 75.5956 155.468 75.5993 155.481 75.6017C155.498 75.6088 155.516 75.6143 155.534 75.6182C155.843 75.6471 156.153 75.6595 156.463 75.6788C156.738 75.6953 157.014 75.7174 157.289 75.7256C158.905 75.7793 160.527 75.7132 162.136 75.6154C162.243 75.6112 162.344 75.5657 162.418 75.4887C162.492 75.4117 162.533 75.309 162.533 75.2022C162.531 75.1333 162.511 75.0661 162.476 75.0066ZM161.474 86.0808C160.499 83.6725 159.265 81.3776 157.793 79.2366C157.763 79.1852 157.722 79.1418 157.671 79.1104C157.621 79.0789 157.563 79.0603 157.504 79.0561C157.425 79.0291 157.339 79.0335 157.264 79.0684C157.188 79.1033 157.129 79.166 157.099 79.2435C156.019 81.5657 154.519 83.6649 153.439 85.9927C153.413 86.0391 153.397 86.0903 153.391 86.1431C153.385 86.196 153.389 86.2495 153.404 86.3007C153.418 86.3518 153.443 86.3996 153.476 86.4413C153.509 86.483 153.55 86.5178 153.596 86.5436C153.654 86.5761 153.719 86.5937 153.785 86.5946H161.085C161.139 86.594 161.192 86.5829 161.241 86.5618C161.29 86.5406 161.334 86.51 161.371 86.4715C161.409 86.4331 161.438 86.3876 161.457 86.3378C161.477 86.288 161.486 86.2348 161.485 86.1814C161.484 86.1476 161.481 86.1139 161.474 86.0808Z" fill="#2554E7"/>
<path d="M187.516 127.366C185.025 128.695 182.606 130.154 180.269 131.738C179.841 132.022 180.242 132.716 180.673 132.427C184.187 129.967 187.955 127.892 191.912 126.237C192.1 126.164 192.284 126.084 192.474 126.014C192.758 125.909 193.044 125.814 193.331 125.718C196.66 124.665 200.088 123.957 203.561 123.605C206.379 123.263 209.208 122.995 212.029 122.697C212.536 122.643 212.541 121.842 212.029 121.895C207.428 122.38 202.783 122.722 198.234 123.603C196.851 123.87 195.483 124.213 194.137 124.631C193.685 124.77 193.236 124.917 192.79 125.074C190.979 125.712 189.217 126.477 187.516 127.366ZM232.228 120.08C236.184 120.071 239.98 118.515 242.805 115.745C244.018 114.386 244.935 112.789 245.5 111.057C246.064 109.324 246.263 107.494 246.083 105.681C245.863 103.232 245.21 100.842 244.155 98.6217C243.94 98.1534 243.25 98.5598 243.466 99.0253C245.23 102.519 245.733 106.515 244.891 110.336C244.453 111.953 243.669 113.455 242.594 114.739C241.519 116.024 240.178 117.059 238.663 117.774C236.642 118.705 234.453 119.215 232.228 119.273C231.715 119.3 231.712 120.102 232.228 120.08Z" fill="#0B1F33"/>
<path d="M194.138 145.474C192.105 145.666 190.074 145.885 188.047 146.129C188.026 146.134 188.005 146.141 187.985 146.15C187.927 146.156 187.872 146.175 187.823 146.206C187.773 146.237 187.732 146.278 187.701 146.328C185.722 149.326 185.116 153.198 184.825 156.709C184.719 157.989 184.665 159.272 184.664 160.556V161.137C184.678 163.393 184.927 165.642 185.408 167.846C185.551 168.51 185.744 169.162 185.984 169.797C186.059 170.085 186.187 170.356 186.361 170.597C186.575 170.733 186.818 170.817 187.07 170.844C187.333 170.915 187.598 170.981 187.861 171.061C189.701 171.574 191.532 172.119 193.371 172.665C193.456 172.498 193.536 172.33 193.623 172.165C193.654 172.114 193.698 172.072 193.749 172.042C193.8 172.012 193.858 171.994 193.917 171.991C193.969 171.977 194.022 171.974 194.074 171.981L195.786 172.425L206.782 175.272C205.534 173.152 205.136 170.637 205.671 168.235C205.92 167.065 206.458 165.611 207.83 165.466C208.271 165.439 208.712 165.527 209.108 165.724C209.504 165.921 209.841 166.218 210.085 166.586C209.944 161.57 210.477 156.558 211.668 151.683C212.142 149.878 213.045 146.862 214.765 145.418C215.202 145.04 215.729 144.781 216.296 144.666C208.9 144.423 201.496 144.692 194.138 145.474Z" fill="#2554E7"/>
<path d="M234.022 86.4704C231.841 84.2967 229.322 82.4909 226.563 81.1234C223.972 79.94 221.276 79.002 218.51 78.3218C216.737 77.8452 214.956 77.392 213.185 76.9044C213.084 76.8798 212.977 76.8956 212.887 76.9485C212.797 77.0014 212.731 77.0872 212.704 77.1878C212.676 77.2883 212.689 77.3957 212.739 77.4871C212.789 77.5785 212.873 77.6466 212.973 77.6772C218.569 79.2157 224.415 80.3341 229.314 83.6233C230.796 84.6326 232.182 85.775 233.456 87.0365C233.824 87.3974 234.391 86.8313 234.022 86.4704ZM248.341 91.4042L254.212 83.914C254.526 83.5131 253.962 82.9498 253.644 83.3479L247.775 90.8367C247.46 91.2389 248.023 91.8091 248.341 91.4042ZM260.944 92.013L250.944 93.3738C250.436 93.4441 250.652 94.2154 251.158 94.1466L261.158 92.7857C261.666 92.7155 261.45 91.9441 260.944 92.013ZM325.662 194.116C325.273 190.934 324.282 187.854 322.743 185.042C320.99 181.517 318.688 178.303 316.881 174.81C316.168 173.345 315.555 171.833 315.047 170.284C313.494 165.908 312.167 161.45 310.883 156.987C310.729 157.347 310.557 157.698 310.368 158.041C308.238 161.897 303.931 164.542 299.477 163.297C299.306 163.767 299.123 164.232 298.919 164.688C298.897 165.421 298.873 166.154 298.862 166.892C298.814 170.138 298.911 173.385 298.889 176.63C298.88 179.76 298.646 182.885 298.189 185.981C298.145 186.27 298.101 186.557 298.051 186.839C301.548 188.443 304.57 190.924 306.825 194.041C309.679 197.841 312.056 201.975 313.905 206.353C314.803 208.397 315.637 210.468 316.406 212.565C316.516 212.861 316.633 213.153 316.741 213.449C317.712 212.135 318.807 210.912 319.778 209.592C321.275 207.594 322.54 205.432 323.548 203.147C324.161 201.741 324.67 200.293 325.073 198.813C325.538 197.293 325.738 195.704 325.662 194.116ZM306.887 142.278C306.411 139.98 305.69 137.739 304.736 135.595C303.164 132.484 301.007 129.705 298.382 127.412C297.168 126.296 295.838 125.312 294.416 124.478C292.986 123.683 291.473 123.048 289.904 122.585C286.678 121.612 283.3 121.246 279.941 121.504C279.233 121.561 278.528 121.654 277.828 121.78C272.977 118.327 266.273 118.015 260.709 119.743C257.837 120.788 255.211 122.415 252.995 124.521C249.823 127.369 246.963 130.547 244.463 134C241.372 138.189 238.63 142.623 236.264 147.26C234.807 150.101 233.477 153.006 232.277 155.965C232.369 156.002 232.465 156.033 232.552 156.078C233.262 156.455 233.807 157.082 234.082 157.838C234.357 158.593 234.343 159.423 234.043 160.169C233.766 160.959 233.3 161.67 232.684 162.237C232.068 162.804 231.321 163.211 230.511 163.421C230.467 163.429 230.423 163.421 230.373 163.433C230.091 163.471 229.806 163.474 229.523 163.443C229.2 164.448 228.892 165.458 228.599 166.473C228.845 166.606 229.076 166.765 229.288 166.948C229.548 167.171 229.776 167.429 229.964 167.715C230.43 168.54 230.551 169.516 230.299 170.429C230.048 171.343 229.444 172.119 228.621 172.589C228.352 172.741 228.064 172.858 227.764 172.937C227.487 173.008 227.203 173.047 226.917 173.056C226.293 175.881 225.795 178.733 225.424 181.602C225.014 184.775 224.776 187.967 224.711 191.165C224.68 192.769 224.694 194.372 224.754 195.975C224.773 197.426 224.905 198.873 225.15 200.303C225.594 202.401 226.496 204.375 227.79 206.085C229.085 207.794 230.741 209.197 232.64 210.193C232.937 210.359 233.24 210.511 233.541 210.662C233.711 210.445 233.881 210.231 234.048 210.014C235.435 208.194 236.752 206.318 238.107 204.478C242.205 198.915 246.664 193.393 252.494 189.555C254.277 188.378 256.186 187.404 258.185 186.652C257.918 185.391 257.763 184.087 257.615 182.828C257.413 181.05 257.301 179.263 257.282 177.474C257.267 176.354 257.282 175.236 257.307 174.116C256.931 173.87 256.553 173.626 256.195 173.352C252.646 170.544 250.074 166.688 248.845 162.333C247.552 157.919 247.425 153.245 248.478 148.768C249.004 146.474 249.949 144.296 251.267 142.345C252.614 140.409 254.238 138.681 256.088 137.217C257.964 135.669 260.044 134.385 262.269 133.401C264.419 132.479 266.683 131.851 269.001 131.533C273.329 130.955 277.73 131.272 281.93 132.467C283.747 132.968 285.509 133.648 287.192 134.497C288.84 135.352 290.368 136.421 291.737 137.676C295.625 141.074 298.456 145.517 299.893 150.478C301.4 148.595 303.288 146.72 305.815 146.621C306.291 146.604 306.766 146.657 307.226 146.778C307.543 146.861 307.851 146.975 308.146 147.118C307.719 145.497 307.289 143.889 306.887 142.278ZM237.789 168.586C237.483 168.999 236.788 168.594 237.1 168.181C238.303 166.384 238.804 164.207 238.507 162.065C238.222 159.746 237.362 157.535 236.005 155.632C235.715 155.203 236.409 154.805 236.694 155.227C238.123 157.252 239.023 159.603 239.311 162.065C239.615 164.351 239.077 166.669 237.796 168.586H237.789ZM241.797 169.984C241.522 170.419 240.833 170.017 241.109 169.579C241.786 168.517 242.293 167.355 242.611 166.136C243.135 163.98 243.086 161.725 242.47 159.594C241.853 157.463 240.691 155.53 239.098 153.987C238.73 153.625 239.297 153.059 239.665 153.421C240.642 154.377 241.473 155.471 242.133 156.667C243.264 158.716 243.829 161.029 243.771 163.368C243.712 165.707 243.033 167.989 241.801 169.979L241.797 169.984ZM246.009 171.386C245.76 171.838 245.069 171.433 245.321 170.981C246.064 169.644 246.607 168.206 246.935 166.711C247.472 164.055 247.354 161.308 246.59 158.708C245.827 156.108 244.442 153.733 242.555 151.789C242.198 151.416 242.764 150.849 243.121 151.223C244.266 152.413 245.243 153.753 246.026 155.207C247.368 157.693 248.069 160.473 248.067 163.298C248.065 166.122 247.358 168.902 246.012 171.385L246.009 171.386ZM254.033 98.4357C253.531 98.3159 253.318 99.0886 253.819 99.2071L260.516 100.794C261.017 100.914 261.231 100.141 260.728 100.022L254.033 98.4357ZM219.856 153.042C219.354 152.517 219.044 151.839 218.973 151.116C218.902 150.394 219.076 149.668 219.466 149.056C219.518 148.961 219.581 148.876 219.639 148.781C219.44 148.177 219.191 147.59 218.895 147.027C218.692 146.626 218.434 146.255 218.128 145.925C218.023 145.807 217.901 145.705 217.766 145.621C217.664 145.542 217.544 145.49 217.416 145.468C215.942 145.139 214.82 146.327 214.098 147.557C213.142 149.344 212.47 151.268 212.105 153.261C211.604 155.618 211.266 158.007 211.094 160.411C211.174 160.389 211.258 160.393 211.335 160.424H211.35C211.366 160.427 211.381 160.432 211.396 160.437C212.14 160.881 212.767 161.498 213.224 162.235C213.681 162.972 213.954 163.808 214.02 164.673C214.119 165.575 213.892 166.483 213.379 167.232C212.866 167.981 212.102 168.521 211.225 168.754C211.176 168.764 211.125 168.764 211.076 168.754C211.319 169.684 211.673 170.581 212.13 171.426C212.403 171.977 212.805 172.454 213.301 172.817C213.797 173.18 214.373 173.419 214.981 173.513C215.673 173.499 216.35 173.313 216.951 172.971C217.553 172.63 218.059 172.143 218.424 171.556C219.167 170.472 219.704 169.262 220.01 167.984C220.519 165.275 220.788 162.527 220.813 159.771C220.819 159.682 220.854 159.597 220.911 159.529C220.968 159.461 221.046 159.413 221.132 159.392C221.125 157.477 220.991 155.565 220.729 153.669C220.41 153.502 220.116 153.291 219.856 153.042ZM218.579 161.546C218.169 161.913 217.673 162.171 217.137 162.296C216.601 162.421 216.043 162.409 215.513 162.262C215.012 162.107 214.548 161.853 214.147 161.515C213.747 161.177 213.418 160.763 213.181 160.296C212.707 159.146 212.595 157.879 212.861 156.665C212.96 156.002 213.228 155.377 213.641 154.849C214.054 154.322 214.596 153.91 215.215 153.655C216.056 153.34 216.972 153.282 217.846 153.488C218.333 153.635 218.785 153.879 219.175 154.205C219.565 154.531 219.885 154.933 220.116 155.387C220.59 156.436 220.696 157.616 220.417 158.733C220.138 159.851 219.49 160.842 218.579 161.546ZM244.829 94.9344C244.557 93.5909 243.791 92.3981 242.683 91.5915C241.6 90.7727 240.414 90.0999 239.155 89.5902C237.836 89.0851 236.625 88.3339 235.587 87.3767C235.509 87.3033 235.405 87.2639 235.298 87.2669C235.191 87.27 235.09 87.3155 235.016 87.3932C234.971 87.4427 234.938 87.5025 234.921 87.5676C234.903 87.6326 234.902 87.7009 234.917 87.7665C235.315 90.1131 236.009 92.3995 236.983 94.5708C237.72 96.1672 238.887 98.3145 240.778 98.7209C241.252 98.7758 241.732 98.7368 242.191 98.6062C242.649 98.4756 243.078 98.2559 243.452 97.9597C243.826 97.6635 244.137 97.2965 244.369 96.8798C244.602 96.463 244.749 96.0046 244.804 95.5308C244.826 95.3329 244.833 95.1334 244.823 94.9344H244.829ZM241.523 93.2444L242.592 94.0446C243.005 94.3504 242.6 95.0446 242.188 94.7333L241.124 93.9317C240.711 93.63 241.109 92.9345 241.52 93.243L241.523 93.2444ZM230.213 119.329C229.421 119.378 228.627 119.269 227.877 119.007C227.128 118.746 226.437 118.338 225.847 117.807C224.715 116.902 223.426 116.212 222.046 115.77C221.443 115.58 220.803 115.547 220.184 115.673C219.566 115.8 218.989 116.081 218.51 116.492C217.731 117.319 217.039 118.224 216.444 119.192C216.054 119.768 215.624 120.316 215.157 120.832C214.826 121.233 214.394 121.539 213.905 121.716C213.845 121.725 213.789 121.751 213.743 121.789C213.687 121.826 213.643 121.878 213.615 121.939C213.587 122 213.577 122.067 213.586 122.134V122.185C213.586 122.203 213.586 122.215 213.597 122.23C213.619 122.317 213.671 122.392 213.744 122.444L213.796 122.471C213.816 122.484 213.836 122.495 213.857 122.504C215.377 122.761 216.835 123.302 218.156 124.098C218.749 124.571 219.316 125.077 219.853 125.613C220.256 126.086 220.767 126.456 221.343 126.69C224.149 127.609 226.106 124.646 227.595 122.804C228.036 122.253 228.488 121.719 228.972 121.216C229.364 120.748 229.855 120.371 230.409 120.114C230.512 120.086 230.599 120.018 230.651 119.926C230.703 119.833 230.717 119.724 230.689 119.621C230.66 119.519 230.592 119.432 230.5 119.379C230.408 119.327 230.298 119.313 230.196 119.342L230.213 119.329ZM222.529 117.777C221.504 117.867 220.552 118.342 219.862 119.106C219.514 119.488 218.948 118.919 219.296 118.54C220.137 117.628 221.292 117.069 222.529 116.977C223.044 116.933 223.04 117.734 222.529 117.777ZM178.772 132.963C176.233 133.747 173.755 134.714 171.355 135.855C170.191 136.404 169.101 137.098 168.111 137.921C167.343 138.519 166.794 139.355 166.551 140.297C166.488 140.883 166.576 141.476 166.806 142.019C167.035 142.562 167.398 143.038 167.862 143.402C168.554 144.089 169.459 144.521 170.428 144.628C171.343 144.657 172.242 144.378 172.98 143.837C174.913 142.294 176.425 140.29 177.378 138.008C178.101 136.534 178.731 135.016 179.264 133.463C179.291 133.359 179.276 133.249 179.222 133.157C179.169 133.065 179.081 132.997 178.977 132.97C178.911 132.949 178.84 132.947 178.772 132.963ZM171.428 137.814C170.194 138.46 169.192 139.476 168.564 140.72C168.332 141.18 167.64 140.774 167.876 140.317C168.57 138.951 169.671 137.835 171.027 137.122C171.484 136.881 171.888 137.573 171.428 137.814Z" fill="#0B1F33"/>
<path d="M214.021 164.677C213.955 163.812 213.683 162.976 213.226 162.239C212.769 161.502 212.142 160.886 211.398 160.442C211.383 160.436 211.368 160.431 211.352 160.428H211.337C211.26 160.398 211.175 160.393 211.096 160.415L211.061 160.428C210.995 160.449 210.935 160.488 210.89 160.542C210.845 160.596 210.817 160.661 210.808 160.731V160.762C210.807 160.773 210.807 160.783 210.808 160.793L210.738 167.754C210.869 168.092 210.984 168.43 211.09 168.771C211.139 168.781 211.19 168.781 211.239 168.771C212.116 168.535 212.88 167.992 213.39 167.24C213.901 166.489 214.125 165.579 214.021 164.677ZM220.118 155.387C219.887 154.933 219.567 154.531 219.177 154.205C218.787 153.879 218.335 153.635 217.848 153.488C216.974 153.282 216.058 153.34 215.217 153.655C214.598 153.91 214.056 154.322 213.643 154.849C213.23 155.377 212.962 156.002 212.863 156.665C212.597 157.879 212.709 159.146 213.183 160.296C213.42 160.763 213.749 161.177 214.149 161.515C214.55 161.853 215.014 162.107 215.515 162.262C216.045 162.409 216.603 162.421 217.139 162.296C217.675 162.171 218.17 161.913 218.581 161.546C219.492 160.842 220.14 159.851 220.419 158.733C220.698 157.616 220.592 156.437 220.118 155.387ZM319.361 221.406C318.56 218.729 317.687 216.075 316.744 213.443C316.637 213.147 316.52 212.855 316.409 212.559C315.641 210.463 314.806 208.391 313.908 206.347C312.06 201.97 309.682 197.835 306.828 194.036C304.573 190.919 301.551 188.438 298.054 186.834C298.008 187.103 297.952 187.368 297.889 187.63C297.752 188.262 297.512 188.867 297.178 189.42C296.581 190.333 295.826 191.131 294.948 191.778C292.709 193.384 290.2 194.576 287.541 195.296C284.502 196.206 281.375 196.786 278.213 197.029C275.005 197.378 271.759 197.134 268.639 196.309C266.076 195.582 263.707 194.294 261.704 192.537C260.258 191.341 259.163 189.775 258.536 188.006C258.478 187.816 258.437 187.619 258.387 187.426C258.321 187.167 258.249 186.911 258.194 186.648C256.194 187.4 254.285 188.374 252.503 189.551C246.672 193.389 242.214 198.911 238.116 204.474C236.761 206.314 235.444 208.193 234.057 210.01C233.89 210.227 233.719 210.441 233.55 210.658C233.32 210.952 233.095 211.251 232.861 211.541C231.079 214.011 228.608 215.902 225.758 216.976C220.662 218.629 216.357 214.898 214.739 210.286C213.981 207.888 213.527 205.403 213.388 202.891C213.148 200.327 213.083 197.75 213.195 195.178C213.266 193.705 213.42 192.238 213.658 190.783V190.729C213.628 190.803 213.577 190.866 213.512 190.911C213.446 190.957 213.368 190.981 213.289 190.982C211.343 190.911 209.396 190.901 207.45 190.953C200.582 191.128 193.75 191.918 186.91 192.511C186.868 192.517 186.825 192.515 186.784 192.505C186.742 192.494 186.703 192.476 186.669 192.45C186.635 192.424 186.606 192.392 186.584 192.356C186.563 192.319 186.548 192.278 186.543 192.236C186.523 192.182 186.516 192.125 186.522 192.069C186.522 192.081 186.503 192.087 186.5 192.101C183.864 202.791 181.939 214.3 185.078 225.089C186.412 229.824 188.71 234.232 191.828 238.037C195.179 242.003 199.512 245.021 204.395 246.788C210.381 248.805 216.676 249.745 222.99 249.565H325.302C325.409 249.562 325.511 249.517 325.585 249.439C325.66 249.362 325.701 249.259 325.701 249.152C325.7 249.121 325.696 249.09 325.689 249.06C324.146 239.721 322.033 230.486 319.361 221.406ZM296.939 241.822L297.214 221.712C297.22 221.61 297.265 221.514 297.339 221.444C297.414 221.374 297.512 221.334 297.614 221.334C297.717 221.334 297.815 221.374 297.889 221.444C297.964 221.514 298.008 221.61 298.014 221.712L297.935 227.471L297.659 247.58C297.659 247.687 297.617 247.789 297.542 247.864C297.466 247.939 297.365 247.981 297.258 247.981C297.152 247.981 297.05 247.939 296.975 247.864C296.9 247.789 296.857 247.687 296.857 247.58L296.939 241.822ZM232.974 156.337C232.844 156.238 232.705 156.149 232.561 156.071C232.472 156.026 232.375 155.995 232.286 155.958C231.587 155.7 230.835 155.625 230.099 155.738C229.363 155.852 228.668 156.151 228.08 156.608C227.409 157.173 226.919 157.923 226.671 158.764C226.422 159.605 226.427 160.501 226.684 161.34C226.992 162.042 227.521 162.625 228.189 163.001C228.857 163.377 229.63 163.527 230.39 163.426C230.434 163.419 230.478 163.426 230.528 163.414C231.339 163.204 232.085 162.797 232.701 162.23C233.317 161.663 233.783 160.952 234.06 160.162C234.332 159.495 234.373 158.756 234.176 158.062C233.98 157.369 233.556 156.762 232.974 156.337ZM223.513 146.973C222.919 146.87 222.308 146.913 221.734 147.099C221.161 147.286 220.641 147.609 220.221 148.042C220.002 148.269 219.808 148.518 219.641 148.785C219.583 148.876 219.52 148.961 219.468 149.06C219.078 149.673 218.904 150.398 218.975 151.121C219.046 151.843 219.356 152.521 219.857 153.046C220.116 153.299 220.408 153.513 220.727 153.684C220.995 153.826 221.278 153.938 221.571 154.019C222.154 154.205 222.774 154.244 223.376 154.132C223.978 154.021 224.543 153.761 225.021 153.378C225.498 152.995 225.873 152.499 226.112 151.936C226.352 151.372 226.448 150.758 226.392 150.148C226.357 149.367 226.05 148.622 225.524 148.042C224.999 147.463 224.287 147.085 223.513 146.973Z" fill="#2554E7"/>
<path d="M224.657 166.779C224.668 166.465 224.682 166.15 224.688 165.838C224.613 164.768 224.293 163.729 223.752 162.803C223.212 161.876 222.465 161.087 221.569 160.496C221.581 163.268 221.267 166.032 220.634 168.731C219.93 171.048 218.444 173.848 215.801 174.278C213.192 174.702 211.484 172.382 210.675 170.219C210.217 168.994 210.104 167.253 208.874 166.513C208.599 166.31 208.255 166.224 207.917 166.274C207.579 166.324 207.275 166.506 207.071 166.781C206.727 167.324 206.504 167.935 206.416 168.571C206.142 169.803 206.148 171.08 206.434 172.309C206.72 173.538 207.279 174.687 208.069 175.67C208.097 175.701 208.121 175.736 208.138 175.774C208.545 176.286 209.048 176.713 209.621 177.029C210.193 177.346 210.822 177.547 211.472 177.619C211.98 177.674 211.983 178.476 211.472 178.421C209.937 178.262 208.529 177.502 207.554 176.307L205.969 175.893L194.174 172.838C193.588 173.965 193.041 175.113 192.534 176.282C190.42 181.261 188.716 186.404 187.438 191.66C189.19 191.507 190.941 191.347 192.692 191.181C199.421 190.415 206.192 190.078 212.963 190.173C213.39 187.673 214.179 185.249 215.305 182.977C216.394 180.822 217.891 178.899 219.712 177.313C220.658 176.648 221.56 175.922 222.412 175.14C223.084 174.347 223.578 173.42 223.86 172.42C223.926 172.203 223.967 171.977 224.024 171.757C223.639 171.281 223.36 170.729 223.204 170.137C223.097 169.497 223.177 168.839 223.435 168.244C223.692 167.648 224.117 167.139 224.657 166.779Z" fill="white"/>
<path d="M186.905 192.5C193.746 191.909 200.577 191.123 207.445 190.942C209.392 190.89 211.339 190.9 213.285 190.971C213.365 190.97 213.442 190.945 213.507 190.9C213.573 190.855 213.624 190.792 213.653 190.718C213.66 190.705 213.666 190.692 213.671 190.678C214.322 185.722 216.699 181.155 220.384 177.779C221.362 177.109 222.28 176.355 223.125 175.524C223.788 174.697 224.286 173.751 224.593 172.737C224.632 172.62 224.661 172.502 224.695 172.384C224.444 172.202 224.218 171.988 224.022 171.747C223.965 171.968 223.924 172.193 223.858 172.41C223.576 173.41 223.082 174.338 222.41 175.13C221.558 175.912 220.656 176.638 219.711 177.304C217.889 178.889 216.393 180.812 215.303 182.967C214.177 185.239 213.388 187.663 212.961 190.163C206.19 190.068 199.419 190.405 192.69 191.171C190.94 191.335 189.189 191.494 187.436 191.65C188.714 186.394 190.418 181.251 192.532 176.272C193.04 175.108 193.587 173.961 194.173 172.828L205.967 175.883L207.552 176.297C207.497 176.231 207.44 176.167 207.386 176.098C207.075 175.685 207.77 175.288 208.074 175.695L208.132 175.764C208.115 175.726 208.092 175.691 208.063 175.66C207.273 174.677 206.714 173.528 206.428 172.299C206.142 171.07 206.136 169.793 206.411 168.561C206.498 167.925 206.722 167.314 207.065 166.771C207.269 166.497 207.573 166.314 207.911 166.264C208.249 166.214 208.593 166.3 208.868 166.503C210.098 167.243 210.211 168.983 210.669 170.209C211.478 172.372 213.186 174.692 215.795 174.268C218.438 173.838 219.927 171.038 220.628 168.721C221.261 166.022 221.575 163.258 221.563 160.486C222.459 161.077 223.206 161.866 223.747 162.793C224.287 163.719 224.607 164.758 224.682 165.829C224.682 166.14 224.662 166.455 224.651 166.769C224.902 166.579 225.175 166.418 225.463 166.29L225.476 166.014C225.431 164.763 225.084 163.541 224.464 162.453C223.843 161.365 222.969 160.444 221.914 159.768C221.748 159.654 221.581 159.533 221.409 159.433C221.325 159.387 221.226 159.375 221.133 159.4C221.047 159.422 220.97 159.47 220.912 159.538C220.855 159.606 220.82 159.69 220.814 159.779C220.789 162.535 220.52 165.284 220.011 167.992C219.706 169.27 219.169 170.481 218.426 171.564C218.06 172.151 217.554 172.638 216.952 172.98C216.351 173.322 215.674 173.508 214.982 173.521C214.375 173.427 213.799 173.188 213.302 172.825C212.806 172.462 212.405 171.985 212.131 171.434C211.674 170.589 211.32 169.692 211.077 168.762C210.971 168.42 210.854 168.081 210.725 167.746C210.712 167.714 210.704 167.681 210.692 167.649C210.538 167.268 210.332 166.909 210.08 166.583C209.836 166.215 209.498 165.918 209.103 165.721C208.707 165.525 208.266 165.436 207.825 165.464C206.448 165.608 205.915 167.063 205.665 168.232C205.131 170.634 205.529 173.149 206.777 175.269L195.781 172.421L194.069 171.979C194.017 171.971 193.963 171.975 193.912 171.988C193.853 171.991 193.795 172.009 193.744 172.039C193.692 172.069 193.649 172.111 193.617 172.162C193.531 172.327 193.451 172.495 193.365 172.662C191.065 177.296 189.213 182.138 187.834 187.124C187.363 188.739 186.924 190.362 186.518 191.993C186.511 192.072 186.518 192.152 186.536 192.229C186.543 192.271 186.557 192.311 186.579 192.348C186.601 192.384 186.63 192.416 186.665 192.441C186.699 192.466 186.738 192.484 186.779 192.495C186.82 192.505 186.863 192.507 186.905 192.5Z" fill="#0B1F33"/>
<path d="M258.164 179.572C258.251 181.399 258.446 183.219 258.748 185.022C258.876 186.239 259.168 187.433 259.617 188.571C260.526 190.334 261.863 191.841 263.505 192.953C265.771 194.543 268.365 195.601 271.096 196.05C274.231 196.502 277.417 196.477 280.545 195.975C283.554 195.596 286.511 194.878 289.36 193.836C291.732 193.07 293.899 191.773 295.696 190.046C296.355 189.377 296.838 188.555 297.101 187.653C297.272 186.909 297.401 186.156 297.488 185.397C297.608 184.571 297.71 183.744 297.793 182.918C298.35 177.408 298.038 171.859 298.1 166.329C298.057 166.406 298.017 166.484 297.972 166.56C295.401 170.71 291.588 173.944 287.075 175.804C281.835 177.906 276.165 178.715 270.546 178.162C266.188 177.937 261.937 176.722 258.118 174.608C258.074 176.263 258.089 177.919 258.164 179.572Z" fill="white"/>
<path d="M298.894 176.625C298.916 173.379 298.82 170.133 298.868 166.886C298.879 166.154 298.903 165.421 298.925 164.683C298.674 165.243 298.395 165.791 298.089 166.323C298.027 171.853 298.339 177.406 297.782 182.912C297.699 183.739 297.597 184.565 297.477 185.392C297.39 186.15 297.261 186.904 297.09 187.648C296.827 188.549 296.344 189.371 295.685 190.04C293.888 191.768 291.721 193.064 289.349 193.831C286.5 194.873 283.543 195.59 280.534 195.97C277.406 196.472 274.22 196.497 271.085 196.044C268.354 195.595 265.76 194.537 263.494 192.948C261.852 191.835 260.515 190.328 259.606 188.565C259.157 187.427 258.865 186.234 258.737 185.017C258.435 183.213 258.24 181.393 258.153 179.567C258.07 177.914 258.071 176.261 258.102 174.608C257.834 174.447 257.571 174.28 257.311 174.107C257.283 175.226 257.275 176.345 257.286 177.465C257.306 179.254 257.417 181.041 257.62 182.819C257.767 184.078 257.923 185.382 258.19 186.642C258.246 186.905 258.317 187.162 258.383 187.42C258.432 187.613 258.474 187.81 258.532 188C259.159 189.769 260.254 191.335 261.7 192.532C263.702 194.289 266.072 195.577 268.635 196.303C271.755 197.128 275 197.372 278.209 197.024C281.371 196.781 284.498 196.2 287.537 195.291C290.196 194.57 292.705 193.379 294.944 191.773C295.822 191.126 296.577 190.327 297.174 189.415C297.508 188.861 297.748 188.256 297.885 187.624C297.948 187.363 298.003 187.097 298.05 186.828C298.098 186.553 298.142 186.259 298.188 185.97C298.647 182.876 298.884 179.753 298.894 176.625Z" fill="#0B1F33"/>
<path d="M229.972 167.706C229.784 167.42 229.556 167.162 229.296 166.939C229.085 166.756 228.854 166.596 228.607 166.464C227.83 166.028 226.917 165.897 226.048 166.099C225.849 166.15 225.654 166.217 225.466 166.3C225.178 166.428 224.905 166.589 224.654 166.779C224.116 167.138 223.692 167.645 223.435 168.239C223.177 168.833 223.096 169.489 223.201 170.128C223.357 170.719 223.636 171.271 224.021 171.747C224.217 171.988 224.443 172.202 224.694 172.384C225.057 172.65 225.469 172.841 225.906 172.947C226.241 173.024 226.584 173.057 226.927 173.046C227.213 173.038 227.497 172.998 227.774 172.928C228.303 172.788 228.793 172.529 229.206 172.17C229.62 171.811 229.945 171.362 230.158 170.858C230.371 170.354 230.465 169.808 230.434 169.261C230.403 168.715 230.247 168.183 229.978 167.706H229.972Z" fill="#2554E7"/>
<path d="M300.067 151.532C300.008 151.621 299.918 151.685 299.813 151.708C299.709 151.732 299.599 151.715 299.508 151.66C299.425 151.608 299.364 151.528 299.336 151.435C299.044 150.164 298.644 148.919 298.14 147.716C297.08 145.303 295.661 143.063 293.931 141.074C292.457 139.285 290.746 137.705 288.845 136.378C285.843 134.463 282.485 133.174 278.972 132.586C274.731 131.75 270.358 131.858 266.163 132.9C261.638 134.117 257.531 136.546 254.284 139.924C252.683 141.541 251.373 143.422 250.412 145.485C249.51 147.559 248.943 149.764 248.733 152.016C248.234 156.389 248.887 160.815 250.626 164.858C252.416 169.03 255.594 172.456 259.621 174.553C264.259 176.713 269.349 177.722 274.46 177.495C279.765 177.544 284.991 176.206 289.619 173.614C293.888 171.191 297.156 167.329 298.838 162.717C298.87 162.618 298.939 162.534 299.03 162.483C299.121 162.432 299.228 162.417 299.33 162.442C300.868 162.904 302.507 162.913 304.051 162.468C305.594 162.023 306.976 161.142 308.032 159.932C309.172 158.814 310.009 157.424 310.465 155.893C310.92 154.363 310.979 152.741 310.637 151.182C310.335 150.099 309.687 149.146 308.791 148.468C307.895 147.789 306.802 147.423 305.678 147.426C303.245 147.577 301.44 149.734 300.067 151.532ZM254.547 143.634C255.358 142.776 256.39 142.158 257.529 141.849C258.669 141.54 259.871 141.552 261.004 141.883C261.104 141.913 261.188 141.982 261.238 142.073C261.288 142.164 261.301 142.272 261.274 142.372C261.246 142.473 261.18 142.559 261.09 142.612C261 142.665 260.894 142.68 260.792 142.656C259.796 142.362 258.737 142.35 257.735 142.623C256.732 142.896 255.825 143.442 255.115 144.2C254.761 144.577 254.197 144.01 254.547 143.634ZM260.938 155.271C260.736 155.639 260.451 155.954 260.105 156.192C259.76 156.43 259.363 156.583 258.948 156.641C258.533 156.699 258.109 156.659 257.712 156.524C257.315 156.389 256.955 156.163 256.66 155.865C256.272 155.431 255.975 154.923 255.787 154.372C255.599 153.821 255.525 153.238 255.568 152.657C255.574 152.555 255.619 152.459 255.693 152.389C255.767 152.319 255.866 152.28 255.968 152.28C256.07 152.28 256.168 152.319 256.243 152.389C256.317 152.459 256.362 152.555 256.368 152.657C256.368 153.811 256.644 155.237 257.867 155.687C258.256 155.884 258.705 155.93 259.127 155.816C259.549 155.703 259.914 155.438 260.152 155.071C260.453 154.304 260.572 153.477 260.497 152.655C260.497 152.549 260.54 152.447 260.615 152.372C260.69 152.297 260.792 152.255 260.898 152.255C261.005 152.255 261.107 152.297 261.182 152.372C261.257 152.447 261.299 152.549 261.299 152.655C261.356 153.543 261.234 154.433 260.938 155.271ZM283.209 161.224C282.806 162.394 282.226 163.495 281.489 164.489C280.477 165.807 279.158 166.859 277.647 167.552C276.136 168.246 274.478 168.559 272.818 168.467C268.518 168.297 265.12 164.757 263.006 161.319C262.979 161.273 262.962 161.222 262.955 161.17C262.949 161.117 262.952 161.063 262.967 161.012C262.981 160.961 263.005 160.913 263.037 160.871C263.07 160.829 263.111 160.794 263.157 160.768C263.216 160.735 263.283 160.716 263.351 160.716C269.842 160.825 276.332 160.607 282.823 160.716C282.906 160.718 282.986 160.746 283.051 160.797C283.126 160.835 283.185 160.9 283.214 160.979C283.244 161.059 283.242 161.146 283.209 161.224ZM284.991 142.176C286.109 141.823 287.308 141.822 288.426 142.174C289.544 142.526 290.527 143.214 291.241 144.143C291.555 144.556 290.859 144.95 290.552 144.547C289.929 143.768 289.084 143.198 288.129 142.912C287.174 142.627 286.154 142.639 285.206 142.948C284.712 143.105 284.504 142.336 284.991 142.176ZM291.555 155.124C291.352 155.491 291.067 155.806 290.722 156.044C290.376 156.281 289.98 156.435 289.564 156.493C289.149 156.55 288.726 156.51 288.329 156.376C287.932 156.241 287.571 156.016 287.277 155.717C286.888 155.284 286.591 154.776 286.403 154.225C286.215 153.674 286.14 153.09 286.183 152.509C286.183 152.403 286.225 152.301 286.3 152.226C286.375 152.151 286.477 152.109 286.584 152.109C286.69 152.109 286.792 152.151 286.867 152.226C286.942 152.301 286.985 152.403 286.985 152.509C286.985 153.664 287.26 155.089 288.482 155.54C288.872 155.736 289.321 155.782 289.743 155.669C290.164 155.555 290.53 155.29 290.768 154.924C291.068 154.156 291.187 153.329 291.114 152.508C291.12 152.406 291.165 152.31 291.239 152.24C291.313 152.17 291.412 152.131 291.514 152.131C291.616 152.131 291.715 152.17 291.789 152.24C291.863 152.31 291.908 152.406 291.914 152.508C291.972 153.395 291.85 154.284 291.555 155.122V155.124ZM305.527 155.285L300.537 158.556C300.104 158.84 299.703 158.143 300.133 157.868L305.122 154.596C305.554 154.308 305.955 155.003 305.527 155.284V155.285Z" fill="white"/>
<path d="M305.817 146.607C303.291 146.705 301.402 148.58 299.894 150.464C298.458 145.504 295.627 141.061 291.739 137.663C290.37 136.408 288.841 135.339 287.193 134.484C285.511 133.635 283.748 132.955 281.932 132.453C277.731 131.259 273.33 130.941 269.002 131.519C266.685 131.838 264.421 132.466 262.271 133.387C260.046 134.371 257.966 135.655 256.089 137.204C254.24 138.668 252.615 140.396 251.268 142.332C249.952 144.283 249.006 146.46 248.479 148.755C247.427 153.232 247.553 157.905 248.847 162.319C250.076 166.674 252.648 170.53 256.196 173.338C256.555 173.614 256.933 173.855 257.308 174.103C257.57 174.275 257.83 174.446 258.099 174.604C261.918 176.717 266.168 177.933 270.527 178.158C276.146 178.71 281.815 177.901 287.055 175.8C291.569 173.94 295.381 170.706 297.952 166.556C297.997 166.48 298.037 166.402 298.08 166.325C298.386 165.792 298.665 165.245 298.916 164.684C299.12 164.228 299.303 163.763 299.474 163.293C303.928 164.533 308.235 161.891 310.365 158.037C310.555 157.694 310.726 157.342 310.88 156.982C311.072 156.543 311.234 156.093 311.366 155.633C311.819 154.107 311.834 152.485 311.41 150.95C311.151 150.122 310.728 149.354 310.167 148.692C309.606 148.029 308.918 147.486 308.143 147.094C307.848 146.951 307.54 146.837 307.223 146.753C306.764 146.636 306.29 146.587 305.817 146.607ZM310.638 151.172C310.98 152.732 310.921 154.353 310.465 155.884C310.01 157.414 309.173 158.804 308.033 159.922C306.977 161.132 305.595 162.013 304.052 162.458C302.509 162.903 300.87 162.894 299.332 162.432C299.23 162.407 299.123 162.421 299.031 162.472C298.94 162.524 298.871 162.608 298.839 162.708C297.157 167.319 293.889 171.181 289.62 173.604C284.991 176.196 279.766 177.534 274.461 177.486C269.35 177.712 264.26 176.703 259.622 174.543C255.595 172.446 252.417 169.021 250.626 164.848C248.888 160.805 248.235 156.379 248.734 152.007C248.944 149.754 249.51 147.549 250.413 145.475C251.374 143.412 252.684 141.531 254.286 139.915C257.533 136.536 261.639 134.108 266.163 132.89C270.359 131.848 274.732 131.741 278.973 132.576C282.485 133.164 285.843 134.453 288.846 136.368C290.747 137.695 292.457 139.275 293.931 141.065C295.661 143.054 297.081 145.293 298.141 147.706C298.645 148.91 299.045 150.154 299.336 151.425C299.359 151.499 299.403 151.565 299.462 151.615C299.522 151.665 299.594 151.697 299.671 151.707C299.748 151.718 299.826 151.706 299.896 151.673C299.967 151.64 300.026 151.587 300.068 151.522C301.445 149.731 303.247 147.567 305.683 147.406C306.808 147.404 307.902 147.772 308.798 148.452C309.694 149.132 310.342 150.088 310.642 151.172H310.638Z" fill="#0B1F33"/>
<path d="M305.126 154.591L300.137 157.863C299.708 158.138 300.108 158.838 300.541 158.551L305.531 155.28C305.959 155.002 305.559 154.308 305.126 154.591ZM291.118 152.507C291.191 153.329 291.073 154.156 290.772 154.923C290.534 155.289 290.169 155.554 289.747 155.668C289.325 155.782 288.876 155.736 288.486 155.539C287.264 155.086 286.989 153.662 286.989 152.509C286.989 152.403 286.947 152.301 286.871 152.225C286.796 152.15 286.694 152.108 286.588 152.108C286.482 152.108 286.38 152.15 286.304 152.225C286.229 152.301 286.187 152.403 286.187 152.509C286.144 153.09 286.219 153.673 286.407 154.224C286.595 154.775 286.892 155.283 287.281 155.717C287.575 156.015 287.936 156.24 288.333 156.375C288.73 156.51 289.153 156.55 289.569 156.492C289.984 156.434 290.38 156.281 290.726 156.043C291.071 155.805 291.356 155.49 291.559 155.123C291.854 154.284 291.976 153.394 291.918 152.506C291.912 152.404 291.868 152.308 291.793 152.238C291.719 152.168 291.62 152.129 291.518 152.129C291.416 152.129 291.318 152.168 291.243 152.238C291.169 152.308 291.124 152.404 291.118 152.506V152.507ZM260.796 142.655C260.898 142.68 261.005 142.664 261.094 142.611C261.184 142.558 261.25 142.472 261.278 142.372C261.305 142.271 261.293 142.164 261.242 142.072C261.192 141.981 261.108 141.913 261.008 141.882C259.875 141.551 258.673 141.54 257.533 141.849C256.394 142.158 255.362 142.775 254.551 143.633C254.201 144.009 254.766 144.576 255.119 144.199C255.829 143.441 256.736 142.895 257.739 142.622C258.741 142.35 259.8 142.361 260.796 142.655ZM283.055 160.798C282.99 160.747 282.91 160.718 282.828 160.717C276.336 160.608 269.846 160.825 263.356 160.717C263.302 160.717 263.249 160.728 263.2 160.75C263.151 160.771 263.107 160.801 263.07 160.84C263.033 160.878 263.004 160.924 262.984 160.974C262.965 161.023 262.956 161.076 262.957 161.13C262.958 161.198 262.976 161.264 263.01 161.323C265.124 164.766 268.519 168.301 272.822 168.47C274.482 168.563 276.14 168.249 277.651 167.556C279.162 166.863 280.481 165.811 281.493 164.492C282.23 163.498 282.81 162.397 283.213 161.228C283.247 161.149 283.249 161.061 283.22 160.981C283.19 160.901 283.131 160.836 283.055 160.798ZM290.553 144.546C290.863 144.95 291.559 144.546 291.242 144.143C290.528 143.213 289.546 142.525 288.428 142.174C287.31 141.822 286.11 141.822 284.993 142.176C284.505 142.335 284.717 143.11 285.205 142.947C286.153 142.638 287.173 142.625 288.129 142.911C289.085 143.197 289.93 143.767 290.553 144.546ZM260.502 152.656C260.576 153.477 260.458 154.305 260.156 155.072C259.918 155.438 259.553 155.704 259.131 155.817C258.709 155.931 258.261 155.885 257.871 155.688C256.649 155.236 256.372 153.81 256.372 152.658C256.366 152.556 256.321 152.46 256.247 152.389C256.173 152.319 256.074 152.28 255.972 152.28C255.87 152.28 255.771 152.319 255.697 152.389C255.623 152.46 255.578 152.556 255.572 152.658C255.529 153.238 255.604 153.822 255.791 154.373C255.979 154.924 256.276 155.432 256.664 155.866C256.959 156.164 257.319 156.39 257.716 156.524C258.114 156.659 258.537 156.699 258.952 156.642C259.368 156.584 259.764 156.43 260.109 156.192C260.455 155.955 260.74 155.639 260.942 155.272C261.237 154.433 261.36 153.543 261.303 152.655C261.303 152.549 261.261 152.447 261.186 152.371C261.111 152.296 261.009 152.254 260.902 152.254C260.796 152.254 260.694 152.296 260.619 152.371C260.544 152.447 260.502 152.549 260.502 152.655V152.656ZM116.303 135.154C113.493 135.483 110.675 135.713 107.847 135.842C107.334 135.866 107.331 136.669 107.847 136.643C112.951 136.404 118.035 135.847 123.07 134.977C128.552 134.015 133.983 132.776 139.34 131.265C142.636 130.345 145.913 129.359 149.17 128.308L149.466 128.216C149.955 128.057 149.742 127.285 149.253 127.443H149.239C143.528 129.282 137.764 130.967 131.923 132.343C126.774 133.576 121.559 134.515 116.303 135.154Z" fill="#0B1F33"/>
<path d="M166.146 151.206L165.802 151.443C165.758 151.701 165.727 151.96 165.711 152.22V152.457C170.747 148.952 175.501 145.058 179.927 140.809C184.794 136.147 189.277 131.102 193.334 125.721C193.048 125.817 192.761 125.911 192.478 126.017C192.288 126.087 192.103 126.167 191.916 126.24C188.577 130.586 184.956 134.707 181.076 138.577C176.458 143.194 171.465 147.418 166.146 151.206Z" fill="#0B1F33"/>
<path d="M165.798 151.443C166.327 149.106 167.414 146.933 168.966 145.107C169.275 144.694 168.579 144.295 168.277 144.704C166.634 146.635 165.502 148.947 164.983 151.429C164.954 151.635 164.946 151.843 164.932 152.044C164.911 152.365 164.909 152.687 164.923 153.008C165.092 155.029 165.726 156.984 166.777 158.718C167.81 160.634 169.506 162.107 171.547 162.86C173.551 163.526 175.686 163.701 177.772 163.37C180.16 163.043 182.473 162.303 184.606 161.181C184.627 161.167 184.647 161.151 184.664 161.133V160.552C184.605 160.493 184.528 160.455 184.445 160.444C184.362 160.432 184.278 160.449 184.206 160.49C180.709 162.477 176.616 163.144 172.67 162.369C170.776 161.911 169.115 160.777 167.999 159.18C166.575 157.22 165.778 154.875 165.711 152.453V152.216C165.727 151.957 165.756 151.699 165.798 151.443Z" fill="#0B1F33"/>
<path d="M162.523 154.505C159.927 156.042 157.264 157.459 154.534 158.756C151.894 160.008 149.192 161.128 146.441 162.114C137.904 165.182 128.897 166.737 119.826 166.709C116.51 166.709 113.2 166.49 109.908 166.158C107.461 165.914 105.02 165.583 102.567 165.399C102.056 165.36 102.053 164.559 102.567 164.597C102.819 164.616 103.072 164.637 103.325 164.66C105.873 164.888 108.411 165.222 110.958 165.458C114.319 165.781 117.695 165.928 121.072 165.896C125.246 165.845 129.408 165.454 133.518 164.728C138.437 163.845 143.261 162.501 147.927 160.713C153.456 158.576 158.771 155.924 163.803 152.79L163.88 152.743C162.816 151.043 161.774 149.327 160.756 147.596C160.481 147.132 160.213 146.665 159.941 146.199C158.27 143.339 156.617 140.465 154.88 137.643C152.972 134.541 150.917 131.508 149.18 128.304C145.923 129.355 142.645 130.341 139.349 131.262C133.988 132.774 128.555 134.014 123.069 134.978C118.035 135.849 112.95 136.406 107.846 136.646C107.33 136.671 107.333 135.869 107.846 135.846C110.672 135.716 113.491 135.486 116.302 135.157C121.559 134.519 126.776 133.58 131.926 132.347C137.767 130.97 143.532 129.286 149.242 127.448C152.044 126.278 154.757 124.906 157.359 123.343C157.653 123.165 157.937 122.977 158.224 122.792C158.456 122.645 158.69 122.501 158.913 122.351C158.184 120.051 157.211 117.834 156.011 115.74C154.235 112.687 152.063 109.882 149.552 107.398C147.076 104.977 144.187 103.018 141.021 101.613C140.853 101.828 140.674 102.034 140.484 102.23C139.541 103.21 138.362 103.93 137.059 104.32C131.137 106.088 124.609 107.433 118.488 105.776C115.718 104.965 113.138 103.606 110.902 101.781C109.722 100.931 108.654 99.9344 107.724 98.8159C106.963 97.7864 106.479 96.579 106.318 95.3091C106.305 95.225 106.283 95.1438 106.275 95.0597C106.254 94.8793 106.257 94.6947 106.25 94.5088C106.196 94.5088 106.141 94.5088 106.086 94.5198C99.9217 95.1755 93.9971 97.2688 88.789 100.631C83.5328 104.057 78.935 108.399 75.2148 113.451C73.2944 116.014 71.5701 118.719 70.0565 121.541C68.9229 123.649 67.9533 125.82 67.007 128.015C66.7522 128.609 66.5043 129.202 66.2811 129.806C65.1557 132.905 64.434 136.136 64.1338 139.42C63.9275 141.636 63.9598 143.869 64.2302 146.078C64.5303 148.532 65.1753 150.931 66.1461 153.205C67.252 155.747 68.7742 158.086 70.6502 160.127C72.9096 162.55 75.5386 164.598 78.4393 166.198C82.1924 168.255 86.1912 169.829 90.3399 170.881C95.8289 172.283 101.436 173.175 107.089 173.546C114.218 174.196 121.396 174.086 128.502 173.217C134.248 172.521 139.819 170.783 144.942 168.09C148.939 165.924 152.419 162.916 155.142 159.275C155.276 159.067 155.42 158.866 155.574 158.673C155.912 158.403 156.288 158.186 156.691 158.03C157.559 157.563 158.419 157.082 159.271 156.586C161.07 155.539 162.832 154.434 164.558 153.269L164.573 153.256C163.892 153.681 163.209 154.097 162.523 154.505Z" fill="#0B1F33"/>
<path d="M203.809 107.062C206.382 101.741 208.269 96.114 209.424 90.3172C210.108 87.4875 210.316 84.5639 210.042 81.6658C209.565 78.4262 208.031 75.4348 205.679 73.1563C205.404 72.9001 204.956 72.52 204.595 72.8492C204.399 73.0825 204.282 73.3717 204.259 73.6756C204.191 74.6006 204.217 75.5301 204.338 76.4497L204.695 83.0239C204.722 83.5418 203.929 83.5349 203.893 83.0239C203.759 81.0891 203.345 79.184 202.663 77.3684C202.346 76.5261 201.97 75.7068 201.539 74.9166C201.201 74.2278 200.761 73.5939 200.233 73.0365C199.771 72.5033 199.12 72.1693 198.418 72.104C198.081 72.1442 197.772 72.3134 197.556 72.576C197.341 72.8386 197.236 73.1744 197.262 73.5131C197.279 74.2834 197.366 75.0506 197.523 75.805C197.645 76.7001 197.702 77.6028 197.695 78.5061C197.677 80.3155 197.403 82.1133 196.882 83.8462C196.854 83.9373 196.795 84.0155 196.714 84.0669C196.634 84.1182 196.538 84.1395 196.444 84.1267C196.349 84.114 196.263 84.0681 196.199 83.9973C196.135 83.9265 196.098 83.8354 196.096 83.7402C196.042 81.7277 195.801 79.7245 195.375 77.7568C195.149 76.8017 194.81 75.877 194.366 75.002C193.99 74.2775 193.401 73.0737 192.49 72.9607C191.174 72.7927 190.93 74.9221 190.921 75.8133C190.93 77.2617 190.835 78.709 190.637 80.1438C190.278 83.2169 189.112 86.1403 187.258 88.6175C185.358 90.9241 182.739 92.5269 179.82 93.1697C178.826 93.3918 177.807 93.4803 176.79 93.4328C177.78 94.8734 178.68 96.374 179.484 97.9259C179.746 98.4 179.976 98.891 180.173 99.3955C180.327 99.8542 179.82 100.335 179.577 100.701C178.971 101.61 178.361 102.515 177.745 103.415C174.176 108.912 169.971 113.969 165.219 118.482C160.681 122.479 155.515 125.7 149.93 128.016C150.868 129.728 151.91 131.381 152.946 133.035C155.001 136.297 157.003 139.592 158.95 142.918C160.785 146.068 162.617 149.22 164.549 152.312L164.94 152.036C164.954 151.831 164.962 151.623 164.991 151.422C165.51 148.94 166.643 146.628 168.286 144.696C168.591 144.283 169.286 144.687 168.975 145.1C167.423 146.925 166.336 149.099 165.807 151.436L166.151 151.199C171.466 147.413 176.457 143.191 181.072 138.577C184.955 134.707 188.579 130.585 191.921 126.239C187.963 127.894 184.195 129.97 180.681 132.429C180.25 132.716 179.855 132.016 180.278 131.741C182.614 130.156 185.033 128.697 187.524 127.369C189.225 126.481 190.988 125.716 192.798 125.08C193.211 124.54 193.625 124.009 194.023 123.463C197.784 118.31 201.06 112.819 203.809 107.062ZM204.054 92.1615C204.433 91.5906 204.676 90.9403 204.765 90.2607C204.828 89.7552 205.63 89.7497 205.566 90.2607C205.472 91.0827 205.189 91.8718 204.74 92.5664C204.465 92.9976 203.766 92.5954 204.051 92.1615H204.054ZM195.264 92.5623C195.585 91.9162 195.713 91.1912 195.633 90.4742C195.583 89.9604 196.385 89.9659 196.434 90.4742C196.514 91.3339 196.348 92.1985 195.955 92.9673C195.725 93.4287 195.035 93.0224 195.259 92.5623H195.264ZM179.267 133.462C178.733 135.015 178.103 136.533 177.381 138.008C176.427 140.288 174.915 142.292 172.983 143.834C172.244 144.375 171.346 144.654 170.431 144.625C169.461 144.518 168.557 144.086 167.865 143.399C167.401 143.035 167.038 142.559 166.808 142.016C166.579 141.473 166.491 140.88 166.553 140.294C166.797 139.352 167.346 138.516 168.114 137.918C169.103 137.095 170.193 136.401 171.358 135.852C173.757 134.711 176.236 133.744 178.775 132.96C178.843 132.942 178.915 132.942 178.983 132.961C179.05 132.979 179.112 133.015 179.162 133.065C179.212 133.115 179.248 133.177 179.266 133.245C179.284 133.313 179.285 133.385 179.267 133.453V133.462Z" fill="white"/>
<path d="M207.803 74.3301C207.33 73.7104 206.81 73.1288 206.246 72.5904C205.607 72.0009 204.655 71.578 203.968 72.3508C203.478 73.0951 203.293 73.9999 203.453 74.8769L203.603 77.6468C203.571 77.5587 203.548 77.4664 203.516 77.3713C203.195 76.4843 202.815 75.6201 202.377 74.7846C202.001 73.997 201.518 73.2655 200.94 72.6111C199.986 71.607 198.253 70.6593 197.076 71.888C195.898 73.1166 196.691 75.2171 196.822 76.6799C196.941 78.0791 196.898 79.4874 196.694 80.8768C196.588 78.2262 195.777 75.6519 194.344 73.4196C194.148 73.0938 193.885 72.8136 193.572 72.5979C193.259 72.3822 192.903 72.2359 192.529 72.1689C192.241 72.1445 191.952 72.1905 191.687 72.3031C191.422 72.4157 191.188 72.5914 191.005 72.8149C190.282 73.9159 189.972 75.2372 190.129 76.5449C190.166 79.7794 189.459 82.9792 188.063 85.8973C186.614 88.7549 184.115 90.9412 181.091 91.9992C179.948 92.3976 178.749 92.6146 177.539 92.6424C177.314 92.6424 177.09 92.6286 176.864 92.619C176.726 92.619 176.575 92.619 176.43 92.6038H176.417L176.258 92.5859H176.214C176.176 92.5859 176.139 92.5749 176.103 92.568C175.985 92.548 175.863 92.5757 175.765 92.6452C175.683 92.6944 175.624 92.7741 175.6 92.8668C175.577 92.9595 175.592 93.0576 175.641 93.1396L175.65 93.1562C177.054 95.1995 178.297 97.3482 179.369 99.5831C176.212 104.55 172.692 109.276 168.836 113.722C165.908 117.01 162.576 119.915 158.919 122.366C158.692 122.517 158.458 122.66 158.23 122.807C157.943 122.99 157.659 123.179 157.365 123.358C154.763 124.922 152.05 126.293 149.249 127.463H149.264C149.755 127.304 149.965 128.077 149.476 128.235L149.18 128.328C150.917 131.532 152.972 134.565 154.879 137.666C156.616 140.489 158.269 143.361 159.941 146.223C160.217 146.688 160.483 147.154 160.755 147.619C161.774 149.349 162.815 151.065 163.879 152.767L164.228 152.555C164.667 152.279 165.068 152.975 164.631 153.243C164.735 153.174 164.832 153.099 164.934 153.028C164.919 152.707 164.922 152.385 164.942 152.064C164.805 152.154 164.682 152.246 164.551 152.34C162.623 149.249 160.787 146.097 158.952 142.947C157.01 139.615 154.998 136.336 152.95 133.065C151.912 131.412 150.87 129.759 149.932 128.045C155.517 125.729 160.683 122.508 165.221 118.511C169.973 113.999 174.178 108.943 177.747 103.447C178.364 102.548 178.974 101.643 179.579 100.733C179.822 100.365 180.329 99.8861 180.175 99.4274C179.978 98.9229 179.748 98.4319 179.486 97.9577C178.687 96.3958 177.791 94.8851 176.803 93.4344C177.82 93.4819 178.84 93.3934 179.833 93.1713C182.752 92.5285 185.371 90.9257 187.271 88.6191C189.125 86.1419 190.291 83.2185 190.65 80.1454C190.848 78.7106 190.943 77.2633 190.934 75.8149C190.943 74.9237 191.187 72.7943 192.503 72.9623C193.419 73.0794 194.003 74.2791 194.379 75.0036C194.823 75.8786 195.162 76.8033 195.388 77.7584C195.814 79.7261 196.055 81.7292 196.109 83.7417C196.111 83.837 196.148 83.9281 196.212 83.9989C196.276 84.0697 196.362 84.1156 196.457 84.1283C196.551 84.141 196.647 84.1198 196.727 84.0685C196.808 84.0171 196.867 83.9389 196.895 83.8478C197.416 82.1148 197.69 80.3171 197.709 78.5077C197.716 77.6043 197.658 76.7016 197.536 75.8066C197.379 75.0522 197.292 74.285 197.275 73.5147C197.249 73.1761 197.355 72.8405 197.57 72.5779C197.785 72.3154 198.094 72.1461 198.431 72.1056C199.134 72.1702 199.784 72.5044 200.246 73.0381C200.77 73.5978 201.206 74.2335 201.54 74.9237C201.97 75.7136 202.346 76.5323 202.664 77.3741C203.345 79.1902 203.76 81.0957 203.894 83.031C203.929 83.542 204.72 83.5489 204.695 83.031L204.34 76.4567C204.219 75.5372 204.192 74.6077 204.26 73.6827C204.282 73.3788 204.4 73.0896 204.596 72.8563C204.957 72.5271 205.402 72.9072 205.68 73.1634C208.032 75.4415 209.566 78.4331 210.042 81.6729C210.317 84.571 210.109 87.4946 209.425 90.3243C208.27 96.1211 206.383 101.748 203.81 107.069C201.06 112.823 197.783 118.31 194.02 123.46C193.624 124.011 193.202 124.537 192.797 125.077C193.242 124.922 193.69 124.774 194.143 124.634C197.8 119.709 201.021 114.475 203.768 108.991C206.508 103.592 208.57 97.8758 209.909 91.9716C210.052 91.3151 210.182 90.6553 210.298 89.9923C210.429 89.2596 210.548 88.524 210.648 87.7885C210.786 86.7307 210.932 85.6577 210.982 84.5861C211 84.2045 211.008 83.823 210.998 83.4415C210.912 80.1449 209.795 76.9582 207.803 74.3301Z" fill="#0B1F33"/>
<path d="M164.224 152.535L163.875 152.748L163.798 152.794C158.767 155.928 153.451 158.581 147.923 160.717C143.256 162.504 138.432 163.847 133.514 164.729C129.404 165.456 125.241 165.846 121.068 165.897C117.691 165.929 114.315 165.783 110.953 165.459C108.407 165.224 105.868 164.889 103.32 164.662C103.068 164.639 102.815 164.618 102.562 164.599C102.049 164.56 102.051 165.362 102.562 165.4C105.016 165.585 107.456 165.915 109.904 166.159C113.203 166.487 116.515 166.7 119.821 166.71C128.895 166.739 137.904 165.183 146.443 162.112C149.198 161.13 151.895 160.004 154.537 158.754C157.264 157.464 159.927 156.047 162.526 154.504C163.211 154.097 163.893 153.684 164.571 153.264L164.627 153.228C165.064 152.956 164.662 152.263 164.224 152.535ZM195.959 92.9676C196.352 92.1988 196.518 91.3342 196.438 90.4746C196.389 89.9663 195.587 89.9608 195.637 90.4746C195.717 91.1916 195.588 91.9165 195.267 92.5627C195.039 93.0227 195.729 93.429 195.959 92.9676ZM204.749 92.5668C205.199 91.8721 205.482 91.083 205.576 90.2611C205.639 89.75 204.837 89.7556 204.774 90.2611C204.686 90.9407 204.443 91.5909 204.063 92.1618C203.776 92.5957 204.468 92.9979 204.749 92.5668ZM211.478 178.415C211.989 178.47 211.986 177.669 211.478 177.613C210.828 177.541 210.199 177.34 209.627 177.024C209.055 176.707 208.551 176.28 208.145 175.768L208.087 175.699C207.778 175.286 207.083 175.691 207.398 176.103C207.452 176.173 207.51 176.24 207.565 176.301C208.538 177.495 209.945 178.256 211.478 178.415ZM296.863 247.581C296.869 247.683 296.914 247.779 296.989 247.849C297.063 247.919 297.161 247.958 297.264 247.958C297.366 247.958 297.464 247.919 297.539 247.849C297.613 247.779 297.658 247.683 297.664 247.581L297.939 227.471L298.019 221.712C298.013 221.61 297.968 221.514 297.894 221.444C297.819 221.374 297.721 221.335 297.619 221.335C297.517 221.335 297.418 221.374 297.344 221.444C297.27 221.514 297.225 221.61 297.219 221.712L296.943 241.822L296.863 247.581ZM91.356 57.3911C92.7087 51.7146 95.0789 46.3301 98.3518 41.4988C99.2859 40.1214 100.292 38.7941 101.365 37.5223C101.696 37.1298 101.133 36.5582 100.799 36.9562C95.8526 42.8006 92.3522 49.7282 90.5819 57.1776C90.4648 57.679 91.2362 57.8925 91.356 57.3911ZM81.9609 62.5164C83.0786 53.0125 86.7562 43.9905 92.6012 36.4135C94.2288 34.3045 96.017 32.3244 97.9496 30.4908C98.3242 30.134 97.7567 29.5693 97.3835 29.9233C93.8822 33.2556 90.8524 37.0504 88.3781 41.2027C85.9023 45.3536 83.995 49.8181 82.7074 54.4766C81.9842 57.1124 81.4665 59.8004 81.1592 62.5164C81.1014 63.0274 81.9044 63.0233 81.9609 62.5164Z" fill="#0B1F33"/>
</g>
<defs>
<clipPath id="clip0_5876_31371">
<path d="M0 16C0 7.16345 7.16344 0 16 0H374C382.837 0 390 7.16344 390 16V250H0V16Z" fill="white"/>
</clipPath>
</defs>
</svg>
