<svg width="235" height="234" viewBox="0 0 235 234" fill="none" xmlns="http://www.w3.org/2000/svg">
<path fill-rule="evenodd" clip-rule="evenodd" d="M116.669 64.5403C116.328 64.0501 113.646 60.5623 112.875 60.6384C110.731 60.8338 100.811 64.001 101.84 65.4869C103.375 71.6469 106.098 82.7654 106.598 84.1261C106.805 84.6913 107.669 84.3999 107.585 83.8278C106.989 79.7819 104.356 70.2359 103.035 65.3874C106.188 63.903 109.492 62.7653 112.891 61.9944C113.878 63.0907 114.851 64.1695 115.83 65.3161C117.358 66.4533 145.548 57.8433 148.393 57.0793C153.775 74.3239 153.862 77.7087 156.082 82.37C156.362 82.955 157.127 82.5022 157.053 81.9628C155.018 75.0048 152.23 62.2179 149.265 56.1058C148.708 54.9452 116.669 64.6889 116.669 64.5403Z" fill="#0B1F33"/>
<path fill-rule="evenodd" clip-rule="evenodd" d="M125.578 35.6213C128.521 38.2245 138.641 50.7985 140.656 54.2781C140.97 54.8186 140.108 55.2398 139.768 54.8011C135.629 49.4776 133.366 45.5686 125.288 36.693C113.996 44.4314 103.834 54.4278 102.206 53.8463C100.579 53.2649 98.4366 52.8834 96.9003 52.4014C94.4186 54.4487 92.1188 56.7071 90.0266 59.1511C91.1475 60.3211 99.7809 70.2322 100.603 71.6807C100.94 72.2715 100.142 72.9981 99.7072 72.4529C92.8393 63.837 88.1382 59.7876 88.8051 58.6703C89.8581 56.9071 94.4761 52.3686 96.1761 51.6128C96.4171 50.5083 101.432 52.4435 102.237 52.7746C102.239 52.6576 124.455 34.6326 125.578 35.6213Z" fill="#0B1F33"/>
<path fill-rule="evenodd" clip-rule="evenodd" d="M80.2355 59.2337C80.3852 57.9467 82.2525 49.0629 83.0832 48.74L87.7831 47.3196C88.6127 45.0697 96.1849 24.9457 96.915 25.0896C99.8622 25.6524 118.326 33.1743 119.914 34.3724C120.388 34.7234 120.062 35.5214 119.508 35.3189C112.428 32.7449 104.164 28.6102 97.2894 26.3603C97.0647 27.5478 88.9204 48.0462 88.7484 48.2205C87.9177 49.0512 84.9283 49.3753 83.6589 49.7076C83.5758 51.1432 81.9144 56.9312 81.4417 58.7072L85.4268 59.7287C86.0328 60.0024 85.9497 61.0402 85.2033 60.9572C85.6865 60.9572 80.1454 60.0095 80.2355 59.2337Z" fill="#0B1F33"/>
<path fill-rule="evenodd" clip-rule="evenodd" d="M55.8286 53.6873C54.9979 53.9611 52.3689 57.1493 52.5069 57.9379C53.067 61.2436 54.0174 64.4712 55.3383 67.5529C55.728 68.4445 73.8945 62.7045 76.0286 62.1066C76.1094 62.0919 76.1864 62.0615 76.2554 62.017C76.3244 61.9726 76.3839 61.915 76.4306 61.8475C76.4774 61.78 76.5103 61.704 76.5277 61.6238C76.545 61.5436 76.5464 61.4608 76.5317 61.38C76.517 61.2993 76.4866 61.2222 76.4422 61.1532C76.3977 61.0843 76.3401 61.0247 76.2726 60.978C76.2052 60.9313 76.1292 60.8983 76.0489 60.881C75.9687 60.8636 75.8859 60.8623 75.8052 60.8769C69.1752 62.2733 62.6457 64.1103 56.2603 66.3759C55.2353 63.6439 54.3784 60.8518 53.6945 58.0151C54.2339 57.326 57.0992 54.2711 57.0161 53.7142C55.3547 45.9676 53.6032 37.9391 51.9009 30.2264C59.3737 28.9476 67.1612 27.0674 74.6925 25.6096C75.0985 29.363 77.8714 40.3387 79.6732 47.8396C79.7715 48.2468 80.4992 47.9648 80.5039 47.5658C80.5366 45.0749 76.2205 28.2842 75.3395 24.7672C75.0107 23.4545 52.9235 28.6282 51.0795 29.2249C49.5445 29.7268 55.0973 50.8126 55.804 53.7095L55.8286 53.6873Z" fill="#0B1F33"/>
<path fill-rule="evenodd" clip-rule="evenodd" d="M49.7102 75.5905C42.3883 70.3033 29.9886 61.6371 21.987 57.8393C20.3303 57.053 11.285 75.1997 10.9609 78.3306C10.9609 80.1067 26.2552 88.1586 29.6341 89.4971C29.6926 91.2416 29.7418 92.9849 29.8003 94.7282C30.1513 95.5589 33.5022 97.2215 34.4662 97.4765C38.5156 98.5482 40.0542 98.946 40.4332 97.817C44.4732 85.5799 49.9173 75.7403 49.7102 75.5905ZM39.4235 97.2776C36.4566 96.8157 33.595 95.8317 30.9714 94.3713C31.0709 93.6237 31.0955 88.8326 30.2156 88.3763C23.8064 85.0535 18.3343 82.0419 12.0736 78.2558C15.2958 69.8867 17.8862 66.4329 22.0865 59.2596C31.1622 64.7727 39.6891 69.7042 48.4115 76.0386C46.2318 79.9113 40.4777 93.1323 39.4235 97.2776Z" fill="#0B1F33"/>
<path fill-rule="evenodd" clip-rule="evenodd" d="M37.4783 110.221C27.1917 109.895 16.0825 109.554 5.7865 109.797C3.70273 109.847 7.20454 130.402 7.91239 132.521C8.22244 133.45 24.393 133.086 27.7474 132.58C28.213 133.839 28.969 134.971 29.954 135.884C30.5519 136.341 40.2161 136.352 40.415 135.095C38.261 120.599 38.7489 110.261 37.4783 110.221ZM30.7859 134.791C30.3799 134.242 28.495 131.321 27.9884 131.295C21.6119 131.486 15.3103 131.544 8.94199 131.652C7.53935 124.809 6.64846 117.871 6.27673 110.896L36.6967 111.364C37.2817 118.837 37.9674 126.857 38.9969 134.229L30.7859 134.791Z" fill="#0B1F33"/>
<path fill-rule="evenodd" clip-rule="evenodd" d="M56.8411 160.883C51.4591 154.635 43.468 143.886 42.8011 144.187C33.7026 148.184 24.8624 152.746 16.3322 157.844C14.1092 159.2 25.1856 174.031 27.4987 176.11C28.9904 177.45 41.9213 168.115 44.2121 166.703C45.4635 167.777 46.9258 168.578 48.5048 169.053C49.2302 169.262 57.6718 161.848 56.8411 160.883ZM48.6745 167.642C45.9507 166.728 44.3759 165.012 43.6926 165.449C38.5575 168.74 33.7874 171.984 27.8099 175.33C23.6979 170.072 20.1383 164.405 17.1875 158.418C25.6969 153.436 34.0834 149.848 42.7754 145.706C44.5947 148.338 53.0714 159.131 55.5787 161.182C53.2703 163.449 51.087 165.475 48.6745 167.642Z" fill="#0B1F33"/>
<path fill-rule="evenodd" clip-rule="evenodd" d="M92.8084 183.117C90.7457 181.553 75.0244 175.337 70.9809 174.491C69.8015 174.244 55.0572 199.803 55.9277 200.495C62.0477 205.018 68.966 208.344 76.3196 210.301C77.981 210.726 85.5626 193.736 86.5641 191.57C87.6113 191.57 88.9041 191.312 89.9571 191.304C91.0569 191.055 93.6871 183.784 92.8084 183.117ZM89.6494 190.254C88.7368 190.313 85.7323 190.114 85.4573 190.703C82.6049 196.794 79.5629 202.812 76.5852 208.845C68.2782 206.354 64.4628 204.41 57.1152 199.969C57.1152 199.969 67.0778 181.296 71.2301 175.725C75.5299 177.195 88.1003 182.367 91.8865 183.819C91.1306 185.965 90.376 188.099 89.6529 190.25L89.6494 190.254Z" fill="#0B1F33"/>
<path fill-rule="evenodd" clip-rule="evenodd" d="M144.32 195.514C144.014 193.256 143.714 190.06 143.408 187.81C142.851 186.44 133.967 187.939 122.136 187.934C120.758 187.934 122.875 213.938 123.016 216.678C124.86 218.55 142.27 217.633 142.253 215.374L140.732 198.429C142.277 197.399 143.773 196.577 144.32 195.514ZM139.613 198.271C140.039 203.887 140.465 209.499 140.892 215.108C135.325 216.085 129.666 216.436 124.021 216.154C123.871 207.313 122.742 198.337 123.04 189.079C129.426 189.03 135.71 188.889 142.287 188.432C142.411 189.271 143.233 195.157 142.934 195.473C142.934 195.741 140.602 196.659 139.613 198.271Z" fill="#0B1F33"/>
<path fill-rule="evenodd" clip-rule="evenodd" d="M185.289 177.138C186.118 175.636 186.538 174.963 186.493 174.357C186.438 173.627 182.075 167.515 181.403 167.89C178.414 169.55 171.265 176.5 169.469 178.973C169.402 180.534 179.664 198.327 180.877 198.733C181.462 200.909 192.066 189.941 192.02 189.294C191.954 188.487 186.011 178.411 185.289 177.138ZM181.503 197.663C177.454 191.747 173.846 185.543 170.708 179.098C174.437 175.536 177.5 172.722 181.428 169.434L185.114 174.573L184.126 176.913C183.876 177.51 189.938 187.158 190.893 189.177C188.145 192.402 184.988 195.255 181.503 197.665V197.663Z" fill="#0B1F33"/>
<path fill-rule="evenodd" clip-rule="evenodd" d="M220.267 151.66C219.256 150.595 212.056 147.111 210.728 146.637C210.827 146.106 211.16 143.595 210.86 143.316C209.075 142.293 207.216 141.405 205.298 140.659C204.335 140.659 198.137 153.657 198.656 154.093C200.528 155.668 213.017 163.845 215.352 164.74C216.11 165.026 220.841 152.264 220.267 151.66ZM215.112 163.034C213.833 162.205 201.005 153.943 199.876 153.557C199.993 153.45 204.858 143.329 205.63 141.934C206.927 142.805 208.32 143.524 209.781 144.076C209.623 145.075 209.604 146.092 209.723 147.098C209.723 147.438 217.502 151.415 219.006 151.988C217.702 155.654 216.398 159.382 215.112 163.034Z" fill="#0B1F33"/>
<path fill-rule="evenodd" clip-rule="evenodd" d="M226.224 117.619C226.224 116.789 220.131 115.129 219.204 114.796C219.203 114.054 219.094 113.315 218.88 112.604C218.556 111.948 213.575 110.113 213.16 110.362C212.189 110.877 210.102 121.534 211.001 122.028C212.533 122.867 223.02 127.36 224.501 127.009C225.338 126.812 226.366 117.877 226.224 117.619ZM223.933 125.598C219.89 124.203 215.871 122.584 211.861 121.23L213.679 111.616L217.831 113.21C217.905 113.733 218.029 115.526 218.503 115.701L224.971 118.068C224.587 120.361 223.933 125.174 223.933 125.598Z" fill="#0B1F33"/>
<path fill-rule="evenodd" clip-rule="evenodd" d="M224.801 83.2291C224.487 82.9191 217.793 83.1121 216.223 83.063L214.107 81.0868C213.351 81.0868 209.516 80.9043 209.166 81.3606C208.816 81.8169 211.35 91.3302 211.914 92.1047C212.201 92.4978 225.855 92.4943 226.088 92.1047C225.966 89.1097 225.535 86.1353 224.801 83.2291ZM212.67 91.0494C211.873 88.0854 211.087 85.1354 210.312 82.1995C211.35 82.1995 212.803 82.3574 213.799 82.265C214.361 82.9587 215.012 83.5758 215.734 84.1008C218.437 84.3228 221.151 84.3865 223.862 84.2915C224.13 86.643 224.569 88.9719 225.174 91.26C221.106 91.2495 216.746 91.0494 212.67 91.0494Z" fill="#0B1F33"/>
<path fill-rule="evenodd" clip-rule="evenodd" d="M207.567 44.5546C207.113 44.1042 200.145 46.9789 199.26 47.2948C198.587 46.7353 197.848 46.2609 197.059 45.8826C196.591 45.8826 191.503 47.8599 191.994 48.7643C193.281 51.1242 196.918 56.8513 199.094 58.6192C199.796 59.1925 210.882 54.4669 211.664 53.7461C212.58 52.9049 208.354 45.3362 207.567 44.5546ZM199.604 57.5814C197.296 54.7254 195.452 51.77 193.268 48.7888L196.88 47.2035C197.271 47.4445 198.824 48.5642 199.18 48.4729C201.881 47.7819 204.513 46.8455 207.043 45.6755C208.156 48.0997 209.534 50.524 210.613 52.9482C208.964 53.7766 199.604 57.4644 199.604 57.5814Z" fill="#0B1F33"/>
<path fill-rule="evenodd" clip-rule="evenodd" d="M1.90943 72.2776C1.69298 72.8626 2.55761 73.34 2.81501 72.7339C8.96921 58.2376 16.2852 48.6927 27.275 37.9077C27.6646 37.5251 27.0925 36.8196 26.6514 37.1682C26.6514 36.5423 9.81278 50.7917 1.90943 72.2776Z" fill="#2554E7"/>
<path fill-rule="evenodd" clip-rule="evenodd" d="M98.0749 82.166C95.7489 79.7266 92.0622 76.1382 89.1665 74.5107C88.6248 74.2077 88.1767 75.0021 88.5932 75.3999C91.4012 78.0746 94.4139 80.1653 97.2945 83.0716C97.8362 83.618 98.5979 82.7195 98.0749 82.166Z" fill="#2554E7"/>
<path fill-rule="evenodd" clip-rule="evenodd" d="M123.296 26.289C118.664 21.141 108.267 17.163 102.54 16.3264C102.392 16.3044 102.24 16.3423 102.12 16.4318C101.999 16.5214 101.919 16.6552 101.897 16.8038C101.875 16.9524 101.913 17.1037 102.002 17.2244C102.092 17.3451 102.225 17.4253 102.374 17.4473C112.752 19.1309 116.75 22.793 122.641 27.0776C123.109 27.4169 123.587 26.6213 123.263 26.248L123.296 26.289Z" fill="#2554E7"/>
<path fill-rule="evenodd" clip-rule="evenodd" d="M49.6188 63.7926C48.1656 63.7434 46.0877 66.8919 45.5998 67.9437C45.3378 68.51 46.289 68.9569 46.5967 68.4176C47.7901 66.3244 49.9171 64.9474 50.0997 64.5063C50.1263 64.4281 50.1343 64.3447 50.1231 64.2629C50.1119 64.1811 50.0818 64.103 50.0351 64.0348C49.9884 63.9667 49.9265 63.9103 49.8542 63.8703C49.7819 63.8303 49.7013 63.8077 49.6188 63.8043V63.7926Z" fill="#2554E7"/>
<path fill-rule="evenodd" clip-rule="evenodd" d="M44.5666 39.4577C38.4346 40.9846 31.9411 47.6536 28.8886 53.066C28.5235 53.713 29.5707 54.1541 29.9416 53.5223C33.4011 47.6477 38.6646 43.0469 44.9492 40.4043C45.4219 40.2054 45.0732 39.3314 44.5666 39.4577Z" fill="#2554E7"/>
<path fill-rule="evenodd" clip-rule="evenodd" d="M40.655 52.2027C41.1453 52.0611 41.4857 52.7877 41.123 53.0322C38.4445 54.6629 36.3078 57.0491 34.9817 59.8908C34.6635 60.553 33.6947 59.9645 33.9942 59.3058C35.0472 56.9447 37.9547 52.9796 40.6363 52.191L40.655 52.2027Z" fill="#2554E7"/>
<path fill-rule="evenodd" clip-rule="evenodd" d="M22.9368 90.2779C20.4541 93.1327 19.1226 99.0623 19.1016 102.741C19.1016 103.371 20.1651 103.443 20.2142 102.807C20.6506 97.2114 22.0628 93.7891 23.9828 90.9846C24.3794 90.4031 23.4177 89.7234 22.9368 90.2779Z" fill="#2554E7"/>
<path fill-rule="evenodd" clip-rule="evenodd" d="M15.4235 91.0495C13.3982 93.8727 12.4762 101.395 12.4844 104.874C12.5067 105.011 12.5771 105.136 12.6829 105.226C12.7886 105.316 12.923 105.365 13.0618 105.365C13.2007 105.365 13.335 105.316 13.4408 105.226C13.5466 105.136 13.6169 105.011 13.6392 104.874C13.7735 100.279 14.7243 95.7437 16.4472 91.4812C16.6812 90.8962 15.8166 90.4856 15.4258 91.0249L15.4235 91.0495Z" fill="#2554E7"/>
<path fill-rule="evenodd" clip-rule="evenodd" d="M32.9758 193.174C21.5016 185.012 15.6142 176.053 10.1105 163.573C10.0639 163.45 9.97074 163.352 9.85137 163.298C9.73201 163.245 9.59627 163.241 9.47401 163.287C9.35175 163.334 9.25299 163.427 9.19945 163.546C9.14591 163.666 9.14198 163.801 9.18853 163.924C12.7091 175.546 22.3089 187.031 32.3112 193.979C32.86 194.36 33.5315 193.563 32.9758 193.149V193.174Z" fill="#2554E7"/>
<path fill-rule="evenodd" clip-rule="evenodd" d="M223.109 131.593C223.093 131.478 223.036 131.372 222.948 131.296C222.86 131.22 222.748 131.178 222.632 131.178C222.515 131.178 222.403 131.22 222.315 131.296C222.228 131.372 222.17 131.478 222.154 131.593C221.725 134.635 221.828 136.187 220.245 139.007C219.95 139.532 220.874 140.06 221.181 139.538C222.365 137.467 223.666 133.991 223.109 131.593Z" fill="#2554E7"/>
<path fill-rule="evenodd" clip-rule="evenodd" d="M216.842 130.496C216.07 131.866 214.151 139.107 213.703 140.699C213.514 141.364 214.531 141.529 214.732 140.899C215.236 139.32 217.647 132.358 217.763 130.802C217.786 130.685 217.766 130.564 217.706 130.461C217.646 130.358 217.551 130.28 217.438 130.243C217.325 130.205 217.202 130.21 217.092 130.257C216.982 130.303 216.893 130.388 216.842 130.496Z" fill="#2554E7"/>
<path fill-rule="evenodd" clip-rule="evenodd" d="M190.529 177.464C190.449 177.557 190.403 177.674 190.399 177.797C190.395 177.919 190.433 178.039 190.507 178.137C190.581 178.234 190.687 178.303 190.806 178.332C190.925 178.36 191.051 178.347 191.161 178.294C194.042 176.318 199.206 171.262 200.244 167.764C200.402 167.233 199.688 166.702 199.413 167.241C199.005 167.407 197.123 172.603 190.529 177.464Z" fill="#2554E7"/>
<path fill-rule="evenodd" clip-rule="evenodd" d="M195.732 162.611C195.176 164.834 191.286 168.335 189.531 169.528C188.983 169.9 188.508 169.06 189.008 168.697C193.031 165.815 193.688 163.375 194.895 162.171C194.964 161.891 195.849 161.966 195.732 162.611Z" fill="#2554E7"/>
<path fill-rule="evenodd" clip-rule="evenodd" d="M159.904 204.75C159.768 204.794 159.654 204.89 159.587 205.016C159.52 205.142 159.505 205.289 159.545 205.427C159.586 205.564 159.678 205.68 159.802 205.75C159.926 205.821 160.073 205.84 160.211 205.803C162.778 205.048 170.066 202.325 172.075 200.282C172.426 199.931 172.009 199.212 171.56 199.453C171.263 199.301 165.476 203.059 159.904 204.75Z" fill="#2554E7"/>
<path fill-rule="evenodd" clip-rule="evenodd" d="M155.703 198.52C152.011 200.002 150.822 201.476 146.213 201.328C146.085 201.337 145.964 201.393 145.873 201.484C145.782 201.576 145.728 201.697 145.72 201.825C145.712 201.954 145.75 202.081 145.829 202.183C145.907 202.286 146.02 202.356 146.147 202.381C148.889 202.579 151.635 202.034 154.093 200.803C157.65 199.008 156.219 198.315 155.703 198.52Z" fill="#2554E7"/>
<path fill-rule="evenodd" clip-rule="evenodd" d="M164.009 185.759C159.122 187.725 153.93 188.829 148.666 189.022C148.043 189.037 148.117 189.993 148.741 189.985C152.836 189.929 160.792 188.79 164.441 186.663C164.949 186.367 164.49 185.634 164.009 185.834V185.759Z" fill="#2554E7"/>
<path fill-rule="evenodd" clip-rule="evenodd" d="M115.35 193.795C110.034 193.489 108.137 194.114 102.581 192.21C101.95 191.993 101.685 192.973 102.307 193.205C106.028 194.598 111.55 195.696 115.459 194.701C115.559 194.665 115.643 194.596 115.699 194.506C115.754 194.416 115.778 194.31 115.765 194.205C115.753 194.099 115.705 194.002 115.629 193.927C115.554 193.853 115.456 193.806 115.35 193.795Z" fill="#2554E7"/>
<path fill-rule="evenodd" clip-rule="evenodd" d="M112.801 204.431C105.394 204.061 101.115 204.221 93.8538 201.4C93.2314 201.159 92.7412 202.08 93.3718 202.336C98.831 204.576 107.11 206.47 112.975 205.392C113.572 205.285 113.316 204.456 112.801 204.431Z" fill="#2554E7"/>
<path fill-rule="evenodd" clip-rule="evenodd" d="M47.5794 187.211C42.6245 184.937 39.5521 183.787 36.2047 179.138C35.7812 178.553 34.9002 179.215 35.3085 179.803C37.8684 183.501 42.7122 187.658 47.322 188.156C47.4375 188.164 47.5523 188.133 47.6468 188.066C47.7414 187.999 47.8097 187.901 47.8402 187.79C47.8706 187.678 47.8612 187.559 47.8137 187.454C47.7661 187.348 47.6833 187.263 47.5794 187.211Z" fill="#2554E7"/>
<path fill-rule="evenodd" clip-rule="evenodd" d="M58.0547 181.225C58.1296 181.225 59.5757 183.292 54.4347 181.067C51.245 179.681 48.2985 177.792 45.7077 175.472C45.1859 175.004 45.992 174.289 46.5384 174.74C50.7644 178.231 53.5584 178.892 58.0957 181.225H58.0547Z" fill="#2554E7"/>
<path fill-rule="evenodd" clip-rule="evenodd" d="M63.6973 173.902C61.9294 172.558 60.0949 171.276 58.2919 169.975C57.7279 169.568 57.1816 170.504 57.7443 170.911C59.5274 172.182 61.273 173.494 63.0667 174.722C63.5347 175.046 64.1793 174.274 63.6973 173.891V173.902Z" fill="#2554E7"/>
<path fill-rule="evenodd" clip-rule="evenodd" d="M18.5807 148.09C16.7012 145.066 15.935 141.481 16.4139 137.952C16.4829 137.406 15.6639 137.312 15.4779 137.82C14.274 141.06 15.8418 145.836 17.6365 148.613C18.0086 149.194 18.9551 148.686 18.5807 148.09Z" fill="#2554E7"/>
<path fill-rule="evenodd" clip-rule="evenodd" d="M28.9166 146.221C27.4643 143.955 26.3692 141.479 25.6699 138.88C25.5248 138.333 24.8392 138.88 24.7901 139.353C24.7316 140.698 27.2775 145.999 27.9619 146.724C28.4405 147.237 29.3226 146.728 28.9166 146.221Z" fill="#2554E7"/>
<path fill-rule="evenodd" clip-rule="evenodd" d="M232.168 94.8355C232.668 104.213 231.705 113.61 229.312 122.691C229.28 122.817 229.299 122.951 229.365 123.064C229.431 123.176 229.538 123.259 229.664 123.293C229.789 123.328 229.923 123.312 230.038 123.249C230.152 123.186 230.237 123.081 230.275 122.956C232.426 115.253 234.334 102.815 233.189 94.7279C233.189 94.1569 232.136 94.2271 232.168 94.8355Z" fill="#2554E7"/>
<path fill-rule="evenodd" clip-rule="evenodd" d="M193.184 29.6687C192.704 29.2007 191.858 29.8406 192.354 30.3414C195.944 34.0273 199.174 38.0473 202.001 42.3468C202.313 42.8148 203.113 42.3468 202.882 41.8238C203.171 41.8238 199.74 36.1446 193.184 29.6687Z" fill="#2554E7"/>
<path fill-rule="evenodd" clip-rule="evenodd" d="M193.874 39.7798C194.202 40.2478 193.508 40.6936 193.127 40.3648C190.632 38.1862 184.305 30.7064 181.778 27.7955C181.388 27.3462 182.025 26.684 182.441 27.1309C185.122 29.9974 191.923 36.9718 193.874 39.7798Z" fill="#2554E7"/>
<path fill-rule="evenodd" clip-rule="evenodd" d="M214.275 61.5007C214.236 61.4461 214.188 61.3997 214.131 61.364C214.075 61.3283 214.012 61.304 213.946 61.2926C213.881 61.2812 213.813 61.2829 213.748 61.2975C213.683 61.3121 213.622 61.3394 213.567 61.3778C213.513 61.4162 213.466 61.465 213.43 61.5214C213.395 61.5777 213.37 61.6406 213.359 61.7063C213.348 61.772 213.349 61.8394 213.364 61.9045C213.379 61.9695 213.406 62.0311 213.444 62.0857C217.148 67.8187 217.901 71.5287 219.024 76.1339C219.163 76.7072 219.96 76.4743 219.979 75.935C220.168 71.6563 214.65 61.5007 214.275 61.5007Z" fill="#2554E7"/>
<path fill-rule="evenodd" clip-rule="evenodd" d="M209.049 61.6338C208.808 61.0032 207.784 61.2828 208.019 61.9333C208.463 63.1641 210.605 69.5582 211.295 70.5176C211.551 70.8756 212.246 70.7844 212.193 70.2602C212.016 68.6011 209.745 63.4531 209.049 61.6338Z" fill="#2554E7"/>
<path fill-rule="evenodd" clip-rule="evenodd" d="M224.375 99.5666C224.3 99.0858 223.409 98.8646 223.453 99.4344C223.587 103.692 223.281 107.951 222.541 112.145C222.424 112.818 223.437 112.81 223.587 112.145C224.382 107.997 224.647 103.765 224.375 99.5503V99.5666Z" fill="#2554E7"/>
<path fill-rule="evenodd" clip-rule="evenodd" d="M91.0925 26.0827C88.7349 24.481 83.2394 25.0578 80.6221 26.016C79.8921 26.2828 80.1483 27.4668 80.8971 27.2036C86.1621 25.348 88.7923 27.0129 90.8105 27.0456C90.9234 27.0455 91.0332 27.0087 91.1236 26.941C91.2139 26.8732 91.2798 26.778 91.3116 26.6696C91.3433 26.5613 91.3391 26.4455 91.2996 26.3397C91.2601 26.234 91.1875 26.1438 91.0925 26.0827Z" fill="#2554E7"/>
<path fill-rule="evenodd" clip-rule="evenodd" d="M164.022 60.0969C163.932 59.4581 163.059 59.6991 162.992 60.2303C162.241 66.209 162.513 72.4731 161.622 78.7864C161.534 79.4101 162.617 79.5668 162.719 78.9444C163.533 73.9602 164.704 64.9348 164.022 60.0969Z" fill="#2554E7"/>
<path fill-rule="evenodd" clip-rule="evenodd" d="M128.513 18.9249C127.991 18.4569 127.226 19.1835 127.724 19.6971C138.451 30.7302 141.804 39.2525 145.157 48.9307C145.38 49.5707 146.623 49.256 146.444 48.5985C143.097 36.2702 135.291 24.9727 128.513 18.9249Z" fill="#2554E7"/>
<rect x="48.3508" y="87.4041" width="126.008" height="42.2325" rx="5.60219" transform="rotate(-6.01037 48.3508 87.4041)" fill="#0B1F33"/>
<rect x="48.3508" y="87.4041" width="126.008" height="42.2325" rx="5.60219" transform="rotate(-6.01037 48.3508 87.4041)" stroke="#0B1F33" stroke-width="1.20686"/>
<path d="M67.3693 112.165L66.0805 99.925L74.7361 99.0137L74.8926 100.5L67.8108 101.246L68.1513 104.48L71.736 104.103C73.0999 103.959 74.2033 104.197 75.0464 104.815C75.8998 105.421 76.3854 106.283 76.5033 107.402C76.6211 108.521 76.3263 109.472 75.6189 110.253C74.922 111.022 73.8915 111.478 72.5276 111.622L67.3693 112.165ZM68.7865 110.513L72.3711 110.136C73.2687 110.041 73.935 109.765 74.37 109.306C74.8154 108.835 75.002 108.256 74.9295 107.568C74.8571 106.88 74.5546 106.358 74.0221 106.002C73.4999 105.632 72.7901 105.495 71.8925 105.589L68.3078 105.967L68.7865 110.513ZM78.6443 110.978L77.7238 102.235L79.1226 102.088L79.813 108.645L79.8139 108.822L79.8489 108.818L83.8438 101.591L85.4176 101.425L86.3381 110.168L84.9392 110.315L84.2488 103.758L84.2479 103.581L84.2129 103.585L80.218 110.812L78.6443 110.978ZM87.4161 105.281C87.1387 102.646 87.4212 100.684 88.2636 99.3927C89.1059 98.1018 90.483 97.3557 92.3948 97.1544L94.4931 96.9335L94.6496 98.4198L92.5513 98.6407C91.1641 98.7868 90.161 99.2224 89.5419 99.9476C88.9333 100.66 88.6235 101.747 88.6125 103.21L88.63 103.208C88.7778 102.933 88.9864 102.676 89.2557 102.435C89.8595 101.9 90.616 101.585 91.5252 101.489C92.7143 101.364 93.7346 101.651 94.5862 102.351C95.4483 103.039 95.9419 103.977 96.0671 105.166C96.1935 106.366 95.895 107.394 95.1717 108.248C94.46 109.101 93.4746 109.593 92.2157 109.726C90.9217 109.862 89.8388 109.54 88.9669 108.76C88.0951 107.979 87.5781 106.82 87.4161 105.281ZM89.5098 103.841C89.0184 104.434 88.8144 105.128 88.8978 105.92C88.9813 106.713 89.3252 107.349 89.9295 107.827C90.5339 108.306 91.2499 108.502 92.0776 108.414C92.9052 108.327 93.5648 107.987 94.0562 107.393C94.5477 106.799 94.7516 106.106 94.6682 105.313C94.5847 104.52 94.2408 103.885 93.6365 103.406C93.0321 102.928 92.3161 102.732 91.4884 102.819C90.6608 102.906 90.0012 103.247 89.5098 103.841ZM96.8235 109.064L98.351 100.063L102.023 99.6766L105.392 108.162L103.905 108.318L101.112 101.099L99.5382 101.264L98.3098 108.907L96.8235 109.064ZM106.437 108.052L105.516 99.3089L106.915 99.1616L107.605 105.719L107.606 105.896L107.641 105.892L111.636 98.6645L113.21 98.4988L114.13 107.242L112.732 107.389L112.041 100.832L112.04 100.655L112.005 100.659L108.01 107.886L106.437 108.052ZM116.882 105.821C115.928 105.049 115.383 104.01 115.245 102.704C115.108 101.399 115.425 100.269 116.197 99.3158C116.969 98.3624 118.007 97.8169 119.313 97.6794C120.619 97.542 121.748 97.8591 122.702 98.631C123.655 99.4028 124.201 100.441 124.338 101.747C124.475 103.053 124.158 104.182 123.386 105.136C122.615 106.089 121.576 106.635 120.27 106.772C118.965 106.91 117.835 106.592 116.882 105.821ZM117.291 100.138C116.76 100.806 116.545 101.613 116.644 102.557C116.744 103.501 117.122 104.245 117.781 104.789C118.439 105.332 119.223 105.556 120.132 105.461C121.042 105.365 121.762 104.983 122.292 104.314C122.823 103.645 123.039 102.839 122.939 101.894C122.84 100.95 122.461 100.206 121.802 99.6627C121.144 99.1191 120.36 98.8951 119.451 98.9909C118.542 99.0866 117.822 99.4689 117.291 100.138ZM124.446 98.6418L124.308 97.3303L131.827 96.5387L131.965 97.8501L128.905 98.1723L129.687 105.604L128.289 105.751L127.506 98.3196L124.446 98.6418ZM134.351 103.981C133.409 103.208 132.869 102.169 132.732 100.863C132.594 99.5577 132.906 98.4288 133.666 97.4766C134.426 96.5243 135.442 95.9813 136.712 95.8475C137.983 95.7137 139.088 96.0275 140.029 96.7889C140.97 97.5503 141.507 98.5663 141.641 99.837L141.696 100.362L134.177 101.153C134.356 101.959 134.759 102.595 135.385 103.059C136.012 103.524 136.727 103.713 137.531 103.629C138.394 103.538 139.107 103.198 139.669 102.608C139.925 102.345 140.118 102.06 140.251 101.751L141.65 101.604C141.498 102.174 141.251 102.689 140.911 103.149C140.102 104.201 139.022 104.798 137.67 104.94C136.399 105.074 135.293 104.754 134.351 103.981ZM134.083 99.9255L140.081 99.294C139.903 98.6173 139.522 98.074 138.937 97.6642C138.35 97.2427 137.655 97.0743 136.85 97.159C136.046 97.2437 135.395 97.5538 134.897 98.0895C134.399 98.6134 134.127 99.2254 134.083 99.9255ZM143.681 104.13L142.76 95.3875L144.159 95.2402L144.528 98.7374L146.276 98.5533L148.706 94.7616L150.367 94.5867L147.565 99.0364L151.55 103.302L149.801 103.486L146.414 99.8648L144.666 100.049L145.08 103.983L143.681 104.13ZM152.758 102.043C151.85 101.255 151.328 100.214 151.192 98.9197C151.056 97.6258 151.35 96.5045 152.075 95.556C152.799 94.5957 153.744 94.0543 154.91 93.9315C155.644 93.8542 156.277 93.9291 156.808 94.1561C157.35 94.3818 157.755 94.6456 158.022 94.9475L158.207 95.1932L158.225 95.1914L158.076 93.775L159.475 93.6277L160.395 102.371L158.996 102.518L158.849 101.119L158.831 101.121L158.7 101.382C158.523 101.719 158.194 102.06 157.711 102.406C157.228 102.74 156.613 102.946 155.867 103.024C154.701 103.147 153.665 102.82 152.758 102.043ZM153.185 96.3585C152.689 97.0235 152.491 97.8282 152.591 98.7725C152.69 99.7167 153.052 100.462 153.675 101.01C154.31 101.556 155.053 101.784 155.904 101.694C156.755 101.605 157.428 101.227 157.924 100.562C158.431 99.896 158.635 99.0907 158.536 98.1465C158.437 97.2023 158.069 96.4571 157.434 95.9111C156.811 95.3638 156.074 95.135 155.223 95.2246C154.372 95.3142 153.693 95.6921 153.185 96.3585Z" fill="white"/>
<rect x="94.1805" y="117.241" width="88.7746" height="42.2325" rx="5.60219" transform="rotate(-2.93998 94.1805 117.241)" fill="white"/>
<rect x="94.1805" y="117.241" width="88.7746" height="42.2325" rx="5.60219" transform="rotate(-2.93998 94.1805 117.241)" stroke="#0B1F33" stroke-width="1.20686"/>
<path d="M110.974 140.301L112.379 140.229C112.464 140.518 112.612 140.774 112.823 140.998C113.284 141.503 113.982 141.731 114.919 141.683C115.621 141.647 116.152 141.484 116.513 141.196C116.885 140.895 117.061 140.552 117.041 140.165C117.021 139.779 116.83 139.472 116.466 139.244C116.102 139.016 115.569 138.92 114.867 138.956L113.813 139.011L113.745 137.694L114.799 137.64C116.087 137.573 116.709 137.131 116.667 136.311C116.65 135.972 116.46 135.694 116.096 135.478C115.744 135.249 115.24 135.152 114.585 135.186C113.836 135.224 113.25 135.477 112.828 135.945C112.673 136.117 112.549 136.341 112.458 136.615L111.053 136.688C111.134 136.202 111.316 135.753 111.6 135.339C112.245 134.426 113.218 133.935 114.517 133.869C115.618 133.812 116.472 134.003 117.082 134.441C117.703 134.879 118.031 135.449 118.068 136.151C118.116 137.099 117.663 137.762 116.708 138.14L116.674 138.159L116.675 138.177C116.71 138.175 116.781 138.189 116.889 138.219C116.996 138.249 117.134 138.312 117.303 138.409C117.484 138.493 117.654 138.608 117.814 138.752C117.973 138.885 118.112 139.077 118.231 139.329C118.361 139.581 118.434 139.865 118.451 140.181C118.489 140.93 118.205 141.573 117.599 142.108C116.993 142.644 116.122 142.941 114.986 143C113.523 143.075 112.415 142.65 111.664 141.727C111.337 141.309 111.107 140.834 110.974 140.301ZM120.163 142.558L119.712 133.778L121.117 133.706L121.302 137.306L126.219 137.053L126.034 133.453L127.439 133.381L127.89 142.161L126.485 142.233L126.286 138.37L121.37 138.622L121.568 142.486L120.163 142.558ZM130.643 140.893C129.778 140.057 129.313 138.989 129.246 137.69C129.179 136.39 129.533 135.287 130.308 134.378C131.082 133.458 132.055 132.968 133.226 132.908C133.963 132.87 134.591 132.979 135.109 133.234C135.638 133.488 136.028 133.773 136.279 134.089L136.451 134.344L136.468 134.344L136.395 132.921L137.8 132.849L138.251 141.629L136.846 141.701L136.774 140.296L136.756 140.297L136.611 140.551C136.417 140.878 136.069 141.201 135.569 141.52C135.069 141.827 134.444 142 133.695 142.039C132.524 142.099 131.507 141.717 130.643 140.893ZM131.373 135.239C130.843 135.877 130.602 136.669 130.651 137.618C130.699 138.566 131.02 139.33 131.613 139.91C132.218 140.489 132.948 140.757 133.802 140.713C134.657 140.669 135.35 140.328 135.88 139.691C136.423 139.052 136.669 138.259 136.621 137.311C136.572 136.363 136.245 135.599 135.64 135.02C135.047 134.44 134.323 134.172 133.469 134.216C132.614 134.26 131.916 134.601 131.373 135.239ZM140.364 141.52L139.913 132.741L141.318 132.668L141.503 136.268L146.42 136.016L146.235 132.416L147.64 132.344L148.09 141.123L146.686 141.196L146.487 137.333L141.571 137.585L141.769 141.448L140.364 141.52ZM150.199 141.015L149.748 132.235L151.153 132.163L151.491 138.748L151.482 138.925L151.518 138.923L155.894 131.92L157.474 131.839L157.925 140.618L156.52 140.691L156.182 134.106L156.191 133.929L156.156 133.931L151.779 140.934L150.199 141.015ZM160.034 140.51L159.583 131.73L160.987 131.658L161.326 138.243L161.317 138.42L161.352 138.418L165.728 131.415L167.309 131.334L167.76 140.113L166.355 140.185L166.017 133.601L166.025 133.424L165.99 133.426L161.614 140.429L160.034 140.51ZM160.667 128.154L161.984 128.086C162 128.402 162.124 128.654 162.357 128.841C162.589 129.017 162.921 129.094 163.355 129.072C163.788 129.05 164.111 128.939 164.324 128.74C164.536 128.53 164.634 128.267 164.617 127.951L165.934 127.883C165.967 128.527 165.76 129.066 165.313 129.499C164.866 129.933 164.233 130.171 163.413 130.213C162.594 130.255 161.939 130.083 161.45 129.698C160.961 129.312 160.7 128.797 160.667 128.154Z" fill="#0B1F33"/>
</svg>
