<svg width="390" height="250" viewBox="0 0 390 250" fill="none" xmlns="http://www.w3.org/2000/svg">
<g clip-path="url(#clip0_5876_31009)">
<rect width="390" height="250" fill="white"/>
<path d="M315.438 38.9619C299.718 38.9619 326.522 -154.082 259.499 -132.284C195.776 -111.56 284.879 38.9619 269.906 38.9619C254.934 38.9619 150.286 30.2946 143.319 77.4923C135.538 130.203 272.627 100.699 276.711 107.46C280.795 114.222 222.885 194.278 259.499 218.77C297.431 244.144 345.865 150.272 354.165 150.272C362.464 150.272 405.359 304.054 440.224 261.582C468.559 227.065 401.014 150.272 414.406 150.272C427.798 150.272 527.709 158.073 543.495 107.46C562.789 45.6052 390.367 89.7749 379.982 77.4923C369.597 65.2097 463.092 -33.3834 414.406 -59.5047C366.335 -85.2962 331.158 38.9619 315.438 38.9619Z" fill="#F9F9F9"/>
<path d="M171.078 46.3947C189.055 43.9246 233.407 44.5833 267 66.9788L241.064 197.893C240.795 197.793 240.52 197.692 240.241 197.589C234.313 198.662 228.439 202.905 226.244 204.892L122.5 175.663L153.376 52.9816C156.011 48.3708 166.275 46.6692 171.078 46.3947Z" fill="#2554E7"/>
<path d="M171.078 46.3947C189.055 43.9246 233.407 44.5833 267 66.9788L241.064 197.893C240.795 197.793 240.52 197.692 240.241 197.589M171.078 46.3947L139.379 171.134M171.078 46.3947C166.275 46.6692 156.011 48.3708 153.376 52.9816L122.5 175.663M139.379 171.134C132.133 170.203 125.107 173.765 122.5 175.663M139.379 171.134C171.551 174.384 219.463 189.926 240.241 197.589M122.5 175.663L226.244 204.892C228.439 202.905 234.313 198.662 240.241 197.589" stroke="#0B1F33" stroke-width="3.29345"/>
<path d="M139.379 171.134C132.133 170.202 125.107 173.765 122.5 175.662L226.244 204.892C228.439 202.905 234.313 198.662 240.241 197.588C219.463 189.926 171.551 174.384 139.379 171.134Z" fill="white"/>
<path d="M241.064 197.893C240.795 197.793 240.52 197.691 240.241 197.588M240.241 197.588C219.463 189.926 171.551 174.384 139.379 171.134C132.133 170.202 125.107 173.765 122.5 175.662L226.244 204.892C228.439 202.905 234.313 198.662 240.241 197.588Z" stroke="#0B1F33" stroke-width="3.29345"/>
<path d="M190.314 80.942L188.586 80.4787L188.878 79.3883L190.607 79.8515C190.874 79.9231 191.103 79.9379 191.294 79.8959C191.486 79.8507 191.642 79.7593 191.762 79.6217C191.882 79.4841 191.969 79.3159 192.022 79.117C192.076 78.9151 192.088 78.7167 192.057 78.522C192.026 78.3272 191.94 78.1545 191.801 78.0039C191.661 77.8533 191.458 77.7423 191.191 77.6707L189.947 77.3373L188.422 83.0271L187.024 82.6525L188.842 75.8676L191.484 76.5756C192.016 76.7179 192.445 76.9362 192.772 77.2303C193.104 77.5222 193.325 77.863 193.437 78.2526C193.549 78.6423 193.548 79.053 193.432 79.4848C193.314 79.9228 193.112 80.2748 192.824 80.5407C192.537 80.8066 192.178 80.9753 191.75 81.0469C191.324 81.1193 190.846 81.0843 190.314 80.942ZM197.109 82.7178L199.936 78.8403L201.442 79.2436L197.65 84.0914C197.52 84.2561 197.379 84.4098 197.227 84.5524C197.08 84.6927 196.917 84.8104 196.738 84.9057C196.56 84.9979 196.361 85.0562 196.142 85.0806C195.923 85.1019 195.675 85.0755 195.399 85.0014C195.33 84.9831 195.247 84.9591 195.148 84.9293C195.05 84.8996 194.972 84.8737 194.914 84.8517L195.197 83.7587C195.232 83.778 195.289 83.8001 195.369 83.8248C195.45 83.8465 195.509 83.8623 195.546 83.8723C195.73 83.9214 195.881 83.9337 196.001 83.9092C196.121 83.8847 196.225 83.8326 196.313 83.7529C196.405 83.671 196.493 83.5699 196.579 83.4496L197.109 82.7178ZM197.164 78.0974L197.811 81.8718L197.831 83.5304L196.787 83.2705L195.663 77.6953L197.164 78.0974ZM205.92 85.3033L207.313 85.6767C207.163 86.1259 206.929 86.4976 206.61 86.7918C206.295 87.0869 205.911 87.2805 205.46 87.3728C205.013 87.4659 204.511 87.438 203.955 87.289C203.52 87.1724 203.15 86.9934 202.845 86.7519C202.541 86.5072 202.304 86.2107 202.134 85.8622C201.968 85.5146 201.874 85.1233 201.854 84.6884C201.834 84.2535 201.891 83.7876 202.024 83.2905L202.15 82.8198C202.284 82.3228 202.469 81.8913 202.707 81.5255C202.949 81.1575 203.23 80.865 203.551 80.648C203.876 80.4319 204.231 80.2939 204.616 80.2341C205.002 80.1743 205.408 80.2014 205.833 80.3154C206.399 80.4669 206.848 80.6972 207.181 81.0063C207.518 81.3163 207.745 81.6801 207.863 82.0979C207.984 82.5166 208.004 82.9616 207.925 83.4331L206.527 83.0585C206.584 82.7809 206.592 82.5349 206.55 82.3204C206.508 82.1028 206.405 81.9205 206.242 81.7734C206.082 81.6241 205.847 81.5078 205.536 81.4245C205.303 81.3621 205.088 81.3511 204.891 81.3914C204.693 81.4318 204.512 81.5247 204.346 81.6702C204.181 81.8156 204.032 82.0156 203.901 82.27C203.773 82.5222 203.661 82.8285 203.565 83.1889L203.436 83.6688C203.342 84.0199 203.286 84.3361 203.267 84.6174C203.249 84.8956 203.27 85.141 203.33 85.3534C203.393 85.5635 203.499 85.7385 203.648 85.8783C203.801 86.0159 204.002 86.1179 204.251 86.1845C204.543 86.2628 204.796 86.2807 205.01 86.2383C205.225 86.1959 205.406 86.0963 205.555 85.9397C205.706 85.7838 205.828 85.5717 205.92 85.3033ZM213.31 87.2834L214.703 87.6567C214.553 88.1059 214.318 88.4776 214 88.7719C213.684 89.0669 213.301 89.2606 212.85 89.3528C212.402 89.446 211.9 89.418 211.344 89.269C210.909 89.1525 210.539 88.9734 210.235 88.7319C209.93 88.4873 209.694 88.1907 209.524 87.8423C209.357 87.4946 209.264 87.1034 209.244 86.6685C209.224 86.2336 209.281 85.7676 209.414 85.2706L209.54 84.7999C209.673 84.3028 209.859 83.8714 210.097 83.5056C210.338 83.1375 210.62 82.845 210.941 82.6281C211.265 82.412 211.62 82.274 212.006 82.2142C212.392 82.1543 212.797 82.1814 213.223 82.2955C213.788 82.447 214.238 82.6773 214.571 82.9864C214.908 83.2963 215.135 83.6602 215.252 84.078C215.373 84.4966 215.394 84.9417 215.314 85.4131L213.916 85.0385C213.974 84.761 213.982 84.515 213.939 84.3005C213.898 84.0829 213.795 83.9006 213.631 83.7535C213.472 83.6041 213.236 83.4878 212.926 83.4046C212.693 83.3421 212.477 83.3311 212.28 83.3715C212.083 83.4118 211.902 83.5048 211.736 83.6502C211.571 83.7956 211.422 83.9956 211.291 84.2501C211.163 84.5023 211.051 84.8085 210.954 85.1689L210.826 85.6489C210.732 85.9999 210.675 86.3161 210.657 86.5975C210.639 86.8757 210.66 87.121 210.719 87.3334C210.783 87.5436 210.889 87.7186 211.038 87.8584C211.191 87.9959 211.392 88.098 211.64 88.1646C211.932 88.2428 212.185 88.2607 212.4 88.2183C212.614 88.1759 212.796 88.0764 212.944 87.9197C213.096 87.7639 213.218 87.5518 213.31 87.2834ZM219.384 84.0512L217.566 90.8362L216.168 90.4616L217.986 83.6766L219.384 84.0512ZM223.382 85.1226L219.714 88.4101L218.004 87.9519L218.16 86.6602L219.302 86.9661L221.686 84.6681L223.382 85.1226ZM220.124 91.5217L219.036 87.9786L220.272 87.2411L221.783 91.9662L220.124 91.5217ZM225.414 90.5818L229.369 86.7268L230.767 87.1014L228.949 93.8863L227.551 93.5117L228.78 88.9263L224.825 92.7813L223.427 92.4067L225.245 85.6217L226.643 85.9963L225.414 90.5818ZM233.242 92.6792L237.197 88.8242L238.595 89.1988L236.777 95.9838L235.379 95.6092L236.608 91.0237L232.653 94.8787L231.255 94.5041L233.073 87.7192L234.471 88.0937L233.242 92.6792ZM236.989 86.8605L237.944 87.1165C237.873 87.3837 237.742 87.6034 237.553 87.7758C237.367 87.9459 237.138 88.0575 236.864 88.1106C236.591 88.1606 236.289 88.1415 235.96 88.0533C235.46 87.9192 235.098 87.6857 234.874 87.3527C234.653 87.0206 234.597 86.6526 234.705 86.2487L235.656 86.5034C235.613 86.665 235.624 86.8227 235.689 86.9768C235.757 87.1316 235.914 87.2419 236.16 87.3077C236.402 87.3726 236.59 87.3547 236.724 87.254C236.857 87.1532 236.946 87.0221 236.989 86.8605ZM198.935 95.6251L197.089 95.1307L196.671 94.8088C196.185 94.4987 195.845 94.138 195.652 93.7268C195.463 93.3163 195.437 92.8517 195.576 92.3329C195.699 91.8762 195.902 91.5212 196.186 91.2677C196.475 91.012 196.826 90.8548 197.242 90.7963C197.66 90.7386 198.127 90.7788 198.643 90.917L201.01 91.5513L199.192 98.3363L197.789 97.9604L199.314 92.2706L198.349 92.0121C197.967 91.9097 197.661 91.9291 197.43 92.0703C197.199 92.2116 197.037 92.4562 196.943 92.8041C196.875 93.0588 196.861 93.2798 196.901 93.4669C196.941 93.6509 197.032 93.805 197.171 93.929C197.312 94.05 197.505 94.1433 197.751 94.2091L199.205 94.5987L198.935 95.6251ZM197.739 94.7004L195.422 97.3261L193.908 96.9203L196.229 94.2959L197.739 94.7004ZM204.886 96.3756L203.832 96.0934L204.031 95.3525L204.87 95.5772C205.115 95.643 205.324 95.659 205.496 95.6252C205.669 95.5884 205.81 95.5096 205.919 95.3889C206.028 95.2683 206.108 95.1132 206.159 94.9237C206.2 94.7684 206.198 94.6146 206.152 94.4625C206.11 94.3112 206.016 94.1747 205.873 94.0529C205.73 93.928 205.531 93.8314 205.276 93.7632C205.083 93.7116 204.899 93.6987 204.722 93.7246C204.545 93.7505 204.394 93.8131 204.267 93.9124C204.141 94.0086 204.055 94.1436 204.009 94.3176L202.615 93.9443C202.695 93.646 202.83 93.3959 203.021 93.1939C203.216 92.9897 203.447 92.8352 203.715 92.7305C203.986 92.6235 204.281 92.566 204.6 92.5581C204.918 92.5502 205.241 92.59 205.567 92.6774C205.949 92.7798 206.283 92.9141 206.568 93.0804C206.854 93.2436 207.085 93.4355 207.262 93.6562C207.44 93.8768 207.555 94.1226 207.609 94.3934C207.663 94.6642 207.648 94.9581 207.563 95.275C207.5 95.508 207.389 95.7129 207.228 95.8896C207.068 96.0663 206.869 96.2061 206.632 96.309C206.394 96.4119 206.127 96.4718 205.829 96.4886C205.533 96.5024 205.218 96.4647 204.886 96.3756ZM203.941 95.688L204.994 95.9702C205.364 96.0693 205.681 96.1959 205.946 96.3502C206.214 96.5052 206.428 96.684 206.587 96.8864C206.749 97.0896 206.851 97.3152 206.895 97.5633C206.942 97.8091 206.928 98.0733 206.852 98.356C206.767 98.6729 206.627 98.9366 206.431 99.147C206.237 99.3583 206 99.5178 205.718 99.6254C205.439 99.7338 205.128 99.7886 204.785 99.7899C204.445 99.792 204.084 99.7418 203.701 99.6394C203.397 99.5578 203.104 99.4394 202.823 99.2841C202.542 99.1257 202.3 98.9344 202.097 98.7102C201.894 98.486 201.753 98.23 201.674 97.9424C201.594 97.6547 201.601 97.3369 201.695 96.989L203.097 97.3648C203.053 97.5295 203.061 97.6931 203.121 97.8556C203.181 98.0149 203.286 98.1579 203.435 98.2845C203.585 98.4079 203.771 98.4992 203.991 98.5583C204.249 98.6274 204.479 98.6457 204.681 98.6132C204.886 98.5815 205.053 98.5083 205.184 98.3935C205.319 98.2764 205.409 98.1324 205.455 97.9615C205.504 97.7782 205.52 97.6162 205.505 97.4755C205.489 97.3349 205.444 97.2112 205.37 97.1046C205.296 96.995 205.192 96.9023 205.059 96.8268C204.93 96.752 204.771 96.6897 204.585 96.6397L203.746 96.415L203.941 95.688ZM210.601 96.7734L212.186 97.198C212.717 97.3403 213.152 97.5516 213.489 97.8319C213.83 98.1131 214.06 98.4411 214.18 98.816C214.302 99.1918 214.306 99.5925 214.192 100.018C214.106 100.341 213.968 100.62 213.778 100.856C213.589 101.088 213.357 101.273 213.081 101.408C212.805 101.541 212.495 101.618 212.15 101.638C211.805 101.659 211.432 101.616 211.031 101.508L208.533 100.839L210.351 94.0542L211.754 94.4301L210.228 100.125L211.323 100.418C211.587 100.489 211.819 100.498 212.02 100.445C212.224 100.393 212.391 100.296 212.522 100.155C212.654 100.011 212.747 99.8373 212.801 99.6354C212.853 99.4428 212.856 99.2572 212.811 99.0785C212.766 98.8968 212.667 98.7371 212.515 98.5996C212.365 98.4629 212.158 98.3592 211.894 98.2884L210.309 97.8639L210.601 96.7734ZM217.42 95.9484L215.602 102.733L214.209 102.36L216.027 95.5751L217.42 95.9484ZM221.185 96.957L219.367 103.742L217.969 103.367L219.787 96.5824L221.185 96.957ZM225.183 98.0284L221.515 101.316L219.805 100.858L219.961 99.566L221.103 99.8719L223.487 97.5739L225.183 98.0284ZM221.925 104.427L220.836 100.884L222.073 100.147L223.584 104.872L221.925 104.427Z" fill="white"/>
<path d="M245.189 152.336L243.283 131.688L261.26 137.481L302.624 187.858L309.871 196.684C308.947 202.009 304.13 212.294 292.245 210.836L285.052 201.894L245.189 152.336Z" fill="white"/>
<path d="M292.245 210.836C304.13 212.294 308.947 202.009 309.871 196.684M292.245 210.836C294.781 206.085 301.857 196.602 309.871 196.684M292.245 210.836L285.052 201.894M245.189 152.336L243.283 131.688M245.189 152.336L285.052 201.894M245.189 152.336C245.801 151.116 246.695 149.568 247.81 147.933M243.283 131.688L261.26 137.481M243.283 131.688L240.269 127.999M261.26 137.481C272.671 151.379 292.119 175.064 302.624 187.858M261.26 137.481C259.04 137.68 256.889 138.719 254.905 140.197M309.871 196.684C309.871 196.684 307.036 193.231 302.624 187.858M302.624 187.858C301.006 188.295 298.73 189.136 296.328 190.4M285.052 201.894C285.73 200.015 286.772 198.328 288.032 196.828M288.032 196.828L247.81 147.933M288.032 196.828C289.225 195.408 290.613 194.156 292.073 193.067M247.81 147.933C248.741 146.569 249.826 145.144 251.03 143.801M292.073 193.067L251.03 143.801M292.073 193.067C293.463 192.03 294.917 191.143 296.328 190.4M251.03 143.801C252.217 142.475 253.52 141.229 254.905 140.197M296.328 190.4L254.905 140.197" stroke="#0B1F33" stroke-width="2.5"/>
<rect x="79.1953" y="143.45" width="103" height="42" rx="6" transform="rotate(-11.2861 79.1953 143.45)" fill="#0B1F33"/>
<path d="M99.9052 167.823L99.2731 164.655L100.19 164.472L100.693 157.004L104.194 156.306L107.525 163.008L108.442 162.825L109.074 165.993L107.741 166.259L107.358 164.342L100.856 165.639L101.239 167.557L99.9052 167.823ZM101.524 164.206L106.192 163.274L103.443 157.756L101.943 158.055L101.524 164.206ZM110.122 162.681C109.136 162.022 108.518 161.071 108.27 159.826C108.021 158.581 108.226 157.466 108.885 156.479C109.543 155.492 110.494 154.875 111.739 154.627C112.984 154.378 114.1 154.583 115.086 155.241C116.073 155.9 116.69 156.851 116.939 158.096C117.187 159.341 116.982 160.457 116.324 161.443C115.666 162.43 114.714 163.047 113.469 163.296C112.224 163.544 111.109 163.339 110.122 162.681ZM110.011 157.173C109.56 157.864 109.424 158.66 109.603 159.56C109.783 160.46 110.214 161.143 110.896 161.608C111.578 162.072 112.353 162.218 113.22 162.045C114.087 161.872 114.746 161.44 115.197 160.749C115.649 160.058 115.785 159.262 115.605 158.362C115.425 157.462 114.994 156.779 114.312 156.315C113.63 155.85 112.856 155.704 111.989 155.877C111.122 156.05 110.463 156.482 110.011 157.173ZM119.264 161.966L117.601 153.63L119.601 153.231L123.133 157.9L123.55 157.817L125.02 152.15L127.02 151.75L128.684 160.086L127.35 160.352L126.019 153.684L126.003 153.514L125.969 153.52L124.517 159.184L122.766 159.533L119.251 154.861L119.217 154.868L119.267 155.031L120.598 161.7L119.264 161.966ZM131.139 158.486C130.195 157.808 129.6 156.852 129.354 155.618C129.107 154.385 129.291 153.279 129.905 152.301C130.517 151.313 131.378 150.707 132.49 150.485C133.19 150.346 133.806 150.361 134.337 150.533C134.879 150.702 135.292 150.92 135.577 151.187L135.777 151.407L135.793 151.404L135.524 150.053L136.857 149.787L138.521 158.123L137.187 158.389L136.921 157.055L136.904 157.059L136.801 157.322C136.661 157.662 136.374 158.02 135.94 158.395C135.505 158.759 134.931 159.013 134.22 159.154C133.108 159.376 132.082 159.154 131.139 158.486ZM131.045 152.975C130.627 153.66 130.508 154.452 130.687 155.352C130.867 156.253 131.281 156.938 131.93 157.41C132.59 157.879 133.326 158.033 134.137 157.871C134.948 157.709 135.563 157.286 135.981 156.601C136.41 155.915 136.535 155.121 136.356 154.221C136.176 153.321 135.756 152.636 135.096 152.167C134.447 151.695 133.717 151.541 132.906 151.702C132.095 151.864 131.474 152.289 131.045 152.975ZM140.527 157.722L138.864 149.387L140.198 149.121L141.612 156.206L144.946 155.54L143.532 148.455L144.866 148.189L146.28 155.274L149.614 154.609L148.2 147.524L149.533 147.257L151.197 155.593L140.527 157.722ZM153.202 155.193L151.539 146.857L152.872 146.591L153.538 149.925L155.205 149.593L157.207 145.726L158.791 145.41L156.488 149.943L160.704 153.696L159.037 154.028L155.454 150.843L153.787 151.176L154.536 154.927L153.202 155.193ZM161.628 153.511L159.964 145.176L161.298 144.91L162.545 151.161L162.562 151.331L162.595 151.325L165.799 144.011L167.299 143.712L168.963 152.048L167.629 152.314L166.382 146.062L166.365 145.892L166.332 145.899L163.128 153.212L161.628 153.511Z" fill="white"/>
<rect x="28.5442" y="111.795" width="94" height="41" rx="5.5" transform="rotate(-5.31677 28.5442 111.795)" fill="white"/>
<rect x="28.5442" y="111.795" width="94" height="41" rx="5.5" transform="rotate(-5.31677 28.5442 111.795)" stroke="#0B1F33"/>
<path d="M46.7709 135.709L45.6682 123.86L53.2006 123.159L53.3345 124.598L47.3255 125.157L48.2943 135.567L46.7709 135.709ZM55.4531 133.808C54.5403 133.051 54.0251 132.04 53.9075 130.776C53.7899 129.512 54.1098 128.424 54.8671 127.511C55.6244 126.599 56.6351 126.083 57.8989 125.966C59.1628 125.848 60.2511 126.168 61.1639 126.925C62.0767 127.683 62.5919 128.693 62.7095 129.957C62.8271 131.221 62.5072 132.309 61.7499 133.222C60.9925 134.135 59.9819 134.65 58.7181 134.768C57.4542 134.885 56.3659 134.565 55.4531 133.808ZM55.9154 128.319C55.3945 128.959 55.1766 129.736 55.2617 130.65C55.3467 131.564 55.7043 132.288 56.3344 132.821C56.9646 133.354 57.7197 133.58 58.5999 133.498C59.4801 133.416 60.1807 133.055 60.7016 132.415C61.2225 131.774 61.4404 130.997 61.3553 130.083C61.2703 129.169 60.9127 128.445 60.2825 127.912C59.6524 127.379 58.8973 127.153 58.0171 127.235C57.1369 127.317 56.4363 127.678 55.9154 128.319ZM62.8504 126.956L62.7322 125.687L70.0108 125.009L70.1289 126.279L67.1667 126.555L67.8362 133.748L66.4821 133.874L65.8126 126.681L62.8504 126.956ZM72.3806 132.233C71.4678 131.475 70.9526 130.465 70.835 129.201C70.7174 127.937 71.0373 126.849 71.7946 125.936C72.552 125.023 73.5626 124.508 74.8264 124.39C76.0903 124.273 77.1786 124.593 78.0914 125.35C79.0042 126.107 79.5194 127.118 79.637 128.382C79.7546 129.646 79.4348 130.734 78.6774 131.647C77.9201 132.56 76.9095 133.075 75.6456 133.192C74.3817 133.31 73.2934 132.99 72.3806 132.233ZM72.8429 126.743C72.322 127.384 72.1041 128.161 72.1892 129.075C72.2742 129.989 72.6318 130.713 73.262 131.246C73.8921 131.779 74.6472 132.005 75.5274 131.923C76.4076 131.841 77.1082 131.48 77.6291 130.839C78.15 130.199 78.3679 129.422 78.2828 128.508C78.1978 127.594 77.8402 126.87 77.2101 126.337C76.5799 125.804 75.8248 125.578 74.9446 125.66C74.0644 125.742 73.3638 126.103 72.8429 126.743ZM81.5476 132.472L80.76 124.009L84.9071 123.623C85.697 123.55 86.336 123.689 86.8242 124.042C87.3123 124.395 87.5852 124.882 87.643 125.503C87.6693 125.785 87.6539 126.048 87.597 126.292C87.539 126.525 87.4599 126.715 87.3596 126.861C87.2583 126.995 87.1442 127.114 87.0172 127.217C86.9004 127.308 86.7984 127.374 86.7113 127.416C86.6344 127.446 86.579 127.463 86.5452 127.466L86.5468 127.483C86.5806 127.48 86.6499 127.49 86.7546 127.515C86.8583 127.528 86.9938 127.578 87.1613 127.665C87.3389 127.739 87.5074 127.837 87.6667 127.959C87.826 128.081 87.9685 128.267 88.0942 128.517C88.2312 128.766 88.3144 129.048 88.3439 129.364C88.4121 130.098 88.2133 130.714 87.7475 131.212C87.293 131.71 86.6144 132.001 85.7116 132.085L81.5476 132.472ZM82.4371 127.353L85.1454 127.101C85.9917 127.022 86.3807 126.616 86.3125 125.883C86.2442 125.149 85.7869 124.822 84.9406 124.9L82.2323 125.152L82.4371 127.353ZM82.7836 131.077L85.5766 130.817C86.0731 130.771 86.4406 130.623 86.6791 130.373C86.9177 130.123 87.0186 129.801 86.9818 129.406C86.9451 129.011 86.7864 128.712 86.5059 128.511C86.2253 128.309 85.8368 128.232 85.3403 128.278L82.5473 128.538L82.7836 131.077ZM97.804 130.96L97.0164 122.496L98.3705 122.37L99.1582 130.834L97.804 130.96ZM90.1023 131.676L89.3147 123.213L90.6688 123.087L90.9366 125.964L92.9678 125.775C93.9157 125.687 94.7139 125.886 95.3624 126.372C96.0099 126.847 96.3703 127.479 96.4438 128.269C96.5174 129.059 96.2803 129.753 95.7326 130.35C95.1839 130.936 94.4356 131.273 93.4877 131.361L90.1023 131.676ZM91.3383 130.281L93.3695 130.092C93.9563 130.037 94.4002 129.854 94.7012 129.541C95.0022 129.228 95.1317 128.846 95.0897 128.395C95.0477 127.944 94.8499 127.592 94.4964 127.34C94.1429 127.089 93.6728 126.99 93.086 127.045L91.0548 127.234L91.3383 130.281ZM101.813 129.494C100.912 128.735 100.402 127.724 100.284 126.46C100.167 125.196 100.481 124.109 101.227 123.197C101.973 122.285 102.961 121.772 104.191 121.658C105.421 121.543 106.486 121.86 107.387 122.607C108.287 123.354 108.795 124.342 108.909 125.572L108.957 126.08L101.678 126.757C101.842 127.539 102.224 128.158 102.824 128.614C103.424 129.071 104.114 129.263 104.892 129.19C105.727 129.112 106.42 128.792 106.971 128.228C107.221 127.977 107.412 127.704 107.543 127.407L108.898 127.281C108.744 127.83 108.5 128.325 108.165 128.766C107.371 129.773 106.319 130.338 105.01 130.46C103.78 130.574 102.715 130.252 101.813 129.494ZM101.602 125.569L107.407 125.029C107.244 124.373 106.882 123.843 106.321 123.44C105.758 123.026 105.088 122.855 104.309 122.927C103.531 123 102.898 123.292 102.41 123.804C101.922 124.305 101.652 124.893 101.602 125.569Z" fill="#0B1F33"/>
<path d="M283.959 39.3523C284.491 38.2609 286.725 36.5442 287.884 37.3919C289.872 38.8474 286.552 47.5062 284.115 45.9778C281.29 44.2058 290.513 37.8989 293.937 40.3324C297.75 43.0429 290.399 56.6583 286.177 53.9454C281.298 50.8093 295.467 41.3667 300.462 46.5511C305.582 51.8651 295.222 63.0476 286.172 68.1427" stroke="#2554E7" stroke-width="2"/>
</g>
<defs>
<clipPath id="clip0_5876_31009">
<rect width="390" height="250" fill="white"/>
</clipPath>
</defs>
</svg>
