<svg width="390" height="250" viewBox="0 0 390 250" fill="none" xmlns="http://www.w3.org/2000/svg">
<g clip-path="url(#clip0_5876_31347)">
<path d="M0 16C0 7.16345 7.16344 0 16 0H374C382.837 0 390 7.16344 390 16V250H0V16Z" fill="white"/>
<path d="M73.5103 87.9081C65.2031 99.1059 71.5995 133.334 86.6373 156.888C139.291 238.208 260.361 306.793 346.5 303.373L378.195 302.293L388.956 279.951C429.674 195.012 421.312 30.8935 373.95 -21.3868C326.922 -73.1437 283.086 -49.5776 257.04 42.2021C250.753 64.635 243.653 84.6403 241.227 85.4522C239.136 86.7876 218.755 81.3802 196.18 73.6896C136.17 52.324 95.106 57.1747 73.5103 87.9081Z" fill="black" fill-opacity="0.02"/>
<path d="M20.0437 195.818C19.7288 196.138 18.4386 198.614 17.5395 200.66C17.2224 201.352 16.8854 201.819 16.6749 201.865C16.4904 201.897 15.5281 201.826 14.5318 201.724C12.8839 201.534 12.1401 201.682 11.9774 202.224C11.8509 202.645 12.5763 203.431 13.7829 204.143C14.5105 204.558 15.256 205.132 15.4223 205.379C15.6227 205.658 15.6784 206.636 15.6336 208.24C15.4977 211.674 15.6878 212.496 16.576 212.304C17.1755 212.2 17.3019 211.998 18.6866 208.917C19.3388 207.474 19.9248 206.251 20.023 206.215C20.1012 206.173 21.1157 205.997 22.2826 205.823C25.4204 205.345 26.1945 204.878 25.3709 203.91C25.0683 203.535 24.6394 203.362 23.1199 203.037C21.027 202.583 20.7625 202.372 20.9153 201.281C20.9576 200.923 21.1305 199.838 21.2733 198.854C21.6191 196.685 21.4951 195.861 20.8336 195.662C20.573 195.584 20.2041 195.648 20.0437 195.818ZM19.7873 199.872C19.2527 202.814 19.487 203.344 21.4515 203.934C22.1531 204.145 22.6963 204.374 22.6722 204.454C22.6421 204.554 21.9964 204.666 21.2306 204.742C19.3159 204.931 18.9809 205.246 17.9293 207.728C17.4276 208.888 16.9781 209.802 16.8779 209.772C16.7977 209.748 16.7397 209.359 16.766 208.908C16.7862 208.477 16.8247 207.549 16.8431 206.833C16.916 205.281 16.5634 204.563 15.393 203.731C14.6554 203.203 14.5593 203.087 14.8881 203.011C15.1187 202.971 15.71 203.039 16.2172 203.17C17.2997 203.495 17.3257 203.481 18.6843 200.633C19.2401 199.51 19.7497 198.614 19.85 198.645C19.9301 198.669 19.9138 199.232 19.7873 199.872Z" fill="#2554E7"/>
<path d="M25.7785 199.574C24.3628 200.285 23.9195 200.742 24.5209 200.923C24.9017 201.037 27.649 199.677 27.6331 199.366C27.6173 198.837 27.116 198.905 25.7785 199.574Z" fill="#2554E7"/>
<path d="M11.1816 195.712C10.7925 196.207 11.9122 198.445 12.6739 198.674C13.5358 198.933 13.4262 197.479 12.5045 196.328C11.8172 195.488 11.4685 195.339 11.1816 195.712Z" fill="#2554E7"/>
<path d="M20.4953 208.783C20.399 209.104 21.6134 210.299 22.2288 210.506C22.9103 210.711 22.7362 209.981 21.9486 209.329C20.9907 208.517 20.6158 208.382 20.4953 208.783Z" fill="#2554E7"/>
<path d="M119.595 84.7499C119.533 85.7873 119.209 86.7922 118.653 87.6707C118.098 88.5492 117.33 89.2729 116.419 89.7742C117.192 91.0842 117.557 92.5949 117.468 94.1134C117.379 95.6319 116.84 97.0895 115.919 98.3001C115.018 99.481 113.815 100.397 112.437 100.952C111.059 101.507 109.557 101.68 108.089 101.454C107.697 102.52 106.762 104.368 105.696 104.716C105.532 104.802 105.349 104.847 105.163 104.847C104.978 104.847 104.795 104.802 104.631 104.716C104.889 106.243 105.609 107.654 106.694 108.758C107.779 109.863 109.177 110.608 110.699 110.893C115.68 111.785 120.334 110.154 120.334 105.086C121.526 105.327 122.756 105.305 123.939 105.024C125.122 104.742 126.23 104.207 127.185 103.455C127.866 102.897 128.43 102.21 128.844 101.434C129.258 100.658 129.515 99.8069 129.6 98.9309C129.817 93.3194 125.924 89.6001 123.51 89.6001C125.271 86.4899 124.14 83.7929 121.335 81.7484C120.619 81.3047 119.819 81.0157 118.986 80.9001C119.435 82.1321 119.642 83.4394 119.595 84.7499ZM76.1164 86.3594C76.2144 86.3594 76.3085 86.3204 76.3778 86.2511C76.4471 86.1818 76.4861 86.0877 76.4861 85.9896C76.4861 85.8916 76.4471 85.7975 76.3778 85.7282C76.3085 85.6589 76.2144 85.6199 76.1164 85.6199L74.7896 85.4676C74.3764 85.4676 73.7021 85.4676 73.3106 85.3371C73.0574 82.1449 73.0574 78.9376 73.3106 75.7454C73.3063 75.6545 73.2704 75.5679 73.2091 75.5006C73.1478 75.4332 73.065 75.3893 72.9749 75.3765C72.8848 75.3636 72.793 75.3825 72.7153 75.43C72.6377 75.4775 72.579 75.5506 72.5494 75.6366C71.6036 78.0582 71.1811 80.6526 71.3096 83.2491C71.2755 84.1474 71.3559 85.0464 71.5489 85.9244C72.0709 87.2946 74.7026 86.6856 76.1164 86.3594ZM66.0244 73.6791C64.9804 73.9619 63.5666 74.9841 64.0886 75.3756C64.8555 75.7276 65.7294 75.7667 66.5246 75.4844C67.2859 75.2886 68.5474 74.5274 68.5256 74.1359C68.5039 73.7444 67.0466 73.3964 66.0244 73.6791ZM80.1184 75.2016C87.7744 76.7894 84.2291 73.8749 80.4664 73.3964C79.4876 73.2659 77.2039 73.3964 77.2474 73.9401C77.2909 74.4839 79.5311 75.0711 80.1184 75.2016ZM81.8366 78.8556C81.7757 78.7481 81.694 78.6536 81.5963 78.5778C81.4987 78.502 81.3869 78.4463 81.2676 78.4139C81.1482 78.3815 81.0237 78.3732 80.9011 78.3892C80.7785 78.4053 80.6603 78.4456 80.5534 78.5076C80.0096 78.8121 80.0314 79.1384 80.1619 80.9001C80.1792 81.1482 80.2943 81.3792 80.4819 81.5424C80.6695 81.7055 80.9143 81.7875 81.1624 81.7701C81.4104 81.7528 81.6414 81.6377 81.8046 81.4501C81.9677 81.2624 82.0497 81.0177 82.0324 80.7696C82.065 80.1254 81.999 79.4799 81.8366 78.8556ZM66.4376 80.0519C66.4578 79.8039 66.3786 79.5579 66.2175 79.3683C66.0564 79.1786 65.8265 79.0607 65.5785 79.0405C65.3304 79.0203 65.0845 79.0995 64.8949 79.2606C64.7052 79.4217 64.5873 79.6516 64.5671 79.8996C64.5259 80.4281 64.5259 80.959 64.5671 81.4874C64.5844 81.7354 64.6995 81.9665 64.8872 82.1296C65.0748 82.2928 65.3196 82.3747 65.5676 82.3574C65.8156 82.3401 66.0467 82.225 66.2098 82.0373C66.373 81.8497 66.4549 81.6049 66.4376 81.3569C66.4811 80.9001 66.4159 80.3129 66.4376 80.0519ZM73.9849 94.2111C73.9849 94.9071 76.7471 95.0811 78.1826 93.6456C79.2484 92.5799 79.1831 90.9486 78.7481 90.8399C78.3131 90.7311 78.5959 90.8399 77.0299 92.1884C76.0511 93.0149 73.9414 93.6674 73.9849 94.2111Z" fill="#0B1F33"/>
<path d="M438.213 76.1368C437.644 75.9531 437.042 75.895 436.449 75.9663C435.856 76.0377 435.285 76.2368 434.776 76.5501C435.192 75.5543 435.335 74.4656 435.189 73.3963C434.798 71.6346 432.231 70.8298 430.122 73.3963C429.991 72.0043 429.36 71.0473 428.251 70.8516C425.489 70.3296 424.293 75.5931 423.684 78.3553C422.248 77.2896 419.899 75.4843 418.725 76.8981C418.392 77.2529 418.169 77.6954 418.08 78.1734C417.991 78.6513 418.042 79.1447 418.224 79.5951C419.071 81.0731 420.275 82.3147 421.726 83.2056C421.313 84.1626 419.551 86.6856 418.638 88.1646C417.898 87.9471 416.332 87.5338 416.006 88.1646C408.372 98.5611 387.731 122.66 374.877 122.16C355.019 121.399 330.028 111.785 327.527 112.133L324.025 104.455C327.877 101.818 330.77 98.0017 332.268 93.5803C334.708 86.8319 335.815 79.6746 335.531 72.5046C335.547 70.1804 335.438 67.857 335.205 65.5446C344.383 64.9356 350.43 54.1258 343.274 45.1866C342.584 44.1147 341.685 43.1927 340.632 42.4753C339.578 41.7579 338.391 41.2598 337.14 41.0106C335.667 40.9338 334.191 41.1329 332.79 41.5978C324.09 43.7728 323.96 38.2701 318 36.791C315.276 36.3347 312.48 36.6279 309.909 37.6393C301.209 40.6843 302.906 45.5346 298.882 49.5801C296.707 51.7551 287.42 48.6883 283.657 54.8653C279.655 61.6296 280.025 75.9411 285.832 81.5526C287.122 82.7113 288.546 83.7117 290.073 84.5323C291.482 85.9729 293.131 87.1577 294.945 88.0341C296.642 91.4923 298.578 101.432 299.296 105.195L298.621 110.85C293.983 111.579 289.409 112.67 284.94 114.112C277.619 116.482 270.517 119.48 263.712 123.073C251.315 129.598 252.837 129.468 252.402 128.772C250.899 127.136 249.301 125.589 247.617 124.139C235.742 114.134 222.866 105.608 207.663 103.107L205.879 92.9931C210.664 89.0781 213.274 81.1828 213.361 75.5931C215.145 76.3326 216.558 75.0276 217.494 73.4181C217.755 72.9396 219.386 73.4181 220.647 70.5906C220.866 70.0011 220.866 69.353 220.647 68.7636C221.084 68.503 221.458 68.1501 221.743 67.7296C222.028 67.3091 222.218 66.8312 222.299 66.3296C222.38 65.8279 222.35 65.3146 222.211 64.8258C222.072 64.337 221.828 63.8845 221.496 63.5001C222.166 63.1191 222.739 62.5897 223.173 61.9525C223.607 61.3153 223.888 60.5873 223.997 59.8243C224.475 56.9751 223.823 54.4086 221.082 53.5168C221.082 52.8861 221.539 51.8421 221.539 51.6246C221.563 50.6117 221.383 49.6045 221.009 48.6628C220.636 47.7212 220.076 46.8644 219.364 46.1436C216.341 43.5553 215.384 43.7728 213.492 43.9686C213.492 42.6636 214.318 41.7936 212.948 40.0101C211.897 38.7975 210.498 37.9382 208.941 37.549C207.385 37.1599 205.746 37.2597 204.248 37.8351L203.704 38.009C203.364 37.1543 202.848 36.3811 202.188 35.7401C201.528 35.0992 200.74 34.6049 199.876 34.2898C197.157 33.2675 195.287 34.5943 193.003 35.7906C189.588 32.7455 183.064 34.3768 179.562 36.4866C177.974 37.4436 177.822 39.1401 177.191 39.9231C175.84 39.8245 174.493 40.1763 173.363 40.9236C172.362 41.5543 171.427 42.4678 170.622 43.0986C170.092 43.51 169.655 44.0288 169.339 44.6211C168.666 45.7268 168.277 46.9823 168.208 48.2751C167.674 48.4031 167.166 48.6239 166.707 48.9276C164.97 50.4832 163.748 52.5319 163.206 54.8001C162.969 56.055 163.089 57.3514 163.554 58.5411C163.554 58.6716 163.771 58.9326 163.836 59.0631C163.401 59.6938 162.27 60.1941 162.053 61.8906C161.835 63.5871 161.901 66.9148 163.554 67.9153C164.25 68.3286 165.729 68.7636 166.251 69.0898C166.168 69.9797 166.168 70.8752 166.251 71.7651C166.816 75.4408 170.449 76.7676 174.189 76.2238L175.212 76.7458C175.609 80.6206 176.638 84.4044 178.257 87.9471C179.464 90.2872 181.283 92.2565 183.52 93.6456L182.476 102.911C177.285 103.67 172.184 104.952 167.251 106.739C152.309 112.198 143.587 119.289 135.866 131.599C125.23 122.791 107.221 109.588 93.3012 109.828C93.3906 108.887 93.3906 107.94 93.3012 107C93.3012 106.369 92.9532 104.434 92.366 104.151C92.366 103.085 92.192 101.976 92.105 100.954C97.0205 108.218 107.047 104.368 105.938 99.4093C107.179 99.4915 108.42 99.2711 109.557 98.7673C110.694 98.2634 111.691 97.491 112.463 96.5166C113.213 95.4455 113.615 94.1699 113.615 92.8626C113.615 91.5553 113.213 90.2796 112.463 89.2086C112.283 88.9185 112.063 88.655 111.81 88.4256C115.203 87.5556 116.378 86.0548 116.813 83.9016C117.163 82.2542 117.035 80.5411 116.443 78.9643C116.83 78.7731 117.195 78.5397 117.531 78.2683C118.528 77.3156 119.204 76.0768 119.466 74.7231C119.986 70.01 118.963 65.2556 116.552 61.1728C115.771 59.8114 114.492 58.8058 112.985 58.3671C112.702 57.0722 112.535 55.7548 112.485 54.4303C112.126 52.3737 111.279 50.4333 110.015 48.7719C108.751 47.1104 107.107 45.7765 105.22 44.8821C103.393 44.0251 101.409 43.5514 99.3912 43.4901C98.5438 43.4198 97.6911 43.531 96.89 43.8163C95.5034 42.139 93.6826 40.875 91.6265 40.1623C87.6362 39.4212 83.5123 40.0982 79.9685 42.0763C79.2507 42.5548 78.6852 43.4901 78.0545 43.9468C76.506 43.2818 74.8271 42.9755 73.1435 43.0509C71.46 43.1262 69.8152 43.5812 68.3322 44.3818C66.758 45.0716 65.3395 46.0727 64.1621 47.3248C62.9847 48.577 62.0727 50.0543 61.481 51.6681C60.5675 53.8431 59.741 57.4101 61.133 59.2806C61.2129 59.3841 61.2856 59.4932 61.3505 59.6068C60.524 61.0641 58.6317 61.7818 58.001 65.8273C57.7441 67.8566 57.8249 69.9144 58.2402 71.9173C58.3559 72.4106 58.6324 72.8515 59.0262 73.1704C59.42 73.4894 59.9086 73.6683 60.4152 73.6791C59.741 80.2041 59.8497 88.9041 63.4167 94.5373C64.3047 95.855 65.341 97.0664 66.5052 98.1478C67.7214 99.3394 69.217 100.207 70.8552 100.671V104.542C69.7677 105.151 70.529 108.61 70.0722 110.698C61.2417 110.089 48.8877 112.133 42.0365 117.788C31.466 126.575 27.1595 138.973 26.0285 152.675C24.4842 171.576 34.7285 183.277 50.6277 185.3C51.6266 188.609 52.8028 191.862 54.1512 195.044C47.4332 207.641 42.5203 221.12 39.557 235.086C37.382 246.918 36.3597 265.666 36.164 283.654C36.164 292.223 36.164 324.37 39.035 332.374C39.4917 333.635 41.4492 334.309 42.7325 334.679C46.301 335.613 49.9371 336.268 53.6075 336.637C54.521 355.733 57.2397 428.443 57.2397 428.552C53.5026 430.552 50.0621 433.063 47.0172 436.012C46.5335 436.443 46.1706 436.993 45.9646 437.607C45.7586 438.221 45.7166 438.879 45.8427 439.514C46.0668 440.079 46.4872 440.544 47.0266 440.824C47.566 441.103 48.1883 441.179 48.779 441.037C52.3895 440.71 62.1117 437.796 66.5052 436.991C66.614 437.926 66.7662 438.84 67.6797 439.166C69.2457 439.71 72.3342 439.993 73.4652 438.579C74.5962 437.165 73.922 433.468 74.0742 431.88C74.2047 430.705 84.1227 362.28 87.5157 338.812H90.2345C94.4105 361.41 105.829 426.029 105.851 426.138C103.59 427.856 101.446 429.723 99.4347 431.728C97.76 433.424 94.9542 436.469 96.0635 438.557C97.1727 440.645 99.7827 439.579 101.979 438.775C106.329 437.252 112.854 434.316 116.182 433.228C116.421 434.12 116.704 435.012 117.639 435.208C118.937 435.403 120.261 435.337 121.533 435.012C123.381 434.468 123.708 433.315 123.708 431.401C122.903 421.766 122.881 452.151 123.534 338.377C125.945 338.279 128.335 337.877 130.646 337.18C136.801 334.157 136.236 245.83 128.232 218.034C127.688 216.12 124.251 206.137 121.815 199.938C121.892 199.727 121.892 199.496 121.815 199.285C121.1 197.484 120.295 195.72 119.401 194C120.054 185.996 120.75 170.554 121.402 165.877L126.818 169.597C127.262 171.347 127.889 173.045 128.688 174.664C129.58 177.002 131.01 179.096 132.864 180.776C135.207 182.934 137.996 184.552 141.032 185.514C144.069 186.476 147.28 186.76 150.438 186.344H154.092C158.312 211.4 157.094 208.768 157.725 209.399C141.695 264.644 136.518 369.436 138.693 422.549C138.693 422.801 138.778 423.046 138.933 423.245C140.042 424.659 146.958 425.42 149.242 425.812C144.952 428.099 140.87 430.755 137.04 433.75C135.105 435.643 137.649 439.188 140.02 439.797C141.325 440.145 159.073 437.622 160.422 437.426C160.596 438.253 160.987 439.057 161.814 439.21C164.14 439.61 166.501 439.778 168.861 439.71C169.818 439.71 171.036 439.492 171.253 438.579C171.98 434.959 172.402 431.285 172.515 427.595C174.059 427.595 175.603 427.595 176.103 427.16C180.453 422.81 199.876 312.124 201.464 303.185C202.004 300.186 202.143 297.129 201.877 294.094C198.723 256.792 199.898 272.148 199.398 257.771C199.418 257.686 199.467 257.61 199.536 257.555C199.605 257.501 199.69 257.471 199.778 257.471C199.866 257.471 199.952 257.501 200.021 257.555C200.09 257.61 200.138 257.686 200.159 257.771C201.616 274.867 202.486 275.454 203.661 297.987C203.661 299.531 221.387 420.809 224.584 423.985C226.287 424.689 228.114 425.044 229.956 425.029C229.749 429.711 230.121 434.401 231.066 438.992C231.126 439.164 231.221 439.323 231.344 439.457C231.468 439.592 231.617 439.7 231.783 439.775C233.371 440.558 239.309 439.775 240.483 439.623C240.857 439.482 241.184 439.241 241.43 438.926C241.675 438.612 241.829 438.236 241.875 437.839C243.724 438.1 260.994 440.536 262.255 440.21C264.626 439.601 267.193 436.056 265.235 434.142C260.705 430.679 255.888 427.608 250.836 424.963C253.446 424.768 258.928 424.289 261.189 422.962C264.604 420.94 261.342 269.212 233.937 206.985C234.437 206.18 236.351 183.843 236.438 182.842C243.313 182.61 249.974 180.397 255.621 176.47L264.321 173.338C259.024 193.524 255.05 214.034 252.424 234.738C251.924 238.827 249.401 259.141 252.12 262.186C252.4 262.502 252.788 262.703 253.207 262.752C254.447 262.861 259.406 263.296 264.691 263.622C264.691 326.023 270.825 359.518 280.721 425.224C280.752 425.428 280.854 425.614 281.009 425.75C281.165 425.885 281.363 425.961 281.569 425.964H282.135C282.545 428.993 283.207 431.984 284.114 434.903C285.484 437.665 306.734 437.6 309.735 436.643C310.259 436.374 310.675 435.934 310.912 435.395C311.15 434.857 311.195 434.253 311.04 433.685C310.17 429.814 302.341 428.965 298.643 426.181H299.926C300.127 426.187 300.323 426.122 300.481 425.999C300.64 425.876 300.751 425.703 300.796 425.507L317.435 342.226C317.631 343.444 329.332 427.051 329.332 427.051C329.369 427.27 329.484 427.468 329.656 427.608C329.828 427.748 330.046 427.821 330.267 427.813H331.986C332.292 430.878 332.785 433.921 333.465 436.926C333.498 437.064 333.563 437.192 333.653 437.301C333.743 437.411 333.858 437.498 333.987 437.557C336.162 438.579 355.28 439.732 358.434 438.013C359.007 437.703 359.443 437.189 359.656 436.573C359.869 435.957 359.844 435.284 359.586 434.686C359.041 433.171 358.066 431.849 356.781 430.879C354.149 429.422 349.56 429.096 347.102 427.813H348.32C348.528 427.8 348.727 427.722 348.887 427.589C349.047 427.456 349.161 427.275 349.212 427.073C349.212 427.073 355.541 403.822 359.26 350.339C361.435 319.15 362.044 287.264 361.805 256.423C364.589 256.64 369.33 256.858 371.679 256.749C372.332 256.749 372.963 256.749 373.245 256.118C375.768 251.094 373.854 201.156 372.441 188.563C372.31 187.345 369.2 166.66 368.787 163.963C376.029 163.681 386.491 162.136 392.429 157.895C422.879 136.145 428.686 98.9961 431.166 94.0153C431.405 93.4933 430.818 93.2323 429.36 92.5146C430.197 90.0317 431.192 87.6052 432.34 85.2501C435.363 83.5753 438.865 81.6613 439.104 78.2031C439.22 77.8087 439.194 77.3863 439.031 77.009C438.869 76.6317 438.579 76.3231 438.213 76.1368ZM221.3 53.9301C221.126 53.9301 221.082 53.7996 221.082 53.5821C221.082 53.3646 221.496 53.9301 221.3 53.9301ZM301.362 136.58C312.106 137.254 318.501 137.341 329.419 137.276C330.115 141.496 330.898 146.107 331.746 151C325.896 151 306.06 151.218 300.905 151.131C301.144 146.346 301.318 141.452 301.362 136.624V136.58ZM298.513 182.103C311.171 182.842 320.567 183.038 337.38 182.69C338.511 188.889 339.685 195.153 340.729 200.656C330.55 200.96 307.06 201.373 296.49 201.069C296.903 197.611 297.751 189.215 298.513 182.146V182.103ZM295.576 208.072C312.15 209.029 325.417 209.073 342.273 208.573C343.1 212.749 343.905 216.794 344.688 220.6C325.461 221.34 306.647 221.383 293.271 221.122C294.155 216.816 294.924 212.466 295.576 208.072ZM335.966 174.86C329.441 174.991 305.516 175.252 299.165 175.165C299.73 168.944 300.165 163.311 300.492 158.2C310.932 158.852 318.022 159.091 333.117 158.917C333.639 161.788 335.553 172.468 335.966 174.86ZM326.613 116.788C326.874 120.355 327.657 125.879 328.201 129.424C322.655 129.424 305.69 129.62 301.34 129.555C301.296 125.09 300.999 120.631 300.448 116.2C306.321 124.096 322.176 123.008 326.613 116.788ZM291.813 228.061C309.984 229.157 328.199 229.295 346.384 228.474C347.211 232.302 347.972 235.782 348.69 238.827C345.253 238.631 304.624 236.652 289.834 235.934C290.443 233.455 291.096 230.823 291.748 228.061H291.813ZM296.577 87.2293C295.815 85.7068 290.987 85.0543 290.53 81.2046C290.008 76.7023 295.25 76.5501 297.055 78.5728C297.207 78.7251 298.273 80.1606 298.404 80.3346C299.535 81.8571 300.579 81.9006 300.927 79.7256C301.427 75.6801 300.187 67.5891 304.907 68.4373C308.28 69.4951 311.747 70.2235 315.26 70.6123C321.937 71.2213 327.244 70.6123 331.551 65.8273C332.029 65.7186 333.617 65.6533 334.182 65.6098C334.38 67.9097 334.438 70.2194 334.356 72.5263C334.505 79.5082 333.293 86.4522 330.789 92.9713C327.331 101.258 322.546 103.259 322.546 103.259C322.435 103.301 322.334 103.366 322.248 103.448C322.162 103.53 322.093 103.628 322.046 103.738C321.85 104.238 321.785 103.738 325.874 112.894C326.744 120.79 303.363 124.009 300.34 111.611L301.079 105.282C301.166 104.825 298.578 91.2966 296.511 87.2293H296.577ZM248.727 126.379C255.604 133.208 260.343 141.892 262.364 151.37C263.647 157.895 263.103 163.376 260.972 167.139C259.576 169.556 257.832 171.754 255.795 173.664C253.661 175.845 251.058 177.512 248.183 178.536C242.145 180.751 235.666 181.496 229.282 180.711C220.792 179.638 212.41 177.84 204.226 175.339C204.226 174.686 204.096 173.99 204.031 173.164L211.534 170.423C212.971 170.023 214.363 169.477 215.688 168.792C216.45 168.4 216.515 167.248 216.602 166.269C216.972 162.702 216.232 163.18 217.32 162.31C219.756 160.396 226.455 158.526 229.369 157.699C230.348 157.438 231.762 157.221 231.327 156.286C231.189 154.95 230.642 153.689 229.761 152.675C225.171 133.231 225.954 133.296 225.215 133.426C225.165 133.431 225.116 133.447 225.072 133.472C225.029 133.497 224.991 133.532 224.962 133.573C224.933 133.615 224.913 133.662 224.904 133.712C224.896 133.761 224.898 133.812 224.91 133.861C225.889 139.647 227.346 147.129 228.39 152.175L225.693 151.783C225.237 151.783 224.78 151.783 224.671 151.566C223.801 149.761 224.171 147.629 222.083 146.585C221.866 146.439 221.62 146.34 221.362 146.294C221.104 146.249 220.839 146.258 220.584 146.322C220.33 146.385 220.092 146.502 219.886 146.663C219.679 146.825 219.509 147.028 219.386 147.259C218.255 149.434 219.625 154.306 219.386 154.241C218.228 154.716 217.015 155.045 215.775 155.22C215.726 155.021 215.636 154.833 215.513 154.669C215.39 154.505 215.235 154.367 215.058 154.263C210.645 152.106 206.053 150.338 201.333 148.978C200.311 140.408 198.963 129.62 198.484 126.01C198.651 125.932 198.805 125.829 198.941 125.705C199.708 124.191 200.272 122.582 200.616 120.92C200.985 121.333 201.29 121.725 201.964 121.464C207.865 117.176 213.441 112.458 218.646 107.348C229.68 111.902 239.853 118.309 248.727 126.292V126.379ZM221.191 148.325C222.757 149.217 221.909 151.87 223.671 153.197C225.436 153.715 227.269 153.964 229.108 153.937C229.54 154.654 229.814 155.454 229.913 156.286C228.216 156.808 219.973 158.635 216.537 161.005C216.466 159.364 216.285 157.729 215.993 156.112C217.776 155.959 220.017 156.112 220.669 154.959C221.322 153.806 220.213 147.738 221.191 148.325ZM216.993 107C213.1 110.371 204.378 117.592 201.768 119.506C200.464 118.049 197.049 114.004 196.092 112.525C198.267 110.654 206.314 105.217 207.489 104.564C210.738 104.95 213.929 105.724 216.993 106.87V107ZM182.737 104.412L193.351 112.59C191.742 114.308 187.805 117.723 186.043 119.506C183.564 117.723 176.799 110.567 172.993 106.609C176.189 105.662 179.444 104.928 182.737 104.412ZM176.821 75.6148C176.517 75.1798 176.473 75.3103 174.255 74.1358C172.798 72.9396 171.036 71.9608 170.383 70.1773C170.383 68.6983 170.84 66.8713 172.384 66.9583C173.552 67.2273 174.635 67.7802 175.538 68.5678C176.525 68.8916 177.586 68.9135 178.586 68.6306C179.586 68.3478 180.478 67.7731 181.149 66.9801C181.903 65.6227 182.128 64.0344 181.78 62.5213C183.211 62.3933 184.537 61.7149 185.478 60.6291C185.942 59.6903 186.222 58.6716 186.304 57.6276C188.338 58.2056 190.512 58.0437 192.438 57.1708C193.754 56.6035 194.956 55.8 195.983 54.8001C196.211 55.3723 196.51 55.9131 196.875 56.4096C197.213 56.9267 197.684 57.3431 198.239 57.6149C198.795 57.8867 199.413 58.0038 200.028 57.9538C200.796 57.832 201.534 57.5663 202.203 57.1708V58.0408C202.192 58.7079 202.327 59.3694 202.598 59.9788C202.87 60.5883 203.272 61.1308 203.776 61.5682C204.279 62.0057 204.873 62.3274 205.514 62.5109C206.156 62.6943 206.83 62.735 207.489 62.6301C207.475 62.7747 207.475 62.9204 207.489 63.0651C207.706 64.2396 207.249 67.7848 208.881 68.1981C210.512 68.6113 209.62 64.5441 212.752 64.0438C213.315 63.9065 213.908 63.9705 214.428 64.2248C214.949 64.479 215.364 64.9075 215.602 65.4358C216.21 67.3933 215.601 68.2633 214.579 70.1991L213.905 70.9603C212.861 72.0913 211.73 73.2876 211.73 74.3751C211.795 77.7019 211.165 81.0058 209.881 84.0756C208.776 87.1872 206.834 89.9341 204.27 92.0143C204.142 92.1125 204.043 92.2427 203.982 92.3916C203.921 92.5406 203.9 92.703 203.922 92.8626L205.705 103.324L194.439 110.98C192.459 109.458 195.091 111.72 184.26 103.346L185.434 93.2323C185.454 93.0467 185.42 92.8593 185.335 92.6932C185.25 92.527 185.118 92.3893 184.956 92.2971C177.147 87.9253 177.757 77.1156 176.821 75.6148ZM151.591 116.722C157.542 112.461 164.156 109.213 171.166 107.109C175.148 111.69 179.381 116.047 183.846 120.159C184.803 120.985 186.021 122.008 186.87 121.138C187.174 120.79 187.631 120.333 188.153 119.811C188.696 121.698 189.335 123.557 190.067 125.379C190.154 125.54 190.271 125.683 190.413 125.798C190.555 125.914 190.718 126.001 190.893 126.053C190.654 128.859 190.067 136.928 189.393 145.867C182.492 144.386 175.436 143.758 168.382 143.997C168.382 143.431 169.078 136.732 169.1 136.515C169.1 135.34 169.1 133.796 169.23 133.187C169.256 133.092 169.244 132.99 169.195 132.905C169.146 132.819 169.065 132.756 168.969 132.73C168.874 132.704 168.773 132.717 168.687 132.766C168.601 132.815 168.539 132.896 168.513 132.991C166.577 136.928 166.925 139.712 167.186 144.062C162.321 144.303 157.552 145.508 153.157 147.607C153.068 147.653 153 147.733 152.97 147.829C152.939 147.925 152.948 148.029 152.994 148.118C153.04 148.208 153.12 148.275 153.216 148.306C153.312 148.336 153.416 148.328 153.505 148.282C168.73 140.843 196.353 147.89 211.034 154.219C212.058 154.639 213.054 155.126 214.014 155.677C214.684 159.106 214.888 162.61 214.623 166.095C214.623 167.074 214.623 167.313 212.883 167.987C211.643 168.487 210.164 168.835 209.25 169.183C206.271 170.293 203.4 171.358 200.55 172.446C184.467 177.608 168.032 181.606 151.374 184.408C145.958 184.408 138.824 183.408 134.844 179.667C117.618 163.55 135.627 127.684 151.591 116.722ZM70.0722 98.3001C68.0508 97.1343 66.3243 95.5195 65.0262 93.5803C61.6332 88.3168 61.5897 79.7038 62.1552 73.4833C65.1939 72.5376 67.9561 70.8653 70.2027 68.6113C72.6343 66.1264 74.7592 63.3589 76.532 60.3681L77.75 58.0191C79.9549 63.659 83.7286 68.5498 88.625 72.1131C90.3274 72.8924 92.1692 73.3214 94.0407 73.3746C93.9981 75.0804 94.1809 76.7844 94.5845 78.4423C94.6279 78.5301 94.6889 78.6081 94.7636 78.6715C94.8383 78.7349 94.9252 78.7823 95.0189 78.8108C95.1126 78.8394 95.2112 78.8484 95.3086 78.8374C95.4059 78.8264 95.5 78.7956 95.585 78.7468C96.542 78.2248 96.9117 75.4191 98.3907 73.4833C98.7822 72.9396 99.239 72.5263 99.8045 72.6568C100.401 72.7481 100.967 72.9792 101.457 73.3311C103.632 74.9406 101.892 81.3786 97.8252 83.3796C96.6072 83.9886 90.2562 91.3836 89.843 93.7108C89.5709 94.9891 89.6384 96.3164 90.0387 97.5606C90.1692 99.4528 90.3867 101.911 90.539 104.086C86.5152 104.086 76.706 104.086 72.6822 104.281C72.878 98.9091 72.9867 99.4746 70.0722 98.3001ZM110.701 337.093H94.28C96.7812 306.121 99.8262 230.17 99.1737 203.266C102.074 203.135 104.684 202.961 107.004 202.744C111.963 228.387 114.725 312.016 110.701 337.093ZM56.3262 335.114C53.9772 309.166 56.3262 224.95 62.5467 202.439C63.6342 202.591 71.4207 203.287 71.4207 203.287C68.1147 229.866 64.7217 306.143 65.8962 335.962C62.3727 335.701 59.1537 335.375 56.1957 335.114H56.3262ZM80.3817 201.7L72.2037 201.373C72.1848 199.029 72.352 196.687 72.704 194.37L75.6402 194.152L81.9912 194C81.6784 196.608 81.1399 199.184 80.3817 201.7ZM55.1952 194.544L70.9422 194.239C70.5013 196.635 70.2973 199.068 70.3332 201.504C64.4243 201.456 58.533 200.852 52.7375 199.699C54.347 196.175 55.0212 194.979 55.1952 194.544ZM72.9215 336.354C72.2037 309.21 76.619 226.168 79.4465 203.396C82.4262 203.396 84.6447 203.548 90.8217 203.396C90.8217 213.706 87.7332 324.109 87.0155 336.832C83.2962 336.832 73.8785 336.419 72.9215 336.354ZM82.0565 201.721C82.5902 199.183 82.8527 196.594 82.8395 194C97.1292 193.739 111.114 193.391 117.422 194.239C118.281 195.755 119.009 197.341 119.597 198.981C107.308 201.613 93.5187 201.721 82.0565 201.721ZM41.1012 332.113C37.3385 329.72 36.1205 262.208 40.7315 235.282C43.0767 223.23 46.9734 211.532 52.3242 200.482L54.608 200.96C48.518 222.949 46.082 302.859 49.1052 334.092C46.3587 333.805 43.6651 333.138 41.1012 332.113ZM72.5735 429.988C66.527 430.814 63.2645 431.293 60.8937 431.815C59.5334 431.942 58.1729 431.571 57.0657 430.771C58.8492 429.705 59.2407 429.857 59.2407 428.835C59.4365 424.615 55.13 345.097 54.608 336.68C64.526 337.811 76.9235 338.42 86.8415 338.703C83.4702 359.452 74.1177 419.352 72.5082 430.053L72.5735 429.988ZM121.25 425.507C115.725 427.051 112.267 428.052 109.94 428.922C108.608 429.238 107.207 429.052 106.003 428.4C107.569 427.16 107.895 427.247 107.808 426.225C107.417 421.875 92.0832 343.205 91.2132 338.833C103.524 339.094 115.138 338.964 122.685 338.442C122.185 362.867 121.315 415.546 121.185 425.572L121.25 425.507ZM126.774 218.425C134.039 244.156 134.778 322.825 129.885 335.462C128.058 336.376 119.858 336.724 117.857 336.811C122.207 309.732 120.032 228.061 115.051 201.678C117.096 201.352 118.923 201.004 120.619 200.634C123.033 207.224 126.209 216.707 126.709 218.491L126.774 218.425ZM111.419 154.85C110.484 154.002 109.57 153.241 108.787 152.414C108.727 152.336 108.638 152.286 108.54 152.273C108.442 152.261 108.343 152.288 108.265 152.349C108.187 152.409 108.137 152.498 108.125 152.596C108.112 152.694 108.139 152.793 108.2 152.871C111.919 158.961 117.074 161.897 119.836 164.398C119.14 167.052 118.422 182.951 117.661 192.369C111.919 191.042 81.926 192.608 71.8557 192.608C71.6263 192.611 71.4074 192.705 71.2467 192.869C63.3297 193.239 57.0875 193.609 55.3475 193.717C54.3035 191.281 52.9985 187.345 52.1937 184.843C55.7208 185.477 59.335 185.447 62.8512 184.756C62.9117 186.079 63.1986 187.381 63.6995 188.606C64.787 189.563 100.979 186.975 102.132 186.736C102.915 186.562 102.936 185.474 103.002 184.561C103.197 182.386 103.328 177.601 103.415 171.989C103.752 171.855 104.055 171.649 104.304 171.386C104.553 171.123 104.743 170.809 104.858 170.465C104.974 170.122 105.014 169.757 104.975 169.397C104.936 169.037 104.819 168.689 104.633 168.379C104.887 168.055 105.073 167.682 105.178 167.284C105.283 166.886 105.306 166.47 105.245 166.063C105.184 165.655 105.04 165.265 104.823 164.915C104.605 164.565 104.319 164.264 103.98 164.029C104.262 163.754 104.476 163.419 104.606 163.048C104.735 162.678 104.778 162.282 104.729 161.892C104.681 161.503 104.543 161.13 104.326 160.802C104.11 160.475 103.82 160.202 103.48 160.005C103.48 152.153 103.48 144.497 103.197 140.212C103.067 136.689 102.958 136.297 102.414 135.862C101.349 135.21 96.7595 135.471 94.6932 135.558C94.7218 134.635 94.4717 133.726 93.9755 132.948C92.975 131.969 88.5597 132.948 85.9932 132.948C85.4277 131.143 85.145 129.794 83.144 128.859C82.159 128.511 81.08 128.541 80.1157 128.942C79.1514 129.344 78.3705 130.089 77.924 131.034C77.924 131.251 77.2932 133.035 77.1627 133.622C74.8289 133.799 72.5057 134.096 70.2027 134.514C69.3762 134.775 69.311 136.515 69.2892 137.733C61.0025 138.603 60.4587 138.603 60.3065 139.451C60.1542 140.299 60.7632 154.132 60.8067 155.285C58.7731 155.543 56.76 155.943 54.782 156.481C55.1935 153.78 55.4405 151.056 55.5215 148.325C55.5215 147.129 55.6302 142.018 54.9125 141.996C54.1947 141.974 53.7597 146.998 53.6945 147.999C53.564 149.521 53.3682 155.198 53.477 156.895C52.5635 157.177 51.6935 157.482 50.8017 157.83C50.7094 157.864 50.6347 157.934 50.5939 158.024C50.5531 158.114 50.5496 158.216 50.5842 158.308C50.6188 158.401 50.6887 158.475 50.7784 158.516C50.8682 158.557 50.9704 158.56 51.0627 158.526C63.3515 154.285 79.9902 156.655 89.1035 161.223L89.5167 170.38C81.6432 175.882 69.1152 182.69 59.5452 183.908C56.7229 184.234 53.8693 184.176 51.0627 183.734C34.5762 181.603 26.072 169.792 27.2682 152.827C28.2035 139.625 32.4012 126.858 42.5367 118.397C49.0617 112.981 61.5245 111.133 70.007 111.872C72.182 112.046 71.0075 107.348 71.573 105.652C72.3995 105.521 75.0312 105.478 75.923 105.456C75.8151 106.955 75.8151 108.459 75.923 109.958C75.923 110.589 76.3797 112.96 76.9452 112.786C77.5107 112.612 77.7282 110.763 77.75 110.241C77.7717 109.719 77.75 109.654 77.5542 105.456H84.797C84.7094 106.904 84.7094 108.357 84.797 109.806C84.797 110.437 85.2537 112.807 85.8192 112.633C86.3847 112.459 86.6022 110.611 86.624 110.089C86.6457 109.567 86.624 108.479 86.4282 105.499H91.7352C91.9529 106.204 92.07 106.937 92.0832 107.674C92.0832 110.197 91.6482 110.567 92.0832 111.067C93.2577 112.394 103.915 107.131 135.083 133.078C129.276 142.866 124.686 155.677 126.383 166.965C121.315 163.55 122.294 164.616 111.419 154.85ZM62.3727 155.046C62.1552 147.76 61.9812 141.104 61.9812 140.299C63.6995 140.038 67.5927 139.647 69.311 139.473C69.311 142.67 69.4415 142.888 71.486 143.105C75.3792 143.562 92.54 143.105 94.3452 141.561C94.509 141.428 94.6363 141.256 94.715 141.061C94.8529 139.862 94.882 138.654 94.802 137.45C96.9245 137.33 99.0522 137.33 101.175 137.45C101.588 141.322 101.631 155.611 101.631 159.505C100.815 159.512 100.003 159.629 99.2172 159.853C99.5217 158.069 99.9785 155.176 98.1732 154.785C97.69 154.647 97.1769 154.653 96.6974 154.804C96.218 154.955 95.7933 155.243 95.4762 155.633C94.5343 157.086 93.9801 158.756 93.8667 160.483C92.8708 160.487 91.8757 160.429 90.887 160.309C90.8534 160.192 90.7953 160.082 90.7166 159.989C90.6379 159.895 90.5403 159.819 90.4302 159.766C81.6705 155.706 71.974 154.097 62.3727 155.111V155.046ZM103.263 167.074C102.414 167.574 101.871 167.226 100.348 167.422C100.112 167.422 99.8849 167.516 99.7177 167.683C99.5504 167.85 99.4565 168.077 99.4565 168.313C99.4565 168.55 99.5504 168.777 99.7177 168.944C99.8849 169.111 100.112 169.205 100.348 169.205C101.071 169.279 101.8 169.279 102.523 169.205C102.697 169.205 103.328 169.336 103.328 169.51C103.328 171.489 99.4347 170.728 97.7165 169.727C95.5878 169.597 93.4519 169.802 91.3872 170.336L90.9522 161.375C92.1356 161.692 93.3698 161.773 94.5845 161.614C94.7528 161.52 94.8776 161.364 94.9325 161.179C95.4327 159.352 95.846 155.981 97.76 156.46C97.8724 157.829 97.7323 159.208 97.3467 160.527C97.1292 161.875 97.6512 162.18 98.6735 162.093C99.5871 161.683 100.567 161.439 101.566 161.375C102.132 161.375 102.697 161.375 102.871 162.028C103.045 162.68 102.48 162.919 101.936 163.115C101.392 163.311 99.2607 163.615 99.0432 163.659C98.8282 163.727 98.6449 163.87 98.527 164.062C98.4091 164.254 98.3646 164.482 98.4017 164.705C98.4388 164.927 98.5549 165.128 98.7287 165.272C98.9025 165.416 99.1224 165.492 99.3477 165.486C101.979 165.203 101.523 165.073 102.306 165.247C102.647 165.327 102.95 165.522 103.164 165.799C103.378 166.076 103.489 166.419 103.48 166.769C103.484 166.845 103.465 166.921 103.427 166.986C103.388 167.052 103.331 167.105 103.263 167.139V167.074ZM91.2785 171.228C93.1966 170.974 95.1291 170.843 97.064 170.836C98.4217 171.694 99.9832 172.174 101.588 172.228C101.588 176.122 101.588 183.103 101.327 185.148C96.5855 185.648 68.9412 188.345 64.1997 187.91C63.9487 186.793 63.7814 185.659 63.6995 184.517C75.7055 182.038 90.6695 172.446 91.2785 171.293V171.228ZM169.578 437.687C167.099 437.849 164.61 437.717 162.162 437.296V436.208C162.137 435.947 162.012 435.706 161.814 435.534C161.226 435.077 161.683 435.403 146.458 437.339L141.477 437.905C140.999 437.905 140.455 438.144 140.455 437.905C139.281 437.6 137.562 435.534 138.28 434.773C142.345 431.511 146.633 428.539 151.113 425.877C157.877 426.682 165.968 427.247 170.97 427.399C170.749 430.877 170.291 434.336 169.6 437.752L169.578 437.687ZM243.072 425.159C245.094 425.159 247.117 425.05 249.053 424.942C251.989 426.747 261.69 432.728 264.082 435.186C264.474 435.599 264.082 436.404 263.734 436.861C262.342 438.775 261.276 438.296 260.885 438.253C257.188 437.948 244.942 436.23 241.31 435.708C241.184 435.69 241.055 435.697 240.932 435.731C240.809 435.764 240.694 435.822 240.594 435.902C240.494 435.981 240.411 436.08 240.351 436.193C240.291 436.305 240.255 436.429 240.244 436.556V437.644C237.806 438.085 235.322 438.224 232.849 438.057C231.97 433.821 231.518 429.507 231.501 425.181C231.457 424.55 230.805 425.442 243.093 425.224L243.072 425.159ZM232.501 205.745C221.343 205.745 168.273 207.072 159.225 208.094C159.008 204.397 156.485 189.193 155.876 185.539C166.373 183.733 176.769 181.381 187.022 178.492C186.766 179.971 186.701 181.477 186.826 182.973C189.448 186.138 192.361 189.051 195.526 191.673C195.69 191.802 195.886 191.885 196.092 191.911C196.299 191.938 196.51 191.908 196.701 191.825C199.811 189.229 202.477 186.143 204.596 182.69C204.686 180.891 204.562 179.088 204.226 177.318C210.273 179.493 226.672 182.929 234.894 182.799C234.502 187.301 232.849 203.44 232.501 205.745ZM255.556 225.82C261.124 187.475 266.322 174.773 266.431 171.946C269.877 170.447 273.087 168.454 275.958 166.03C277.086 165.028 278.147 163.953 279.133 162.811C279.503 162.463 279.003 161.919 278.655 162.245C278.307 162.571 277.458 163.028 276.849 163.42C269.454 168.379 267.758 170.184 259.08 173.272C260.975 171.4 262.412 169.115 263.277 166.595C267.084 153.741 261.842 140.495 253.512 130.077C263.445 123.941 274.011 118.895 285.027 115.026C289.372 113.569 293.822 112.45 298.339 111.676C298.502 112.628 298.802 113.551 299.23 114.417C302.71 135.797 295.837 198.024 291.748 218.686C289.377 230.692 284.853 248.201 279.655 259.402C279.309 260.233 278.894 261.033 278.415 261.795C275.675 262.708 256.448 261.099 253.468 260.816C251.25 256.792 254.925 230.475 255.6 225.82H255.556ZM347.559 425.92H331.05C331.05 425.268 318.783 338.507 318.435 337.311C319.827 328.372 329.31 280.413 328.984 268.429C328.984 268.331 328.945 268.236 328.876 268.167C328.807 268.098 328.713 268.059 328.614 268.059C328.516 268.059 328.422 268.098 328.353 268.167C328.284 268.236 328.245 268.331 328.245 268.429C328.245 269.69 327.853 272.126 327.331 275.367C319.262 325.74 313.063 354.754 299.187 424.441L282.396 424.267C271.39 354.667 265.996 320.911 265.713 263.709C268.019 263.839 277.589 264.448 279.438 263.513C280.09 263.187 280.764 261.73 281.178 260.881C284.443 253.427 287.134 245.734 289.225 237.87C304.124 238.696 342.404 240.48 348.994 240.828C351.8 254.052 351.996 254.813 352.779 255.096C355.266 255.73 357.807 256.131 360.369 256.292C360.543 300.379 358.238 383.008 347.602 425.812L347.559 425.92ZM430.209 93.9283C427.207 100.954 420.813 136.102 391.537 156.634C385.817 160.636 375.399 162.071 368.439 162.267C368.124 158.846 367.468 155.465 366.481 152.175C366.046 150.826 365.394 149.239 365.002 148.282C364.961 148.202 364.895 148.139 364.813 148.103C364.732 148.066 364.64 148.059 364.554 148.082C364.467 148.105 364.391 148.156 364.338 148.228C364.286 148.3 364.259 148.388 364.263 148.477C365.459 158.004 365.655 154.633 366.96 163.246C366.96 163.246 370.548 187.54 370.679 188.737C372.354 203.962 373.419 248.636 371.723 254.835C365.717 254.976 359.713 254.509 353.801 253.443C351.474 245.678 328.701 132.883 328.201 113.83C333.965 114.874 356.193 122.878 374.811 123.465C391.428 123.965 416.419 88.6648 416.637 88.6648C418.355 88.3603 427.838 92.3841 430.23 93.8196L430.209 93.9283ZM437.495 78.0726C437.321 80.8783 434.058 82.7706 431.644 84.2496C430.796 84.7933 428.882 91.2531 428.643 92.1666C425.636 90.7622 422.549 89.5349 419.399 88.4908C421.574 85.1848 423.466 83.4448 422.64 82.6618C421.139 81.2916 418.29 79.4428 419.769 77.8986C419.951 77.9383 420.127 78.0042 420.291 78.0943C422.357 79.0731 424.01 81.7266 424.902 80.0953C425.3 78.1785 425.846 76.2952 426.533 74.4621C427.686 71.7868 428.403 72.2871 428.121 74.8971C427.874 76.681 427.429 78.4318 426.794 80.1171C426.719 80.3536 426.741 80.6102 426.855 80.8304C426.969 81.0507 427.166 81.2166 427.403 81.2916C427.639 81.3666 427.896 81.3445 428.116 81.2303C428.337 81.1161 428.502 80.9191 428.577 80.6826C429.121 78.758 429.933 76.92 430.992 75.2233C432.057 73.6573 433.341 73.2658 433.297 74.3316C432.959 76.2421 432.217 78.0587 431.122 79.6603C430.842 80.051 430.669 80.5086 430.622 80.9871C430.587 81.1902 430.623 81.3993 430.725 81.5787C430.826 81.7582 430.987 81.8969 431.179 81.9713C431.371 82.0456 431.583 82.051 431.779 81.9866C431.975 81.9221 432.143 81.7918 432.253 81.6178C432.907 80.7046 433.635 79.8462 434.428 79.0513C435.711 77.7898 437.582 76.9198 437.517 77.9638L437.495 78.0726Z" fill="#0B1F33"/>
<path d="M192.543 79.7689C193.435 81.7917 198.307 80.5302 197.35 79.5079C197.281 79.4388 197.187 79.4001 197.089 79.4001C196.991 79.4001 196.897 79.4388 196.828 79.5079C196.538 79.6011 196.226 79.6011 195.936 79.5079C195.343 79.4228 194.764 79.2544 194.218 79.0077V70.8297C194.197 70.7442 194.149 70.6682 194.08 70.6138C194.011 70.5594 193.925 70.5298 193.837 70.5298C193.749 70.5298 193.664 70.5594 193.595 70.6138C193.526 70.6682 193.477 70.7442 193.457 70.8297C192.676 73.2054 192.344 75.7057 192.478 78.2029C192.423 78.7253 192.445 79.2529 192.543 79.7689ZM186.236 74.3749C186.236 73.7877 186.236 73.1569 186.105 72.6132C186.062 72.3706 185.928 72.1538 185.729 72.008C185.531 71.8621 185.284 71.7984 185.039 71.8302C184.916 71.8486 184.797 71.8916 184.691 71.9566C184.584 72.0216 184.491 72.1073 184.418 72.2087C184.345 72.3101 184.294 72.425 184.266 72.5468C184.238 72.6685 184.235 72.7946 184.256 72.9177C184.256 73.3092 184.256 73.7659 184.365 74.5054C184.374 74.6282 184.406 74.7482 184.461 74.8583C184.516 74.9685 184.592 75.0668 184.685 75.1476C184.778 75.2284 184.886 75.2901 185.003 75.3292C185.12 75.3683 185.243 75.384 185.366 75.3754C185.488 75.3668 185.608 75.3342 185.719 75.2792C185.829 75.2243 185.927 75.1482 186.008 75.0553C186.089 74.9624 186.15 74.8545 186.189 74.7378C186.229 74.621 186.244 74.4977 186.236 74.3749ZM200.917 74.2227C200.917 74.4707 201.015 74.7086 201.191 74.884C201.366 75.0594 201.604 75.1579 201.852 75.1579C202.1 75.1579 202.338 75.0594 202.513 74.884C202.689 74.7086 202.787 74.4707 202.787 74.2227V73.2439C202.912 73.0673 202.973 72.8538 202.961 72.6381C202.949 72.4224 202.864 72.2172 202.72 72.0559C202.576 71.8946 202.382 71.7866 202.169 71.7495C201.957 71.7125 201.737 71.7486 201.548 71.8519C200.699 72.3957 200.917 73.4832 200.917 74.2227ZM196.523 87.6642C195.741 88.0996 194.918 88.4566 194.066 88.7299C193.587 88.7299 193.478 89.4042 194.066 89.4694C194.618 89.747 195.231 89.8816 195.849 89.8609C196.48 89.7863 197.086 89.5694 197.621 89.2265C198.156 88.8836 198.606 88.4238 198.938 87.8817C199.207 87.3046 199.319 86.6671 199.264 86.0329C199.284 85.9348 199.264 85.8328 199.209 85.7492C199.154 85.6655 199.068 85.6072 198.97 85.587C198.872 85.5668 198.77 85.5864 198.687 85.6415C198.603 85.6966 198.545 85.7826 198.524 85.8807C197.931 86.5525 197.259 87.1512 196.523 87.6642ZM317.932 89.1432C319.585 89.6652 322.282 90.0132 323.435 88.7082C324.587 87.4032 323.957 84.0102 323.826 82.5747C323.555 79.7557 322.941 76.9803 321.999 74.3097C321.979 74.2116 321.921 74.1256 321.837 74.0705C321.753 74.0154 321.651 73.9958 321.553 74.016C321.455 74.0362 321.369 74.0945 321.314 74.1782C321.259 74.2618 321.239 74.3638 321.26 74.4619C321.26 75.1362 321.564 78.4639 321.629 79.3122C322.046 82.0827 322.191 84.8872 322.064 87.6859C321.577 88.0159 321.018 88.2247 320.433 88.2949C318.258 88.6647 317.758 88.1427 317.649 88.7082C317.636 88.7554 317.634 88.8049 317.641 88.8532C317.649 88.9016 317.667 88.9478 317.693 88.9889C317.72 89.0299 317.755 89.0649 317.796 89.0915C317.837 89.1181 317.884 89.1357 317.932 89.1432ZM314.256 74.8099C314.256 74.1139 312.255 73.7659 310.95 74.0487C309.645 74.3314 307.862 75.7017 308.362 76.2237C308.862 76.7457 314.169 75.4407 314.256 74.8099ZM312.821 80.0082V81.8787C312.821 82.1267 312.919 82.3646 313.095 82.54C313.27 82.7154 313.508 82.8139 313.756 82.8139C314.004 82.8139 314.242 82.7154 314.417 82.54C314.593 82.3646 314.691 82.1267 314.691 81.8787V80.0734C314.697 79.8232 314.605 79.5806 314.434 79.3977C314.263 79.2147 314.028 79.106 313.778 79.0947C313.531 79.0944 313.294 79.1892 313.116 79.3594C312.938 79.5296 312.832 79.762 312.821 80.0082ZM331.373 75.7017C331.547 75.4407 330.851 74.0487 329.198 73.5267C327.545 73.0047 326.284 73.8312 326.284 74.2227C326.284 74.6142 331.047 76.1802 331.373 75.7017ZM311.885 93.7977C311.385 93.9499 311.385 97.0819 314.365 97.9737C315.887 98.4087 317.954 98.1694 317.997 97.6257C318.041 97.0819 315.039 96.4294 314.06 95.7552C313.082 95.0809 312.299 93.6672 311.885 93.7977ZM328.394 78.7249C328.271 78.722 328.149 78.7434 328.034 78.7877C327.919 78.8321 327.815 78.8985 327.726 78.9834C327.637 79.0682 327.566 79.1697 327.516 79.2821C327.466 79.3945 327.439 79.5156 327.437 79.6384V81.4872C327.471 81.7134 327.585 81.9199 327.759 82.0691C327.933 82.2183 328.154 82.3003 328.383 82.3003C328.612 82.3003 328.833 82.2183 329.007 82.0691C329.18 81.9199 329.295 81.7134 329.329 81.4872V79.6819C329.332 79.5573 329.31 79.4333 329.264 79.3173C329.218 79.2013 329.15 79.0956 329.063 79.0065C328.976 78.9173 328.872 78.8465 328.757 78.7981C328.642 78.7498 328.518 78.7249 328.394 78.7249Z" fill="#0B1F33"/>
<path d="M28.8766 16.8909C28.8633 17.1997 28.8613 17.5997 28.8543 17.8112C28.8587 18.114 30.3323 24.7263 30.5401 25.3975C30.6267 25.6534 29.9423 25.3148 26.4449 23.4001C22.3102 21.1118 21.9534 20.9285 21.8704 21.0897C21.6511 21.5442 22.8068 22.6359 26.2539 25.2142L30.0633 28.05L29.6045 28.3195C29.3632 28.4773 27.9463 29.1664 26.4531 29.8623C23.4963 31.2252 22.9904 31.5297 23.1175 31.905C23.2504 32.2973 23.6907 32.2052 26.9336 31.1067L30.0531 30.05L28.8032 32.508C27.1502 35.806 26.9242 36.415 27.2868 36.6154C27.6844 36.861 28.0502 36.4329 30.1311 33.18C31.1241 31.6457 32.0221 30.3527 32.1221 30.2999C32.2455 30.2581 32.548 30.7451 32.8785 31.4888C33.6845 33.2883 35.9796 37.5118 36.3417 37.8265C36.7444 38.2035 37.2151 37.9109 37.1064 37.3583C37.0608 37.1075 37.0859 36.7758 37.1455 36.6035C37.2287 36.3851 36.964 35.3719 36.3108 33.5016L35.3456 30.7101L36.6446 31.2969C37.3643 31.6235 38.7338 32.1864 39.7054 32.5608C41.4672 33.238 42.1768 33.2448 41.881 32.6035C41.3185 31.3489 40.413 30.6478 37.202 28.9404C35.6872 28.1225 35.3717 27.8871 35.5895 27.7182C35.725 27.5962 37.2774 26.7852 39.0471 25.9195C42.2631 24.3357 42.9225 23.8462 42.3374 23.569C42.1268 23.4692 40.9347 23.7779 38.1798 24.6351L34.3264 25.8453L34.949 24.4935C35.2871 23.7515 36.0221 22.2095 36.5792 21.07C37.1539 19.9246 37.5697 18.8901 37.535 18.7877C37.3848 18.3442 36.8263 18.6095 36.1357 19.4709C35.7344 19.9681 34.8185 21.3242 34.0736 22.4892L32.72 24.583L32.4175 24.096C32.2606 23.8069 31.554 22.0688 30.8421 20.1993C30.1302 18.3297 29.4758 16.688 29.3828 16.5293C29.0974 16.1506 28.909 16.2905 28.8766 16.8909Z" fill="#2554E7"/>
<path d="M339.643 34.7321C340.439 34.6175 340.455 34.0484 339.74 30.4985C339.12 27.4108 338.597 26.2057 337.894 26.1811C337.324 26.1651 337.282 27.9557 337.85 31.0297C338.438 34.136 338.765 34.8516 339.643 34.7321Z" fill="#2554E7"/>
<path d="M345.896 37.2814C348.092 36.0133 351.017 31.0084 350.29 29.7486C349.898 29.0703 349.308 29.5402 347.132 32.2609C344.583 35.4552 343.861 38.4563 345.896 37.2814Z" fill="#2554E7"/>
<path d="M350.911 43.7312C351.277 43.6926 353.113 42.5463 355.055 41.2099C358.551 38.7609 359.531 37.549 358.189 37.4625C357.434 37.4242 351.336 41.3329 350.402 42.4751C349.748 43.283 349.968 43.8881 350.911 43.7312Z" fill="#2554E7"/>
</g>
<defs>
<clipPath id="clip0_5876_31347">
<path d="M0 16C0 7.16345 7.16344 0 16 0H374C382.837 0 390 7.16344 390 16V250H0V16Z" fill="white"/>
</clipPath>
</defs>
</svg>
