<svg width="177" height="198" viewBox="0 0 177 198" fill="none" xmlns="http://www.w3.org/2000/svg">
<path d="M66.391 226.836L183.403 195.483C191.737 193.249 196.683 184.679 194.448 176.34L151.243 15.0947C149.008 6.75605 140.441 1.80757 132.106 4.04085L15.0944 35.394C6.76053 37.6271 1.81519 46.1973 4.04929 54.5351L47.255 215.781C49.4893 224.119 58.0572 229.069 66.391 226.836Z" fill="#0B1F33"/>
<path d="M33.5312 76.8465L136.864 49.1586C140.846 48.0916 143.209 43.9966 142.141 40.0115L138.355 25.8814C137.287 21.8973 133.193 19.5315 129.211 20.5986L25.8786 48.2864C21.8963 49.3535 19.5325 53.4487 20.6002 57.4337L24.3866 71.5647C25.4542 75.5489 29.5481 77.9138 33.5312 76.8465Z" fill="white"/>
<path d="M133.55 98.3543L149.31 94.1313C153.087 93.1192 155.329 89.2356 154.316 85.4558L150.091 69.688C149.079 65.9091 145.196 63.6664 141.418 64.6787L125.658 68.9017C121.881 69.9138 119.639 73.7974 120.652 77.5763L124.877 93.3441C125.889 97.1239 129.772 99.3666 133.55 98.3543Z" fill="#182B43"/>
<path d="M89.3915 110.19L105.152 105.967C108.929 104.955 111.171 101.072 110.158 97.2918L105.933 81.5239C104.92 77.7451 101.038 75.5024 97.2602 76.5147L81.4998 80.7376C77.7227 81.7497 75.4809 85.6334 76.4934 89.4122L80.7184 105.18C81.7312 108.96 85.6136 111.203 89.3915 110.19Z" fill="#182B43"/>
<path d="M45.2354 122.019L60.9958 117.796C64.7729 116.784 67.0137 112.9 66.001 109.12L61.776 93.3525C60.7634 89.5737 56.8811 87.331 53.104 88.343L37.3436 92.566C33.5665 93.5781 31.3256 97.4615 32.3382 101.24L36.5632 117.008C37.5759 120.788 41.4583 123.031 45.2354 122.019Z" fill="#182B43"/>
<path d="M145.392 142.535L161.152 138.312C164.929 137.3 167.171 133.416 166.158 129.636L161.933 113.869C160.921 110.09 157.038 107.846 153.26 108.858L137.5 113.081C133.723 114.093 131.481 117.977 132.494 121.757L136.719 137.525C137.731 141.304 141.614 143.547 145.392 142.535Z" fill="#182B43"/>
<path d="M101.234 154.363L116.994 150.14C120.771 149.128 123.013 145.244 122 141.465L117.775 125.697C116.763 121.918 112.88 119.674 109.102 120.687L93.3415 124.91C89.5645 125.922 87.3227 129.805 88.3355 133.585L92.5605 149.353C93.5732 153.133 97.4556 155.375 101.234 154.363Z" fill="#182B43"/>
<path d="M57.0745 166.199L72.8349 161.976C76.612 160.964 78.8528 157.081 77.8401 153.301L73.6151 137.533C72.6025 133.754 68.7199 131.511 64.9429 132.523L49.1824 136.746C45.4054 137.758 43.1645 141.641 44.1773 145.421L48.4023 161.189C49.415 164.969 53.2974 167.211 57.0745 166.199Z" fill="#182B43"/>
<path d="M157.226 186.715L172.986 182.492C176.763 181.48 179.005 177.596 177.992 173.816L173.767 158.048C172.755 154.269 168.872 152.026 165.094 153.038L149.334 157.261C145.557 158.273 143.315 162.157 144.328 165.937L148.553 181.704C149.565 185.484 153.448 187.727 157.226 186.715Z" fill="#182B43"/>
<path d="M113.068 198.543L128.828 194.32C132.605 193.308 134.847 189.424 133.834 185.644L129.609 169.876C128.597 166.098 124.714 163.854 120.936 164.866L105.176 169.089C101.398 170.101 99.1567 173.985 100.169 177.765L104.394 193.533C105.407 197.312 109.29 199.555 113.068 198.543Z" fill="#182B43"/>
<path d="M68.9124 210.379L84.6728 206.156C88.4499 205.144 90.6907 201.26 89.6779 197.481L85.453 181.713C84.4404 177.934 80.5578 175.69 76.7807 176.702L61.0203 180.925C57.2433 181.937 55.0024 185.821 56.0152 189.601L60.2401 205.368C61.2529 209.148 65.1353 211.391 68.9124 210.379Z" fill="#182B43"/>
<path d="M63.8017 56.306L65.1334 55.9492L65.4921 57.2879L64.1604 57.6447L63.8017 56.306ZM62.981 47.9166L68.3076 46.4894L70.8186 55.8607L69.487 56.2175L67.3347 48.185L64.6714 48.8986L66.465 55.5923L65.1334 55.9492L62.981 47.9166Z" fill="#3360E8"/>
<path d="M78.2139 52.4442L78.5726 53.783L73.2461 55.2102L72.8874 53.8715L78.2139 52.4442ZM72.8874 53.8715L71.5557 54.2283L70.4796 50.212L71.8112 49.8552L72.1699 51.194L76.1648 50.1235L75.8061 48.7848L77.1378 48.428L77.8552 51.1055L72.5287 52.5327L72.8874 53.8715ZM75.8061 48.7848L71.8112 49.8552L71.4525 48.5165L75.4474 47.446L75.8061 48.7848Z" fill="#3360E8"/>
<path d="M84.995 52.0621L84.6363 50.7234L85.9679 50.3665L86.3266 51.7053L84.995 52.0621ZM79.2065 46.4388L79.9239 49.1163L82.5872 48.4027L82.9459 49.7414L84.2776 49.3846L84.6363 50.7234L83.3047 51.0802L82.9459 49.7414L80.2827 50.455L81.0001 53.1325L79.6685 53.4894L77.8749 46.7956L79.2065 46.4388ZM82.5872 48.4027L82.2285 47.0639L83.5601 46.7071L83.9189 48.0458L82.5872 48.4027ZM83.5601 46.7071L83.2014 45.3683L84.533 45.0115L84.8918 46.3503L83.5601 46.7071Z" fill="#3360E8"/>
<path d="M85.9876 46.0567L85.6289 44.7179L92.2871 42.9339L92.6458 44.2726L89.9825 44.9862L91.4174 50.3412L90.0857 50.698L88.6509 45.343L85.9876 46.0567Z" fill="#3360E8"/>
<path d="M96.5081 48.9772L96.1494 47.6384L94.8178 47.9952L94.4591 46.6565L95.7907 46.2997L95.432 44.9609L99.4269 43.8905L99.0682 42.5517L100.4 42.1949L101.835 47.5499L96.5081 48.9772ZM100.144 46.568L99.7856 45.2292L95.7907 46.2997L96.1494 47.6384L100.144 46.568ZM99.0682 42.5517L95.0733 43.6222L94.7145 42.2834L98.7094 41.213L99.0682 42.5517Z" fill="#3360E8"/>
<path d="M103.289 48.5951L101.137 40.5625L102.469 40.2057L102.827 41.5445L104.159 41.1877L104.518 42.5264L103.186 42.8832L103.545 44.222L107.54 43.1516L107.898 44.4903L103.903 45.5607L104.621 48.2383L103.289 48.5951ZM107.54 43.1516L106.822 40.474L108.154 40.1172L108.871 42.7947L107.54 43.1516ZM106.822 40.474L104.159 41.1877L103.8 39.8489L106.463 39.1353L106.822 40.474Z" fill="#3360E8"/>
<path d="M112.272 40.4487L113.603 40.0919L113.962 41.4307L112.63 41.7875L112.272 40.4487ZM116.011 43.7514L114.935 39.7351L113.603 40.0919L113.245 38.7532L114.576 38.3964L114.217 37.0576L115.549 36.7008L117.343 43.3946L116.011 43.7514ZM110.685 45.1786L108.891 38.4849L110.223 38.128L111.299 42.1443L112.63 41.7875L112.989 43.1263L111.657 43.4831L112.016 44.8218L110.685 45.1786Z" fill="#3360E8"/>
<path d="M123.765 41.6737L124.124 43.0125L118.797 44.4397L118.439 43.1009L123.765 41.6737ZM123.765 41.6737L123.406 40.3349L119.411 41.4054L119.053 40.0666L123.048 38.9962L121.971 34.9799L123.303 34.6231L125.097 41.3169L123.765 41.6737ZM119.053 40.0666L117.721 40.4234L116.645 36.4072L117.977 36.0504L119.053 40.0666Z" fill="#3360E8"/>
<path d="M131.519 39.596L130.443 35.5798L129.111 35.9366L129.47 37.2753L128.138 37.6321L127.78 36.2934L129.111 35.9366L128.753 34.5978L130.084 34.241L129.725 32.9023L131.057 32.5454L132.851 39.2392L131.519 39.596ZM126.193 41.0233L124.399 34.3295L125.731 33.9727L126.089 35.3114L127.421 34.9546L127.78 36.2934L126.448 36.6502L127.524 40.6665L126.193 41.0233Z" fill="#3360E8"/>
</svg>
