<svg width="196" height="273" viewBox="0 0 196 273" fill="none" xmlns="http://www.w3.org/2000/svg">
<path d="M89.7033 305.547L247.198 263.346C258.417 260.34 265.073 248.805 262.066 237.581L203.912 20.5476C200.904 9.32399 189.373 2.66343 178.154 5.66937L20.6591 47.8701C9.44193 50.8757 2.78561 62.4111 5.79265 73.6335L63.9466 290.667C66.9539 301.89 78.4861 308.552 89.7033 305.547Z" fill="#0B1F33"/>
<path d="M45.4767 103.668L184.56 66.4012C189.92 64.965 193.1 59.4532 191.663 54.0895L186.567 35.0706C185.13 29.7081 179.62 26.5238 174.26 27.96L35.1764 65.2272C29.8163 66.6635 26.6346 72.1756 28.0718 77.5393L33.1682 96.5594C34.6051 101.922 40.1154 105.105 45.4767 103.668Z" fill="white"/>
<path d="M180.102 132.613L201.315 126.929C206.399 125.567 209.416 120.34 208.053 115.252L202.366 94.0291C201.003 88.9428 195.778 85.9242 190.693 87.2867L169.479 92.9708C164.396 94.333 161.378 99.5603 162.741 104.647L168.428 125.87C169.791 130.957 175.017 133.976 180.102 132.613Z" fill="#182B43"/>
<path d="M120.665 148.535L141.878 142.851C146.962 141.489 149.979 136.262 148.616 131.174L142.93 109.951C141.567 104.865 136.341 101.846 131.256 103.209L110.043 108.893C104.959 110.255 101.942 115.482 103.304 120.568L108.991 141.792C110.354 146.879 115.58 149.898 120.665 148.535Z" fill="#182B43"/>
<path d="M61.2322 164.465L82.4454 158.781C87.5292 157.419 90.5454 152.192 89.1822 147.104L83.4955 125.881C82.1326 120.795 76.907 117.776 71.8232 119.139L50.61 124.823C45.5262 126.185 42.51 131.412 43.8728 136.498L49.5596 157.721C50.9228 162.809 56.1483 165.827 61.2322 164.465Z" fill="#182B43"/>
<path d="M196.037 192.075L217.251 186.391C222.334 185.029 225.352 179.802 223.989 174.714L218.302 153.491C216.939 148.405 211.713 145.385 206.628 146.748L185.415 152.432C180.331 153.794 177.314 159.021 178.677 164.109L184.364 185.332C185.727 190.419 190.952 193.438 196.037 192.075Z" fill="#182B43"/>
<path d="M136.601 208.005L157.814 202.321C162.898 200.959 165.915 195.732 164.552 190.644L158.865 169.421C157.503 164.335 152.277 161.315 147.192 162.677L125.978 168.361C120.895 169.724 117.877 174.951 119.24 180.038L124.927 201.262C126.29 206.349 131.516 209.368 136.601 208.005Z" fill="#182B43"/>
<path d="M77.1632 223.927L98.3764 218.243C103.46 216.881 106.476 211.654 105.113 206.567L99.4265 185.343C98.0636 180.257 92.8377 177.237 87.7538 178.6L66.5407 184.284C61.4568 185.646 58.4406 190.873 59.8038 195.96L65.4906 217.183C66.8537 222.271 72.0793 225.29 77.1632 223.927Z" fill="#182B43"/>
<path d="M211.968 251.544L233.181 245.86C238.265 244.498 241.282 239.271 239.919 234.183L234.233 212.96C232.87 207.874 227.644 204.854 222.559 206.216L201.346 211.9C196.262 213.263 193.244 218.49 194.608 223.577L200.294 244.801C201.657 249.888 206.883 252.907 211.968 251.544Z" fill="#182B43"/>
<path d="M152.532 267.466L173.745 261.782C178.829 260.42 181.846 255.192 180.483 250.105L174.796 228.882C173.433 223.796 168.207 220.776 163.122 222.138L141.909 227.822C136.825 229.185 133.808 234.412 135.171 239.499L140.858 260.723C142.221 265.81 147.447 268.829 152.532 267.466Z" fill="#182B43"/>
<path d="M93.0987 283.396L114.312 277.712C119.396 276.35 122.412 271.123 121.049 266.035L115.362 244.812C113.999 239.726 108.773 236.706 103.689 238.068L82.4762 243.752C77.3924 245.115 74.3762 250.342 75.7394 255.429L81.4261 276.652C82.7893 281.74 88.0149 284.758 93.0987 283.396Z" fill="#182B43"/>
<path d="M86.2212 76.0147L88.0135 75.5345L88.4964 77.3364L86.704 77.8167L86.2212 76.0147ZM85.1166 64.7229L92.286 62.8018L95.6658 75.4154L93.8734 75.8956L90.9764 65.084L87.3917 66.0445L89.8059 75.0542L88.0135 75.5345L85.1166 64.7229Z" fill="#3360E8"/>
<path d="M105.62 70.8169L106.102 72.6189L98.9331 74.5399L98.4503 72.738L105.62 70.8169ZM98.4503 72.738L96.6579 73.2182L95.2094 67.8124L97.0018 67.3322L97.4846 69.1341L102.862 67.6933L102.379 65.8914L104.171 65.4111L105.137 69.015L97.9674 70.936L98.4503 72.738ZM102.379 65.8914L97.0018 67.3322L96.519 65.5302L101.896 64.0894L102.379 65.8914Z" fill="#3360E8"/>
<path d="M114.747 70.3026L114.264 68.5007L116.056 68.0204L116.539 69.8223L114.747 70.3026ZM106.956 62.7337L107.921 66.3376L111.506 65.3771L111.989 67.179L113.781 66.6987L114.264 68.5007L112.472 68.9809L111.989 67.179L108.404 68.1395L109.37 71.7434L107.577 72.2236L105.163 63.214L106.956 62.7337ZM111.506 65.3771L111.023 63.5751L112.816 63.0949L113.298 64.8968L111.506 65.3771ZM112.816 63.0949L112.333 61.2929L114.125 60.8127L114.608 62.6146L112.816 63.0949Z" fill="#3360E8"/>
<path d="M116.083 62.2194L115.6 60.4175L124.562 58.0162L125.045 59.8181L121.46 60.7786L123.391 67.9863L121.599 68.4666L119.668 61.2589L116.083 62.2194Z" fill="#3360E8"/>
<path d="M130.243 66.1503L129.76 64.3484L127.968 64.8287L127.485 63.0267L129.278 62.5465L128.795 60.7445L134.172 59.3038L133.689 57.5018L135.481 57.0216L137.413 64.2293L130.243 66.1503ZM135.138 62.9076L134.655 61.1057L129.278 62.5465L129.76 64.3484L135.138 62.9076ZM133.689 57.5018L128.312 58.9426L127.829 57.1407L133.206 55.6999L133.689 57.5018Z" fill="#3360E8"/>
<path d="M139.371 65.636L136.474 54.8244L138.266 54.3442L138.749 56.1461L140.541 55.6658L141.024 57.4678L139.232 57.948L139.714 59.75L145.091 58.3092L145.574 60.1111L140.197 61.5519L141.163 65.1558L139.371 65.636ZM145.091 58.3092L144.126 54.7053L145.918 54.2251L146.884 57.8289L145.091 58.3092ZM144.126 54.7053L140.541 55.6658L140.058 53.8639L143.643 52.9034L144.126 54.7053Z" fill="#3360E8"/>
<path d="M151.461 54.6713L153.253 54.191L153.736 55.9929L151.943 56.4732L151.461 54.6713ZM156.494 59.1165L155.045 53.7107L153.253 54.191L152.77 52.3891L154.563 51.9088L154.08 50.1069L155.872 49.6266L158.286 58.6363L156.494 59.1165ZM149.324 61.0376L146.91 52.0279L148.703 51.5476L150.151 56.9534L151.943 56.4732L152.426 58.2751L150.634 58.7554L151.117 60.5573L149.324 61.0376Z" fill="#3360E8"/>
<path d="M166.931 56.32L167.413 58.122L160.244 60.043L159.761 58.2411L166.931 56.32ZM166.931 56.32L166.448 54.5181L161.071 55.9589L160.588 54.1569L165.965 52.7162L164.516 47.3104L166.309 46.8301L168.723 55.8398L166.931 56.32ZM160.588 54.1569L158.795 54.6372L157.347 49.2314L159.139 48.7511L160.588 54.1569Z" fill="#3360E8"/>
<path d="M177.367 53.5235L175.919 48.1177L174.126 48.598L174.609 50.3999L172.817 50.8802L172.334 49.0782L174.126 48.598L173.644 46.796L175.436 46.3158L174.953 44.5138L176.745 44.0336L179.16 53.0433L177.367 53.5235ZM170.198 55.4445L167.784 46.4349L169.576 45.9546L170.059 47.7566L171.851 47.2763L172.334 49.0782L170.542 49.5585L171.99 54.9643L170.198 55.4445Z" fill="#3360E8"/>
</svg>
