<svg width="154" height="154" viewBox="0 0 154 154" fill="none" xmlns="http://www.w3.org/2000/svg">
<path d="M27.7968 106.666L65.8292 72.3796L70.8889 67.3106L108.45 26.1748L109.065 25.5087C110.468 24.1075 112.797 23.6327 115.723 24.4144C121.583 25.9858 127.603 32.0162 129.166 37.8786C129.951 40.8138 129.474 43.1424 128.069 44.5436L86.2338 82.6799L81.1916 87.7139L46.5843 125.883L46.533 125.934C45.1202 127.292 42.7998 127.758 39.91 126.976C34.0593 125.396 28.0464 119.374 26.4668 113.512C25.6898 110.585 26.1763 108.248 27.5798 106.847L27.7793 106.647L27.7968 106.666Z" fill="#2554E7"/>
<path opacity="0.4" d="M27.7968 106.666L65.8292 72.3796L70.8889 67.3106L108.45 26.1748L109.065 25.5087C110.468 24.1075 112.797 23.6327 115.723 24.4144C121.583 25.9858 127.603 32.0162 129.166 37.8786C129.951 40.8138 129.474 43.1424 128.069 44.5436L86.2338 82.6799L81.1916 87.7139L46.5843 125.883L46.533 125.934C45.1202 127.292 42.7998 127.758 39.91 126.976C34.0593 125.396 28.0464 119.374 26.4668 113.512C25.6898 110.585 26.1763 108.248 27.5798 106.847L27.7793 106.647L27.7968 106.666Z" fill="white"/>
<path opacity="0.3" d="M110.412 24.5859C109.901 24.8228 109.446 25.1284 109.066 25.5088L108.45 26.1749L70.8889 67.3106L65.8292 72.3797L27.7968 106.666L27.7793 106.649L27.5798 106.848C26.1763 108.249 25.6898 110.586 26.4668 113.513C27.5564 117.555 30.7542 121.674 34.5528 124.358L114.338 44.714C114.338 44.714 106.256 33.8852 110.412 24.5859Z" fill="#2554E7"/>
<path d="M115.729 24.4183C112.8 23.6308 110.465 24.1056 109.059 25.5103C107.654 26.9149 107.174 29.2482 107.957 32.1788C109.522 38.04 115.541 44.0668 121.399 45.6418C124.328 46.4293 126.663 45.9545 128.069 44.5498C129.476 43.1452 129.954 40.8119 129.171 37.8813C127.605 32.0201 121.587 25.9932 115.729 24.4183Z" fill="#2554E7"/>
<path d="M27.1491 107.286L27.7814 106.655L27.799 106.672L65.8314 72.3857L70.8911 67.3166L108.452 26.1797C102.89 32.9112 110.222 43.3573 110.222 43.3573L28.3041 125.129C28.3041 125.129 20.4701 113.955 27.1491 107.286Z" fill="#2554E7"/>
<path opacity="0.6" d="M27.1491 107.286L27.7814 106.655L27.799 106.672L65.8314 72.3857L70.8911 67.3166L108.452 26.1797C102.89 32.9112 110.222 43.3573 110.222 43.3573L28.3041 125.129C28.3041 125.129 20.4701 113.955 27.1491 107.286Z" fill="white"/>
<path opacity="0.25" d="M115.733 24.4183C112.803 23.6308 110.469 24.1056 109.063 25.5103C107.657 26.9149 107.178 29.2482 107.961 32.1788C109.526 38.04 115.545 44.0668 121.403 45.6418C124.332 46.4293 126.667 45.9545 128.072 44.5498C129.479 43.1452 129.958 40.8119 129.175 37.8813C127.609 32.0201 121.591 25.9932 115.733 24.4183Z" fill="white"/>
<path opacity="0.5" d="M120.738 37.5301C127.137 38.8333 125.42 30.885 119.048 25.7623C117.958 25.1754 116.843 24.7169 115.733 24.4183C112.804 23.6308 110.469 24.1056 109.063 25.5103C107.656 26.9149 107.178 29.2482 107.961 32.1788C108.996 36.0544 111.984 39.9953 115.579 42.6809L120.738 37.5301Z" fill="#2554E7"/>
<path d="M124.006 37.0234L117.212 43.8063C116.635 43.4703 116.09 43.0958 115.574 42.6875L120.733 37.5356C121.712 37.7106 123.125 37.8074 124.006 37.0234Z" fill="#2554E7"/>
<path opacity="0.1" d="M124.006 37.0234L117.212 43.8063C116.635 43.4703 116.09 43.0958 115.574 42.6875L120.733 37.5356C121.712 37.7106 123.125 37.8074 124.006 37.0234Z" fill="#0B1F33"/>
<path d="M81.6797 87.2405C89.9512 90.8874 96.2183 97.8744 101.279 106.872C101.572 104.023 101.566 101.29 100.902 98.8159C103.3 99.2534 105.324 100.036 107.222 100.938C101.956 92.6117 95.6245 85.8359 87.6972 81.3828L86.2424 82.6848L81.6797 87.2405Z" fill="#2554E7"/>
<path opacity="0.2" d="M85.3021 89.1351L86.6017 86.5079L90.7281 83.2553C89.7435 82.5938 88.7367 81.9661 87.6984 81.3828L86.2436 82.6836L81.6797 87.2405C82.935 87.7935 84.1378 88.4328 85.3021 89.1351Z" fill="#0B1F33"/>
<path d="M65.8314 72.3757C64.7196 73.512 64.3439 75.3822 64.9704 77.7259C66.2338 82.4567 71.0917 87.3227 75.8213 88.5944C78.1441 89.2185 80.0025 88.858 81.1435 87.7707C81.1622 87.7532 81.182 87.738 81.2007 87.7206L86.2464 82.683C85.1112 83.8158 83.2271 84.1985 80.8624 83.5638C76.1328 82.2933 71.2749 77.4273 70.0114 72.6954C69.3803 70.3294 69.7664 68.4453 70.9004 67.3125L65.8617 72.3442C65.8512 72.3536 65.8419 72.3652 65.8314 72.3757Z" fill="#2554E7"/>
<path opacity="0.15" d="M73.042 78.2225C71.9955 76.9742 71.1322 75.6104 70.5454 74.2198L65.5055 79.2515C66.0923 80.6409 66.9556 82.0047 68.0021 83.253L73.042 78.2225ZM64.9712 77.729C64.9747 77.7418 64.9794 77.7547 64.9829 77.7675L70.0227 72.7358C70.0192 72.7229 70.0146 72.7101 70.0111 72.6973C69.7929 71.8818 69.7043 71.1282 69.7183 70.4375L64.6772 75.4704C64.6632 76.1599 64.753 76.9135 64.9712 77.729Z" fill="white"/>
<path opacity="0.1" d="M72.4219 87.0931C73.5278 87.7686 74.6782 88.2889 75.8215 88.5969C78.1442 89.221 80.0027 88.8605 81.1437 87.7732C81.1624 87.7557 81.1822 87.7405 81.2008 87.723L86.2466 82.6855C85.1114 83.8183 83.2273 84.201 80.8625 83.5663C79.7192 83.2595 78.5689 82.738 77.4618 82.0625L72.4219 87.0931Z" fill="#0B1F33"/>
</svg>
