<svg width="64" height="64" viewBox="0 0 64 64" fill="none" xmlns="http://www.w3.org/2000/svg">
<path fill-rule="evenodd" clip-rule="evenodd" d="M10.668 12.5234V49.8567C10.668 54.2751 14.2497 57.8567 18.668 57.8567H45.3346C49.753 57.8567 53.3346 54.2751 53.3346 49.8567V23.1901C53.3346 18.7718 49.753 15.1901 45.3346 15.1901H13.3346C11.8619 15.1901 10.668 13.9962 10.668 12.5234ZM19.3346 31.19C19.3346 30.0855 20.2301 29.19 21.3346 29.19H42.668C43.7725 29.19 44.668 30.0855 44.668 31.19C44.668 32.2945 43.7725 33.19 42.668 33.19H21.3346C20.2301 33.19 19.3346 32.2945 19.3346 31.19ZM19.3346 40.5233C19.3346 39.4188 20.2301 38.5233 21.3346 38.5233H36.0013C37.1058 38.5233 38.0013 39.4188 38.0013 40.5233C38.0013 41.6279 37.1058 42.5233 36.0013 42.5233H21.3346C20.2301 42.5233 19.3346 41.6279 19.3346 40.5233Z" fill="#2554E7"/>
<path opacity="0.5" d="M48.0013 10.6703V15.6427C47.1672 15.3479 46.2696 15.1875 45.3346 15.1875H13.3346C11.8619 15.1875 10.668 13.9936 10.668 12.5208V12.3314C10.668 10.91 11.7131 9.70492 13.1202 9.50391L41.9138 5.39055C45.1266 4.93153 48.0013 7.42468 48.0013 10.6703Z" fill="#2554E7"/>
</svg>
