<svg width="44" height="44" viewBox="0 0 44 44" fill="none" xmlns="http://www.w3.org/2000/svg">
<rect width="44" height="44" rx="22" fill="white"/>
<g clip-path="url(#clip0_4922_163191)">
<path d="M13.3636 30.0038H16.5455V21.7614L12 18.125V28.5492C12 29.3541 12.6114 30.0038 13.3636 30.0038Z" fill="#4285F4"/>
<path d="M27.4531 30.0038H30.6349C31.3895 30.0038 31.9986 29.3517 31.9986 28.5492V18.125L27.4531 21.7614" fill="#34A853"/>
<path d="M27.4531 15.4509V21.7539L31.9986 18.1175V16.1781C31.9986 14.3793 30.0736 13.3539 28.7259 14.4327" fill="#FBBC04"/>
<path d="M16.5469 21.7562V15.4531L22.0014 19.8168L27.456 15.4531V21.7562L22.0014 26.1198" fill="#EA4335"/>
<path d="M12 16.1781V18.1175L16.5455 21.7539V15.4509L15.2727 14.4327C13.9227 13.3539 12 14.3793 12 16.1781Z" fill="#C5221F"/>
</g>
<defs>
<clipPath id="clip0_4922_163191">
<rect width="20" height="16" fill="white" transform="translate(12 14)"/>
</clipPath>
</defs>
</svg>
