<svg width="186" height="160" viewBox="0 0 186 160" fill="none" xmlns="http://www.w3.org/2000/svg">
<path d="M112.17 2.75811C111.649 0.695105 109.563 -0.466341 107.535 0.177904L3.51622 33.2169C1.48804 33.8611 0.25501 36.077 0.775436 38.14L19.3979 111.907C19.9183 113.97 22.0039 115.131 24.0334 114.487L128.051 81.4482C130.08 80.804 131.313 78.5881 130.792 76.5251L112.17 2.75811Z" fill="#191E24"/>
<path d="M21.4791 105.769C21.4101 105.769 21.1792 105.745 21.1037 105.445L3.90324 37.3535C3.80135 36.9453 4.09348 36.4203 4.49395 36.2926L108.513 3.25365C108.568 3.23624 108.621 3.22656 108.67 3.22656C108.739 3.22656 108.97 3.24978 109.045 3.54965L126.246 71.6423C126.348 72.0505 126.056 72.5754 125.655 72.7031L21.6364 105.742C21.581 105.76 21.5281 105.769 21.4791 105.769Z" fill="#6D7685"/>
<path d="M125.991 78.8752C128.751 77.9982 132.832 78.1807 135.062 79.2821L184.471 103.682C186.697 104.782 186.262 106.4 183.502 107.277L82.0254 139.524C79.2659 140.401 75.1851 140.218 72.9576 139.119L23.5507 114.719C21.32 113.617 21.7559 111.999 24.5154 111.122L125.991 78.8752Z" fill="#2E343D"/>
<path d="M135.881 87.1691L132.531 85.5143C131.864 85.1848 130.64 85.13 129.813 85.3931L39.7276 114.02C38.9015 114.283 38.7706 114.768 39.4381 115.098L42.787 116.752C43.4583 117.084 44.6823 117.138 45.5091 116.875L135.594 88.2474C136.422 87.9855 136.551 87.4999 135.881 87.1691Z" fill="#191E24"/>
<path d="M144.279 91.317L140.93 89.6629C140.263 89.3333 139.038 89.2785 138.212 89.541L48.1261 118.169C47.3 118.431 47.1691 118.916 47.8365 119.247L51.1854 120.9C51.8555 121.232 53.0801 121.286 53.9062 121.023L143.992 92.3953C144.82 92.1334 144.95 91.6485 144.279 91.317Z" fill="#191E24"/>
<path d="M152.681 95.4673L149.328 93.8112C148.662 93.4817 147.437 93.4268 146.61 93.6899L56.5245 122.318C55.6984 122.58 55.5675 123.066 56.235 123.396L59.5877 125.052C60.2552 125.381 61.4799 125.436 62.306 125.173L152.391 96.5455C153.217 96.2818 153.348 95.7968 152.681 95.4673Z" fill="#191E24"/>
<path d="M144.874 115.288L129.485 107.688C128.815 107.356 127.59 107.301 126.759 107.566L95.021 117.652C94.1897 117.916 94.0588 118.402 94.7288 118.733L110.118 126.333C110.785 126.663 112.01 126.717 112.841 126.453L144.579 116.367C145.411 116.102 145.542 115.617 144.874 115.288Z" fill="#191E24"/>
<path d="M183.499 107.283L82.0228 139.53C79.2633 140.407 75.1825 140.225 72.955 139.125L23.5481 114.725C22.5872 114.251 22.1209 113.68 22.1222 113.114C22.1048 119.626 22.1396 126.061 22.1222 132.574C22.1209 133.139 22.5872 133.71 23.5481 134.185L72.955 158.584C75.1818 159.684 79.2627 159.866 82.0228 158.99L183.499 126.743C185.07 126.244 185.889 125.504 185.89 124.756C185.893 123.913 185.894 123.071 185.895 122.23C185.775 122.066 185.766 121.785 185.766 121.562C185.768 117.397 185.746 113.283 185.766 109.118C185.767 108.736 185.887 108.324 185.887 107.942C185.887 107.062 185.888 106.18 185.891 105.297C185.887 106.044 185.07 106.784 183.499 107.283Z" fill="#191E24"/>
<path d="M185.892 107.938C185.889 108.685 185.072 109.425 183.501 109.924L82.0248 142.171C79.2653 143.048 75.1845 142.865 72.957 141.766L26.3915 118.769C25.6279 118.393 25.25 118.838 25.25 119.348V131.413C25.25 132.192 25.6402 132.687 26.1528 132.939L72.9564 156.053C75.1832 157.154 79.264 157.335 82.0242 156.459L183.501 124.212C185.072 123.713 185.89 122.973 185.891 122.226C185.911 115.714 185.875 114.449 185.892 107.938Z" fill="#EDF2FE"/>
<path d="M27.8555 136.311L38.1873 141.413V131.349L27.8555 126.352V136.311Z" fill="#BCBFC9"/>
<path d="M34.156 146.471L29.1181 140.084L23.8242 141.474L27.8548 126.352L38.1866 131.349L34.156 146.471Z" fill="#00C19F"/>
</svg>
