<svg width="24" height="24" viewBox="0 0 24 24" fill="none" xmlns="http://www.w3.org/2000/svg">
<path d="M24 12C24 18.6274 18.6274 24 12 24C5.37258 24 0 18.6274 0 12C0 5.37258 5.37258 0 12 0C18.6274 0 24 5.37258 24 12Z" fill="#2554E7"/>
<path d="M14.5505 7.02119V17.9148H15.8271V5.99992H9.95477V8.55311C9.95477 16.5531 7.23136 16.9276 6.03987 16.9276C5.86966 16.9276 5.69945 16.9106 5.69945 16.9106V17.9148C5.69945 17.9148 5.86966 17.9999 6.22711 17.9999C7.57179 17.9999 11.0612 17.5744 11.0612 8.89353V7.02119H14.5505Z" fill="white"/>
</svg>
