<svg width="72" height="72" viewBox="0 0 72 72" fill="none" xmlns="http://www.w3.org/2000/svg">
<rect width="72" height="72" rx="36" fill="#EDF2FE"/>
<g clip-path="url(#clip0_5876_44766)">
<path d="M64.3039 52.2419C66.2164 53.484 67.8137 55.0524 69.1903 56.863C69.5581 57.3577 69.7893 57.9051 70.031 58.4524C70.031 58.5998 70.031 58.7472 70.031 58.8946C69.6001 59.8946 68.749 60.5051 67.9188 61.1367C67.6561 61.3367 67.4459 61.463 67.6876 61.884C67.9818 62.3998 67.6666 62.9051 66.9835 63.1682C66.5107 63.3472 66.0168 63.484 65.5123 63.5998C65.0184 63.7156 64.514 63.7788 63.8625 63.9051C64.5561 64.2314 65.1235 64.4524 65.6384 64.7682C65.8066 64.863 66.1954 64.9893 66.0483 65.2735C65.9327 65.5156 65.6174 65.6419 65.3022 65.6209C64.7452 65.5893 64.1883 65.5577 63.6313 65.5367C63.1269 65.5156 62.6751 65.6419 62.2968 66.1156C62.8747 66.3893 63.4107 66.7261 63.9886 66.9156C65.1761 67.3051 66.2479 67.9156 67.3198 68.5472C68.0134 68.9472 68.4022 69.5682 68.3707 70.4209C68.3496 71.0735 68.0344 71.4209 67.3723 71.4103C65.2812 71.3893 63.2005 71.3472 61.1198 71.084C60.7415 70.9051 60.3001 71.1367 60.0164 70.9156C60.174 70.9472 60.3842 71.0314 60.5418 71.2314C61.6137 71.7367 62.6961 72.2419 63.7679 72.7577C64.3459 73.0314 64.8398 73.4103 65.1761 73.9788C65.5124 74.5472 65.3337 74.9367 64.7768 75.1156C63.8835 75.4103 62.9588 75.663 61.992 75.5156C59.8693 75.1998 57.8201 74.6419 55.9181 73.6103C55.6659 73.4735 55.3822 73.4103 55.1195 73.3156C54.3103 72.7893 54.2998 71.9156 54.2262 71.1156C54.1001 69.7788 54.3103 68.4419 54.4154 67.1051C54.6046 64.8946 54.6256 62.684 54.4049 60.4735C54.3629 60.1051 54.3418 59.7472 54.4154 59.3788C54.51 58.9367 54.4995 58.5051 54.2998 58.0946C54.0476 57.5788 54.1632 57.1051 54.552 56.7577C56.0232 55.4103 57.2001 53.7788 58.7869 52.5367C59.5751 51.9156 60.4262 51.3998 61.2564 50.8524C61.5612 50.6524 61.9079 50.6103 62.2337 50.7367C63.0744 51.0209 63.831 51.4419 64.3039 52.2419Z" fill="#683614"/>
<path d="M64.3045 52.2426C61.6249 50.2847 62.3079 50.4005 59.6703 52.1163C58.3777 52.9584 57.3164 54.0847 56.2971 55.232C55.8452 55.7478 55.3618 56.2215 54.8679 56.6952C54.5001 57.0426 54.1113 57.3899 54.5422 57.9899C54.6788 58.1899 54.6893 58.5163 54.6683 58.7689C54.5527 60.3478 54.7838 61.9268 54.7943 63.4952C54.8049 65.3478 54.6052 67.1899 54.4686 69.0426C54.3635 70.5163 54.2584 71.9689 55.1201 73.2847C55.036 73.8531 54.9625 74.432 54.8784 75.0005C53.9957 75.9689 52.8608 76.3794 51.6103 76.5899C50.1181 76.7584 48.6469 77.0847 47.1547 77.3057C44.8113 77.6531 42.4574 77.6215 40.114 77.5899C36.0683 77.5478 32.0225 77.3794 27.9872 77.011C26.3479 76.8636 24.8137 76.3163 23.2794 75.7899C23.0272 75.7057 22.775 75.6215 22.5123 75.5899C21.6927 75.3057 21.0096 74.7899 20.3581 74.2636C19.8221 73.832 19.612 73.1794 19.5489 72.5163C19.4649 71.5899 19.4123 70.6742 19.2547 69.7584C19.1286 69.0426 19.3703 68.832 20.1164 68.9689C20.6733 69.0636 21.2093 69.1373 21.7767 69.0215C22.2916 68.9268 22.5228 68.6952 22.5649 68.1584C22.6174 67.2847 22.733 67.232 23.5316 67.7057C24.2042 68.1057 24.9293 68.4005 25.6859 68.5899C27.2096 68.9899 28.1028 68.2741 28.1133 66.7163C28.1133 65.6426 27.6299 64.6847 27.3882 63.6636C27.3357 63.4426 27.115 63.1794 27.3567 63.0005C27.5669 62.8426 27.8401 62.9899 28.0293 63.1268C28.8174 63.7057 29.7632 64.011 30.5618 64.5584C31.1082 64.9373 31.7283 65.1689 32.3903 65.2741C33.294 65.4215 33.7459 64.9899 33.6093 64.0636C33.5147 63.3584 33.2205 62.7057 32.9998 62.032C32.9052 61.7373 32.5689 61.3584 32.9052 61.1057C33.1889 60.8847 33.4622 61.2847 33.7354 61.4215C33.8615 61.4847 33.9876 61.5689 34.1137 61.6531C34.8388 62.1478 35.5954 62.3057 36.3625 61.8005C37.1611 61.2741 37.4764 60.4741 37.4133 59.5268C37.4028 59.3268 37.3608 59.1373 37.3083 58.9478C36.6988 56.9163 35.4798 55.2636 33.6408 54.3268C32.1486 53.5689 30.4672 53.1163 28.7333 53.0952C28.0818 53.0847 27.4303 53.0636 26.7683 52.9794C26.0642 52.8847 25.3601 52.9057 24.6771 53.1373C22.5333 53.8531 20.295 54.2531 18.2144 55.1899C17.8676 55.3478 17.5208 55.432 17.2055 55.1163C15.7764 53.4005 14.2106 51.8426 12.4347 50.4847C11.636 49.8741 11.4784 49.9057 11.0686 50.8005C11.0055 50.9373 10.953 51.0636 10.8899 51.2005C10.5747 51.5478 10.7744 52.1794 10.2279 52.3899C10.0177 51.6531 9.49232 51.1478 8.95638 50.6531C8.16825 49.9373 8.14723 49.4426 8.88283 48.6952C10.5957 46.9268 12.3086 45.1689 13.9059 43.2952C14.2211 42.9268 14.694 42.6741 14.7045 42.1057C14.8832 42.1899 14.9882 42.4952 15.251 42.2952C15.7343 41.9373 16.3754 41.832 16.8062 41.3899C17.2686 40.9268 17.6679 40.9794 18.1933 41.3899C18.7923 41.8531 19.2967 42.4952 20.0849 42.7057C23.4266 44.7373 27.1466 45.2952 30.9506 45.4847C33.914 45.632 36.8774 45.4636 39.8198 45.3057C42.3313 45.1689 44.8638 45.3163 47.3438 44.8005C48.1635 44.8215 48.9516 44.6215 49.7293 44.411C51.9991 43.8005 54.332 43.5057 56.5913 42.8636C56.9801 42.7584 57.2638 42.4952 57.6316 42.3689C58.2621 43.2426 59.1449 43.8531 59.9435 44.5478C61.0889 45.5268 62.2028 46.5373 63.3167 47.5584C63.9472 48.1373 64.6303 48.632 65.3659 49.0742C66.091 49.5057 66.154 49.8636 65.7022 50.611C65.3028 51.2215 64.7774 51.7057 64.3045 52.2426Z" fill="#456ADE"/>
<path d="M47.3948 44.9686C45.6504 45.1686 43.9165 45.5686 42.1301 45.316C41.5731 45.2423 40.9847 45.4844 40.4067 45.5055C36.6026 45.6213 32.7881 45.9055 28.9945 45.6318C27.103 45.495 25.264 44.8107 23.383 44.4844C22.0064 44.2423 20.966 43.4107 19.8101 42.7581C19.6104 42.5265 19.6525 42.2634 19.7155 41.9897C19.7681 41.7265 19.8416 41.4739 19.9152 41.2107C20.1989 40.2528 20.9345 39.3371 20.1779 38.2634C20.2094 38.2318 20.1569 38.2107 20.1148 38.2318C18.7067 38.7581 17.887 38.0739 18.0867 36.5371C18.1497 36.1055 18.2233 35.6739 18.423 35.2739C18.6016 34.9055 18.8853 34.5897 19.0955 34.1581C18.7067 34.0318 18.2338 34.1371 18.0342 33.6739C17.803 33.1686 17.6979 32.6634 17.8345 32.116C17.8765 31.9265 17.9081 31.7371 17.9501 31.5371C18.0026 31.2634 17.845 31.095 17.7084 30.8844C17.5192 30.5792 17.3616 30.7265 17.1304 30.8107C16.7836 30.9371 16.5735 30.716 16.4894 30.4002C16.3528 29.9265 16.2372 29.4528 16.4053 28.9581C16.8677 27.6318 17.1409 26.2423 17.6348 24.916C17.6769 24.7897 17.7399 24.6634 17.7714 24.5055C17.6874 24.6213 17.6874 24.7476 17.6453 24.8634C17.4457 25.3581 17.3511 25.895 17.0358 26.3371C16.8887 26.5371 16.7311 26.7581 16.4474 26.6739C16.1531 26.5897 16.1742 26.295 16.1742 26.0634C16.1847 25.6002 16.2897 25.1476 16.4264 24.7055C16.7731 23.516 17.2565 22.3686 17.7609 21.2318C18.1708 20.295 19.0009 19.6844 19.6945 18.9792C19.9677 18.6739 20.346 18.5265 20.8084 18.1897C20.304 18.5265 19.8942 18.695 19.5789 19.0107C19.2006 19.2844 18.8328 19.5581 18.4125 19.7581C18.2128 19.8528 17.9606 19.916 17.8135 19.7055C17.6559 19.4739 17.824 19.2844 17.9921 19.1371C18.6752 18.5371 19.4318 18.0528 20.2514 17.6739C21.5755 17.0634 22.9416 16.5581 24.5074 16.5897C24.1921 16.2528 23.8558 16.2002 23.5301 16.1055C23.3514 16.0528 23.0572 16.116 23.0782 15.7686C22.9731 15.495 22.6369 15.5371 22.4898 15.3371C22.6894 15.0318 23.0047 15.0107 23.3304 15.0107C24.8016 15.3792 26.1467 16.0634 27.4813 16.7581C30.4552 18.295 32.8091 20.4844 34.3328 23.495C34.9318 24.6634 35.3626 25.916 35.6884 27.1897C35.7514 27.4528 35.8355 27.716 35.6464 27.9581C35.5518 27.9897 35.4572 27.9792 35.3731 27.9371C34.6165 27.5897 34.5219 27.6423 34.5114 28.4528C34.5009 29.2528 34.5009 30.0528 34.5114 30.8528C34.5114 31.1686 34.606 31.316 34.9423 31.1371C35.2891 30.9476 35.6779 30.916 36.0352 30.7686C36.6867 30.495 36.7918 30.2528 36.466 29.6002C36.3714 29.4107 36.2243 29.2318 36.2664 28.9897C36.2769 27.5371 37.1281 26.3581 37.5064 25.0213C38.1474 23.8002 38.9775 22.7371 40.1125 21.9265C40.5013 21.7581 40.6274 21.3792 40.9742 21.095C42.4453 19.9897 44.3894 19.8423 46.2494 19.7897C49.5911 19.7055 52.3233 21.0107 54.7403 23.1792C54.7718 23.2107 54.8138 23.2423 54.8453 23.2844C55.066 23.5581 55.4969 23.8318 55.2131 24.2002C54.8979 24.6002 54.6457 24.0528 54.3514 23.9897C53.4162 23.0844 52.3864 22.3055 51.3565 21.7792C51.8504 22.1476 52.3653 22.6739 52.6701 23.3792C52.6596 23.6423 52.5755 23.8318 52.2813 23.6213C52.1026 23.495 52.0081 23.2844 51.8609 23.1265C52.1657 23.5265 52.4494 23.9371 52.7647 24.3265C53.9521 26.1055 54.1623 28.0528 53.7314 30.116C53.5738 30.7265 53.7104 31.3792 53.4582 31.9686C53.3006 32.4844 53.164 33.0002 53.0799 33.5265C52.9748 33.7581 52.7857 33.9055 52.565 34.0318C51.7769 34.4739 51.5562 34.916 51.6718 35.8528C51.7453 36.516 51.4616 36.8318 50.7891 36.716C50.4003 36.6528 50.1481 36.6213 50.0325 37.095C49.9274 37.5371 49.4965 37.6107 48.9711 37.716C49.7382 38.5055 49.486 39.2107 48.9081 39.9371C48.5613 40.3581 48.9501 41.0107 48.4667 41.495C48.9291 41.5897 49.3179 41.6528 49.6542 41.8423C50.2742 42.2002 50.4633 42.7897 49.9589 43.2844C49.5911 43.6423 49.8433 44.1476 49.486 44.4528C48.7925 44.7686 48.0464 44.6739 47.3948 44.9686Z" fill="#FCB17A"/>
<path d="M17.2048 54.9263C17.457 55.1474 17.6777 55.2316 18.0454 55.0631C20.2627 54.0316 22.6692 53.6 24.981 52.8421C25.0546 52.821 25.1177 52.7789 25.1912 52.7895C27.3455 52.8737 29.5207 52.7263 31.6119 53.4105C32.0532 53.5579 32.4631 53.7368 32.936 53.7789C33.3773 53.821 33.7977 54.0316 34.1339 54.2947C35.7417 55.6316 37.2024 57.0842 37.5807 59.2842C37.8855 61.0842 36.5824 62.5684 34.9641 62.2526C34.2075 62.1053 33.64 61.5684 32.8834 61.0316C33.1671 61.8842 33.3983 62.6 33.6295 63.3158C33.6926 63.5052 33.7556 63.6842 33.7977 63.8737C34.0499 65.1158 33.3773 65.7684 32.1583 65.4421C31.4753 65.2631 30.8448 64.9684 30.2248 64.5895C29.321 64.0421 28.3753 63.5474 27.2929 62.9474C27.7238 63.8526 27.8393 64.6947 28.1231 65.4842C28.3543 66.1263 28.3332 66.7895 28.2702 67.4421C28.1861 68.3368 27.5556 68.821 26.5258 68.8526C25.3593 68.8842 24.3715 68.3474 23.3732 67.821C23.1841 67.7263 23.058 67.5158 22.8268 67.5158C22.8058 67.5474 22.7848 67.5579 22.7848 67.5789C22.7112 69.1263 22.2068 69.5158 20.6305 69.2421C19.401 69.0316 19.4116 69.0316 19.5271 70.2947C19.5902 70.9474 19.6427 71.6105 19.6953 72.2631C19.7793 73.2737 20.1577 74.0947 21.1034 74.5895C21.5763 74.8316 22.0071 75.1579 22.459 75.4421C22.9739 75.6 23.3732 75.8631 23.4258 76.4737C23.4468 76.6631 23.5729 76.8316 23.7095 76.9684C24.0248 77.2842 24.1404 77.621 24.0248 78.0842C23.8882 78.6316 24.0983 79.1158 24.6132 79.3684C25.1807 79.6421 25.3173 79.9895 24.96 80.5263C24.6132 81.0526 24.6027 81.5263 25.2017 81.8947C25.3068 81.9579 25.3909 82.0526 25.4014 82.1789C25.4119 82.2526 25.3909 82.3789 25.3383 82.3684C24.6238 82.2316 25.0336 83.5053 24.2349 83.2526C23.6044 82.8842 23.2366 82.1052 22.3539 82.1158C22.1543 82.1158 22.0071 81.8631 21.9126 81.6526C21.7444 81.2631 21.5763 80.8842 21.0614 80.8526C20.8617 80.8421 20.7987 80.6421 20.7461 80.4842C20.4099 79.5895 20.1051 78.7052 20.1787 77.7158C20.2522 76.821 20.2207 75.9052 20.2207 75.0105C20.2207 74.8421 20.2207 74.621 20.1261 74.5263C19.1593 73.6105 19.401 72.3579 19.2119 71.221C19.1488 70.8631 19.1488 70.4947 19.1173 70.1263C19.0858 69.8316 18.9387 69.6421 18.6549 69.5368C17.2678 69.021 16.0488 68.2526 15.0821 67.1158C15.0085 67.0316 14.9349 66.9158 14.7458 66.9474C14.6512 67.2421 14.7878 67.5474 14.7878 67.8421C14.7773 68.1053 14.8719 68.4421 14.5987 68.5789C14.2834 68.7263 13.9787 68.5474 13.758 68.2947C13.3482 67.8421 12.9593 67.3789 12.56 66.9158C12.4549 66.7895 12.3709 66.621 12.1712 66.6C11.877 66.7158 12.2448 67.021 11.919 67.221C10.4899 64.1368 9.33392 61.0631 10.8261 57.6105C10.3217 58.0316 10.1851 58.5789 9.90138 59.0526C9.75426 59.3053 9.64918 59.5895 9.46003 59.8105C9.27087 60.0421 9.08172 60.4526 8.75596 60.3474C8.39867 60.2316 8.27257 59.8105 8.25155 59.4421C8.1885 58.4316 8.3146 57.421 8.75596 56.5052C9.38647 55.1789 9.90138 53.821 10.2061 52.3789C10.4268 51.9684 10.4058 51.4526 10.7526 51.0947C10.9943 51.3368 11.2465 51.5158 11.6038 51.6C12.4444 51.8105 13.096 52.3789 13.7265 52.9368C14.357 53.4947 14.998 54.0526 15.6075 54.6421C16.3536 55.3579 16.3536 55.3684 17.2048 54.9263Z" fill="#683614"/>
<path d="M52.923 33.5265C52.7759 32.9791 53.1437 32.537 53.2277 32.0317C53.4064 32.1159 53.4064 32.8422 53.7952 32.1896C54.3732 32.0738 53.6376 31.9791 53.7847 31.8633C53.8688 31.6212 54.0999 31.4317 54.0579 31.137C54.0159 30.8212 54.2155 30.6212 54.4782 30.5265C54.9721 30.3475 54.9721 30.0212 54.8355 29.6001C54.6043 28.8633 54.4152 28.1159 54.2365 27.2738C53.9423 27.558 54.0159 27.8317 54.0054 28.0738C53.9949 28.6317 54.0264 29.1896 53.8582 29.737C53.8057 29.9159 53.8372 30.2107 53.501 30.158C53.6165 28.8633 53.8582 27.558 53.4064 26.2633C53.1647 25.5686 52.8284 24.9265 52.4921 24.2949C52.7969 24.1896 52.8074 24.1896 52.986 24.4212C53.3538 24.9054 53.5325 25.4738 53.7006 26.0528C53.7006 25.9265 53.7216 25.8107 53.8267 25.737C54.0894 25.758 54.0684 25.9896 54.163 26.1791C54.2471 25.8212 54.163 25.5159 54.0474 25.2107C53.8582 24.7054 53.8793 24.2317 54.2576 23.8107C54.5728 23.8422 54.7935 24.4843 55.0772 24.137C55.2874 23.8738 54.804 23.5791 54.5623 23.358C52.5237 21.3896 50.0542 20.2528 47.2904 19.9791C45.1362 19.7686 42.9925 20.3054 41.1115 21.3686C40.7227 21.537 40.4074 21.758 40.0816 22.0949C39.1149 22.9475 38.2742 23.9159 37.5911 25.0107C37.1182 26.0422 36.5508 27.0317 36.2881 28.1475C36.225 28.4001 36.0989 28.5265 35.8362 28.5054C35.5945 28.4107 35.4054 28.2738 35.5525 27.9686C34.922 24.4949 33.3457 21.5686 30.6765 19.2212C28.5118 17.3159 25.9582 16.1791 23.3101 15.2001C22.8267 15.0317 22.3013 15.0107 21.8389 14.758C21.2925 14.4633 20.704 14.3265 20.084 14.337C19.8318 14.1896 19.5796 14.0528 19.3379 13.9054C19.1698 13.8001 18.9806 13.6843 19.0437 13.4633C19.1172 13.1791 19.3694 13.2212 19.5901 13.2317C20.6094 13.3054 21.5867 13.6212 22.5535 13.8949C24.8549 14.558 27.1562 15.2422 29.1318 16.6843C29.2369 16.7054 29.3104 16.8001 29.426 16.7686C29.342 16.7054 29.3315 16.6107 29.2999 16.5159C28.2281 15.3791 27.1982 14.2107 26.3786 12.8738C26.221 12.6212 25.9477 12.337 26.242 12.0212C26.5152 11.737 26.7884 12.0001 27.0301 12.1265C28.7115 12.9265 29.983 14.2422 31.3176 15.4949C31.7905 15.6843 32.0006 16.1475 32.3474 16.4738C32.1057 16.1896 31.864 15.9159 31.6223 15.6317C31.4962 15.4738 31.4752 15.2528 31.5908 15.0843C31.6959 14.937 31.885 14.9475 32.0426 15.0633C33.2721 16.0949 34.3966 17.2317 35.3423 18.7686C35.3738 18.2738 35.3949 17.9265 35.4264 17.5791C35.4474 17.3791 35.4999 17.1896 35.7101 17.1054C35.9413 17.0107 36.0464 17.2107 36.1935 17.337C36.6349 17.6949 36.6559 18.2212 36.761 18.7159C36.8135 18.9686 36.8555 19.2212 36.9291 19.6107C37.1393 19.2317 37.2654 18.958 37.4335 18.7054C37.5806 18.4738 37.8013 18.2633 38.085 18.3475C38.3582 18.4317 38.3688 18.7159 38.3688 18.9686C38.3688 19.2317 38.3372 19.5054 38.3162 19.9159C38.7576 19.4633 39.1254 19.0843 39.4827 18.7159C39.5982 18.5896 39.7138 18.4528 39.8399 18.358C40.1132 18.158 40.4284 17.8949 40.7542 18.1159C41.1325 18.3791 40.7857 18.7265 40.7227 19.0422C40.7016 19.1686 40.4494 19.1896 40.5545 19.4107C40.8382 19.558 40.9854 19.3054 41.164 19.1791C42.0888 18.5054 43.0976 17.9686 44.1274 17.4633C44.3165 17.3686 44.5582 17.2107 44.7159 17.4422C44.8945 17.6949 44.6108 17.8212 44.4742 17.9686C44.2745 18.1791 44.0749 18.3791 43.8647 18.5791C43.7911 18.6949 43.7281 18.8212 43.623 18.8633C43.7596 18.7475 43.9908 18.8633 44.1589 18.737C44.7159 18.4633 45.2518 18.0528 45.9138 18.4633C45.9769 18.5054 46.103 18.4633 46.1976 18.4317C47.4481 17.9686 48.7721 17.9791 50.0647 17.7686C51.0104 17.6212 51.9562 17.8107 52.8915 17.9054C53.0596 17.9265 53.2698 17.958 53.2593 18.1791C53.2487 18.4001 53.0491 18.4212 52.881 18.4212C52.3555 18.4212 51.8406 18.4212 51.105 18.4212C52.1979 19.1791 53.1121 19.8317 53.8687 20.6422C54.9932 21.8422 55.7077 23.2633 55.8443 24.937C55.8654 25.1791 55.9494 25.537 55.6132 25.6317C55.2664 25.7265 55.2138 25.358 55.0667 25.1475C54.8776 24.8843 54.783 24.5265 54.3837 24.3475C54.5098 25.8528 54.8881 27.2528 55.2979 28.6528C55.5396 29.4843 55.8654 30.3054 55.7708 31.2001C55.7708 31.2212 55.7603 31.2528 55.7708 31.2738C55.9494 31.9475 55.9494 31.9475 55.1823 31.9686C55.4765 32.4528 56.0125 32.6317 56.3172 33.0422C56.4748 33.2633 56.6535 33.537 56.2542 33.5686C55.4765 33.6107 55.9809 34.0107 56.002 34.2843C55.0667 34.358 54.8145 34.0528 54.9406 33.0001C54.4362 33.2422 54.5098 34.137 53.7532 34.0212C53.4274 33.937 53.1226 33.8422 52.923 33.5265Z" fill="#683614"/>
<path d="M17.7834 24.8843C17.3841 26.2527 16.9743 27.6106 16.5749 28.979C16.4804 29.3159 16.4909 29.6527 16.5644 29.9896C16.6275 30.2843 16.5539 30.7053 16.9637 30.758C17.342 30.8106 17.3 30.3474 17.5312 30.0527C17.6363 30.4527 17.6363 30.8527 18.0987 30.9685C18.2878 31.0211 18.1617 31.3053 18.1302 31.4948C18.0146 32.0632 17.878 32.6422 18.0356 33.2317C18.1617 33.6843 18.2983 34.0948 18.9288 33.8738C19.0759 33.8211 19.2966 33.8106 19.4017 33.9685C19.5278 34.158 19.3176 34.2632 19.2126 34.3896C18.4665 35.3053 18.0987 36.3264 18.3509 37.5053C18.5295 38.3369 19.0654 38.579 19.801 38.179C20.0217 38.0632 20.2214 37.7159 20.4841 37.8948C20.7258 38.0632 20.4631 38.3369 20.4105 38.558C20.379 38.7053 20.379 38.9264 20.5051 38.958C21.2617 39.1474 20.7783 39.5159 20.6522 39.8317C20.2739 40.779 19.8641 41.7159 19.8115 42.7685C19.0234 42.5896 18.5715 41.9053 17.9726 41.4632C17.6048 41.1896 17.3736 41.0527 17.0793 41.3896C16.5329 42.0211 15.7132 42.179 15.0512 42.6211C14.5258 42.9685 14.8095 42.2843 14.6834 42.1053C14.6939 41.4843 15.0512 40.9369 15.1353 40.3053C14.7675 40.2948 14.778 40.6211 14.6414 40.779C14.1685 41.3053 13.7376 41.8632 13.2753 42.4001C13.1281 42.579 12.9495 42.8317 12.6763 42.6843C12.382 42.5369 12.4136 42.2106 12.4976 41.9685C12.6237 41.6001 12.7814 41.2422 12.9915 40.9159C13.7587 39.7264 14.5678 38.558 15.6607 37.6422C15.9549 37.3896 16.0075 37.1474 15.9759 36.758C15.8393 35.0632 15.3665 33.4527 14.9146 31.8317C14.7359 31.1896 14.7359 30.5264 14.7254 29.8738C14.7149 28.7053 14.7465 27.5474 14.5993 26.379C14.4417 25.1369 14.9251 23.9264 15.2088 22.7159C15.2719 22.4632 15.3559 22.2106 15.44 21.9159C14.8095 22.0422 14.6624 21.758 14.799 21.2422C14.8515 21.0527 14.8831 20.8527 14.9881 20.6948C15.5451 19.779 16.018 18.7895 16.701 17.979C17.5837 16.9159 18.8763 16.4527 20.1688 16.0738C21.1146 15.7896 22.0814 15.8001 23.0587 15.7896C23.7207 15.9685 24.4037 16.1159 25.0448 16.7685C22.1654 16.7895 19.822 17.7896 17.8359 19.6422C18.5295 19.6422 18.9814 19.1474 19.5278 18.8422C19.6959 18.7896 19.8536 18.7685 19.8536 19.0317C17.8044 20.758 17.0058 23.158 16.4068 25.6527C16.3332 25.9685 16.1756 26.4738 16.5119 26.5685C16.8376 26.6632 16.9532 26.1474 17.0898 25.8422C17.2475 25.4843 17.3841 25.1159 17.5312 24.758C17.5732 24.6317 17.6573 24.5369 17.7834 24.6001C17.8675 24.6422 17.8675 24.779 17.7834 24.8843Z" fill="#683614"/>
<path d="M52.9236 33.5266C53.0708 33.5897 53.2284 33.6529 53.3755 33.7266C53.943 33.9792 54.2897 33.8424 54.3948 33.2318C54.4789 32.8003 54.7941 32.7792 55.0779 32.716C55.267 32.6739 55.4036 32.7897 55.3301 33.0213C55.0674 33.9371 55.0674 33.9371 56.0131 34.2634C56.5385 34.916 56.7697 35.716 57.064 36.495C57.1796 36.8108 57.106 36.9055 56.7592 36.9476C56.3704 36.9897 55.9921 37.095 56.5491 37.5792C56.9484 37.9266 57.2321 38.3897 57.5369 38.8318C57.7155 39.095 57.9887 39.3792 57.5894 39.716C57.4002 39.8634 57.5684 40.0739 57.6104 40.2634C57.705 40.7055 58.0518 41.1266 57.4213 41.5266C57.106 41.7266 57.6209 42.0634 57.5999 42.3687C57.4528 42.6529 57.2952 42.8845 56.9379 42.9792C54.5524 43.6003 52.1355 44.0318 49.7291 44.5581C49.5399 44.6318 49.3823 44.6318 49.3928 44.3582C49.3928 43.895 49.4453 43.495 49.8552 43.1476C50.244 42.8213 50.0548 42.295 49.5399 42.0318C49.3087 41.916 49.0355 41.8424 48.7833 41.7897C48.5521 41.7476 48.3104 41.7581 47.9531 41.7371C48.426 41.3055 48.7518 40.9055 48.4575 40.3055C48.3735 40.1371 48.5626 40.0003 48.6677 39.8634C49.4033 38.9266 49.4033 38.8529 48.7833 37.8213C48.7308 37.7371 48.6992 37.6529 48.6362 37.5266C49.3192 37.516 50.0233 37.5581 49.8762 36.5581C49.8446 36.3581 50.0338 36.3581 50.1809 36.4108C50.3701 36.4739 50.5382 36.5687 50.7274 36.6003C51.3474 36.7266 51.5996 36.4213 51.3999 35.8213C51.1687 35.1371 51.5891 34.2318 52.2616 34.0213C52.5769 33.916 52.703 33.6634 52.9236 33.5266Z" fill="#683614"/>
<path d="M25.0554 12.5581C24.9818 12.8949 24.7401 12.9054 24.551 12.7896C23.4791 12.1686 22.4073 11.5581 21.409 10.8107C21.2723 10.7054 21.1883 10.537 21.2934 10.3581C21.3984 10.1791 21.5771 10.1581 21.7347 10.2528C22.8381 10.8633 23.8995 11.5475 24.8873 12.3265C24.9713 12.3896 25.0029 12.4844 25.0554 12.5581Z" fill="#6C3C1B"/>
<path d="M21.8612 14.6213C22.3551 14.7897 22.9015 14.8634 23.3324 15.2002C23.0381 15.2529 22.7439 15.3055 22.4496 15.3581C22.1029 15.2108 21.7666 15.0634 21.4198 14.9266C21.3357 14.4739 21.5669 14.495 21.8612 14.6213Z" fill="#C78B61"/>
<path d="M21.8604 14.6214C21.6187 14.5793 21.4926 14.7056 21.419 14.9161C20.9672 14.7582 20.4943 14.6319 20.1055 14.3266C20.778 13.9266 21.3139 14.3266 21.8604 14.6214Z" fill="#9B653F"/>
<path d="M32.0845 15.0637C31.5801 15.0321 31.496 15.2426 31.8112 15.6005C32.116 15.9584 32.4523 16.2847 32.6099 16.7479C32.1265 16.4005 31.6746 16.011 31.3594 15.4952C31.5801 15.3163 31.4329 14.5163 32.0845 15.0637Z" fill="#B19887"/>
<path d="M29.3322 16.5161C29.5844 16.653 29.763 16.8424 29.8891 17.2214C29.5634 17.0319 29.3007 16.9477 29.1641 16.6845C29.2166 16.6319 29.2691 16.5687 29.3322 16.5161Z" fill="#A28470"/>
<path d="M44.9156 49.653C47.0698 47.9687 49.5709 48.8951 51.0526 50.6845C51.4729 51.9687 51.4204 53.2319 50.4641 54.2109C49.4763 55.2319 48.2258 55.6109 46.8176 55.0951C46.7231 55.0845 46.6285 55.0635 46.5339 55.053C46.5654 54.8424 46.5654 54.8424 46.7756 54.7372C46.4078 54.5266 46.0085 54.3793 45.6827 54.1266C45.0837 53.6109 44.8526 52.8951 44.6109 52.1793C44.5793 51.8951 44.5898 51.6108 44.6004 51.3266C44.6214 50.7372 44.6319 50.7477 45.1468 51.0214C45.2834 51.0951 45.2834 50.8845 45.3254 50.7898C45.42 50.4635 45.6197 50.2319 45.8719 50.0214C46.1661 49.8319 46.4498 49.6319 46.7756 49.5056C46.8807 49.453 47.0068 49.4424 47.1539 49.2951C46.7546 49.2214 46.4498 49.3477 46.1556 49.4845C46.0295 49.5582 45.9139 49.6214 45.7773 49.6845C45.5041 49.7477 45.1888 50.2003 44.9156 49.653Z" fill="#201616"/>
<path d="M17.2054 54.9263C16.6064 55.6842 16.4488 55.6842 15.7237 55.0105C14.6623 54.0316 13.643 52.9789 12.424 52.1789C12.0772 51.9474 11.7199 51.7368 11.2996 51.7263C10.8793 51.7158 10.7637 51.4737 10.7637 51.1158C11.4362 49.4842 11.3942 49.5368 12.8549 50.6C14.263 51.621 15.3349 52.9789 16.6484 54.0947C16.8901 54.2947 17.0162 54.6421 17.2054 54.9263Z" fill="#4D270C"/>
<path d="M44.779 52.1582C45.0627 52.8319 45.2309 53.5582 45.7878 54.0845C45.9034 54.1898 45.9034 54.295 45.7773 54.3898C44.5688 53.4529 44.0329 52.2424 44.3166 50.7056C44.4953 50.7687 44.7475 50.6845 44.7265 51.0529C44.6949 51.4108 44.6214 51.7898 44.779 52.1582Z" fill="#705B5B"/>
<path d="M44.7795 52.1582C44.7585 52.1372 44.7375 52.1267 44.727 52.1056C44.5168 51.653 44.8005 51.053 44.3066 50.6951C44.3697 50.2635 44.5483 49.9056 44.9161 49.653C45.2839 50.0635 45.4836 49.4319 45.7988 49.5161C45.8934 49.7582 45.6938 49.8846 45.5992 50.0425C45.5046 50.2846 45.1158 50.474 45.4836 50.7898C45.5046 51.074 45.431 51.4109 45.1788 51.4424C44.79 51.4951 45.0212 51.0319 44.7795 50.7793C44.7795 51.2951 44.7795 51.7267 44.7795 52.1582Z" fill="#412F2F"/>
<path d="M49.4239 44.3477C49.4869 44.4845 49.6235 44.5161 49.7602 44.5477C49.0035 44.8424 48.2154 45.0003 47.4062 44.9687C47.9527 44.3792 48.7724 44.6319 49.4239 44.3477Z" fill="#944F2D"/>
<path d="M45.7676 54.379C45.7676 54.2737 45.7781 54.179 45.7781 54.0737C45.9777 54.1685 46.1669 54.2737 46.3771 54.3369C46.8605 54.4843 46.8815 54.7264 46.5347 55.0527C46.2405 54.8843 45.9672 54.6632 45.7676 54.379Z" fill="#433131"/>
<path d="M46.5236 22.7058C47.1541 22.9268 47.8161 23.0216 48.4571 23.2531C51.1788 24.2637 52.0405 28.0742 51.1578 30.2531C51.0212 30.6005 50.6429 30.79 50.6114 31.1795C50.4432 32.1479 49.7497 32.7163 48.9615 33.0426C47.5219 33.6321 46.0297 33.8742 44.4324 33.4952C43.0978 33.1795 41.8788 32.59 40.6178 32.1373C39.8402 31.8531 39.3568 31.1058 38.9575 30.3689C38.8104 30.0637 38.7263 30.0847 38.7578 29.2952C38.8314 28.6426 38.7368 29.0847 38.7473 28.7163C38.6632 28.4005 38.8314 27.6847 38.947 27.2531C39.1571 26.2321 39.4829 25.5268 40.1029 24.6531C40.9751 23.4216 42.2466 23.0321 43.5917 22.6742C44.0961 22.5373 44.59 22.6637 45.0839 22.6637C45.5673 22.3479 46.0402 22.5058 46.5236 22.7058Z" fill="white"/>
<path d="M31.6445 24.3163C31.8652 24.8531 32.1174 25.3794 32.3065 25.9373C32.4957 26.5058 32.3171 28.3689 32.1489 28.6742C31.9282 29.0742 31.7391 29.4952 31.4028 29.811C30.4991 30.6637 29.3747 30.9584 28.1767 31.1795C25.9069 31.6005 23.8367 31.1268 21.8927 29.9794C21.2621 29.611 20.9574 29.5584 20.3269 28.7058C19.8435 28.1479 19.854 27.4847 19.7279 26.6847C19.5493 25.5794 19.812 24.8426 20.1272 23.8531C20.3584 22.411 21.3882 21.6742 22.5652 21.0637C24.0679 20.3795 25.6547 20.19 27.2835 20.3373C29.2906 20.7373 30.4886 22.1268 31.4974 23.7584C31.5815 23.9373 31.655 24.1163 31.6445 24.3163Z" fill="white"/>
<path d="M20.3983 28.4001C22.1847 30.4528 24.4546 31.2844 27.1237 31.0738C27.5756 31.0423 28.038 30.9265 28.4898 30.9159C29.5932 30.8738 30.4549 30.2844 31.3166 29.7054C31.4637 29.6738 31.5268 29.737 31.4952 29.8844C31.0434 30.6107 30.518 31.2844 29.8664 31.8317C29.4356 32.2001 29.0258 32.5791 28.3217 32.4107C27.9224 32.3159 27.4285 32.5686 26.9976 32.7159C25.663 33.1686 24.4335 33.0107 23.2671 32.2001C22.8783 31.9265 22.458 31.6738 22.0271 31.4528C20.9237 30.8528 20.8186 29.558 20.1251 28.6738C20.02 28.5054 20.083 28.2633 20.3983 28.4001Z" fill="#BB8054"/>
<path d="M39.1043 30.2949C39.3986 30.6739 39.6718 31.0739 39.966 31.4528C40.5545 32.1897 41.4582 32.2002 42.1938 32.537C43.8436 33.3055 45.6091 33.737 47.4796 33.3476C48.8562 33.0633 49.886 32.3686 50.6111 31.1791C50.9789 31.316 51.0104 31.337 50.7372 31.716C50.0436 32.6633 49.266 33.5476 48.2362 34.1265C47.6267 34.4739 46.9752 34.7791 46.3131 34.9791C44.7158 35.4528 43.2972 35.1686 41.8891 34.1791C40.8592 33.4633 39.8714 32.8002 39.1989 31.716C38.9887 31.3686 38.9257 31.0002 38.7891 30.6423C38.8311 30.4633 38.9467 30.3581 39.1043 30.2949Z" fill="#B97E55"/>
<path d="M35.5728 27.958C35.5938 28.1686 35.6989 28.3159 35.867 28.4317C36.1297 28.5265 36.2558 28.7265 36.3084 28.9896C36.3084 29.0107 36.3084 29.0423 36.3189 29.0633C37.3382 30.6528 36.8128 30.8317 35.268 31.1896C35.1945 31.2107 35.1209 31.2107 35.0579 31.2423C34.2697 31.6002 34.2697 31.6002 34.2697 30.7159C34.2697 29.9159 34.2697 29.1159 34.2697 28.3054C34.2697 27.958 34.2487 27.5896 34.627 27.4212C35.0158 27.2423 35.1525 27.6528 35.3941 27.8212C35.4467 27.8844 35.5097 27.9159 35.5728 27.958Z" fill="#FCD96D"/>
<path d="M53.511 30.1579C53.7632 29.7053 53.8263 29.2211 53.8263 28.7053C53.8263 28.2421 53.8263 27.779 53.8368 27.3263C53.8473 27.1474 53.9419 27 54.131 26.9684C54.3202 26.9369 54.3832 27.0737 54.4148 27.2211C54.6775 28.2 54.9402 29.179 55.1924 30.1579C55.287 30.5263 54.9612 30.5263 54.751 30.5895C54.3832 30.7158 54.0575 30.8421 54.2676 31.3369C54.4778 31.8211 53.9104 31.6842 53.8158 31.9158C53.8998 32.0106 53.9104 32.1053 53.8158 32.2C53.8263 32.4842 53.7527 32.8527 53.469 32.8106C53.0487 32.7474 53.3009 32.2948 53.2168 32.0211C53.5951 31.4527 53.1748 30.7474 53.511 30.1579Z" fill="#683614"/>
<path d="M54.2796 23.8111C54.1851 24.369 54.0169 24.8743 54.3637 25.4638C54.5423 25.769 54.5318 26.3059 54.1956 26.6953C53.7542 26.5059 54.164 25.9796 53.8173 25.769C53.2918 25.0427 52.8925 24.2427 52.5037 23.4427C52.0308 22.6638 51.3688 22.0638 50.7383 21.4111C52.0834 21.9796 53.3024 22.7164 54.2796 23.8111Z" fill="#683614"/>
<path d="M24.2452 17.9155C23.1628 18.505 22.0174 18.9471 21.0296 19.6945C20.9561 19.7471 20.8405 19.7787 20.7669 19.6839C20.6513 19.5261 20.7669 19.4103 20.872 19.305C21.8072 18.3997 22.9422 17.9576 24.2452 17.9155Z" fill="#77431F"/>
<path d="M36.3085 29.0002C36.0879 28.8739 35.9828 28.6528 35.8672 28.4423C36.193 28.3792 36.1404 28.0844 36.214 27.8634C36.5397 26.8423 36.8865 25.8318 37.6116 25.0107C37.6431 25.5686 37.3384 26.0423 37.1387 26.516C36.8445 27.2213 36.3716 27.8528 36.5713 28.6844C36.6028 28.8213 36.4452 28.9265 36.3085 29.0002Z" fill="#D4905E"/>
<path d="M52.5028 23.4319C53.1228 24.1056 53.5011 24.9161 53.8163 25.7582C53.8058 25.9266 53.7953 26.0845 53.7743 26.3371C53.4065 25.9687 53.396 25.5161 53.1963 25.1582C53.0177 24.8319 52.9651 24.3898 52.5028 24.295C52.0719 23.8845 51.8302 23.3371 51.4414 22.8003C51.9143 22.8635 51.9878 23.2319 52.198 23.4529C52.2926 23.5477 52.4292 23.8003 52.5028 23.4319Z" fill="#D99462"/>
<path d="M19.8414 19.0212C19.7888 18.8738 19.6417 18.8738 19.5156 18.8317C19.936 18.4212 20.4824 18.2527 21.0078 18.0527C20.7136 18.4948 20.2407 18.7159 19.8414 19.0212Z" fill="#BC7C4F"/>
<path d="M18.4763 22.042C18.5079 22.3157 18.4448 22.5262 18.1926 22.6315C18.1716 22.642 18.0875 22.5894 18.0875 22.5683C18.0455 22.2841 18.1821 22.1157 18.4763 22.042Z" fill="#B8794C"/>
<path d="M21.7228 61.1372C22.0065 61.2425 22.2377 61.3162 22.4584 61.4214C23.0889 61.7162 23.7299 61.8846 24.4235 61.8319C24.9174 61.7898 25.2221 62.0846 25.1591 62.5056C25.1065 62.9267 24.7703 63.253 24.2554 63.0951C23.2571 62.7898 22.4374 62.1898 21.6493 61.5477C21.5652 61.4741 21.4391 61.3793 21.5337 61.2425C21.5862 61.1793 21.6913 61.1583 21.7228 61.1372Z" fill="#4E270D"/>
<path d="M53.8262 32.2105C53.8262 32.1157 53.8262 32.021 53.8262 31.9262C53.8472 31.9262 53.8787 31.9262 53.8997 31.9157C54.1204 31.8947 54.3411 31.8736 54.4672 32.1157C54.4882 32.1578 54.4672 32.2736 54.4357 32.2947C54.215 32.442 54.0153 32.3052 53.8262 32.2105Z" fill="#AE7145"/>
<path d="M45.4836 50.7898C45.3469 50.8319 45.3469 51.074 45.1788 51.0213C45.0422 50.9792 45.0842 50.8213 45.1158 50.7161C45.1998 50.4319 45.1893 50.095 45.5046 49.9266C45.6937 49.895 45.8514 49.6003 46.072 49.8213C46.1771 49.9266 46.0405 50.0319 45.988 50.1266C45.7883 50.3266 45.5571 50.5055 45.4836 50.7898Z" fill="#CDCBCB"/>
<path d="M45.9775 50.1268C46.0616 49.4637 45.6097 50.1058 45.4941 49.9268C45.5992 49.79 45.6938 49.6531 45.7989 49.5163C45.8935 49.4637 45.988 49.411 46.0931 49.3584C46.2928 49.2742 46.5135 49.2531 46.7131 49.2742C46.9863 49.2952 47.1124 49.4426 46.8287 49.6742C46.545 49.8216 46.2613 49.9689 45.9775 50.1268Z" fill="#716A6A"/>
<path d="M46.8169 49.6634C46.7959 49.0107 46.302 49.516 46.0918 49.3581C46.344 49.1581 46.6487 49.0844 46.964 49.0844C47.1637 49.0844 47.4579 48.9792 47.5104 49.2844C47.5525 49.5581 47.2477 49.5055 47.1006 49.6002C47.0165 49.6318 46.9115 49.6423 46.8169 49.6634Z" fill="#412F2F"/>
<path d="M44.7375 30.6001C43.6656 30.6001 42.4256 29.737 42.268 29.0106C42.0368 27.8949 42.6043 26.7896 43.6551 26.337C44.8426 25.8212 47.0598 26.937 47.3541 28.1896C47.5537 29.0633 46.9863 29.9264 45.8934 30.337C45.4521 30.4949 44.9897 30.537 44.7375 30.6001Z" fill="#0B1F33"/>
<path d="M41.3952 25.3051C41.4162 24.6209 42.8559 23.6315 43.4759 23.8841C43.8542 24.0315 43.9908 24.3473 43.7701 24.7051C43.4339 25.242 43.003 25.7157 42.4145 25.9894C41.8471 26.2525 41.3742 25.9051 41.3952 25.3051Z" fill="#FEFDFB"/>
<path d="M40.8592 26.6426C41.143 26.6636 41.3636 26.8215 41.3952 27.1163C41.4162 27.4215 41.206 27.6321 40.9118 27.6321C40.6175 27.6321 40.4389 27.411 40.4179 27.1057C40.3969 26.8215 40.5545 26.6636 40.8592 26.6426Z" fill="white"/>
<path d="M26.2745 28.6847C25.2552 28.6952 24.5932 28.2741 24.2779 27.411C23.784 26.0741 24.5091 25.032 25.9172 25.0426C26.3166 25.0426 26.6949 25.1268 27.0521 25.2531C27.9559 25.5583 28.4813 26.2636 28.3972 27.0215C28.3027 27.8952 27.5881 28.5794 26.6318 28.6847C26.5267 28.6952 26.4006 28.6847 26.2745 28.6847Z" fill="#0B1F33"/>
<path d="M24.1936 23.2532C24.0991 23.8532 23.7733 24.4742 23.1848 24.9163C22.8696 25.1479 22.4808 25.1374 22.155 24.9058C21.7346 24.6005 21.6191 24.1374 21.7557 23.6637C21.9763 22.9268 22.5228 22.4742 23.2374 22.2742C23.8258 22.1058 24.1936 22.4637 24.1936 23.2532Z" fill="#FEFDFC"/>
<path d="M21.3759 25.6318C21.7016 25.7371 21.9539 25.9476 21.9854 26.316C22.0169 26.6003 21.8488 26.7687 21.565 26.7792C21.1762 26.8003 20.9871 26.6108 20.9766 26.2318C20.9766 25.9582 21.0081 25.695 21.3759 25.6318Z" fill="white"/>
<path d="M44.0419 28.2215C43.6216 28.4742 43.3274 28.3689 43.1802 27.8952C43.0646 27.5058 43.2013 27.2215 43.6006 27.1163C44.0629 26.99 44.4202 27.0742 44.4518 27.6531C44.3887 27.8847 44.3992 28.19 44.0419 28.2215Z" fill="white"/>
<path d="M44.043 28.2208C44.1796 28.0313 44.3162 27.8418 44.4528 27.6523C44.5053 27.7787 44.5369 27.9366 44.6314 28.0418C44.7996 28.2523 44.7996 28.4313 44.6314 28.6208C44.5159 28.7366 44.3898 28.905 44.2111 28.8102C43.9589 28.6839 44.085 28.4208 44.043 28.2208Z" fill="#FDB354"/>
<path d="M25.3698 26.7683C25.3488 26.9999 25.1806 27.1683 24.981 27.1473C24.7077 27.1157 24.5291 27.0526 24.4871 26.7157C24.4555 26.4736 24.7077 26.2315 24.9074 26.242C25.2016 26.2526 25.4118 26.4105 25.3698 26.7683Z" fill="white"/>
<path d="M25.0223 27.2215C25.0118 27.2215 24.9907 27.2215 24.9802 27.2215C24.7175 27.1899 24.4758 27.1267 24.4128 26.7267C24.3918 26.6004 24.4443 26.4636 24.5494 26.3478C24.6545 26.232 24.7911 26.1688 24.9067 26.1794C25.0853 26.1899 25.2324 26.253 25.327 26.3583C25.4216 26.4636 25.4531 26.6109 25.4321 26.7794C25.4216 26.9162 25.3585 27.053 25.2534 27.1373C25.1904 27.1899 25.1063 27.2215 25.0223 27.2215ZM24.8962 26.3057C24.8226 26.3057 24.728 26.3583 24.6545 26.432C24.5809 26.5162 24.5494 26.6109 24.5599 26.6951C24.6019 26.9794 24.7175 27.032 24.9907 27.0636C25.0538 27.0741 25.1168 27.053 25.1694 27.0109C25.2429 26.9478 25.285 26.8636 25.2955 26.7583C25.306 26.6215 25.285 26.5162 25.2219 26.4425C25.1379 26.3478 25.0012 26.3162 24.8962 26.3057Z" fill="#0B1F33"/>
<path d="M48.5202 50.9792C48.5096 50.9476 48.4886 50.9265 48.4781 50.8949C48.3415 50.6002 48.289 50.2002 48.0578 50.0213C47.753 49.7792 47.4378 50.1897 47.112 50.2739C46.5235 50.4213 46.4815 50.5686 46.7547 51.116C46.9649 51.537 47.2171 51.937 47.2801 52.4213C47.3117 52.6528 47.3642 52.9265 47.091 53.0528C46.8493 53.1581 46.6391 53.0213 46.4605 52.8423C46.3869 52.7686 46.3449 52.5581 46.1873 52.6844C46.0612 52.7792 46.1242 52.9581 46.1978 53.0739C46.3974 53.4107 46.7442 53.4949 47.1015 53.4528C47.4798 53.4002 47.6164 53.1055 47.6479 52.7686C47.7005 52.1792 47.4483 51.6634 47.1961 51.1581C47.091 50.9371 46.9439 50.737 47.3222 50.6107C47.6059 50.516 47.8791 50.2423 48.0578 50.7581C48.2364 51.2739 48.4781 51.7686 48.6883 52.2739C48.7303 52.3581 48.7829 52.4634 48.8985 52.4318C49.014 52.3897 48.9825 52.2739 48.9615 52.1897C48.8774 51.7476 48.6883 51.3686 48.5202 50.9792Z" fill="white"/>
<path d="M24.655 83.3053C24.1716 82.8527 23.4045 83.0316 22.9316 82.5158C22.8371 82.4106 22.7425 82.579 22.6689 82.6737C22.5428 82.8211 22.3222 82.779 22.3432 82.6422C22.4062 82.1685 21.9964 81.979 21.8493 81.6422C21.7232 81.3474 21.5761 81.1264 21.1872 81.0527C20.8089 80.979 20.6723 80.5685 20.5357 80.2316C20.21 79.4001 20.1574 78.5158 20.1469 77.6422C20.1364 76.9053 20.1259 76.179 20.1469 75.4422C20.1679 74.779 20.231 74.1264 19.5374 73.7053C19.3798 73.6106 19.3062 73.3264 19.2642 73.1264C19.0435 71.8948 19.075 70.6527 18.991 69.4106C18.9805 69.2527 19.0855 69.0948 19.1486 68.9158C19.3903 69.2001 19.3903 69.5158 19.4113 69.8316C19.4849 70.758 19.5584 71.6843 19.611 72.6106C19.6425 73.1053 19.8842 73.4737 20.2205 73.8211C21.3659 75.0316 22.8581 75.5158 24.4028 75.8948C30.214 77.3158 36.1303 77.158 42.0466 77.1264C43.8961 77.1158 45.7455 77.0211 47.5845 76.9685C49.6757 76.9053 51.6408 76.2211 53.6479 75.7158C54.6567 75.4632 54.7933 75.1158 54.7513 74.0527C54.6777 72.158 54.5937 70.2632 54.5306 68.3685C54.4361 65.2211 54.394 62.0632 54.2889 58.9158C54.1838 55.8211 54.1103 52.7158 53.753 49.6316C53.732 49.4211 53.7215 49.2001 53.795 48.979C54.352 50.1053 54.2994 51.3369 54.415 52.5369C54.5306 53.7474 54.5832 54.9685 54.5516 56.2632C55.1822 56.0527 55.4974 55.5895 55.8862 55.2106C57.8828 53.2948 59.9635 51.5158 62.475 50.2843C63.1581 49.9474 63.8727 49.7158 64.6083 49.5474C64.9971 49.4527 65.3859 49.4211 65.6066 49.8527C65.9008 49.7579 65.5961 49.4632 65.8483 49.358C66.2686 49.6632 66.132 50.0422 65.9639 50.3895C65.7011 50.9369 65.2703 51.3369 64.7764 51.6527C64.335 51.9369 64.4191 52.1053 64.7869 52.379C66.2266 53.4316 67.5296 54.6422 68.654 56.0422C68.9693 56.4422 69.2845 56.8632 69.5052 57.3158C70.1883 58.7053 69.9571 59.3158 69.1269 60.0737C68.8432 60.3369 68.5805 60.6316 68.2967 60.8948C67.9184 61.2527 67.5401 61.5158 67.6662 62.2001C67.7818 62.7895 67.2459 63.1474 66.7099 63.3369C66.132 63.5474 65.5225 63.6106 64.9235 63.6948C64.6923 63.7264 64.4401 63.6843 64.1984 63.9158C64.6923 64.179 65.1337 64.4001 65.5645 64.6527C65.7432 64.758 65.9533 64.9158 65.8798 65.179C65.8167 65.4001 65.5855 65.4106 65.3964 65.4316C64.7449 65.5053 64.0933 65.5685 63.4418 65.5264C63.9357 65.4632 64.4296 65.4211 64.9235 65.3474C65.1652 65.3053 65.5435 65.3685 65.5961 65.0632C65.6381 64.8001 65.3018 64.7158 65.0916 64.6106C64.7659 64.4422 64.4296 64.3053 64.0933 64.1685C63.8622 64.0737 63.6099 63.979 63.5889 63.6948C63.5679 63.379 63.8832 63.3369 64.0828 63.2316C64.913 62.8211 65.7432 62.4211 66.5313 61.9369C67.6137 61.2843 68.4544 60.3685 69.3161 59.4737C69.7259 59.0422 69.6733 58.5369 69.5157 58.0316C69.3161 57.3685 68.9167 56.8001 68.4859 56.2737C67.0147 54.4527 65.2703 52.9474 63.2527 51.779C63.1686 51.7264 63.053 51.7053 63.0005 51.6316C62.1913 50.6211 61.4242 51.1474 60.6255 51.6632C58.4398 53.0843 56.6849 55.0001 54.8459 56.8001C54.3205 57.3158 54.6672 58.0001 54.6357 58.6632C57.6411 56.0422 61.0459 55.9264 64.6083 56.6632C64.6083 56.7264 64.6188 56.7895 64.6188 56.8527C64.0093 56.779 63.3998 56.6948 62.7903 56.6316C61.0984 56.4422 59.4486 56.579 57.8198 57.0948C56.5483 57.4948 55.6445 58.3474 54.8459 59.3474C54.6252 59.6211 54.6567 59.9474 54.6672 60.2632C54.8144 63.7053 54.8038 67.1474 55.0771 70.579C55.1191 71.1158 55.1191 71.6527 55.056 72.1895C54.9615 72.979 55.3398 73.3158 56.0228 73.579C57.41 74.1053 58.8286 74.5264 60.2472 74.9685C58.755 74.7685 57.3154 74.3579 55.9177 73.8001C55.1191 73.4843 55.1506 73.4632 55.2032 74.3474C55.2347 74.8737 55.1506 75.4001 55.0981 76.1474C54.7198 75.3474 54.4676 75.9053 54.1523 75.979C52.9018 76.2632 51.7249 76.8001 50.4428 77.0106C47.6371 77.4527 44.8208 77.4001 42.0045 77.4422C37.0866 77.5158 32.1791 77.5053 27.2927 76.8106C24.9388 76.4737 22.5428 76.2422 20.4096 74.4948C20.5147 76.5474 20.2099 78.4001 20.8299 80.2001C20.8825 80.358 20.9771 80.5158 21.0822 80.6422C21.1452 80.7264 21.2818 80.8211 21.3764 80.8106C21.5025 80.8001 21.5445 80.6527 21.5655 80.5264C21.6076 80.1895 21.6391 79.8422 21.6916 79.5053C21.7127 79.4001 21.6811 79.2316 21.8493 79.2211C22.0384 79.2211 22.0805 79.379 22.0805 79.5264C22.0594 79.9685 21.9544 80.4106 22.0279 80.8422C22.0805 81.158 21.8283 82.0843 22.753 81.4527C22.8791 81.3685 22.9632 81.4843 23.0157 81.6106C23.2469 82.2737 23.4991 82.8632 24.4133 82.7474C24.6235 82.7158 24.6445 83.1264 24.6866 83.3685C24.634 83.3264 24.655 83.3053 24.655 83.3053ZM64.7238 49.9895C63.9883 49.9053 63.7255 50.6527 63.2001 50.9685C63.032 51.0632 63.2001 51.2316 63.3157 51.3158C63.5889 51.4843 63.8306 51.9053 64.1879 51.6632C64.6083 51.379 65.0916 51.1053 65.1337 50.4632C65.1652 50.0843 65.1232 49.9369 64.7238 49.9895ZM64.3876 63.4211C65.1337 63.4316 65.8588 63.3474 66.5523 63.1158C66.9622 62.979 67.2984 62.758 67.414 62.2948C67.4455 62.1474 67.4771 62.0001 67.3405 61.8948C67.2144 61.8106 67.0988 61.8948 67.0042 61.9579C66.1635 62.5158 65.2598 62.9369 64.3876 63.4211Z" fill="#0B1F33"/>
<path d="M8.74488 50.1474C8.83945 49.1474 9.17572 48.8843 10.0059 49.0632C11.414 49.3685 12.6435 50.0738 13.6944 51.0422C14.9659 52.2106 16.3635 53.2632 17.2883 54.7685C17.4144 54.979 17.5615 55.0106 17.7717 54.9264C18.0449 54.8211 18.1289 54.6422 18.0869 54.358C17.8662 52.9369 18.1815 51.5369 18.3601 50.1264C18.3601 51.3895 18.3811 52.6632 18.3496 53.9264C18.3286 54.5159 18.4232 54.6632 19.0222 54.4001C21.8489 53.158 24.8018 52.5159 27.9018 52.7685C30.2452 52.9685 32.5466 53.3895 34.5747 54.6738C37.3174 56.4001 37.5801 58.5685 37.3595 61.0316C37.2859 61.8843 36.4978 62.4001 35.4995 62.4527C34.6798 62.4948 33.9967 62.1369 33.1981 61.6001C33.3978 62.158 33.5554 62.5474 33.6815 62.958C33.7656 63.2316 33.8391 63.5264 33.8917 63.8106C34.1649 65.4737 33.5133 66.0316 31.9371 65.4843C31.0859 65.1895 30.2767 64.8106 29.5832 64.1895C30.2032 64.4737 30.8232 64.7895 31.4642 65.0422C32.1052 65.2948 32.8618 65.7369 33.4503 65.179C33.9862 64.6632 33.65 63.8738 33.4818 63.2316C33.135 61.8527 32.3259 60.7264 31.3696 59.6948C31.212 59.5264 31.0123 59.4001 30.8862 59.2001C31.832 59.6527 32.4205 60.5159 33.1876 61.1685C33.8811 61.7474 34.5852 62.2211 35.531 62.179C36.6659 62.1264 37.3279 61.4737 37.3069 60.2948C37.2544 57.8106 36.2981 55.8316 34.0178 54.6632C31.233 53.2422 28.2381 52.8632 25.1486 53.0737C22.1222 53.2843 19.4005 54.4738 16.6998 55.7264C16.2584 55.9264 15.8171 56.1369 15.2496 56.4001C15.5649 55.9895 15.4598 55.8632 15.0815 55.9159C14.2198 56.0316 13.4422 56.3685 12.7591 56.9053C12.612 57.0211 12.4859 57.1474 12.3178 57.2316C12.9167 56.0737 13.9571 55.5474 15.1656 55.579C15.691 55.6001 16.1744 55.7685 16.6788 55.4737C16.9625 55.3053 17.0991 55.2001 16.8364 54.8843C15.4178 53.1474 13.9991 51.4106 12.0445 50.2316C11.6557 49.9895 11.3825 49.8737 11.1828 50.4527C10.4157 52.6737 9.61708 54.8737 8.86047 57.0843C8.6503 57.7053 8.5242 58.3685 8.5242 59.0316C8.5242 59.379 8.34556 59.8737 8.76589 60.0106C9.1442 60.1264 9.29132 59.6422 9.46996 59.379C9.84827 58.8106 10.174 58.2106 10.5313 57.6316C10.6364 57.4632 10.6574 57.1895 11.1303 57.2001C10.4473 58.779 10.2161 60.4001 10.3527 62.0632C10.4998 63.7159 10.8991 65.2948 11.7398 66.8422C11.992 66.4316 11.7503 66.1264 11.8028 65.7685C11.8659 65.8422 11.9289 65.8843 11.9395 65.9264C12.013 66.3685 12.3493 67.0738 11.971 67.2001C11.4561 67.3685 11.33 66.6211 11.1408 66.2211C10.1005 63.9159 9.84827 61.8948 10.2161 58.9159C9.78522 59.2001 9.66962 59.6632 9.37538 59.979C9.17572 60.1895 8.98657 60.4632 8.6503 60.3369C8.33505 60.2211 8.272 59.9159 8.25098 59.6106C8.17742 58.4948 8.40861 57.4211 8.76589 56.379C9.33335 54.7159 9.92183 53.0632 10.4998 51.4001C10.7835 50.5685 10.6259 50.179 9.84827 49.7895C9.80623 49.7685 9.75369 49.758 9.70115 49.7685C9.45945 49.779 9.30183 49.2001 9.08115 49.579C8.91301 49.8737 8.79742 50.3053 9.06013 50.6843C9.29132 51.0211 9.62759 51.2948 9.70115 51.7474C9.08115 51.0948 8.34556 50.5159 8.04081 49.6106C7.92522 49.2737 8.06182 49.0632 8.36657 48.8948C8.95504 48.579 9.38589 48.0843 9.81674 47.579C10.9622 46.2737 12.1391 45.0106 13.3056 43.7369C13.4001 43.6316 13.4737 43.5053 13.6208 43.4316C13.6628 43.779 13.4422 43.9685 13.2635 44.179C11.9815 45.6527 10.6995 47.1159 9.40691 48.579C9.21776 48.7895 8.97606 49.0001 8.71335 49.1159C8.11437 49.358 8.3981 49.6527 8.74488 50.1474Z" fill="#0B1F33"/>
<path d="M35.0275 25.3687C34.5336 24.9582 34.4601 24.3161 34.2289 23.7687C33.3567 21.7898 32.2218 20.0003 30.7821 18.3687C28.7119 16.0319 25.8957 15.0845 23.1425 14.0003C22.0075 13.5477 20.7991 13.3687 19.5801 13.2951C19.4225 13.2845 19.2018 13.2003 19.1177 13.3898C19.0126 13.6424 19.2753 13.7161 19.4225 13.8108C20.757 14.6319 22.2492 15.1056 23.6784 15.7266C24.0462 15.8845 24.456 15.9793 24.8238 16.5793C21.934 15.274 19.454 15.8424 17.2577 17.6424C16.0492 18.6319 15.4292 20.053 15.0614 21.6635C15.4397 21.4845 15.4397 21.1687 15.5974 20.9687C15.6919 20.8424 15.7655 20.6003 15.9652 20.7056C16.1858 20.8108 16.0492 21.0108 15.9547 21.1372C15.1455 22.3582 14.9353 23.7582 14.7041 25.1582C14.494 26.4108 14.9038 27.6214 14.9248 28.8635C14.9774 31.5161 15.3977 34.1161 16.333 36.6108C16.417 36.8424 16.4486 36.9687 16.2069 37.1477C15.1035 37.9687 14.1997 38.9898 13.3486 40.0635C12.8021 40.7477 12.5184 41.5372 12.4869 42.6003C13.874 41.4635 14.8197 40.0845 16.0387 38.9793C16.0282 39.4108 15.734 39.674 15.5553 40.0003C15.177 40.6635 14.8618 41.3477 14.6831 42.0845C14.6411 42.2424 14.5675 42.4529 14.7357 42.5582C14.8933 42.6635 15.0719 42.5687 15.2086 42.4635C15.7445 42.0424 16.2594 41.6003 16.7848 41.1687L16.7743 41.1582C16.6482 41.9687 15.4397 42.9898 14.6621 42.9582C14.2523 42.9477 14.0841 42.7687 14.1997 42.3582C14.3153 41.9687 14.4204 41.5687 14.5886 41.0003C14.0001 41.5898 13.5377 42.0635 13.0543 42.5161C12.8652 42.6951 12.676 42.9793 12.3818 42.8214C12.098 42.6635 12.2031 42.3477 12.2347 42.0845C12.3818 40.7266 13.1069 39.6635 13.9896 38.6951C14.515 38.1161 15.0614 37.5582 15.7235 37.1266C16.0387 36.9161 16.1018 36.7266 15.9757 36.3477C14.9774 33.2635 14.3469 30.1161 14.3469 26.8635C14.3469 25.6319 14.4835 24.4319 14.7882 23.2319C14.9143 22.7372 15.1875 22.2424 14.8302 21.7056C14.7462 21.5793 14.8303 21.3161 14.8933 21.1372C16.0597 17.5056 17.9723 15.653 21.6187 15.474C21.7133 15.474 21.8079 15.453 22.0075 15.4319C21.5136 15.0214 20.9567 14.9161 20.4838 14.674C19.9584 14.4108 19.4225 14.1793 18.9706 13.8003C18.8025 13.6635 18.6133 13.4951 18.7079 13.2424C18.8025 13.0003 19.0336 12.9687 19.2648 12.9793C20.4418 12.9898 21.5872 13.2214 22.7116 13.5372C24.3614 13.9898 25.9377 14.674 27.4299 15.4635C31.4336 17.5898 33.6825 21.1266 35.0065 25.3477L35.0275 25.3687Z" fill="#0B1F33"/>
<path d="M51.7885 27.2634C51.221 25.0003 49.9495 23.3371 47.7952 22.4319C46.3346 21.8213 44.8319 21.8108 43.203 22.2529C43.6339 22.4213 43.9281 22.2845 44.2224 22.2529C48.5834 21.7371 52.0827 25.1687 51.4417 29.5371C51.0739 32.0634 49.4241 33.7687 47.1122 34.7582C44.9895 35.6634 43.0454 35.274 41.2274 33.8845C39.5041 32.5687 38.3796 30.9161 38.3691 28.7161C38.3691 27.7792 38.863 26.8319 38.9996 25.895C39.2098 24.4319 40.2502 23.7266 41.1959 22.9371C42.2573 22.0424 43.5813 21.7371 44.9474 21.695C47.8058 21.6108 49.9705 22.8213 51.3576 25.3477C51.6624 25.9371 51.8515 26.5582 51.7885 27.2634ZM45.7461 33.3477C47.0281 33.3266 48.2051 33.0845 49.361 32.6529C49.7919 32.495 50.1281 32.2213 50.3488 31.8319C51.4732 29.8634 51.6308 27.8213 50.5905 25.8108C49.5186 23.7371 47.7742 22.5582 45.3783 22.495C41.5952 22.4003 39.6827 23.8845 38.8525 27.5687C38.4532 29.3582 38.9576 30.695 40.4919 31.7056C42.0997 32.7792 43.8651 33.3477 45.7461 33.3477ZM39.2308 31.1898C40.3658 32.9477 41.7634 34.4319 43.9071 34.874C45.8512 35.274 47.4905 34.5161 48.9512 33.2424C45.3678 34.1477 42.1207 33.5687 39.2308 31.1898Z" fill="#0B1F33"/>
<path d="M19.4946 25.5687C19.4631 23.2529 21.0288 21.295 23.5719 20.4529C28.2482 18.916 32.8614 22.3897 32.7458 27.3476C32.7248 28.3792 32.2099 29.2213 31.6739 30.0318C29.2255 33.7265 24.0238 34.0529 21.3231 30.6318C20.1671 29.1792 19.4736 27.4844 19.4946 25.5687ZM26.6509 30.9371C28.2587 30.916 29.7824 30.5897 31.0855 29.5687C31.8841 28.9371 32.2834 28.1371 32.2939 27.116C32.3465 22.0844 27.1027 18.8213 22.6787 21.1476C20.0726 22.516 19.1058 25.0423 20.1251 27.8213C20.2092 28.0529 20.2933 28.2739 20.4719 28.4529C22.1848 30.1371 24.2549 30.9581 26.6509 30.9371ZM20.7451 29.116C21.4387 31.0213 23.5088 32.5792 25.4424 32.6318C27.7858 32.7055 30.4234 31.4634 31.0329 30.0634C27.439 31.9055 24.0238 31.6002 20.7451 29.116Z" fill="#0B1F33"/>
<path d="M16.784 41.2002C17.3724 41.1897 17.7402 40.716 18.3497 40.3581C17.8558 41.1371 18.3918 41.4423 18.7491 41.7897C20.2413 43.2423 22.0907 44.0423 24.0453 44.6108C26.4833 45.3265 28.9843 45.6739 31.5274 45.7055C38.2107 45.8108 44.8416 45.3581 51.3989 44.0002C51.9453 43.8844 51.9453 43.8739 51.9768 43.4529C53.364 44.1476 53.7213 43.9792 55.1609 41.9476C55.3606 42.3055 54.9718 42.5792 55.0453 42.9581C55.7389 42.7581 56.4324 42.5581 57.126 42.3687C57.4097 42.295 57.3677 42.1265 57.2836 41.9265C57.126 41.5055 56.7792 41.2318 56.4219 40.9792C56.5585 40.8318 56.6321 40.8844 56.7267 40.9265C56.9894 41.0423 57.2941 41.2529 57.5358 40.9792C57.767 40.716 57.5148 40.4318 57.4097 40.1686C57.3152 39.9581 57.0314 39.7581 57.3992 39.495C57.5779 39.3581 57.3887 39.1265 57.2836 38.9687C56.9158 38.3687 56.527 37.7792 56.1382 37.1897C56.0541 37.0634 55.928 36.9371 56.0121 36.8002C56.1067 36.6423 56.2643 36.7265 56.4009 36.7687C57.0209 36.9581 56.9263 36.6108 56.8107 36.2318C56.6216 35.5897 56.2433 35.0423 55.928 34.4739C55.7494 34.1581 55.5708 33.8423 55.4026 33.5476C55.6443 33.2318 56.1487 33.7581 56.1908 33.2739C56.2118 33.0318 55.907 32.7581 55.6653 32.3687C56.1908 32.695 56.527 33.0213 56.5585 33.5055C56.5796 33.8844 56.1382 33.695 55.9175 33.8423C56.3063 34.6844 56.8948 35.3897 57.1155 36.2844C57.2101 36.6423 57.3572 37.0213 56.8002 37.1581C56.506 37.2318 56.6426 37.3897 56.7267 37.5371C56.8738 37.7897 56.9999 38.0634 57.1891 38.2844C57.8406 39.0423 57.4728 40.0634 57.8931 40.8739C57.4202 41.3265 57.6514 41.895 57.6304 42.4213C57.6199 42.695 57.4097 42.7792 57.168 42.7792C56.0962 42.7792 55.1609 43.2529 54.2257 43.7055C53.9419 43.8423 53.6792 44.0318 53.364 44.0739C49.2446 44.6213 45.1779 45.5265 41.027 45.7476C36.004 46.0108 30.9809 46.4002 25.9789 45.3897C23.3728 44.8634 20.9348 43.9476 18.8226 42.2844C18.1921 41.8002 17.7507 41.0002 16.784 41.2002C16.784 41.2002 16.7735 41.1792 16.784 41.2002Z" fill="#0B1F33"/>
<path d="M35.0171 17.6106C35.2483 17.3264 35.1011 16.8421 35.5215 16.8211C35.8788 16.8 36.131 17.0948 36.3516 17.3579C36.6564 17.7053 36.8035 18.1474 36.9506 18.6737C37.3079 18.379 37.5286 17.9579 38.012 18.0737C38.4533 18.179 38.5584 18.5685 38.674 18.9895C38.9788 18.7158 39.21 18.4737 39.4727 18.2737C39.8615 17.9895 40.2713 17.6106 40.7862 17.8737C41.2591 18.1158 40.7967 18.579 40.9333 19C41.8161 18.379 42.7303 17.8737 43.7076 17.5158C43.7811 17.4948 43.8442 17.4527 43.9177 17.4422C44.254 17.4 44.7059 17.0211 44.895 17.4316C45.0527 17.779 44.5377 17.979 44.2015 18.1685C44.2961 18 44.3906 17.8422 44.5903 17.5158C42.6883 18.1264 41.112 18.9158 39.7774 20.5158C39.9245 19.7158 40.3974 19.3158 40.5655 18.779C40.6286 18.579 40.8177 18.3474 40.6496 18.1685C40.4394 17.9369 40.1978 18.1369 39.9876 18.2527C39.3361 18.6316 38.8632 19.1685 38.5584 19.8632C38.4638 20.0843 38.4744 20.4 38.1066 20.5053C37.9489 20.0632 38.2537 19.6948 38.2747 19.3053C38.2957 18.9474 38.4323 18.4948 37.97 18.3579C37.4866 18.2106 37.371 18.6843 37.2554 19.0106C37.0978 19.4316 37.0032 19.8843 36.8455 20.4632C36.5513 19.979 36.6564 19.5895 36.6564 19.2316C36.6459 18.5474 36.5198 17.9158 36.0259 17.4106C35.8998 17.2737 35.7632 17.0737 35.5425 17.179C35.3639 17.2632 35.4164 17.4737 35.3954 17.6422C35.3323 18.1579 35.574 18.6316 35.532 19.2C34.7439 17.3474 33.5459 15.9264 31.5703 15.0106C31.8855 15.779 32.5161 16.1158 32.6842 16.6422C32.2218 16.2211 31.6859 15.7474 31.171 15.2421C29.952 14.0421 28.712 12.8632 27.0937 12.2106C26.852 12.1158 26.5578 11.8948 26.3476 12.1158C26.1059 12.3579 26.4106 12.6 26.5262 12.8211C26.7259 13.2106 26.9571 13.579 27.1147 14.0106C26.5262 13.5369 26.0954 12.9369 25.8957 12.2106C25.8011 11.8843 26.0428 11.6843 26.3686 11.7369C26.7049 11.7895 27.0306 11.8843 27.3459 12.0106C28.2706 12.4 29.0798 12.9895 29.8469 13.6316C30.4984 14.1685 31.0659 14.7264 31.9906 14.9369C33.073 15.1895 33.8611 16.1264 34.5652 17.0106C34.7228 17.2211 34.87 17.4106 35.0171 17.6106Z" fill="#0B1F33"/>
<path d="M52.9953 22.7999C54.1092 23.4841 54.7292 24.4525 55.5278 25.2525C56.2109 23.2841 54.1302 20.3262 50.6414 18.2736C51.4715 18.0104 52.3017 18.3052 53.258 18.0947C52.8902 17.8315 52.5855 17.8315 52.2912 17.821C50.158 17.6841 48.1088 18.0631 46.0282 18.5683C44.557 18.9262 43.1068 19.2315 41.7617 19.9683C42.3922 19.3262 43.1804 18.9789 43.9685 18.6525C44.5465 18.4104 45.177 18.1789 45.7865 18.1473C48.0353 17.9999 50.2316 17.221 52.5119 17.5683C52.9112 17.6315 53.5732 17.5262 53.5417 18.0947C53.5207 18.5578 52.8692 18.5262 52.4594 18.6315C52.3017 18.6736 52.1231 18.5683 51.9129 18.7789C52.4383 19.0947 52.9112 19.4525 53.3526 19.8525C54.54 20.9473 55.4648 22.2104 55.8536 23.8104C55.9692 24.2631 55.9797 24.7262 55.9482 25.1894C55.9377 25.3789 55.9377 25.6104 55.7275 25.6947C55.4963 25.7789 55.3912 25.5578 55.2651 25.421C54.9814 25.1052 54.7082 24.7789 54.2773 24.5262C54.5505 25.5999 54.7817 26.6947 55.118 27.7473C55.4332 28.7368 55.6644 29.7578 55.9377 30.7578C56.0322 31.0736 55.9692 31.3894 56.2844 31.6315C56.421 31.7368 56.2949 31.9368 56.1373 31.9578C55.78 31.9999 55.4017 32.1368 55.0129 32.0104C55.1495 31.6631 55.4753 31.8315 55.6854 31.6525C55.5909 31.3999 55.0654 31.242 55.5804 30.7578C55.7905 30.5578 55.4858 29.7052 55.2966 29.1894C54.7187 27.5999 54.3614 25.9578 54.0356 24.3052C53.9831 24.0104 53.8149 23.8315 53.6363 23.642C53.4577 23.4315 53.1634 23.2841 52.9953 22.7999Z" fill="#0B1F33"/>
<path d="M50.8726 53.1054C50.9146 52.5685 50.9357 52.0317 51.0092 51.5054C51.0828 50.9369 50.8621 50.4843 50.4313 50.1685C49.2333 49.2948 47.9197 48.7896 46.417 49.0527C44.9458 49.3159 44.3153 50.1685 44.536 51.6422C44.7462 53.0527 45.2716 54.3475 46.7533 54.8106C48.2665 55.2738 49.5485 54.6738 50.5994 53.5264C49.8218 55.2633 47.0265 55.8106 45.6079 54.4633C44.5045 53.4212 44.1367 52.0843 44.2733 50.5896C44.3363 49.9264 44.7567 49.4948 45.3136 49.1685C46.9635 48.2106 49.8218 48.779 50.9672 50.3159C51.6397 51.2422 51.4716 52.1896 50.8726 53.1054Z" fill="#0B1F33"/>
<path d="M22.3947 66.7058C22.9306 67.0848 23.3299 67.39 23.7398 67.6742C24.5174 68.2321 25.3266 68.7269 26.3143 68.8005C27.5859 68.8953 28.1849 68.3269 28.1638 67.0637C28.1323 65.19 27.5228 63.5269 26.4194 62.0216C26.2828 61.8321 26.1462 61.6427 26.0727 61.4321C27.8801 63.1795 28.5947 65.3479 28.3845 67.8216C28.3215 68.5058 27.7855 68.8637 27.1445 69.0006C26.3249 69.1795 25.5577 69.0216 24.8116 68.6532C24.1286 68.3269 23.5506 67.8532 22.836 67.3479C22.8466 68.0427 23.0567 68.7374 22.3842 69.1269C21.8483 69.4321 21.2808 69.4532 20.5137 69.19C21.3333 69.1479 22.0584 69.3479 22.5313 68.7269C22.9832 68.1163 22.4472 67.4848 22.3947 66.7058Z" fill="#0B1F33"/>
<path d="M35.0149 25.3897C35.0884 25.9792 35.1935 26.5581 35.2356 27.1476C35.2986 28.0108 35.9396 28.7897 36.5281 29.4634C36.8013 29.7792 37.001 29.3476 37.0851 29.0739C37.1271 28.9371 37.0851 28.7687 37.2637 28.716C37.3793 28.6739 37.4529 28.7476 37.4949 28.8424C37.5895 29.0213 37.5054 29.1687 37.4003 29.316C37.0745 29.7581 36.6647 30.095 36.0973 30.1792C35.6139 30.2529 35.2566 30.5371 34.9413 30.8845C34.8573 30.9687 34.7627 31.0845 34.8468 31.2003C34.9203 31.316 35.0569 31.2845 35.183 31.2739C35.6559 31.2213 36.0027 30.895 36.5491 30.5581C36.1183 31.1581 35.7295 31.5371 35.1515 31.4634C34.7207 31.4108 34.4684 31.5476 34.2583 31.9897C34.0376 31.4845 34.1217 31.0529 34.1112 30.6318C34.0901 30.0003 34.1112 29.3687 34.1007 28.7371C34.1007 28.3371 34.0691 27.8739 34.3529 27.6213C35.0674 27.0003 35.141 26.2424 35.0149 25.3897C35.0254 25.3687 35.0149 25.3897 35.0149 25.3897ZM34.3634 31.1055C34.6576 30.7581 34.8152 30.6108 34.9308 30.4318C35.2251 29.9687 36.1078 29.9897 36.0447 29.3687C35.9922 28.8529 35.5718 28.3687 35.3091 27.8739C35.204 27.6845 35.1305 27.4318 34.8678 27.4529C34.6156 27.4739 34.521 27.7055 34.479 27.9266C34.3213 28.9055 34.3213 29.895 34.3634 31.1055Z" fill="#0B1F33"/>
<path d="M58.24 68.1895C59.1332 68.1158 60.037 68.0842 60.8882 67.7474C61.0878 67.6632 61.298 67.579 61.4766 67.4527C61.7183 67.2948 61.9915 67.0948 61.8234 66.7474C61.6658 66.4106 61.3715 66.5474 61.1193 66.6211C60.1315 66.8842 59.1332 67.0421 57.9668 66.9369C58.3871 66.6632 58.7339 66.6842 59.0597 66.6948C60.079 66.7158 60.9722 66.3158 61.8549 65.8632C62.0021 65.7895 62.1702 65.6948 62.1807 65.4948C62.1912 65.2316 61.9705 65.1158 61.7814 65.0316C60.8987 64.6106 59.9424 64.4 58.9756 64.2632C59.0176 63.9895 59.2278 64.0527 59.3644 64.0737C60.2682 64.1685 61.1298 64.4211 61.9495 64.8C62.2858 64.9579 62.496 65.2316 62.58 65.5685C62.6641 65.9053 62.1912 65.9579 62.1387 66.2737C62.1282 66.3579 61.7919 66.3474 61.9705 66.6106C62.3699 67.1895 61.918 67.4737 61.5187 67.6948C60.4783 68.2737 59.3644 68.2842 58.24 68.1895Z" fill="#0B1F33"/>
<path d="M24.9593 12.6423C24.7807 12.8318 24.581 12.8213 24.3709 12.6949C23.3095 12.0528 22.2481 11.4213 21.2078 10.7686C21.0292 10.6528 20.7349 10.5055 20.8925 10.2002C21.0397 9.92652 21.3129 9.98968 21.5441 10.0634C23.2149 10.6213 24.6336 11.5476 25.6634 13.1897C25.2431 13.116 25.0434 12.9581 24.9488 12.6634C24.0451 11.4739 22.8366 10.7791 21.4075 10.4107C22.1325 11.0107 22.8892 11.5686 23.6773 12.0634C24.0661 12.3055 24.4339 12.6634 24.9593 12.6423Z" fill="#0B1F33"/>
<path d="M58.4922 43.2319C60.6359 45.0109 62.7796 46.8004 64.9234 48.5793C62.6115 47.0004 60.3837 45.3267 58.4922 43.2319Z" fill="#0B1F33"/>
<path d="M22.7734 61.642C23.3409 61.7051 23.9189 61.7999 24.4863 61.8209C25.1378 61.842 25.2639 61.6314 25.0223 61.0104C24.665 60.1157 24.0029 59.4315 23.425 58.6841C24.3707 59.2946 25.0433 60.1157 25.369 61.2104C25.5267 61.7578 25.2639 62.0525 24.7175 62.0946C24.0345 62.1367 23.3724 62.0314 22.7734 61.642Z" fill="#0B1F33"/>
<path d="M45.2832 36.0212C46.9856 35.8633 48.6669 35.6107 50.2642 34.6738C49.7283 35.6001 46.7229 36.4001 45.2832 36.0212Z" fill="#0B1F33"/>
<path d="M16.1956 52.2002C15.1132 51.337 14.178 50.2844 12.959 49.5791C14.3566 50.0423 15.2919 51.0949 16.1956 52.2002Z" fill="#0B1F33"/>
<path d="M43.5605 43.0215C45.1789 43.7794 45.2944 43.7583 46.5344 42.2109C46.2822 43.0215 45.967 43.5373 45.305 43.7162C44.5694 43.9057 44.0124 43.5478 43.5605 43.0215Z" fill="#0B1F33"/>
<path d="M47.5012 36.853C46.4083 37.1583 45.3365 37.1162 44.3066 36.5898C45.368 36.7267 46.4188 36.9583 47.5012 36.853Z" fill="#0B1F33"/>
<path d="M26.2109 55.7793C26.8835 56.053 27.5981 56.3898 27.472 57.2319C27.3984 57.7793 26.8204 57.6846 26.3476 57.674C26.6103 57.4319 27.0306 57.5793 27.1882 57.2846C27.3669 56.9582 27.1987 56.674 26.9675 56.4425C26.7364 56.2003 26.4631 55.9898 26.2109 55.7793Z" fill="#0B1F33"/>
<path d="M67.1933 71.2532C65.6485 71.3584 64.1143 71.3374 62.5801 71.0742C64.1143 71.2742 65.6591 71.2532 67.1933 71.2532Z" fill="#0B1F33"/>
<path d="M40.3652 34.3267C41.1429 34.8951 41.9941 35.3372 43.0554 35.7056C41.9941 35.674 41.0588 35.1898 40.3652 34.3267Z" fill="#0B1F33"/>
<path d="M60.5312 59.2734C61.498 59.8313 61.8343 60.705 61.2773 61.5366C61.498 60.5155 61.0041 59.905 60.5312 59.2734Z" fill="#0B1F33"/>
<path d="M19.4317 65.6847C18.8117 66.2215 18.1812 66.0952 17.4141 65.2847C18.1286 65.4636 18.6751 66.1268 19.4317 65.6847Z" fill="#0B1F33"/>
<path d="M58.4297 70.4847C59.1443 70.3479 59.7643 70.79 60.6154 70.8215C59.7327 71.0531 59.0917 70.6952 58.4297 70.4847Z" fill="#0B1F33"/>
<path d="M43.9059 26.2529C45.2405 25.8845 46.8483 26.5792 47.2371 27.6634C47.6259 28.7476 47.0479 30.1266 46.0181 30.6529C44.8727 31.2424 42.9707 30.5371 42.5293 29.5792C43.969 30.5582 45.3876 30.7476 46.2808 30.074C46.9429 29.5687 47.2476 28.5582 46.9849 27.7687C46.6591 26.8424 45.4507 26.2634 43.9059 26.2529Z" fill="#0B1F33"/>
<path d="M25.9472 24.8107C26.0418 24.8107 26.1364 24.8107 26.2414 24.8107C27.8072 24.9054 28.795 25.8107 28.7214 27.0949C28.6584 28.2002 27.2923 29.0949 25.8526 28.9686C24.6442 28.8528 23.7194 27.6633 23.8455 26.3581C23.9401 25.3581 24.6757 24.8002 25.9472 24.8107ZM26.0313 25.0633C24.8018 25.0317 24.1397 25.5475 24.1187 26.5581C24.0977 27.716 24.9174 28.6528 25.9787 28.6738C27.3133 28.7054 28.2696 27.9475 28.2696 26.8528C28.2591 25.7686 27.4289 25.1054 26.0313 25.0633Z" fill="#0B1F33"/>
<path d="M26.3472 27.8C25.6221 27.821 25.1702 27.4842 25.1387 27.1052C25.0652 26.3263 25.517 25.8842 26.1265 25.8947C26.7045 25.8947 27.2194 26.4105 27.1563 26.9895C27.1038 27.5789 26.673 27.7684 26.3472 27.8Z" fill="#0B1F33"/>
<path d="M45.0521 29.653C45.6266 29.653 46.0924 29.1911 46.0924 28.6214C46.0924 28.0517 45.6266 27.5898 45.0521 27.5898C44.4775 27.5898 44.0117 28.0517 44.0117 28.6214C44.0117 29.1911 44.4775 29.653 45.0521 29.653Z" fill="#0B1F33"/>
<path d="M43.1916 27.8212C43.118 27.4844 43.3913 27.137 43.8431 27.1265C44.1163 27.1475 44.3055 27.3159 44.3896 27.5265C44.4316 28.1896 43.8747 28.4001 43.5804 28.2844C43.3702 28.1896 43.2652 28.0738 43.1916 27.8212Z" fill="white"/>
<path d="M43.7484 28.3898C43.6854 28.3898 43.6118 28.3793 43.5593 28.3582C43.3176 28.2529 43.202 28.1161 43.1179 27.853V27.8424C43.0759 27.6635 43.1284 27.4845 43.244 27.3372C43.3806 27.1687 43.6013 27.0635 43.843 27.0635C44.1267 27.0845 44.3579 27.2529 44.463 27.5056L44.4735 27.5266C44.4945 27.8424 44.3894 28.0951 44.1687 28.2529C44.0426 28.3372 43.8955 28.3898 43.7484 28.3898ZM43.2545 27.8003C43.3176 28.0214 43.4121 28.1266 43.6118 28.2108C43.7484 28.2635 43.9376 28.2214 44.0742 28.1266C44.1898 28.0424 44.3369 27.8635 44.3159 27.5372C44.2318 27.3372 44.0531 27.2214 43.8325 27.2003C43.6328 27.2003 43.4647 27.2845 43.3491 27.4214C43.265 27.5266 43.2335 27.674 43.2545 27.8003Z" fill="#0B1F33"/>
</g>
<defs>
<clipPath id="clip0_5876_44766">
<rect width="62" height="62" fill="white" transform="translate(8 10)"/>
</clipPath>
</defs>
</svg>
