<svg width="286" height="267" viewBox="0 0 286 267" fill="none" xmlns="http://www.w3.org/2000/svg">
<path d="M143 209.673L98.874 255.06C92.5546 261.561 89.3949 264.811 86.7191 265.936C80.6217 268.499 73.8579 266.305 70.6504 260.725C69.2428 258.276 68.8042 253.859 67.9269 245.026C67.4317 240.038 67.184 237.544 66.4322 235.455C64.7493 230.779 61.213 227.143 56.6668 225.411C54.6363 224.638 52.2118 224.383 47.3632 223.873C38.7752 222.971 34.4808 222.52 32.1001 221.072C26.6753 217.773 24.5431 210.816 27.0346 204.544C28.128 201.792 31.2877 198.542 37.6071 192.042L66.4322 162.392L80.9193 148L143 209.673L205.08 148L219.567 162.392L248.392 192.042C254.713 198.542 257.872 201.792 258.966 204.544C261.457 210.816 259.325 217.773 253.9 221.072C251.519 222.52 247.225 222.971 238.637 223.873C233.788 224.383 231.364 224.638 229.333 225.411C224.786 227.143 221.251 230.779 219.567 235.455C218.816 237.544 218.568 240.038 218.073 245.026C217.196 253.859 216.757 258.276 215.349 260.725C212.142 266.305 205.379 268.499 199.28 265.936C196.605 264.811 193.446 261.561 187.127 255.06L143 209.673Z" fill="#B1C3F7"/>
<rect x="36" width="214" height="214" rx="107" fill="#2554E7"/>
</svg>
