<svg width="206" height="179" viewBox="0 0 206 179" fill="none" xmlns="http://www.w3.org/2000/svg">
<path d="M181.907 48.3852L150.433 45.9844C157.978 51.2699 171.299 64.5355 173.555 93.148C173.623 93.1727 173.684 93.2133 173.734 93.2664C173.784 93.3196 173.82 93.3837 173.84 93.4536C174.031 94.4352 174.168 95.4268 174.249 96.4236C174.248 96.5481 174.199 96.6676 174.113 96.7568C174.026 96.8461 173.908 96.8981 173.784 96.9021C173.809 97.428 173.829 97.9583 173.842 98.4972C173.916 98.4712 173.994 98.4621 174.071 98.4707C174.149 98.4793 174.223 98.5054 174.289 98.547C174.355 98.5886 174.41 98.6446 174.452 98.7108C174.493 98.777 174.518 98.8517 174.527 98.9292C174.656 100.386 174.723 101.845 174.728 103.308C174.703 107.68 174.143 112.032 173.059 116.268C172.961 117.187 172.85 118.112 172.727 119.055C180.901 115.369 189.837 111.096 197.805 107.139C199.585 105.911 201.099 104.338 202.26 102.511C203.42 100.685 204.202 98.644 204.559 96.5089C207.022 81.4138 206.924 56.4021 181.907 48.3852ZM65.334 105.298C67.6083 109.817 71.1383 113.151 75.6146 110.806C78.3236 109.253 80.4202 106.817 81.5558 103.904C77.7908 102.526 71.397 101.299 65.334 105.298Z" fill="#2554E7"/>
<path d="M199.024 106.521C199.574 106.246 200.057 107.07 199.507 107.345C190.302 111.94 181.01 116.356 171.635 120.591C171.075 120.84 170.605 119.998 171.152 119.765L172.723 119.055C172.846 118.112 172.952 117.186 173.055 116.267C172.877 116.955 172.684 117.639 172.476 118.319C172.292 118.906 171.366 118.656 171.551 118.062C173.438 111.87 174.12 105.373 173.561 98.9234C173.548 98.8313 173.568 98.7375 173.617 98.6585C173.666 98.5795 173.741 98.5204 173.829 98.4914C173.817 97.9514 173.797 97.42 173.778 96.8941C173.582 96.9556 173.307 96.7331 173.283 96.4221C173.207 95.5113 173.08 94.6055 172.901 93.7091C172.878 93.6228 172.879 93.5316 172.905 93.446C172.931 93.3604 172.981 93.284 173.049 93.2256C173.117 93.1673 173.199 93.1294 173.288 93.1163C173.376 93.1033 173.466 93.1156 173.548 93.1519C171.294 64.5448 157.97 51.2738 150.427 45.9883L97.6946 41.9609C108.825 51.5956 115.357 67.5731 118.253 81.827C122.255 101.561 119.681 126.368 108.18 142.983C107.081 144.559 106.737 144.856 106.603 145.124L169.515 120.816C169.1 127.179 168.36 141.755 170.047 143.874C172.222 146.592 179.606 148.228 188.517 144.63C196.768 141.305 202.032 106.716 202.771 101.607C200.177 106.335 195.606 108.235 199.024 106.521Z" fill="#E7E9EB"/>
<path opacity="0.1" d="M187.592 21.4001C186.314 20.9378 185.196 20.117 184.372 19.0356C183.547 17.9542 183.05 16.6579 182.941 15.3014C182.831 13.9449 183.113 12.5855 183.754 11.3854C184.394 10.1852 185.366 9.19502 186.552 8.53294C184.889 8.60246 183.229 8.33935 181.669 7.75895C180.108 7.17856 178.679 6.29251 177.464 5.15254C175.966 3.85654 174.572 1.96762 175.105 0.0625C174.032 1.77179 172.443 3.09341 170.569 3.83494C168.983 4.76687 167.154 5.2003 165.32 5.0791C164.384 4.92815 163.507 4.52524 162.782 3.91345C162.058 3.30167 161.513 2.50403 161.206 1.60582C162.247 5.56294 160.141 8.9077 157.135 9.50062C157.919 9.80336 158.654 10.22 159.316 10.7372C161.472 11.3129 162.693 12.9199 163.52 14.9881C163.841 15.641 164.196 16.2766 164.584 16.8921C164.706 16.6713 164.911 16.5077 165.153 16.4367C165.395 16.3658 165.655 16.3932 165.877 16.5131C165.877 15.8651 165.917 14.8715 166.555 14.8283C167.06 14.7894 167.543 15.4655 167.819 15.8877C168.201 15.0237 168.77 14.9492 169.195 15.3121C169.987 16.3116 170.426 17.5466 170.443 18.8232C170.939 20.0965 170.879 20.0414 170.95 19.9691C171.002 19.9171 171.066 19.8778 171.135 19.8541C171.205 19.8304 171.279 19.8231 171.352 19.8326C171.425 19.8421 171.494 19.8681 171.556 19.9088C171.617 19.9495 171.668 20.0038 171.705 20.0673C173.057 23.6344 173.847 27.3906 174.046 31.2011C176.18 29.9003 178.67 29.3066 181.16 29.5044C181.642 29.4896 182.12 29.5915 182.554 29.8015C182.989 30.0115 183.366 30.3234 183.654 30.7107C183.135 29.8682 182.825 28.9133 182.749 27.926C182.674 26.9387 182.836 25.9477 183.222 25.0359C183.607 24.1242 184.205 23.3183 184.966 22.6857C185.726 22.0531 186.626 21.6123 187.592 21.4001Z" fill="#2554E7"/>
<path d="M169.383 41.3203C168.383 42.0705 167.322 42.7352 166.21 43.3075C169.721 45.6835 171.436 50.8967 171.853 55.14C171.989 56.6712 172.014 58.2103 171.926 59.7451C172.523 62.0503 173.54 64.2252 174.926 66.1603C176.543 68.1508 178.57 68.2123 179.015 65.5912C179.789 61.0495 179.299 56.3821 177.6 52.1008C175.901 47.8195 173.058 44.0897 169.383 41.3203Z" fill="#0B1F33"/>
<path d="M170.69 53.593C170.093 50.0236 168.349 45.5772 165.176 43.8125C160.732 45.7684 155.801 46.3283 151.033 45.4185C150.9 45.9728 150.878 46.548 150.969 47.1108C151.36 49.0883 153.096 49.9588 154.887 50.3681C158.53 51.1954 161.053 50.9524 162.882 54.5639C162.92 54.3251 162.977 54.0897 163.052 53.8597C163.087 53.7384 163.168 53.6355 163.278 53.5727C163.387 53.5099 163.517 53.492 163.639 53.5228C163.762 53.5561 163.866 53.6367 163.929 53.7469C163.992 53.857 164.009 53.9877 163.976 54.1103C163.799 54.6192 163.738 55.1613 163.798 55.6968C164.027 55.3647 164.303 55.0675 164.617 54.8145C164.709 54.7291 164.83 54.6818 164.956 54.6818C165.082 54.6818 165.203 54.7291 165.295 54.8145C165.385 54.9048 165.435 55.0271 165.435 55.1547C165.435 55.2822 165.385 55.4046 165.295 55.4949C164.631 56.0319 164.159 56.7712 163.951 57.6009C165.147 62.7849 163.896 68.0002 165.271 70.0705C165.517 70.4403 165.881 70.7149 166.303 70.8485C166.726 70.9821 167.181 70.9667 167.594 70.8049C169.75 70.0911 170.073 67.4451 170.38 65.2969C171.077 61.4341 171.181 57.4873 170.69 53.593Z" fill="#0B1F33"/>
<path opacity="0.3" d="M167.16 36.4648C165.888 34.3289 165.13 31.9253 164.947 29.4448C164.852 28.7719 164.462 25.8408 164.462 25.2252C163.951 24.4147 163.279 23.7184 162.487 23.1797C162.487 23.1797 162.205 23.4108 162.136 23.4616C162.333 24.527 162.145 25.6279 161.604 26.5666C160.526 28.1131 157.533 28.3259 156.591 26.5417C156.62 29.4016 156.162 32.2454 155.235 34.9506C154.489 37.4551 153.762 40.6649 151.091 41.7978C150.326 42.116 149.481 42.1822 148.676 41.9868C148.62 42.0948 148.683 41.9512 147.937 44.6209C151.782 45.8957 155.888 46.168 159.867 45.4121C163.846 44.6563 167.567 42.8973 170.68 40.3009C170.68 40.3009 170.527 39.7609 170.249 38.8624C168.956 38.4785 167.854 37.623 167.16 36.4648Z" fill="#0B1F33"/>
<path opacity="0.3" d="M172.713 27.8454C172.431 25.5335 171.881 23.2624 171.074 21.0781C169.34 22.0882 167.341 22.5462 165.341 22.3914C165.302 23.967 165.39 25.5432 165.604 27.1045C165.99 30.4288 166.432 34.2811 168.452 36.5783C168.764 37.0066 169.171 37.3564 169.641 37.6001C170.111 37.8438 170.631 37.9746 171.16 37.9823C172.425 37.8592 172.768 36.6344 172.969 35.5631C173.296 32.9933 173.21 30.3876 172.713 27.8454ZM151.61 40.3669C152.523 39.5063 153.183 38.4109 153.517 37.2004C153.959 35.8907 154.359 34.567 154.716 33.2314C155.562 30.5832 155.808 27.7788 155.433 25.0234C153.459 25.0234 150.799 24.6162 149.535 23.0945C147.894 25.2903 146.775 27.8334 146.265 30.5292C145.718 33.0132 145.187 36.197 146.07 38.4413C147.03 40.8842 149.638 42.0226 151.61 40.3669Z" fill="#0B1F33"/>
<path d="M167.278 72.7201C166.972 72.6415 166.652 72.6297 166.341 72.6856C166.03 72.7415 165.734 72.8638 165.475 73.0441C165.273 73.1439 165.107 73.3027 164.998 73.4995C164.889 73.6962 164.842 73.9216 164.863 74.1457C165.022 74.8336 165.553 74.8855 172.84 79.6278C173.801 80.3946 174.801 79.7606 174.013 78.6903C172.234 76.1502 169.767 73.4707 167.278 72.7201ZM184.716 75.041C182.911 72.5289 180.461 69.8484 177.979 69.0697C177.673 68.9932 177.354 68.9825 177.043 69.0383C176.733 69.0942 176.437 69.2153 176.177 69.3937C175.975 69.494 175.809 69.6531 175.7 69.85C175.591 70.0468 175.544 70.2722 175.566 70.4964C175.723 71.1789 176.193 71.194 183.542 75.9774C184.501 76.742 185.495 76.1264 184.716 75.041ZM164.362 70.424C165.535 72.4253 168.078 72.2892 169.582 70.6076C170.984 69.0578 171.206 66.5284 171.581 63.4969C171.973 60.7296 172.063 57.9278 171.85 55.1409C171.444 50.917 169.717 45.679 166.208 43.3084C165.834 43.5039 165.762 43.5471 165.175 43.8106C168.34 45.571 170.091 50.0012 170.688 53.5911C171.263 58.6398 170.91 63.7513 169.646 68.6722C168.656 71.1562 166.236 71.5321 165.27 70.0687C163.876 67.9735 165.162 62.783 163.949 57.599C164.152 56.767 164.625 56.0261 165.294 55.493C165.383 55.4027 165.434 55.2804 165.434 55.1528C165.434 55.0253 165.383 54.9029 165.294 54.8126C165.201 54.7273 165.08 54.6799 164.955 54.6799C164.829 54.6799 164.708 54.7273 164.616 54.8126C164.305 55.0691 164.029 55.3658 163.796 55.695C163.734 55.1595 163.795 54.6167 163.974 54.1084C164.007 53.9859 163.99 53.8552 163.927 53.745C163.864 53.6349 163.76 53.5543 163.638 53.5209C163.099 53.3946 162.964 54.0058 162.883 54.562C161.036 50.9548 158.507 51.1881 154.889 50.3662C151.488 49.5876 150.541 47.4848 151.026 45.5408C151.034 45.5 151.037 45.4582 151.034 45.4166C150.957 45.3993 150.13 45.2082 150.105 45.2838C149.85 46.3124 149.952 47.3977 150.396 48.3599C150.84 49.3221 151.599 50.1035 152.547 50.5747C154.283 51.4678 156.288 51.5175 158.146 51.9787C160.389 52.5403 161.56 53.481 162.534 56.1486C164.472 61.528 162.786 67.7521 164.362 70.424ZM167.529 21.0745C167.804 21.135 167.917 20.9557 168.005 20.7321C168.035 20.2842 167.975 19.8348 167.828 19.4107C167.682 18.9865 167.451 18.5963 167.151 18.2632C167.076 18.2173 166.993 18.1876 166.907 18.1761C166.82 18.1646 166.732 18.1715 166.648 18.1963C166.565 18.2212 166.487 18.2635 166.421 18.3204C166.354 18.3774 166.301 18.4477 166.264 18.5268C166.024 19.1157 165.901 19.7461 165.904 20.3822C165.904 20.478 165.941 20.5698 166.009 20.6377C166.076 20.7055 166.168 20.7437 166.264 20.744C166.359 20.7415 166.449 20.7026 166.516 20.6353C166.583 20.568 166.622 20.4774 166.625 20.3822C166.652 19.3994 166.757 18.8907 166.851 18.949C166.929 19.0429 166.99 19.1486 167.034 19.2622C167.486 20.1673 167.049 20.9686 167.529 21.0745ZM161.911 16.843C159.442 18.6067 157.683 17.3625 156.441 17.5472C153.891 17.9328 155.142 22.3251 159.533 22.0173C159.992 21.9871 159.998 21.2613 159.533 21.3013C159.022 21.3706 158.502 21.3359 158.004 21.1991C157.506 21.0624 157.041 20.8264 156.636 20.5053C156.073 19.9966 155.274 18.6132 156.41 18.2881C156.953 18.2227 157.505 18.275 158.027 18.4414C158.764 18.5686 159.518 18.5481 160.248 18.3813C160.977 18.2144 161.666 17.9045 162.274 17.4694C162.644 17.2027 162.29 16.573 161.911 16.843ZM155.31 16.708C155.378 16.7235 155.449 16.7193 155.514 16.6958C155.58 16.6724 155.637 16.6307 155.68 16.5757C155.723 16.5208 155.749 16.4547 155.755 16.3854C155.762 16.316 155.748 16.2462 155.717 16.1842C155.568 15.7976 156 15.263 156.38 15.8754C156.549 16.1486 156.696 16.3776 156.906 16.2307C157.411 15.8635 156.87 15.0848 156.238 14.9995C154.989 14.79 154.639 16.5093 155.31 16.708ZM160.307 15.3483C160.376 15.4149 160.469 15.4521 160.564 15.4521C160.66 15.4521 160.752 15.4149 160.821 15.3483C161.031 15.115 160.821 14.7889 160.956 14.656C161.149 14.5923 161.289 14.845 161.365 15.1215C161.39 15.2133 161.45 15.2914 161.533 15.3386C161.615 15.3858 161.713 15.3982 161.804 15.3732C161.896 15.3481 161.974 15.2876 162.021 15.205C162.068 15.1223 162.081 15.0243 162.056 14.9325C161.714 13.6916 160.523 13.6603 160.234 14.4854C160.186 14.6265 160.168 14.776 160.181 14.9245C160.193 15.0731 160.236 15.2173 160.307 15.3483ZM154.442 12.9226C154.08 13.1189 153.776 13.4064 153.56 13.7567C153.343 14.1069 153.222 14.5078 153.207 14.9196C153.193 15.3516 153.935 15.4952 153.935 14.7975C153.97 14.535 154.067 14.2845 154.216 14.0663C154.366 13.848 154.565 13.6683 154.797 13.5415C154.838 13.5181 154.873 13.4869 154.902 13.4497C154.93 13.4126 154.951 13.3701 154.964 13.3249C154.976 13.2796 154.979 13.2323 154.973 13.1858C154.967 13.1393 154.952 13.0945 154.928 13.0539C154.905 13.0132 154.874 12.9776 154.837 12.949C154.8 12.9204 154.757 12.8995 154.712 12.8873C154.667 12.8751 154.62 12.8719 154.573 12.878C154.527 12.8841 154.482 12.8992 154.442 12.9226Z" fill="#0B1F33"/>
<path d="M174.041 31.2104C173.84 27.4002 173.05 23.6444 171.7 20.0767C171.571 19.7753 171.135 19.7883 170.898 20.0151C169.414 21.0775 167.6 21.5753 165.783 21.4191C165.842 21.3795 165.889 21.3228 165.916 21.2564C165.944 21.1899 165.95 21.1168 165.936 21.0465C165.741 20.0846 165.545 19.123 165.348 18.1618C165.306 17.9534 165.025 17.1995 165.348 17.1261C165.708 17.0473 165.954 17.5581 166.088 17.8C166.132 17.8734 166.202 17.9282 166.284 17.9546C166.365 17.981 166.454 17.9772 166.533 17.9439C166.612 17.9106 166.677 17.85 166.715 17.7731C166.753 17.6962 166.763 17.608 166.742 17.5246C166.56 16.9201 166.537 16.2789 166.674 15.6627C167.174 16.0809 167.528 16.6486 167.683 17.2827C167.712 17.3693 167.774 17.4413 167.855 17.4841C167.935 17.5269 168.029 17.5372 168.117 17.513C168.206 17.4888 168.281 17.4318 168.329 17.3537C168.376 17.2756 168.392 17.1822 168.374 17.0926C168.33 16.8736 168.334 16.6477 168.385 16.4302C168.435 16.2127 168.531 16.0085 168.667 15.8312C169.329 16.622 169.716 17.608 169.767 18.6392C169.812 19.0993 170.522 19.0885 170.483 18.6392C170.398 17.4266 169.95 16.2679 169.198 15.3139C169.105 15.231 168.993 15.1718 168.872 15.1413C168.751 15.1109 168.624 15.11 168.503 15.1388C168.381 15.1676 168.268 15.2252 168.174 15.3068C168.079 15.3884 168.005 15.4915 167.959 15.6076C167.909 15.6992 167.863 15.7933 167.823 15.8895C167.545 15.4575 167.068 14.7901 166.559 14.83C166.02 14.8721 165.948 15.5644 165.899 15.9813C165.881 16.1581 165.874 16.3361 165.881 16.5137C165.659 16.394 165.398 16.3667 165.156 16.4378C164.914 16.509 164.71 16.6728 164.587 16.8939C164.199 16.278 163.844 15.6421 163.523 14.9888C162.686 12.9238 161.457 11.2898 159.32 10.739C158.658 10.2201 157.923 9.80294 157.138 9.5013C155.261 8.78423 153.199 8.71318 151.277 9.29934C150.041 9.67248 148.904 10.3168 147.948 11.1855C146.992 12.0542 146.241 13.1255 145.751 14.3213C145.125 16.3561 146.107 19.0539 144.467 20.648C144.103 20.9655 143.705 21.2425 143.281 21.4742C142.327 22.0811 141.406 23.146 141.754 24.2239C142.09 25.2779 143.539 25.8838 143.441 26.9865C143.333 28.154 140.902 29.2945 140.207 31.3529C139.779 32.4273 139.655 33.5988 139.847 34.7394C140.039 35.8799 140.54 36.9456 141.296 37.82C142.191 38.7053 143.372 39.2414 144.626 39.332C145.158 39.332 145.28 39.2089 145.256 38.9151C146.441 41.6939 149.091 42.6476 151.076 41.7998C153.747 40.6669 154.474 37.4571 155.221 34.9526C156.146 32.2472 156.605 29.4036 156.578 26.5437C157.516 28.3268 160.511 28.1162 161.59 26.5685C162.129 25.6297 162.318 24.5289 162.121 23.4635C163.465 22.4681 164.432 21.0452 164.864 19.4276C165.249 21.3359 165.22 21.3392 165.347 21.4245H165.287C165.219 21.3808 165.141 21.3572 165.06 21.3565C164.339 21.3694 164.389 22.1902 164.376 22.7043C164.362 23.6255 164.403 24.6386 164.456 25.2218C164.88 29.1001 165.149 33.5896 167.15 36.4657C167.799 37.5025 168.758 38.3081 169.889 38.7682C170.451 38.9811 171.065 39.0111 171.644 38.8538C172.224 38.6965 172.739 38.3601 173.116 37.8923C174.249 36.3728 174.199 33.1069 174.041 31.2104ZM151.444 19.6177C151.454 19.6069 151.462 19.5945 151.469 19.5809C151.566 19.4729 151.709 19.3109 151.853 19.3109C151.95 19.3358 151.961 19.6727 151.975 19.7764C151.995 20.0375 151.972 20.3001 151.908 20.554C151.89 20.6436 151.906 20.737 151.953 20.8151C152.001 20.8932 152.077 20.9502 152.165 20.9744C152.253 20.9986 152.347 20.9883 152.427 20.9455C152.508 20.9027 152.57 20.8307 152.599 20.7441C152.989 19.6414 153.619 19.5431 153.577 19.4027C153.884 19.994 153.946 20.6831 153.748 21.3197C153.73 21.4093 153.746 21.5027 153.793 21.5808C153.841 21.6589 153.916 21.7159 154.005 21.7401C154.093 21.7644 154.187 21.754 154.267 21.7112C154.348 21.6684 154.41 21.5964 154.439 21.5098C154.506 21.2711 154.769 20.7689 155.086 20.9579C155.362 21.1178 155.43 21.6319 155.49 21.9073C155.655 22.6956 155.673 23.5076 155.545 24.3027C153.94 24.3027 151.392 23.996 150.289 22.8328C150.437 22.6838 150.647 20.5508 151.444 19.6177ZM154.717 33.2257C154.359 34.5608 153.959 35.8844 153.519 37.1947C153.179 38.403 152.521 39.4971 151.612 40.3612C149.745 41.9294 147.11 41.0373 146.084 38.4313C145.641 37.1691 145.493 35.8219 145.652 34.4936C145.976 30.5969 147.127 26.1689 149.552 23.0845C150.783 24.5803 153.581 25.0555 155.45 25.0133C155.819 27.7731 155.569 30.5806 154.717 33.2311V33.2257ZM158.424 27.0124C158.114 27.0089 157.814 26.9019 157.572 26.7085C157.329 26.515 157.158 26.2461 157.085 25.9443C156.953 25.5497 156.887 25.1359 156.889 24.7196C158.455 24.9792 160.063 24.6917 161.443 23.9053C161.636 26.3191 160.31 27.3278 158.424 27.0178V27.0124ZM164.206 19.1101C164.012 19.9474 163.653 20.7371 163.149 21.4324C162.645 22.1276 162.006 22.7141 161.271 23.1568C160.536 23.5996 159.719 23.8897 158.87 24.0097C158.021 24.1298 157.156 24.0773 156.328 23.8556C156.449 22.4516 156.169 19.9492 154.781 20.2181C154.486 20.2635 154.586 20.4406 154.537 19.973C154.524 19.7327 154.458 19.4983 154.344 19.2865C154.229 19.0748 154.07 18.891 153.877 18.7483C153.437 18.5323 152.954 18.9934 152.673 19.2807C152.663 19.2895 152.655 19.3001 152.649 19.312C152.507 18.8055 152.209 18.5074 151.694 18.6197C151.062 13.5502 156.203 9.98514 159.909 11.7175C159.842 11.6913 159.769 11.6849 159.699 11.6991C159.628 11.7133 159.563 11.7474 159.512 11.7974C159.296 12.0134 159.361 12.2013 159.763 12.4162C159.788 12.4292 160.36 12.9865 160.422 13.0221C160.484 13.057 160.554 13.073 160.625 13.0681C160.695 13.0632 160.763 13.0376 160.819 12.9945C160.875 12.9515 160.917 12.8928 160.94 12.8259C160.963 12.759 160.966 12.6867 160.948 12.6182C160.89 12.4568 160.799 12.3096 160.68 12.1862C161.652 12.9739 162.39 14.0139 162.813 15.1929C163.43 16.7297 164.53 17.4695 164.206 19.1155V19.1101ZM172.971 35.5628C172.769 36.6341 172.432 37.8589 171.162 37.982C170.633 37.9753 170.112 37.8449 169.642 37.6012C169.172 37.3574 168.765 37.0071 168.454 36.578C167.13 34.8353 166.312 32.761 166.089 30.5829C165.573 27.8833 165.324 25.1396 165.343 22.3911C165.343 22.2734 168.749 22.6989 171.076 21.0778C171.883 23.2621 172.433 25.5332 172.714 27.8451C173.211 30.3874 173.297 32.993 172.971 35.5628Z" fill="#0B1F33"/>
<path d="M176.707 166.112C171.716 168.744 166.694 171.955 163.743 176.799C167.978 176.547 172.224 174.747 176.633 173.112C177.927 172.635 179.544 172.095 180.148 170.859C181.842 167.402 176.816 166.192 176.707 166.112ZM154.55 158.356C153.862 158.303 153.171 158.428 152.545 158.72C151.919 159.011 151.378 159.459 150.975 160.021C151.029 160.087 151.063 160.167 151.073 160.251C151.083 160.336 151.07 160.422 151.033 160.499C150.997 160.576 150.939 160.641 150.867 160.687C150.795 160.732 150.712 160.756 150.627 160.756C150.914 166.355 151.659 172.028 154.728 176.722C155.866 173.488 156.507 170.1 156.629 166.673C156.852 164.909 156.979 163.134 157.009 161.356C157.067 160.634 156.844 159.917 156.385 159.357C155.926 158.798 155.268 158.438 154.55 158.356Z" fill="#0B1F33"/>
<path d="M177.805 165.437C177.764 165.278 177.684 165.133 177.573 165.013C177.169 163.75 177.111 149.331 177.109 149.219C176.645 125.623 176.736 138.358 176.736 120.043C176.736 119.916 176.685 119.793 176.595 119.703C176.505 119.613 176.383 119.562 176.256 119.562C176.129 119.562 176.007 119.613 175.917 119.703C175.827 119.793 175.776 119.916 175.776 120.043C175.776 126.375 175.728 132.707 175.862 139.034C175.93 142.166 176.43 160.897 176.437 162.447C176.393 163.329 176.45 164.213 176.607 165.081C171.012 168.019 165.5 171.508 162.488 177.069C162.447 177.143 162.426 177.225 162.427 177.309C162.427 177.393 162.45 177.475 162.492 177.547C162.533 177.62 162.593 177.681 162.665 177.723C162.737 177.766 162.819 177.789 162.902 177.791C166.967 177.76 170.8 176.297 174.558 174.906C176.291 174.374 177.971 173.683 179.577 172.842C182.527 170.887 181.725 166.647 177.805 165.437ZM180.149 170.863C179.544 172.1 177.905 172.648 176.634 173.115C172.246 174.745 167.94 176.553 163.744 176.803C166.689 171.967 171.709 168.749 176.708 166.116C176.816 166.197 181.836 167.416 180.149 170.863ZM150.21 159.477C150.104 159.446 149.99 159.453 149.889 159.498C149.788 159.543 149.707 159.623 149.659 159.722C143.383 158.966 141.609 155.583 142.668 149.697C144.139 141.558 149.72 134.725 156.229 129.585C156.712 129.205 156.034 128.525 155.551 128.904C151.061 132.314 147.319 136.613 144.557 141.533C142.186 145.949 139.853 153.492 142.797 157.42C144.414 159.58 147.082 160.371 149.667 160.677C149.965 166.803 150.833 173.027 154.422 177.966C154.613 178.224 155.083 178.327 155.248 177.966C157.225 173.675 157.412 168.688 157.875 163.335C157.989 162.447 157.995 161.548 157.895 160.659C157.382 157.171 153.034 156.005 150.21 159.477ZM156.875 163.88C156.47 168.565 156.282 172.896 154.729 176.732C151.661 172.042 150.909 166.341 150.628 160.767C150.712 160.765 150.795 160.741 150.866 160.695C150.937 160.649 150.994 160.584 151.03 160.507C151.067 160.431 151.081 160.346 151.071 160.262C151.061 160.177 151.029 160.098 150.976 160.031C152.713 157.884 155.161 157.952 156.319 159.284C157.299 160.411 157.004 162.379 156.875 163.88Z" fill="#0B1F33"/>
<path d="M45.3321 111.883C44.2131 113.036 42.7601 113.807 41.1792 114.086C39.5984 114.365 37.9699 114.138 36.5249 113.438C38.3802 122.24 41.9392 130.593 47.0006 138.024C49.5365 136.451 52.0731 134.875 54.6103 133.296C50.1392 126.841 46.9859 119.564 45.3321 111.883Z" fill="#2554E7"/>
<path d="M115.198 73.5331C108.838 52.323 95.1677 33.0838 73.0844 33.9835C54.3038 34.7546 42.4732 49.3638 37.3415 67.3296C38.1798 68.0341 39.0028 68.7568 39.8098 69.4971C40.2625 69.914 39.5845 70.5933 39.1318 70.1775C38.4502 69.553 37.7595 68.9384 37.0602 68.334C35.1907 75.4965 34.2033 82.8614 34.1198 90.2644C34.3443 90.2922 34.5542 90.3909 34.7191 90.5463C35.1502 91.0636 34.4873 91.6673 34.1079 91.6673C34.0927 98.5525 34.8096 105.42 36.2464 112.153C37.6325 113.065 39.3107 113.42 40.9466 113.148C42.5825 112.875 44.0558 111.995 45.073 110.683C42.1768 97.4097 42.54 82.9032 45.4211 71.7694C49.4319 56.3546 58.4967 42.9734 74.4533 42.9054C89.2772 42.9529 98.8701 55.5889 104.324 69.3384C111.761 88.1304 111.749 108.601 106.439 124.212C111.526 124.657 115.013 119.758 113.846 114.902C113.815 114.781 113.834 114.652 113.897 114.543C113.961 114.435 114.064 114.356 114.185 114.323C114.306 114.29 114.435 114.306 114.544 114.368C114.654 114.429 114.735 114.531 114.77 114.652C116.088 120.126 112.102 125.837 106.121 125.137C102.995 134.101 97.982 142.702 89.1532 146.253C77.0305 151.135 63.2231 144.651 55.1822 134.049L47.5542 138.789C61.2829 157.405 86.1417 163.413 102.331 148.319C115.433 136.103 124.722 105.301 115.198 73.5331Z" fill="#2554E7"/>
<path d="M63.5898 80.7057C65.3467 79.9259 66.347 77.2561 66.5 75.3057C66.5496 74.6868 65.5892 74.6933 65.5407 75.3057C65.46 76.3596 65.1515 77.3834 64.6364 78.3059C63.1457 80.9757 61.1269 80.1505 61.3964 77.7551C61.5753 76.5718 61.9012 75.4155 62.3664 74.3131C62.3986 74.1906 62.3813 74.0603 62.3184 73.9504C62.2555 73.8405 62.1519 73.7597 62.0301 73.7256C61.9079 73.6949 61.7785 73.7128 61.6692 73.7756C61.5598 73.8385 61.479 73.9413 61.4438 74.0626C61.0231 75.1036 60.7096 76.1848 60.5082 77.2896C60.0307 80.0695 61.8297 81.4865 63.5898 80.7057ZM89.2731 78.0964C89.2151 79.3472 88.9605 80.5809 88.5186 81.7522C88.1888 82.6345 87.6757 83.9629 86.5698 84.0202C85.492 84.0882 85.4381 82.6734 85.4445 81.9196C85.4535 80.6147 85.6384 79.3171 85.9942 78.0618C86.0201 77.942 85.9992 77.8168 85.9359 77.7119C85.8726 77.607 85.7717 77.5302 85.6539 77.4974C85.536 77.4646 85.4101 77.4781 85.3018 77.5352C85.1936 77.5924 85.1112 77.6888 85.0716 77.8048C84.6221 79.4129 84.0185 82.8905 85.0414 84.2535C85.3598 84.6409 85.8122 84.8939 86.3084 84.962C86.8047 85.03 87.3083 84.9082 87.7188 84.6207C89.3636 83.5806 90.1343 80.0609 90.2248 78.0856C90.2572 77.484 89.3 77.484 89.2731 78.0964ZM199.028 106.518C193.232 109.402 181.385 115.119 171.156 119.762C170.606 120.017 171.09 120.832 171.639 120.588C181.015 116.355 190.308 111.939 199.511 107.342C200.068 107.079 199.579 106.246 199.028 106.518ZM173.287 96.4143C173.289 96.5401 173.34 96.6601 173.429 96.7491C173.518 96.838 173.638 96.8891 173.763 96.8916H173.782C173.906 96.8867 174.023 96.8344 174.11 96.7455C174.197 96.6565 174.247 96.5377 174.25 96.4132C174.165 95.4167 174.028 94.4253 173.84 93.4432C173.801 93.3231 173.718 93.2219 173.609 93.1595C173.499 93.0972 173.37 93.0782 173.247 93.1062C173.127 93.1425 173.025 93.2236 172.962 93.3329C172.9 93.4422 172.881 93.5713 172.911 93.6937C173.089 94.5925 173.215 95.5009 173.287 96.4143ZM172.48 118.315C174.41 112.047 175.106 105.462 174.528 98.9285C174.479 98.3237 173.514 98.3075 173.577 98.9285C174.134 105.378 173.451 111.875 171.567 118.067C171.377 118.651 172.299 118.902 172.48 118.315Z" fill="#0B1F33"/>
<path d="M112.769 63.9548C106.562 49.2301 95.7321 35.8651 79.9803 33.4254C61.98 30.6368 44.0562 40.9972 36.5349 66.6742C33.5999 64.2388 31.4032 62.6124 18.9377 53.0781C18.4495 52.7044 17.9677 53.5371 18.4548 53.9054C30.1033 62.8251 32.6665 64.7054 36.26 67.684C34.2799 74.9699 33.2424 82.4805 33.173 90.0314C33.0448 89.9947 22.8008 87.1899 19.9531 86.4123C19.8335 86.3865 19.7086 86.4074 19.6038 86.4708C19.4991 86.5342 19.4225 86.6353 19.3898 86.7534C19.357 86.8715 19.3705 86.9977 19.4275 87.1061C19.4846 87.2146 19.5808 87.2971 19.6965 87.3368C22.1163 87.9978 32.8982 90.944 33.1547 91.0174C33.1431 95.0177 33.3615 99.0153 33.809 102.99C33.7493 103.046 33.7086 103.119 33.6926 103.199C32.8001 106.825 32.3851 110.56 35.3859 112.765C37.2154 121.963 40.8693 130.7 46.1311 138.456C46.226 138.581 47.0591 137.943 34.6098 145.708C34.0838 146.032 34.5667 146.865 35.0927 146.534L46.7487 139.298C62.2893 160.423 90.7945 165.031 106.665 145.009C119.523 128.834 125.958 95.2521 112.769 63.9548ZM34.1517 105.734C34.3296 106.943 34.5409 108.572 35.0561 111.154C33.8887 109.679 33.8877 107.597 34.1517 105.734ZM36.523 113.438C37.9687 114.136 39.5964 114.361 41.1766 114.082C42.7568 113.803 44.2096 113.034 45.3302 111.883C46.983 119.564 50.1363 126.842 54.6085 133.296C52.0726 134.87 49.5361 136.446 46.9988 138.024C41.9318 130.595 38.3723 122.24 36.523 113.435V113.438ZM100.835 91.4894C100.188 91.5391 100.309 91.876 100.498 91.0909C100.675 90.3867 100.84 89.567 100.034 89.1987C99.3247 88.8747 98.707 89.4558 98.2188 89.9158C98.1379 90.0368 98.4074 89.2052 98.0592 88.6782C97.9379 88.4991 97.7665 88.36 97.5664 88.2783C97.3664 88.1966 97.1467 88.176 96.935 88.2192C96.4457 88.3272 96.1342 88.7754 95.8345 89.1436C94.7268 90.4929 93.9223 92.0655 93.4759 93.7544C93.0295 95.4433 92.9516 97.2088 93.2477 98.9306C93.3554 99.5365 94.2738 99.2794 94.1703 98.6725C93.9017 96.9992 94.0142 95.2866 94.4995 93.663C94.9848 92.0394 95.8303 90.5469 96.9728 89.297C97.4039 88.8564 97.2659 89.6404 97.2411 89.891C97.1554 90.5942 96.9872 91.2847 96.7399 91.9484C96.712 92.0598 96.7248 92.1776 96.776 92.2803C96.8272 92.3831 96.9135 92.4641 97.0192 92.5086C97.1249 92.5531 97.243 92.5583 97.3521 92.523C97.4612 92.4878 97.5542 92.4146 97.6141 92.3167C97.9741 91.5918 98.475 90.9462 99.0875 90.418C99.1727 90.3446 99.4906 90.0076 99.6189 90.0562C99.8884 90.1534 99.5025 91.1287 99.4421 91.336C99.2615 91.9648 99.0389 92.5807 98.776 93.1796C98.5313 93.7315 99.2772 94.2024 99.6006 93.6634C99.7803 93.3169 100.013 93.0009 100.291 92.7271C100.566 92.4873 101.099 92.2432 101.379 92.6104C101.683 93.0036 101.271 93.8913 100.823 95.0534C98.8763 100.115 96.4554 104.477 97.8889 113.176C98.734 118.307 100.329 123.74 105.175 124.948C103.02 131.094 99.5963 137.813 94.5648 141.949C82.7644 151.651 65.9411 146.279 56.2479 133.901C56.1563 133.785 56.0765 133.669 55.9849 133.552C56.4161 133.289 61.4119 130.185 63.4847 128.892C64.0096 128.568 63.5267 127.734 63.0018 128.065C60.471 129.638 57.9384 131.21 55.4039 132.78C50.7368 126.391 47.7964 118.593 46.0837 110.929C49.1674 106.594 51.2574 97.6033 45.8261 83.2047C45.6044 82.7798 45.489 82.3072 45.4898 81.8277C45.576 81.3072 46.144 81.3493 46.4922 81.5696C46.86 81.8556 47.1572 82.2226 47.3609 82.642C47.6843 83.182 48.4302 82.709 48.1855 82.1582C48.0389 81.8212 46.9514 79.1515 47.3426 79.0262C47.4892 78.983 47.7824 79.3081 47.874 79.388C48.4867 79.916 48.9877 80.5615 49.3474 81.2866C49.591 81.764 50.4048 81.4335 50.2216 80.9184C49.9751 80.2545 49.8069 79.564 49.7204 78.861C49.6891 78.6158 49.5544 77.8198 49.9888 78.267C51.1334 79.5156 51.9803 81.0083 52.4657 82.6325C52.9511 84.2566 53.0624 85.97 52.7912 87.6435C52.6834 88.2494 53.6104 88.5075 53.7139 87.9006C53.9951 86.2519 53.934 84.5628 53.5343 82.9389C53.1346 81.315 52.405 79.7911 51.3911 78.4624C50.878 77.7896 50.0976 76.6869 49.148 77.3824C48.6404 77.7626 48.7018 78.3544 48.7697 78.9193C48.2804 78.4549 47.6444 77.8393 46.9233 78.173C46.0168 78.5877 46.3089 79.5932 46.5935 80.5738C46.3997 80.4906 46.1905 80.4497 45.9797 80.4539C45.7689 80.458 45.5614 80.5072 45.3711 80.5981C45.1808 80.6889 45.012 80.8194 44.8759 80.9808C44.7399 81.1422 44.6398 81.3307 44.5822 81.534C46.323 66.455 53.2536 48.9007 67.7207 44.8096C73.6497 43.1123 80.0032 43.7658 85.4644 46.6348C92.4037 50.3187 97.46 57.167 100.975 64.1935C110.442 83.1043 111.45 106.141 105.479 124.082C104.05 123.733 102.782 122.906 101.886 121.737C99.9455 119.259 98.9064 114.399 98.5734 111.276C98.049 107.213 98.5975 103.082 100.164 99.2978C101.749 95.0955 102.308 94.1138 102.407 93.198C102.443 92.9769 102.429 92.7505 102.365 92.5359C102.3 92.3214 102.188 92.1243 102.037 91.9596C101.885 91.795 101.698 91.667 101.49 91.5856C101.282 91.5041 101.058 91.4712 100.835 91.4894ZM45.1772 84.1584C46.0276 86.3756 52.069 98.7837 45.8067 109.599C43.9807 100.52 43.5521 91.2154 44.5359 82.007C44.6264 82.7554 44.8433 83.4828 45.1772 84.1584ZM118.914 105.643C117.557 126.61 109.093 150.453 88.8974 155.824C75.4942 159.388 58.6095 153.848 47.5668 138.811L55.1948 134.072C67.407 150.124 88.9319 153.481 100.107 137.292C102.65 133.535 104.677 129.453 106.133 125.154C111.96 125.864 116.136 120.294 114.782 114.669C114.648 114.079 113.715 114.322 113.86 114.92C115.033 119.808 111.516 124.672 106.451 124.23C110.762 110.48 111.348 95.8287 108.15 81.777C104.622 66.1396 95.8281 47.4081 80.2336 43.6098C74.0423 42.1328 67.5224 43.0629 61.9886 46.2126C55.7025 49.877 51.3285 56.2166 48.4356 62.9688C42.2001 77.5574 41.8509 95.872 45.0856 110.705C44.068 112.016 42.5948 112.896 40.9594 113.168C39.3239 113.44 37.6461 113.085 36.26 112.174C34.8225 105.441 34.1053 98.5734 34.1205 91.6881H34.1701C34.6465 91.5661 35.1294 91.0401 34.7316 90.5671C34.5684 90.4094 34.3577 90.3103 34.1323 90.2852C34.2161 82.8822 35.2036 75.5174 37.0728 68.3547C37.7755 68.9552 38.4661 69.5697 39.1444 70.1983C39.5971 70.6152 40.2751 69.9412 39.8235 69.519C39.0147 68.7802 38.1914 68.0575 37.3541 67.3514C40.7741 55.3548 47.4935 43.8128 58.5588 37.8901C62.8775 35.6266 67.6277 34.3106 72.4934 34.0296C77.3591 33.7486 82.2287 34.5091 86.7783 36.2604C109.956 45.395 120.563 80.171 118.919 105.643H118.914Z" fill="#0B1F33"/>
<path d="M84.2043 88.8762C67.4198 89.0414 61.7179 85.4472 61.7179 85.4472C60.2757 93.7632 62.9294 109.813 70.9099 112.271C74.2718 113.306 77.6455 111.151 79.7602 108.669C85.5257 101.939 84.2226 88.7682 84.2043 88.8762ZM75.6137 110.808C71.1481 113.163 67.6203 109.802 65.3331 105.3C71.4025 101.304 77.7899 102.532 81.5549 103.91C80.4142 106.819 78.3188 109.252 75.6137 110.808ZM12.2117 61.5997C12.7248 61.9421 13.2077 61.1094 12.6946 60.7724L6.94099 56.933C6.42793 56.5896 5.94505 57.4223 6.45811 57.7592C8.37742 59.0394 10.2953 60.3195 12.2117 61.5997ZM16.5232 64.0427C21.8601 67.2608 27.0131 70.7756 31.9582 74.5705C32.4464 74.9442 32.9282 74.1104 32.441 73.7432C27.4977 69.9452 22.3449 66.4289 17.0071 63.2111C16.4822 62.8871 15.9983 63.7251 16.5232 64.0427ZM22.3005 93.6962C22.9117 93.7502 22.9117 92.7901 22.3005 92.735L1.24449 90.9152C0.633346 90.8601 0.633346 91.8224 1.24449 91.8775C6.71464 92.3484 20.743 93.5591 22.3005 93.6962ZM40.276 134.557C40.8268 134.282 40.3439 133.455 39.7931 133.73C39.0925 134.08 19.0518 144.005 18.3437 144.166C18.2803 144.074 18.187 144.007 18.0797 143.976C17.9724 143.946 17.8579 143.954 17.7558 143.999C17.6538 144.044 17.5705 144.123 17.5204 144.223C17.4704 144.323 17.4566 144.437 17.4814 144.546C17.5284 144.67 17.6015 144.783 17.6958 144.877C17.7901 144.97 17.9034 145.043 18.028 145.089C18.1527 145.134 18.2857 145.153 18.4181 145.143C18.5505 145.133 18.6791 145.094 18.7953 145.03C19.8645 144.635 39.7047 134.843 40.276 134.557ZM50.3982 157.419C43.8114 165.745 44.0388 165.691 43.2779 166.293C42.795 166.672 43.4729 167.352 43.9558 166.973C44.5465 166.508 44.0485 167.035 51.0762 158.098C51.4556 157.615 50.7819 156.935 50.3982 157.419Z" fill="#0B1F33"/>
<path opacity="0.3" d="M158.423 27.0212C158.113 27.0177 157.813 26.9107 157.57 26.7173C157.328 26.5238 157.157 26.2549 157.084 25.9531C156.952 25.5585 156.885 25.1447 156.888 24.7284C158.454 24.988 160.062 24.7005 161.442 23.9141C161.635 26.3225 160.309 27.3312 158.423 27.0212Z" fill="#0B1F33"/>
</svg>
