<svg width="173" height="209" viewBox="0 0 173 209" fill="none" xmlns="http://www.w3.org/2000/svg">
<path d="M108.232 177.692C99.7829 180.758 90.4215 181.626 80.982 179.738C53.4719 174.234 35.5689 147.376 41.0725 119.866C46.5761 92.3564 73.4347 74.4529 100.944 79.9564L105.935 55.0108C64.6697 46.7553 24.3824 73.6101 16.1269 114.875C7.87135 156.141 34.7262 196.428 75.9914 204.683C101.403 209.767 126.441 201.532 143.859 184.82L108.232 177.692Z" fill="#0B1F33"/>
<path d="M108.232 177.692C99.7829 180.758 90.4215 181.626 80.982 179.738C53.4719 174.234 35.5689 147.376 41.0725 119.866C46.5761 92.3564 73.4347 74.4529 100.944 79.9564L105.935 55.0108C64.6697 46.7553 24.3824 73.6101 16.1269 114.875C7.87135 156.141 34.7262 196.428 75.9914 204.683C101.403 209.767 126.441 201.532 143.859 184.82L108.232 177.692Z" fill="white" fill-opacity="0.2"/>
<path d="M125.531 129.653L112.301 138.471L34.6949 22.0475L47.925 13.229L94.029 66.5743L125.531 129.653Z" fill="#546270"/>
<path d="M138.785 120.828L125.557 129.646L47.9626 13.2397L61.1908 4.42204L138.785 120.828Z" fill="#0B1F33"/>
<path d="M114.952 113.771L93.7841 127.882L37.3431 43.2097L58.5109 29.0991L90.8467 68.6925L114.952 113.771Z" fill="white"/>
<path d="M136.139 99.6562L114.974 113.764L58.5414 29.1053L79.7063 14.9971L136.139 99.6562Z" fill="#E9EDF5"/>
<path d="M90.6113 155.812L165.448 170.784L161.705 189.493L86.8684 174.521L90.6113 155.812Z" fill="#0B1F33"/>
<path d="M49.69 104.03C63.467 106.787 76.87 97.8524 79.6262 84.0753C82.3824 70.2982 73.4483 56.8953 59.6712 54.1391C45.8941 51.3828 32.4912 60.317 29.735 74.0941C26.9787 87.8711 35.9129 101.274 49.69 104.03Z" fill="#0B1F33"/>
<path d="M49.69 104.03C63.467 106.787 76.87 97.8524 79.6262 84.0753C82.3824 70.2982 73.4483 56.8953 59.6712 54.1391C45.8941 51.3828 32.4912 60.317 29.735 74.0941C26.9787 87.8711 35.9129 101.274 49.69 104.03Z" fill="white" fill-opacity="0.3"/>
<path d="M79.8242 185.492L142.188 197.969L137.197 222.914L74.8336 210.438L79.8242 185.492Z" fill="#0B1F33"/>
</svg>
