<svg width="205" height="283" viewBox="0 0 205 283" fill="none" xmlns="http://www.w3.org/2000/svg">
<path d="M143.159 234.008C132.051 238.038 119.744 239.179 107.334 236.697C71.1673 229.461 47.6309 194.151 54.8662 157.985C62.1016 121.819 97.4119 98.2819 133.578 105.517L140.139 72.722C85.8888 61.8687 32.9243 97.174 22.071 151.424C11.2177 205.674 46.523 258.639 100.773 269.492C134.181 276.176 167.098 265.349 189.996 243.378L143.159 234.008Z" fill="#0B1F33"/>
<path d="M143.159 234.008C132.051 238.038 119.744 239.179 107.334 236.697C71.1673 229.461 47.6309 194.151 54.8662 157.985C62.1016 121.819 97.4119 98.2819 133.578 105.517L140.139 72.722C85.8888 61.8687 32.9243 97.174 22.071 151.424C11.2177 205.674 46.523 258.639 100.773 269.492C134.181 276.176 167.098 265.349 189.996 243.378L143.159 234.008Z" fill="white" fill-opacity="0.2"/>
<path d="M165.902 170.857L148.509 182.45L46.4824 29.3914L63.8756 17.7981L124.487 87.9295L165.902 170.857Z" fill="#546270"/>
<path d="M183.324 159.25L165.933 170.842L63.9226 17.8068L81.3133 6.21441L183.324 159.25Z" fill="#0B1F33"/>
<path d="M151.997 149.978L124.168 168.529L49.967 57.2135L77.7957 38.6627L120.307 90.7148L151.997 149.978Z" fill="white"/>
<path d="M179.849 131.422L152.024 149.969L77.8338 38.6706L105.659 20.123L179.849 131.422Z" fill="#E9EDF5"/>
<path d="M119.994 205.25L218.379 224.933L213.458 249.529L115.073 229.846L119.994 205.25Z" fill="#0B1F33"/>
<path d="M66.1976 137.175C84.3099 140.799 101.93 129.053 105.554 110.941C109.177 92.8284 97.432 75.208 79.3197 71.5845C61.2074 67.9609 43.5869 79.7064 39.9634 97.8187C36.3398 115.931 48.0853 133.551 66.1976 137.175Z" fill="#0B1F33"/>
<path d="M66.1976 137.175C84.3099 140.799 101.93 129.053 105.554 110.941C109.177 92.8284 97.432 75.208 79.3197 71.5845C61.2074 67.9609 43.5869 79.7064 39.9634 97.8187C36.3398 115.931 48.0853 133.551 66.1976 137.175Z" fill="white" fill-opacity="0.3"/>
<path d="M105.812 244.266L187.8 260.668L181.239 293.463L99.2515 277.061L105.812 244.266Z" fill="#0B1F33"/>
</svg>
