<svg width="137" height="152" viewBox="0 0 137 152" fill="none" xmlns="http://www.w3.org/2000/svg">
<path d="M61.2979 58.8616C56.2534 58.8616 52.1634 53.3738 52.1634 46.6047C52.1634 39.8356 56.253 34.3478 61.2979 34.3478C61.3026 34.3478 61.3072 34.3478 61.3118 34.3478C62.0362 34.3497 62.6347 33.7902 62.6347 33.0656V19.7045C62.6347 17.8226 61.1093 16.2969 59.228 16.2969H3.66056C1.77925 16.2969 0.253906 17.8226 0.253906 19.7045V74.8421C0.253906 76.7239 1.77925 78.2497 3.66056 78.2497H16.6333C18.671 78.2497 20.1654 76.4384 19.9123 74.4159C19.8772 74.1373 19.8592 73.855 19.8592 73.5695C19.8592 68.5231 25.3455 64.4329 32.1127 64.4329C38.8799 64.4329 44.3661 68.5236 44.3661 73.5695C44.3661 73.855 44.3481 74.1373 44.3135 74.4159C44.0604 76.4384 45.5544 78.2497 47.5925 78.2497H59.2285C61.1098 78.2497 62.6352 76.7239 62.6352 74.8421V60.1439C62.6352 59.4193 62.0362 58.8598 61.3122 58.8616C61.3067 58.8616 61.3021 58.8616 61.2979 58.8616Z" fill="#0B1F33"/>
<path d="M61.3118 58.8654C61.3072 58.8654 61.3025 58.8654 61.2979 58.8654C56.6818 58.8654 52.868 54.2696 52.2524 48.3031V48.3035C46.6122 50.5309 40.1498 51.796 33.2811 51.796C19.5309 51.796 7.40889 46.7261 0.253906 39.0156V74.8454C0.253906 76.7272 1.77925 78.253 3.66056 78.253H16.6333C18.671 78.253 20.1654 76.4417 19.9123 74.4192C19.8772 74.1406 19.8592 73.8583 19.8592 73.5728C19.8592 68.5265 25.3455 64.4362 32.1127 64.4362C38.8799 64.4362 44.3661 68.5269 44.3661 73.5728C44.3661 73.8583 44.3481 74.1406 44.3135 74.4192C44.0604 76.4417 45.5544 78.253 47.5925 78.253H59.2285C61.1098 78.253 62.6351 76.7272 62.6351 74.8454V60.1472C62.6351 59.423 62.0362 58.8635 61.3118 58.8654Z" fill="#314157"/>
<path d="M67.3752 4.27947L65.5967 16.4607C65.3887 17.8864 64.2922 19.0067 62.8771 19.2756C58.7825 20.0528 55.2094 24.3806 54.3844 30.0312C53.5595 35.6818 55.7466 40.8509 59.4474 42.7669C60.7265 43.4292 61.4569 44.8166 61.2489 46.2418L59.4064 58.864C59.1357 60.7191 60.4194 62.4423 62.2735 62.713L76.1653 64.742C76.8818 64.8467 77.5223 64.3347 77.6247 63.6175C77.6251 63.6129 77.626 63.6083 77.6265 63.6042C78.3555 58.6108 84.3748 55.3559 91.071 56.3341C97.7672 57.3124 102.605 62.1531 101.876 67.146C101.876 67.1506 101.875 67.1552 101.874 67.1594C101.768 67.8761 102.235 68.5495 102.951 68.6542L117.284 70.7478C119.139 71.0185 120.861 69.7344 121.132 67.8794L129.101 13.2943C129.371 11.4392 128.088 9.71606 126.234 9.44531L71.2231 1.41104C69.3686 1.14029 67.6459 2.42437 67.3752 4.27947Z" fill="#C782FF"/>
<path d="M126.233 9.44404L126.028 9.41406C124.955 22.3587 114.536 35.5274 98.6911 42.1106C82.1885 48.9674 64.7873 46.6035 55.0469 37.3258C55.9313 39.7837 57.47 41.7407 59.4472 42.7642C60.7263 43.4266 61.4567 44.8139 61.2488 46.2392L59.4062 58.8614C59.1355 60.7165 60.4192 62.4396 62.2733 62.7104L76.1651 64.7394C76.8817 64.8441 77.5221 64.3321 77.6245 63.6149C77.625 63.6103 77.6259 63.6056 77.6263 63.6015C78.3554 58.6081 84.3746 55.3532 91.0708 56.3315C97.767 57.3098 102.604 62.1504 101.875 67.1433C101.875 67.1479 101.874 67.1525 101.874 67.1567C101.767 67.8735 102.234 68.5469 102.951 68.6516L117.283 70.7451C119.138 71.0159 120.861 69.7318 121.131 67.8772L129.1 13.2921C129.371 11.438 128.088 9.71479 126.233 9.44404Z" fill="#D8A7FF"/>
<path d="M134.736 91.3086L119.943 87.3296C119.476 87.2041 119.214 86.7212 119.341 86.2539C119.342 86.2512 119.342 86.2479 119.343 86.2452C120.653 81.3722 116.417 75.9965 109.882 74.2387C103.347 72.481 96.9872 75.0062 95.6772 79.8792C95.6762 79.882 95.6758 79.8852 95.6749 79.888C95.5499 80.3557 95.0814 80.6421 94.6143 80.5166L80.2522 76.6533C78.6623 76.2257 77.0272 77.1681 76.5998 78.7584L72.2751 94.8454C72.1469 95.3214 71.6503 95.5958 71.18 95.4482C71.1126 95.427 71.0444 95.4072 70.9752 95.3887C66.3411 94.142 61.2376 98.1418 59.5762 104.322C57.9148 110.503 60.3241 116.524 64.9582 117.77C65.0269 117.789 65.0961 117.806 65.1648 117.821C65.6458 117.93 65.9376 118.416 65.8099 118.892L62.0639 132.827C61.6364 134.418 62.5785 136.053 64.1684 136.481L118.652 151.137C120.241 151.564 121.877 150.622 122.304 149.031L136.84 94.963C137.268 93.3722 136.326 91.7367 134.736 91.3086Z" fill="#0B1F33"/>
<path d="M105.711 121.121C85.2345 121.121 67.7244 113.005 60.6238 101.531C60.1973 102.397 59.8423 103.329 59.5762 104.319C57.9148 110.5 60.3241 116.52 64.9582 117.767C65.0269 117.785 65.0961 117.802 65.1648 117.818C65.6458 117.926 65.9381 118.413 65.8099 118.889L62.0639 132.824C61.6364 134.414 62.5785 136.05 64.1684 136.477L118.652 151.133C120.241 151.561 121.877 150.618 122.304 149.028L131.032 116.561C123.663 119.453 114.992 121.121 105.711 121.121Z" fill="#314157"/>
<path d="M66.9306 118.971C61.9318 119.651 57.1404 114.764 56.2293 108.057C55.3177 101.349 58.6312 95.3608 63.6296 94.6809C64.8441 94.5181 65.7027 93.3909 65.5376 92.1764L63.5738 77.7254C63.4152 76.5576 62.3399 75.7393 61.1724 75.8985L46.908 77.838C45.9729 77.9653 45.0659 77.463 44.6795 76.6018C42.9314 72.7039 37.6771 70.3221 31.8723 71.1118C26.0674 71.9009 21.6394 75.5996 20.9948 79.8227C20.8523 80.7557 20.115 81.4817 19.1799 81.6086C15.5989 82.0956 7.45161 83.2035 3.58569 83.7289C2.41817 83.8875 1.60294 84.9627 1.76202 86.1305L9.52982 143.289C9.68844 144.457 10.7637 145.275 11.9313 145.116L69.5152 137.286C70.6827 137.128 71.5007 136.052 71.3416 134.884L69.4377 120.875C69.2726 119.661 68.1447 118.804 66.9306 118.971Z" fill="#C782FF"/>
<path d="M69.437 120.873C69.272 119.659 68.1436 118.802 66.93 118.969C65.4853 119.165 64.0587 118.895 62.7372 118.251C55.8247 121.849 47.5866 123.939 38.7416 123.939C25.341 123.939 13.3324 119.144 5.21875 111.57L9.52917 143.287C9.68779 144.455 10.7631 145.273 11.9306 145.114L69.5145 137.284C70.682 137.125 71.5 136.05 71.3409 134.882L69.437 120.873Z" fill="#D8A7FF"/>
</svg>
