<svg width="24" height="24" viewBox="0 0 24 24" fill="none" xmlns="http://www.w3.org/2000/svg">
<g clip-path="url(#clip0_5281_99787)">
<mask id="mask0_5281_99787" style="mask-type:luminance" maskUnits="userSpaceOnUse" x="0" y="0" width="24" height="24">
<path d="M24 0H0V24H24V0Z" fill="white"/>
</mask>
<g mask="url(#mask0_5281_99787)">
<path d="M24 0H0V24H24V0Z" fill="#FF0032"/>
<path d="M15.9883 1.84375V2.94827H18.4035V7.3811H19.7535V2.94827H22.1638V1.84375H15.9883Z" fill="white"/>
<path d="M7.30451 1.84375L5.53724 5.50588L3.77493 1.84375H1.8457V7.3811H3.20058V3.41954L4.92363 6.76746H6.15578L7.87882 3.41954V7.3811H9.22882V1.84375H7.30451Z" fill="white"/>
<path d="M20.8128 20.3064C20.7784 20.5274 20.6901 20.709 20.5477 20.8464C20.4152 20.9741 20.2335 21.0674 20.0077 21.1214C19.7868 21.1704 19.458 21.1999 19.1143 21.1999C18.756 21.1999 18.4418 21.1557 18.1718 21.0624C17.9116 20.9741 17.7054 20.817 17.563 20.601C17.4158 20.385 17.3421 20.0709 17.3421 19.6634V19.0989C17.3421 18.6963 17.4158 18.3821 17.563 18.1612C17.7103 17.9452 17.9116 17.7882 18.1718 17.6998C18.4369 17.6066 18.756 17.5624 19.1143 17.5624C19.458 17.5624 19.7868 17.5918 20.0077 17.6409C20.2335 17.6949 20.4152 17.7832 20.5477 17.9158C20.6901 18.0532 20.7784 18.2349 20.8128 18.4558H22.1628C22.1235 17.9992 21.9714 17.6115 21.7014 17.2973C21.4559 17.0126 21.1123 16.8064 20.6852 16.6787C20.2728 16.556 19.7279 16.4922 19.1143 16.4922C18.4663 16.4922 17.9067 16.5855 17.4452 16.7671C16.9789 16.9536 16.6156 17.2629 16.3653 17.69C16.1247 18.0974 16.002 18.6472 15.9922 19.3149V19.3787L16.0658 19.3836L15.9922 19.3885V19.3934V19.4523C16.002 20.12 16.1247 20.6697 16.3653 21.0772C16.6156 21.5043 16.9789 21.8135 17.4452 22.0001C17.9067 22.1817 18.4663 22.275 19.1143 22.275C19.7279 22.275 20.2728 22.2112 20.6852 22.0884C21.1123 21.9608 21.451 21.7546 21.7014 21.4699C21.9714 21.1606 22.1284 20.7679 22.1628 20.3114H20.8128V20.3064Z" fill="white"/>
</g>
</g>
<defs>
<clipPath id="clip0_5281_99787">
<rect width="24" height="24" fill="white"/>
</clipPath>
</defs>
</svg>
