<svg width="174" height="157" viewBox="0 0 174 157" fill="none" xmlns="http://www.w3.org/2000/svg">
<path d="M146.97 156.839L42.6953 143.572L60.8587 0.6875L167.722 14.2831C168.891 14.4316 169.717 15.5001 169.569 16.6694L152.273 152.731C151.942 155.33 149.569 157.169 146.97 156.839Z" fill="#455A64"/>
<path d="M160.833 38.2301L159.949 45.1797L172.875 46.8248L173.759 39.8752L160.833 38.2301Z" fill="#FF9446"/>
<path opacity="0.3" d="M160.833 38.2301L159.949 45.1797L172.875 46.8248L173.759 39.8752L160.833 38.2301Z" fill="black"/>
<path d="M165.701 17.951L64.8633 5.11719L47.5855 140.988L148.423 153.821L165.701 17.951Z" fill="#E0E0E0"/>
<path d="M161.412 15.7244L60.5742 2.89062L43.2964 138.761L144.134 151.595L161.412 15.7244Z" fill="#FAFAFA"/>
<path d="M62.1094 16.3359L162.595 29.1205" stroke="#E0E0E0" stroke-miterlimit="10"/>
<path d="M61.8867 23.1719L162.372 35.956" stroke="#E0E0E0" stroke-miterlimit="10"/>
<path d="M61.0273 29.9297L161.513 42.7143" stroke="#E0E0E0" stroke-miterlimit="10"/>
<path d="M60.168 36.6875L160.654 49.4716" stroke="#E0E0E0" stroke-miterlimit="10"/>
<path d="M59.3086 43.4453L159.794 56.2294" stroke="#E0E0E0" stroke-miterlimit="10"/>
<path d="M58.4492 50.1953L158.935 62.9799" stroke="#E0E0E0" stroke-miterlimit="10"/>
<path d="M57.5898 56.9531L158.076 69.7372" stroke="#E0E0E0" stroke-miterlimit="10"/>
<path d="M56.7344 63.7109L157.22 76.495" stroke="#E0E0E0" stroke-miterlimit="10"/>
<path d="M55.875 70.4688L156.36 83.2533" stroke="#E0E0E0" stroke-miterlimit="10"/>
<path d="M55.0156 77.2188L155.501 90.0028" stroke="#E0E0E0" stroke-miterlimit="10"/>
<path d="M54.1562 83.9766L154.641 96.7611" stroke="#E0E0E0" stroke-miterlimit="10"/>
<path d="M53.2969 90.7344L153.782 103.519" stroke="#E0E0E0" stroke-miterlimit="10"/>
<path d="M52.4375 97.4922L152.923 110.276" stroke="#E0E0E0" stroke-miterlimit="10"/>
<path d="M52 104L152.486 116.784" stroke="#E0E0E0" stroke-miterlimit="10"/>
<path d="M50.7188 111L151.204 123.784" stroke="#E0E0E0" stroke-miterlimit="10"/>
<path d="M49.8633 117.758L150.348 130.542" stroke="#E0E0E0" stroke-miterlimit="10"/>
<path d="M49.0039 124.516L149.489 137.3" stroke="#E0E0E0" stroke-miterlimit="10"/>
<path d="M48.1445 131.273L148.63 144.058" stroke="#E0E0E0" stroke-miterlimit="10"/>
<path d="M76.5752 5.64844L59.3633 141.052" stroke="#FF9446" stroke-miterlimit="10"/>
<path d="M69.3557 11.2663C69.2116 12.399 68.1773 13.2008 67.0446 13.0567C65.9125 12.9125 65.1109 11.8777 65.255 10.7446C65.3991 9.61196 66.4335 8.81009 67.5661 8.95426C68.6988 9.09843 69.4998 10.1337 69.3557 11.2663Z" fill="#455A64"/>
<path d="M67.4416 26.3445C67.2975 27.4771 66.2627 28.279 65.1306 28.1348C63.9984 27.9906 63.1969 26.9559 63.341 25.8227C63.4851 24.6901 64.5194 23.8882 65.6521 24.0324C66.7847 24.1761 67.5858 25.2113 67.4416 26.3445Z" fill="#455A64"/>
<path d="M65.5237 41.4226C65.3796 42.5552 64.3452 43.3571 63.2126 43.2129C62.0804 43.0687 61.2789 42.034 61.423 40.9009C61.5671 39.7682 62.6019 38.9663 63.7341 39.1105C64.8667 39.2547 65.6678 40.2899 65.5237 41.4226Z" fill="#455A64"/>
<path d="M63.6096 56.4929C63.4655 57.6255 62.4312 58.4274 61.2985 58.2832C60.1664 58.1391 59.3648 57.1043 59.5089 55.9712C59.6531 54.8385 60.6874 54.0367 61.82 54.1808C62.9527 54.325 63.7537 55.3602 63.6096 56.4929Z" fill="#455A64"/>
<path d="M61.6916 71.571C61.5475 72.7037 60.5127 73.5055 59.3806 73.3613C58.2484 73.2172 57.4469 72.1824 57.591 71.0493C57.7351 69.9166 58.7694 69.1148 59.9021 69.2589C61.0342 69.4031 61.8358 70.4379 61.6916 71.571Z" fill="#455A64"/>
<path d="M59.7776 86.6491C59.6335 87.7818 58.5991 88.5837 57.4665 88.4395C56.3343 88.2953 55.5328 87.2605 55.6769 86.1274C55.821 84.9948 56.8553 84.1929 57.988 84.3371C59.1202 84.4812 59.9217 85.516 59.7776 86.6491Z" fill="#455A64"/>
<path d="M57.8596 101.719C57.7155 102.852 56.6812 103.654 55.5485 103.51C54.4164 103.366 53.6148 102.331 53.7589 101.198C53.9031 100.065 54.9374 99.2632 56.07 99.4074C57.2022 99.5516 58.0037 100.587 57.8596 101.719Z" fill="#455A64"/>
<path d="M55.9456 116.798C55.8014 117.93 54.7671 118.732 53.6345 118.588C52.5023 118.444 51.7008 117.409 51.8449 116.276C51.989 115.143 53.0233 114.341 54.156 114.486C55.2881 114.63 56.0892 115.665 55.9456 116.798Z" fill="#455A64"/>
<path d="M54.0276 131.876C53.8835 133.008 52.8487 133.81 51.7165 133.666C50.5843 133.522 49.7828 132.487 49.9269 131.354C50.071 130.221 51.1053 129.419 52.238 129.564C53.3702 129.708 54.1712 130.743 54.0276 131.876Z" fill="#455A64"/>
<path d="M59.1251 17.2536C59.1178 17.2787 59.0397 17.2772 58.8956 17.2507C58.7539 17.2184 58.5351 17.1866 58.2748 17.0839C58.0165 16.9754 57.6936 16.8462 57.362 16.6109C57.0207 16.3934 56.6752 16.0742 56.3489 15.675C56.0428 15.2637 55.7396 14.7728 55.5589 14.1927C55.3671 13.6185 55.2519 12.9762 55.2461 12.2963C55.2543 11.6232 55.3073 10.884 55.6775 10.1699C56.0283 9.48712 56.5768 8.88969 57.2381 8.44223C57.8999 7.9938 58.6431 7.70979 59.381 7.58587C60.1175 7.46051 60.8409 7.4822 61.5065 7.5878C62.843 7.80671 63.9434 8.34965 64.7772 8.88584C65.6159 9.42588 66.2125 9.96062 66.6082 10.3415C67.0011 10.7268 67.1895 10.9679 67.1563 11.0055C67.1206 11.0455 66.8661 10.8787 66.4217 10.5672C65.9754 10.2605 65.3406 9.80102 64.5059 9.34343C63.674 8.88728 62.6261 8.43644 61.4067 8.27443C60.7999 8.19631 60.155 8.19294 59.5106 8.31252C58.8701 8.42921 58.23 8.67994 57.6613 9.06569C57.093 9.44999 56.6303 9.95146 56.332 10.5118C56.0375 11.0441 55.9628 11.6989 55.9406 12.3002C55.9276 12.9077 56.0095 13.4863 56.1551 14.0052C56.2905 14.5303 56.5344 14.9739 56.7788 15.3596C57.0429 15.7323 57.3258 16.0448 57.615 16.2738C57.8931 16.5197 58.1751 16.676 58.3997 16.8182C58.6272 16.9551 58.8229 17.0294 58.9453 17.107C59.0687 17.1784 59.1323 17.2285 59.1251 17.2536Z" fill="#FF9446"/>
<path d="M57.2071 32.3317C57.1999 32.3568 57.1218 32.3554 56.9777 32.3288C56.836 32.2965 56.6171 32.2647 56.3569 32.162C56.0985 32.0535 55.7756 31.9248 55.444 31.689C55.1028 31.471 54.7572 31.1523 54.4309 30.7531C54.1253 30.3418 53.8217 29.8509 53.6409 29.2709C53.4496 28.6966 53.3339 28.0543 53.3281 27.3744C53.3358 26.7013 53.3893 25.9621 53.7595 25.248C54.1104 24.5652 54.6589 23.9678 55.3201 23.5204C55.9819 23.0719 56.7251 22.7879 57.463 22.664C58.2 22.5386 58.9229 22.5603 59.5885 22.6659C60.9251 22.8848 62.0254 23.4278 62.8592 23.964C63.6979 24.504 64.2946 25.0387 64.6903 25.4197C65.0831 25.8049 65.2715 26.046 65.2378 26.0836C65.2026 26.1237 64.9477 25.9568 64.5033 25.6453C64.057 25.3387 63.4222 24.8796 62.5869 24.4215C61.755 23.9654 60.7072 23.5146 59.4878 23.3526C58.881 23.2744 58.2361 23.2711 57.5917 23.3906C56.9512 23.5073 56.3111 23.7581 55.7424 24.1438C55.1741 24.5281 54.7114 25.0296 54.4131 25.5899C54.1186 26.1222 54.0439 26.777 54.0217 27.3783C54.0087 27.9858 54.0906 28.5649 54.2367 29.0833C54.3721 29.6084 54.616 30.052 54.8603 30.4377C55.1245 30.8105 55.4074 31.1229 55.6966 31.3519C55.9747 31.5979 56.2566 31.7541 56.4812 31.8968C56.7087 32.0338 56.9044 32.108 57.0268 32.1856C57.1507 32.2565 57.2143 32.3067 57.2071 32.3317Z" fill="#FF9446"/>
<path d="M55.293 47.4021C55.2858 47.4271 55.2077 47.4257 55.0636 47.3992C54.9219 47.3669 54.7031 47.335 54.4428 47.2323C54.1845 47.1238 53.8615 46.9951 53.5299 46.7593C53.1887 46.5414 52.8431 46.2226 52.5168 45.8234C52.2113 45.4121 51.9076 44.9212 51.7269 44.3412C51.535 43.7669 51.4198 43.1246 51.4141 42.4447C51.4223 41.7716 51.4753 41.0324 51.8454 40.3183C52.1963 39.6356 52.7448 39.0381 53.4061 38.5907C54.0678 38.1422 54.811 37.8582 55.5489 37.7343C56.2859 37.6089 57.0089 37.6306 57.6745 37.7362C59.011 37.9547 60.1114 38.4981 60.9452 39.0343C61.7838 39.5743 62.3805 40.1091 62.7762 40.49C63.169 40.8752 63.3575 41.1163 63.3237 41.1539C63.2881 41.194 63.0336 41.0271 62.5892 40.7161C62.1429 40.4095 61.5081 39.9499 60.6733 39.4923C59.8414 39.0362 58.7936 38.5854 57.5742 38.4233C56.9674 38.3452 56.3225 38.3423 55.6781 38.4614C55.0376 38.5781 54.398 38.8289 53.8288 39.2146C53.2605 39.5989 52.7978 40.1004 52.4995 40.6607C52.205 41.193 52.1303 41.8478 52.1081 42.4491C52.0951 43.0566 52.177 43.6357 52.3226 44.1541C52.458 44.6792 52.7019 45.1223 52.9463 45.5085C53.2109 45.8813 53.4933 46.1937 53.7825 46.4223C54.0606 46.6682 54.3426 46.8244 54.5672 46.9671C54.7947 47.1041 54.9903 47.1783 55.1128 47.256C55.2366 47.3273 55.3003 47.3775 55.293 47.4021Z" fill="#FF9446"/>
<path d="M53.3751 62.4802C53.3678 62.5053 53.2897 62.5038 53.1456 62.4773C53.0039 62.445 52.7851 62.4132 52.5248 62.3105C52.2665 62.202 51.9436 62.0727 51.612 61.8374C51.2707 61.6195 50.9252 61.3008 50.5989 60.9015C50.2928 60.4902 49.9896 59.9994 49.8089 59.4193C49.6171 58.845 49.5019 58.2027 49.4961 57.5229C49.5043 56.8497 49.5573 56.1106 49.9275 55.3964C50.2783 54.7137 50.8268 54.1163 51.4881 53.6688C52.1499 53.2204 52.8931 52.9364 53.631 52.8124C54.3674 52.6871 55.0909 52.7088 55.7565 52.8144C57.093 53.0328 58.1934 53.5762 59.0272 54.1124C59.8658 54.6524 60.4625 55.1872 60.8582 55.5681C61.2511 55.9534 61.4395 56.1945 61.4063 56.2321C61.3706 56.2721 61.1161 56.1053 60.6717 55.7938C60.2254 55.4871 59.5906 55.0281 58.7559 54.57C57.924 54.1138 56.8761 53.663 55.6567 53.501C55.0499 53.4229 54.405 53.4195 53.7606 53.5391C53.1201 53.6558 52.48 53.9065 51.9113 54.2922C51.343 54.6765 50.8803 55.178 50.582 55.7383C50.2875 56.2706 50.2128 56.9254 50.1906 57.5267C50.1776 58.1343 50.2595 58.7129 50.4056 59.2317C50.541 59.7568 50.7849 60.1999 51.0293 60.5862C51.2934 60.9589 51.5763 61.2714 51.8655 61.5004C52.1436 61.7463 52.4256 61.9025 52.6502 62.0448C52.8777 62.1817 53.0733 62.256 53.1958 62.3336C53.3187 62.4054 53.3823 62.4551 53.3751 62.4802Z" fill="#FF9446"/>
<path d="M51.4576 77.5583C51.4503 77.5834 51.3723 77.5819 51.2281 77.5554C51.0864 77.5231 50.8676 77.4913 50.6069 77.3886C50.3485 77.2801 50.0256 77.1513 49.694 76.9156C49.3528 76.6976 49.0072 76.3789 48.6809 75.9796C48.3753 75.5683 48.0717 75.0775 47.8909 74.4974C47.6996 73.9231 47.5839 73.2809 47.5781 72.601C47.5863 71.9279 47.6393 71.1887 48.0095 70.4746C48.3604 69.7918 48.9089 69.1944 49.5701 68.7469C50.2319 68.2985 50.9751 68.0145 51.713 67.8906C52.45 67.7652 53.1729 67.7869 53.8385 67.8925C55.1751 68.1114 56.2754 68.6543 57.1092 69.1905C57.9479 69.7306 58.5446 70.2653 58.9403 70.6462C59.3331 71.0315 59.5215 71.2726 59.4883 71.3102C59.4526 71.3502 59.1981 71.1834 58.7537 70.8719C58.3074 70.5652 57.6727 70.1057 56.8374 69.6481C56.0055 69.192 54.9577 68.7411 53.7383 68.5791C53.1315 68.501 52.4866 68.4976 51.8422 68.6172C51.2016 68.7339 50.5616 68.9846 49.9928 69.3704C49.4246 69.7547 48.9619 70.2561 48.6635 70.8164C48.3691 71.3488 48.2943 72.0036 48.2722 72.6048C48.2592 73.2124 48.3411 73.791 48.4867 74.3098C48.6221 74.8349 48.866 75.2785 49.1103 75.6643C49.3745 76.037 49.6574 76.3495 49.9466 76.578C50.2247 76.8239 50.5066 76.9802 50.7312 77.1229C50.9587 77.2598 51.1544 77.3341 51.2768 77.4117C51.4017 77.4831 51.4653 77.5332 51.4576 77.5583Z" fill="#FF9446"/>
<path d="M49.543 92.6364C49.5358 92.6615 49.4577 92.6601 49.3136 92.6335C49.1719 92.6012 48.9531 92.5694 48.6928 92.4667C48.4345 92.3582 48.1115 92.2295 47.7799 91.9937C47.4387 91.7762 47.0931 91.457 46.7668 91.0578C46.4613 90.6465 46.1576 90.1556 45.9769 89.5755C45.7855 89.0013 45.6698 88.359 45.6641 87.6791C45.6718 87.006 45.7253 86.2668 46.0954 85.5527C46.4463 84.8699 46.9948 84.2725 47.6561 83.825C48.3178 83.3766 49.061 83.0926 49.799 82.9687C50.5359 82.8433 51.2589 82.865 51.9245 82.9706C53.261 83.1895 54.3614 83.7325 55.1952 84.2686C56.0338 84.8087 56.631 85.3434 57.0262 85.7244C57.419 86.1096 57.6075 86.3507 57.5737 86.3883C57.5381 86.4283 57.2836 86.2615 56.8392 85.95C56.3929 85.6433 55.7581 85.1838 54.9233 84.7262C54.0914 84.2701 53.0436 83.8193 51.8242 83.6572C51.2174 83.5791 50.5725 83.5757 49.9281 83.6953C49.2876 83.812 48.648 84.0628 48.0788 84.4485C47.5105 84.8328 47.0478 85.3343 46.7495 85.8946C46.455 86.4269 46.3803 87.0817 46.3581 87.683C46.3451 88.2905 46.427 88.8691 46.5726 89.388C46.708 89.9131 46.9519 90.3562 47.1963 90.7424C47.4609 91.1151 47.7433 91.4276 48.0325 91.6562C48.3106 91.9021 48.5926 92.0583 48.8172 92.201C49.0447 92.338 49.2403 92.4122 49.3628 92.4898C49.4871 92.5612 49.5507 92.6114 49.543 92.6364Z" fill="#FF9446"/>
<path d="M47.6255 107.707C47.6183 107.732 47.5402 107.73 47.3961 107.704C47.2544 107.672 47.0356 107.64 46.7748 107.537C46.5165 107.429 46.1936 107.3 45.862 107.064C45.5207 106.846 45.1752 106.527 44.8489 106.128C44.5433 105.717 44.2396 105.226 44.0589 104.646C43.8671 104.072 43.7519 103.429 43.7461 102.749C43.7543 102.076 43.8073 101.337 44.1775 100.623C44.5283 99.9402 45.0768 99.3428 45.7381 98.8954C46.3999 98.4469 47.1431 98.1629 47.881 98.039C48.6174 97.9136 49.3409 97.9353 50.0065 98.0409C51.343 98.2594 52.4434 98.8028 53.2772 99.339C54.1158 99.879 54.713 100.414 55.1082 100.795C55.5011 101.18 55.6895 101.421 55.6563 101.459C55.6206 101.499 55.3661 101.332 54.9217 101.02C54.4754 100.714 53.8406 100.255 53.0059 99.7965C52.174 99.3404 51.1261 98.8896 49.9067 98.7276C49.2999 98.6494 48.655 98.6461 48.0106 98.7656C47.3701 98.8823 46.73 99.1331 46.1613 99.5188C45.593 99.9031 45.1303 100.405 44.832 100.965C44.5375 101.497 44.4628 102.152 44.4406 102.753C44.4276 103.361 44.5095 103.94 44.6551 104.458C44.7905 104.983 45.0344 105.427 45.2788 105.813C45.5434 106.185 45.8258 106.498 46.115 106.726C46.3931 106.972 46.6751 107.129 46.8997 107.271C47.1272 107.408 47.3228 107.483 47.4453 107.56C47.5696 107.632 47.6328 107.682 47.6255 107.707Z" fill="#FF9446"/>
<path d="M45.7076 122.785C45.7003 122.81 45.6223 122.809 45.4782 122.782C45.3364 122.75 45.1176 122.718 44.8569 122.615C44.5985 122.507 44.2756 122.378 43.944 122.142C43.6028 121.924 43.2572 121.606 42.9309 121.206C42.6253 120.795 42.3217 120.304 42.1409 119.724C41.9496 119.15 41.8339 118.508 41.8281 117.828C41.8358 117.155 41.8893 116.415 42.2595 115.701C42.6104 115.019 43.1589 114.421 43.8201 113.974C44.4819 113.525 45.2251 113.241 45.963 113.117C46.7 112.992 47.4229 113.013 48.0885 113.119C49.4251 113.338 50.5254 113.881 51.3592 114.417C52.1979 114.957 52.7946 115.492 53.1903 115.873C53.5831 116.258 53.7715 116.499 53.7383 116.537C53.7026 116.577 53.4481 116.41 53.0038 116.099C52.5574 115.792 51.9227 115.332 51.0874 114.875C50.2555 114.419 49.2077 113.968 47.9883 113.806C47.3815 113.728 46.7366 113.725 46.0922 113.844C45.4516 113.961 44.8121 114.212 44.2428 114.597C43.6746 114.981 43.2119 115.483 42.9135 116.043C42.6191 116.575 42.5443 117.23 42.5222 117.832C42.5092 118.439 42.5911 119.018 42.7367 119.537C42.8721 120.062 43.116 120.505 43.3603 120.891C43.6245 121.264 43.9074 121.576 44.1966 121.805C44.4747 122.051 44.7566 122.207 44.9812 122.35C45.2087 122.487 45.4044 122.561 45.5268 122.638C45.6517 122.71 45.7148 122.76 45.7076 122.785Z" fill="#FF9446"/>
<path d="M43.793 137.863C43.7858 137.888 43.7077 137.887 43.5636 137.86C43.4219 137.828 43.2031 137.796 42.9428 137.693C42.6845 137.585 42.3615 137.456 42.0299 137.22C41.6887 137.003 41.3431 136.684 41.0168 136.284C40.7113 135.873 40.4076 135.382 40.2269 134.802C40.0355 134.228 39.9198 133.586 39.9141 132.906C39.9223 132.233 39.9753 131.493 40.3454 130.779C40.6963 130.096 41.2448 129.499 41.9061 129.052C42.5678 128.603 43.311 128.319 44.0489 128.195C44.7859 128.07 45.5089 128.092 46.1745 128.197C47.511 128.416 48.6114 128.959 49.4452 129.495C50.2838 130.035 50.881 130.57 51.2762 130.951C51.669 131.336 51.8575 131.577 51.8237 131.615C51.7881 131.655 51.5336 131.488 51.0892 131.177C50.6429 130.87 50.0081 130.411 49.1733 129.953C48.3414 129.497 47.2936 129.046 46.0742 128.884C45.4674 128.806 44.8225 128.802 44.1781 128.922C43.5376 129.039 42.8975 129.289 42.3288 129.675C41.7605 130.059 41.2978 130.561 40.9995 131.121C40.705 131.653 40.6303 132.308 40.6081 132.91C40.5951 133.517 40.677 134.096 40.8231 134.615C40.9585 135.14 41.2024 135.583 41.4467 135.969C41.7114 136.342 41.9938 136.654 42.283 136.883C42.5611 137.129 42.843 137.285 43.0676 137.428C43.2951 137.565 43.4908 137.639 43.6132 137.716C43.7371 137.788 43.8003 137.838 43.793 137.863Z" fill="#FF9446"/>
<g opacity="0.2">
<path d="M59.1251 17.2536C59.1178 17.2787 59.0397 17.2772 58.8956 17.2507C58.7539 17.2184 58.5351 17.1866 58.2748 17.0839C58.0165 16.9754 57.6936 16.8462 57.362 16.6109C57.0207 16.3934 56.6752 16.0742 56.3489 15.675C56.0428 15.2637 55.7396 14.7728 55.5589 14.1927C55.3671 13.6185 55.2519 12.9762 55.2461 12.2963C55.2543 11.6232 55.3073 10.884 55.6775 10.1699C56.0283 9.48712 56.5768 8.88969 57.2381 8.44223C57.8999 7.9938 58.6431 7.70979 59.381 7.58587C60.1175 7.46051 60.8409 7.4822 61.5065 7.5878C62.843 7.80671 63.9434 8.34965 64.7772 8.88584C65.6159 9.42588 66.2125 9.96062 66.6082 10.3415C67.0011 10.7268 67.1895 10.9679 67.1563 11.0055C67.1206 11.0455 66.8661 10.8787 66.4217 10.5672C65.9754 10.2605 65.3406 9.80102 64.5059 9.34343C63.674 8.88728 62.6261 8.43644 61.4067 8.27443C60.7999 8.19631 60.155 8.19294 59.5106 8.31252C58.8701 8.42921 58.23 8.67994 57.6613 9.06569C57.093 9.44999 56.6303 9.95146 56.332 10.5118C56.0375 11.0441 55.9628 11.6989 55.9406 12.3002C55.9276 12.9077 56.0095 13.4863 56.1551 14.0052C56.2905 14.5303 56.5344 14.9739 56.7788 15.3596C57.0429 15.7323 57.3258 16.0448 57.615 16.2738C57.8931 16.5197 58.1751 16.676 58.3997 16.8182C58.6272 16.9551 58.8229 17.0294 58.9453 17.107C59.0687 17.1784 59.1323 17.2285 59.1251 17.2536Z" fill="black"/>
<path d="M57.2071 32.3317C57.1999 32.3568 57.1218 32.3554 56.9777 32.3288C56.836 32.2965 56.6171 32.2647 56.3569 32.162C56.0985 32.0535 55.7756 31.9248 55.444 31.689C55.1028 31.471 54.7572 31.1523 54.4309 30.7531C54.1253 30.3418 53.8217 29.8509 53.6409 29.2709C53.4496 28.6966 53.3339 28.0543 53.3281 27.3744C53.3358 26.7013 53.3893 25.9621 53.7595 25.248C54.1104 24.5652 54.6589 23.9678 55.3201 23.5204C55.9819 23.0719 56.7251 22.7879 57.463 22.664C58.2 22.5386 58.9229 22.5603 59.5885 22.6659C60.9251 22.8848 62.0254 23.4278 62.8592 23.964C63.6979 24.504 64.2946 25.0387 64.6903 25.4197C65.0831 25.8049 65.2715 26.046 65.2378 26.0836C65.2026 26.1237 64.9477 25.9568 64.5033 25.6453C64.057 25.3387 63.4222 24.8796 62.5869 24.4215C61.755 23.9654 60.7072 23.5146 59.4878 23.3526C58.881 23.2744 58.2361 23.2711 57.5917 23.3906C56.9512 23.5073 56.3111 23.7581 55.7424 24.1438C55.1741 24.5281 54.7114 25.0296 54.4131 25.5899C54.1186 26.1222 54.0439 26.777 54.0217 27.3783C54.0087 27.9858 54.0906 28.5649 54.2367 29.0833C54.3721 29.6084 54.616 30.052 54.8603 30.4377C55.1245 30.8105 55.4074 31.1229 55.6966 31.3519C55.9747 31.5979 56.2566 31.7541 56.4812 31.8968C56.7087 32.0338 56.9044 32.108 57.0268 32.1856C57.1507 32.2565 57.2143 32.3067 57.2071 32.3317Z" fill="black"/>
<path d="M55.293 47.4021C55.2858 47.4271 55.2077 47.4257 55.0636 47.3992C54.9219 47.3669 54.7031 47.335 54.4428 47.2323C54.1845 47.1238 53.8615 46.9951 53.5299 46.7593C53.1887 46.5414 52.8431 46.2226 52.5168 45.8234C52.2113 45.4121 51.9076 44.9212 51.7269 44.3412C51.535 43.7669 51.4198 43.1246 51.4141 42.4447C51.4223 41.7716 51.4753 41.0324 51.8454 40.3183C52.1963 39.6356 52.7448 39.0381 53.4061 38.5907C54.0678 38.1422 54.811 37.8582 55.5489 37.7343C56.2859 37.6089 57.0089 37.6306 57.6745 37.7362C59.011 37.9547 60.1114 38.4981 60.9452 39.0343C61.7838 39.5743 62.3805 40.1091 62.7762 40.49C63.169 40.8752 63.3575 41.1163 63.3237 41.1539C63.2881 41.194 63.0336 41.0271 62.5892 40.7161C62.1429 40.4095 61.5081 39.9499 60.6733 39.4923C59.8414 39.0362 58.7936 38.5854 57.5742 38.4233C56.9674 38.3452 56.3225 38.3423 55.6781 38.4614C55.0376 38.5781 54.398 38.8289 53.8288 39.2146C53.2605 39.5989 52.7978 40.1004 52.4995 40.6607C52.205 41.193 52.1303 41.8478 52.1081 42.4491C52.0951 43.0566 52.177 43.6357 52.3226 44.1541C52.458 44.6792 52.7019 45.1223 52.9463 45.5085C53.2109 45.8813 53.4933 46.1937 53.7825 46.4223C54.0606 46.6682 54.3426 46.8244 54.5672 46.9671C54.7947 47.1041 54.9903 47.1783 55.1128 47.256C55.2366 47.3273 55.3003 47.3775 55.293 47.4021Z" fill="black"/>
<path d="M53.3751 62.4802C53.3678 62.5053 53.2897 62.5038 53.1456 62.4773C53.0039 62.445 52.7851 62.4132 52.5248 62.3105C52.2665 62.202 51.9436 62.0727 51.612 61.8374C51.2707 61.6195 50.9252 61.3008 50.5989 60.9015C50.2928 60.4902 49.9896 59.9994 49.8089 59.4193C49.6171 58.845 49.5019 58.2027 49.4961 57.5229C49.5043 56.8497 49.5573 56.1106 49.9275 55.3964C50.2783 54.7137 50.8268 54.1163 51.4881 53.6688C52.1499 53.2204 52.8931 52.9364 53.631 52.8124C54.3674 52.6871 55.0909 52.7088 55.7565 52.8144C57.093 53.0328 58.1934 53.5762 59.0272 54.1124C59.8658 54.6524 60.4625 55.1872 60.8582 55.5681C61.2511 55.9534 61.4395 56.1945 61.4063 56.2321C61.3706 56.2721 61.1161 56.1053 60.6717 55.7938C60.2254 55.4871 59.5906 55.0281 58.7559 54.57C57.924 54.1138 56.8761 53.663 55.6567 53.501C55.0499 53.4229 54.405 53.4195 53.7606 53.5391C53.1201 53.6558 52.48 53.9065 51.9113 54.2922C51.343 54.6765 50.8803 55.178 50.582 55.7383C50.2875 56.2706 50.2128 56.9254 50.1906 57.5267C50.1776 58.1343 50.2595 58.7129 50.4056 59.2317C50.541 59.7568 50.7849 60.1999 51.0293 60.5862C51.2934 60.9589 51.5763 61.2714 51.8655 61.5004C52.1436 61.7463 52.4256 61.9025 52.6502 62.0448C52.8777 62.1817 53.0733 62.256 53.1958 62.3336C53.3187 62.4054 53.3823 62.4551 53.3751 62.4802Z" fill="black"/>
<path d="M51.4576 77.5583C51.4503 77.5834 51.3723 77.5819 51.2281 77.5554C51.0864 77.5231 50.8676 77.4913 50.6069 77.3886C50.3485 77.2801 50.0256 77.1513 49.694 76.9156C49.3528 76.6976 49.0072 76.3789 48.6809 75.9796C48.3753 75.5683 48.0717 75.0775 47.8909 74.4974C47.6996 73.9231 47.5839 73.2809 47.5781 72.601C47.5863 71.9279 47.6393 71.1887 48.0095 70.4746C48.3604 69.7918 48.9089 69.1944 49.5701 68.7469C50.2319 68.2985 50.9751 68.0145 51.713 67.8906C52.45 67.7652 53.1729 67.7869 53.8385 67.8925C55.1751 68.1114 56.2754 68.6543 57.1092 69.1905C57.9479 69.7306 58.5446 70.2653 58.9403 70.6462C59.3331 71.0315 59.5215 71.2726 59.4883 71.3102C59.4526 71.3502 59.1981 71.1834 58.7537 70.8719C58.3074 70.5652 57.6727 70.1057 56.8374 69.6481C56.0055 69.192 54.9577 68.7411 53.7383 68.5791C53.1315 68.501 52.4866 68.4976 51.8422 68.6172C51.2016 68.7339 50.5616 68.9846 49.9928 69.3704C49.4246 69.7547 48.9619 70.2561 48.6635 70.8164C48.3691 71.3488 48.2943 72.0036 48.2722 72.6048C48.2592 73.2124 48.3411 73.791 48.4867 74.3098C48.6221 74.8349 48.866 75.2785 49.1103 75.6643C49.3745 76.037 49.6574 76.3495 49.9466 76.578C50.2247 76.8239 50.5066 76.9802 50.7312 77.1229C50.9587 77.2598 51.1544 77.3341 51.2768 77.4117C51.4017 77.4831 51.4653 77.5332 51.4576 77.5583Z" fill="black"/>
<path d="M49.543 92.6364C49.5358 92.6615 49.4577 92.6601 49.3136 92.6335C49.1719 92.6012 48.9531 92.5694 48.6928 92.4667C48.4345 92.3582 48.1115 92.2295 47.7799 91.9937C47.4387 91.7762 47.0931 91.457 46.7668 91.0578C46.4613 90.6465 46.1576 90.1556 45.9769 89.5755C45.7855 89.0013 45.6698 88.359 45.6641 87.6791C45.6718 87.006 45.7253 86.2668 46.0954 85.5527C46.4463 84.8699 46.9948 84.2725 47.6561 83.825C48.3178 83.3766 49.061 83.0926 49.799 82.9687C50.5359 82.8433 51.2589 82.865 51.9245 82.9706C53.261 83.1895 54.3614 83.7325 55.1952 84.2686C56.0338 84.8087 56.631 85.3434 57.0262 85.7244C57.419 86.1096 57.6075 86.3507 57.5737 86.3883C57.5381 86.4283 57.2836 86.2615 56.8392 85.95C56.3929 85.6433 55.7581 85.1838 54.9233 84.7262C54.0914 84.2701 53.0436 83.8193 51.8242 83.6572C51.2174 83.5791 50.5725 83.5757 49.9281 83.6953C49.2876 83.812 48.648 84.0628 48.0788 84.4485C47.5105 84.8328 47.0478 85.3343 46.7495 85.8946C46.455 86.4269 46.3803 87.0817 46.3581 87.683C46.3451 88.2905 46.427 88.8691 46.5726 89.388C46.708 89.9131 46.9519 90.3562 47.1963 90.7424C47.4609 91.1151 47.7433 91.4276 48.0325 91.6562C48.3106 91.9021 48.5926 92.0583 48.8172 92.201C49.0447 92.338 49.2403 92.4122 49.3628 92.4898C49.4871 92.5612 49.5507 92.6114 49.543 92.6364Z" fill="black"/>
<path d="M47.6255 107.707C47.6183 107.732 47.5402 107.73 47.3961 107.704C47.2544 107.672 47.0356 107.64 46.7748 107.537C46.5165 107.429 46.1936 107.3 45.862 107.064C45.5207 106.846 45.1752 106.527 44.8489 106.128C44.5433 105.717 44.2396 105.226 44.0589 104.646C43.8671 104.072 43.7519 103.429 43.7461 102.749C43.7543 102.076 43.8073 101.337 44.1775 100.623C44.5283 99.9402 45.0768 99.3428 45.7381 98.8954C46.3999 98.4469 47.1431 98.1629 47.881 98.039C48.6174 97.9136 49.3409 97.9353 50.0065 98.0409C51.343 98.2594 52.4434 98.8028 53.2772 99.339C54.1158 99.879 54.713 100.414 55.1082 100.795C55.5011 101.18 55.6895 101.421 55.6563 101.459C55.6206 101.499 55.3661 101.332 54.9217 101.02C54.4754 100.714 53.8406 100.255 53.0059 99.7965C52.174 99.3404 51.1261 98.8896 49.9067 98.7276C49.2999 98.6494 48.655 98.6461 48.0106 98.7656C47.3701 98.8823 46.73 99.1331 46.1613 99.5188C45.593 99.9031 45.1303 100.405 44.832 100.965C44.5375 101.497 44.4628 102.152 44.4406 102.753C44.4276 103.361 44.5095 103.94 44.6551 104.458C44.7905 104.983 45.0344 105.427 45.2788 105.813C45.5434 106.185 45.8258 106.498 46.115 106.726C46.3931 106.972 46.6751 107.129 46.8997 107.271C47.1272 107.408 47.3228 107.483 47.4453 107.56C47.5696 107.632 47.6328 107.682 47.6255 107.707Z" fill="black"/>
<path d="M45.7076 122.785C45.7003 122.81 45.6223 122.809 45.4782 122.782C45.3364 122.75 45.1176 122.718 44.8569 122.615C44.5985 122.507 44.2756 122.378 43.944 122.142C43.6028 121.924 43.2572 121.606 42.9309 121.206C42.6253 120.795 42.3217 120.304 42.1409 119.724C41.9496 119.15 41.8339 118.508 41.8281 117.828C41.8358 117.155 41.8893 116.415 42.2595 115.701C42.6104 115.019 43.1589 114.421 43.8201 113.974C44.4819 113.525 45.2251 113.241 45.963 113.117C46.7 112.992 47.4229 113.013 48.0885 113.119C49.4251 113.338 50.5254 113.881 51.3592 114.417C52.1979 114.957 52.7946 115.492 53.1903 115.873C53.5831 116.258 53.7715 116.499 53.7383 116.537C53.7026 116.577 53.4481 116.41 53.0038 116.099C52.5574 115.792 51.9227 115.332 51.0874 114.875C50.2555 114.419 49.2077 113.968 47.9883 113.806C47.3815 113.728 46.7366 113.725 46.0922 113.844C45.4516 113.961 44.8121 114.212 44.2428 114.597C43.6746 114.981 43.2119 115.483 42.9135 116.043C42.6191 116.575 42.5443 117.23 42.5222 117.832C42.5092 118.439 42.5911 119.018 42.7367 119.537C42.8721 120.062 43.116 120.505 43.3603 120.891C43.6245 121.264 43.9074 121.576 44.1966 121.805C44.4747 122.051 44.7566 122.207 44.9812 122.35C45.2087 122.487 45.4044 122.561 45.5268 122.638C45.6517 122.71 45.7148 122.76 45.7076 122.785Z" fill="black"/>
<path d="M43.793 137.863C43.7858 137.888 43.7077 137.887 43.5636 137.86C43.4219 137.828 43.2031 137.796 42.9428 137.693C42.6845 137.585 42.3615 137.456 42.0299 137.22C41.6887 137.003 41.3431 136.684 41.0168 136.284C40.7113 135.873 40.4076 135.382 40.2269 134.802C40.0355 134.228 39.9198 133.586 39.9141 132.906C39.9223 132.233 39.9753 131.493 40.3454 130.779C40.6963 130.096 41.2448 129.499 41.9061 129.052C42.5678 128.603 43.311 128.319 44.0489 128.195C44.7859 128.07 45.5089 128.092 46.1745 128.197C47.511 128.416 48.6114 128.959 49.4452 129.495C50.2838 130.035 50.881 130.57 51.2762 130.951C51.669 131.336 51.8575 131.577 51.8237 131.615C51.7881 131.655 51.5336 131.488 51.0892 131.177C50.6429 130.87 50.0081 130.411 49.1733 129.953C48.3414 129.497 47.2936 129.046 46.0742 128.884C45.4674 128.806 44.8225 128.802 44.1781 128.922C43.5376 129.039 42.8975 129.289 42.3288 129.675C41.7605 130.059 41.2978 130.561 40.9995 131.121C40.705 131.653 40.6303 132.308 40.6081 132.91C40.5951 133.517 40.677 134.096 40.8231 134.615C40.9585 135.14 41.2024 135.583 41.4467 135.969C41.7114 136.342 41.9938 136.654 42.283 136.883C42.5611 137.129 42.843 137.285 43.0676 137.428C43.2951 137.565 43.4908 137.639 43.6132 137.716C43.7371 137.788 43.8003 137.838 43.793 137.863Z" fill="black"/>
</g>
<path d="M161.505 32.9489L160.621 39.8984L172.253 41.3789L173.137 34.4293L161.505 32.9489Z" fill="#FF9446"/>
<path d="M89.9015 43.6354C89.8928 43.7044 87.4125 43.4454 84.363 43.0573C81.3121 42.6691 78.8468 42.2988 78.8555 42.2299C78.8642 42.1609 81.3439 42.4198 84.3949 42.808C87.4443 43.1966 89.9101 43.567 89.9015 43.6354Z" fill="#263238"/>
<path d="M19.9345 119.35C19.9345 119.35 78.9146 61.0065 85.6223 51.7626L81.5853 48.0469L15.0742 114.221L19.9345 119.35Z" fill="#E0E0E0"/>
<path d="M1.95529 131.66C4.60954 131.711 11.7799 130.686 21.8803 120.264L30.793 112.218L23.9735 105.655C23.9735 105.655 37.5653 93.0585 36.9151 92.3694C36.2649 91.6804 29.0434 98.3866 23.3349 103.329C18.1416 107.825 0.814931 123.68 0.413444 129.975C0.356088 130.873 1.0564 131.644 1.95529 131.66Z" fill="#FF9446"/>
<path opacity="0.2" d="M36.9141 92.3694C36.2639 91.6808 29.0424 98.3865 23.3339 103.329C22.8842 103.718 22.3381 104.198 21.725 104.745L28.4968 111.236L19.601 119.299C10.4545 128.777 3.70485 130.51 0.550781 130.715C0.790806 131.258 1.32002 131.648 1.9543 131.66C4.60855 131.711 11.7789 130.686 21.8793 120.264L30.792 112.218L23.973 105.654C23.973 105.654 37.5643 93.0584 36.9141 92.3694Z" fill="black"/>
<path d="M31.7375 104.014L78.2228 57.2725L76.2544 55.4609L29.8477 102.019L31.7375 104.014Z" fill="#263238"/>
<path d="M85.5836 51.8231C85.5836 51.8231 89.9928 44.8729 88.7613 44.5084C87.5299 44.1439 81.589 48.0462 81.589 48.0462L82.7245 49.2203L76 55.7187L78.2253 57.2723L84.3657 50.7835L85.5836 51.8231Z" fill="#455A64"/>
</svg>
