<svg width="180" height="180" viewBox="0 0 180 180" fill="none" xmlns="http://www.w3.org/2000/svg">
<path d="M19.6074 99.5725C19.6074 95.0048 20.8579 92.6271 23.2356 90.8125L96.3196 120.972C92.6279 132.235 95.7036 142.396 99.3856 145.249L24.7383 111.148C22.6211 109.491 19.6074 105.392 19.6074 99.5725Z" fill="white"/>
<path fill-rule="evenodd" clip-rule="evenodd" d="M21.5293 88.5767C22.3249 87.9695 23.3833 87.8309 24.3084 88.2127L97.3924 118.372C98.7531 118.933 99.4506 120.449 98.9921 121.848C97.2948 127.026 97.168 131.911 97.8563 135.77C98.5716 139.781 100.068 142.22 101.108 143.026C102.237 143.901 102.531 145.483 101.792 146.705C101.053 147.927 99.5158 148.401 98.2169 147.808L23.5696 113.706C23.3685 113.614 23.179 113.499 23.0049 113.363C20.2937 111.241 16.7949 106.361 16.7949 99.5725C16.7949 97.047 17.1382 94.8932 17.9537 93.0316C18.7877 91.1276 20.0321 89.7193 21.5293 88.5767ZM24.7383 111.148C22.6211 109.491 19.6074 105.392 19.6074 99.5725C19.6074 95.0048 20.8579 92.6271 23.2356 90.8125L96.3196 120.972C93.7538 128.8 94.457 136.095 96.3607 140.775C97.1961 142.829 98.2626 144.379 99.3855 145.249L24.7383 111.148Z" fill="black"/>
<path d="M160.392 62.0883L89.6989 34.75L22.8721 91.0834L99.6401 123.392L160.392 62.0883Z" fill="#FF9446"/>
<path fill-rule="evenodd" clip-rule="evenodd" d="M87.8863 32.5997C88.6716 31.9376 89.7554 31.7564 90.7134 32.1269L161.406 59.4651C162.291 59.8074 162.944 60.5728 163.142 61.5007C163.341 62.4287 163.058 63.394 162.39 64.068L101.638 125.372C100.83 126.187 99.6073 126.43 98.5492 125.985L21.7811 93.6757C20.8788 93.296 20.2389 92.4744 20.0916 91.5066C19.9444 90.5388 20.3109 89.564 21.0594 88.933L87.8863 32.5997ZM89.699 34.75L160.392 62.0883L99.6402 123.392L22.8721 91.0834L89.699 34.75Z" fill="black"/>
<path d="M119.972 68.506L89.0614 56.3672L83.1279 61.4582L113.777 74.2938L119.972 68.506Z" fill="white"/>
<path d="M160.33 83.0549C153.572 77.5487 154.824 68.7261 160.017 62.2188L96.8198 121.912C92.9407 131.235 96.0886 140.249 99.4484 145.219L160.33 83.0549Z" fill="white"/>
<path fill-rule="evenodd" clip-rule="evenodd" d="M161.921 60.1489C163.008 61.1488 163.136 62.8189 162.215 63.9731C159.912 66.8592 158.597 70.1243 158.503 73.1012C158.412 75.983 159.446 78.7066 162.106 80.8746C162.719 81.3739 163.094 82.1081 163.138 82.8973C163.182 83.6866 162.892 84.4581 162.339 85.0228L101.458 147.187C100.867 147.791 100.036 148.096 99.1946 148.02C98.3534 147.944 97.591 147.494 97.118 146.794C93.4245 141.33 89.8637 131.308 94.2229 120.831C94.3746 120.467 94.6014 120.138 94.8884 119.867L158.086 60.1741C159.159 59.1601 160.834 59.1491 161.921 60.1489ZM160.017 62.2188L96.8196 121.912C93.5247 129.831 95.2996 137.527 97.9679 142.711C98.441 143.63 98.9422 144.471 99.4482 145.219L160.33 83.0549C159.636 82.4896 159.027 81.8894 158.497 81.2602C155.689 77.9223 155.133 73.772 156.172 69.7194C156.844 67.0959 158.186 64.5134 160.017 62.2188Z" fill="black"/>
<path fill-rule="evenodd" clip-rule="evenodd" d="M156.397 82.3266C156.937 82.8846 156.923 83.7749 156.365 84.3151L113.316 125.987C112.758 126.528 111.868 126.513 111.327 125.955C110.787 125.397 110.802 124.507 111.36 123.967L154.409 82.2943C154.967 81.7541 155.857 81.7686 156.397 82.3266Z" fill="black"/>
<path fill-rule="evenodd" clip-rule="evenodd" d="M153.915 78.8482C154.443 79.4175 154.41 80.3072 153.841 80.8355L126.059 106.615C125.49 107.143 124.6 107.11 124.072 106.541C123.543 105.971 123.577 105.081 124.146 104.553L151.928 78.7739C152.497 78.2456 153.387 78.2789 153.915 78.8482Z" fill="black"/>
<path fill-rule="evenodd" clip-rule="evenodd" d="M34.8217 107.39C35.1259 106.676 35.9517 106.343 36.6663 106.647L63.4578 118.05C64.1725 118.354 64.5052 119.18 64.201 119.895C63.8969 120.609 63.071 120.942 62.3564 120.638L35.5649 109.235C34.8503 108.931 34.5175 108.105 34.8217 107.39Z" fill="black"/>
</svg>
