<svg width="522" height="680" viewBox="0 0 522 680" fill="none" xmlns="http://www.w3.org/2000/svg">
<path d="M347.906 155.296L434.88 105.081L521.856 155.296L434.88 205.512L347.906 155.296Z" fill="#F5F9FF"/>
<path d="M434.88 205.511L347.906 155.296V679.999H434.88V205.511Z" fill="url(#paint0_linear_5876_95267)"/>
<path d="M434.883 205.511L521.859 155.296V679.999H434.883V205.511Z" fill="url(#paint1_linear_5876_95267)"/>
<path d="M231.934 245.684L318.909 195.469L405.885 245.684L318.909 295.899L231.934 245.684Z" fill="#F5F9FF"/>
<path d="M318.909 295.399L231.934 245.184L231.934 680H318.909V295.399Z" fill="url(#paint2_linear_5876_95267)"/>
<path d="M318.91 295.899L405.886 245.684V680H318.91V295.899Z" fill="url(#paint3_linear_5876_95267)"/>
<path d="M115.965 336.073L202.941 285.856L289.917 336.073L202.941 386.289L115.965 336.073Z" fill="#F5F9FF"/>
<path d="M202.941 386.29L115.965 336.074L115.965 680.001H202.941V386.29Z" fill="url(#paint4_linear_5876_95267)"/>
<path d="M202.941 386.29L289.917 336.074V680.001H202.941V386.29Z" fill="url(#paint5_linear_5876_95267)"/>
<path d="M0 426.711L86.9759 376.496L173.952 426.711L86.9759 476.927L0 426.711Z" fill="#F5F9FF"/>
<path d="M86.9759 476.926L0 426.711V679.999H86.9759V476.926Z" fill="url(#paint6_linear_5876_95267)"/>
<path d="M86.9766 476.926L173.952 426.711V680.499H86.9766V476.926Z" fill="url(#paint7_linear_5876_95267)"/>
<path d="M443.452 150.345C438.747 147.61 431.095 147.61 426.357 150.345C421.622 153.079 421.597 157.513 426.3 160.246C431.006 162.981 438.66 162.981 443.395 160.246C448.134 157.513 448.159 153.079 443.452 150.345Z" fill="#E3EBF6"/>
<path d="M486.818 104.83C486.813 104.682 486.802 104.533 486.797 104.384C486.786 104.069 486.769 103.751 486.752 103.435C486.734 103.063 486.724 102.693 486.7 102.319C486.682 102.035 486.653 101.747 486.632 101.462C486.607 101.125 486.581 100.791 486.551 100.454C486.533 100.235 486.519 100.017 486.499 99.7976C486.454 99.3204 486.394 98.8398 486.339 98.3592C486.307 98.0829 486.28 97.8066 486.247 97.5303C486.235 97.4382 486.228 97.3478 486.216 97.2557C486.106 96.39 485.982 95.5209 485.845 94.6485C485.841 94.6284 485.838 94.61 485.835 94.5899C485.814 94.4626 485.789 94.3337 485.768 94.2064C485.649 93.4814 485.528 92.7546 485.391 92.0262C485.366 91.8939 485.336 91.7633 485.31 91.631C485.244 91.2844 485.17 90.9361 485.099 90.5878C485.012 90.1641 484.934 89.7422 484.842 89.3185C484.79 89.0824 484.729 88.8463 484.676 88.6102C484.59 88.2301 484.502 87.8516 484.411 87.4715C484.343 87.1802 484.281 86.8905 484.209 86.5991C484.122 86.2475 484.023 85.8941 483.931 85.5425C483.832 85.164 483.735 84.7873 483.633 84.4089C483.582 84.2213 483.537 84.0337 483.485 83.8462C483.346 83.3438 483.194 82.8432 483.047 82.3408C482.953 82.0193 482.862 81.6978 482.765 81.3763C482.738 81.2859 482.713 81.1954 482.687 81.1033C482.412 80.2075 482.126 79.3133 481.826 78.4191C481.822 78.4074 481.817 78.3974 481.814 78.3856C481.786 78.3019 481.756 78.2182 481.727 78.1361C481.461 77.3474 481.188 76.5604 480.903 75.7734C480.858 75.6478 480.808 75.5239 480.763 75.4C480.654 75.1019 480.538 74.8038 480.426 74.5041C480.267 74.0804 480.113 73.6551 479.947 73.2315C479.842 72.9602 479.728 72.6906 479.62 72.4193C479.49 72.0895 479.358 71.7596 479.222 71.4297C479.125 71.1902 479.031 70.9491 478.932 70.7097C478.733 70.2308 478.524 69.7535 478.318 69.2746C478.207 69.0184 478.1 68.7622 477.988 68.506C477.948 68.4156 477.911 68.3251 477.872 68.2364C477.502 67.3975 477.122 66.5619 476.732 65.7296C476.715 65.6945 476.697 65.6576 476.68 65.6225C476.568 65.3847 476.451 65.1503 476.337 64.9142C476.03 64.2728 475.724 63.6281 475.406 62.9902C475.355 62.8897 475.3 62.7909 475.25 62.6904C474.987 62.1663 474.714 61.6489 474.443 61.1298C474.225 60.7111 474.018 60.2908 473.795 59.8756C473.755 59.8002 473.709 59.7265 473.669 59.6512C472.948 58.3049 472.197 56.9736 471.427 55.6541C471.362 55.5419 471.302 55.4247 471.236 55.3125C471.161 55.1852 471.075 55.063 471 54.9357C469.902 53.0854 468.761 51.2619 467.572 49.4735C467.509 49.3764 467.452 49.2742 467.386 49.1788C467.276 49.0147 467.157 48.8589 467.047 48.6948C466.089 47.2748 465.111 45.8699 464.099 44.4968L464.098 44.4952C464.088 44.4818 464.078 44.47 464.068 44.4566C463.354 43.4888 462.626 42.536 461.887 41.5949C461.854 41.553 461.824 41.5095 461.79 41.4676C461.259 40.7928 460.717 40.1297 460.174 39.4699C460.05 39.3192 459.932 39.1652 459.806 39.0161C459.799 39.0094 459.794 39.0011 459.788 38.9944C459.128 38.2007 458.458 37.4187 457.781 36.6467C457.748 36.6082 457.713 36.5714 457.678 36.5328C457.475 36.3034 457.267 36.0807 457.063 35.8513C456.631 35.3691 456.201 34.8818 455.762 34.4096C455.68 34.3208 455.596 34.2388 455.514 34.15C455.218 33.8335 454.918 33.5237 454.618 33.2123C454.29 32.869 453.967 32.5207 453.637 32.1825C453.515 32.0585 453.389 31.9397 453.267 31.8157C452.944 31.4892 452.616 31.1711 452.289 30.8495C452.008 30.5733 451.731 30.2903 451.449 30.0173C451.289 29.8649 451.125 29.7193 450.965 29.5669C450.613 29.2336 450.26 28.9071 449.905 28.5823C449.658 28.3545 449.416 28.1201 449.166 27.8957C448.974 27.7216 448.774 27.5575 448.58 27.385C448.225 27.0702 447.868 26.7587 447.51 26.4506C447.292 26.2631 447.078 26.0671 446.859 25.8813C446.623 25.682 446.383 25.4961 446.147 25.3002C445.799 25.0122 445.449 24.7242 445.097 24.4429C444.915 24.2955 444.734 24.1414 444.551 23.9958C444.253 23.7613 443.952 23.5403 443.652 23.3092C443.327 23.0597 443.002 22.8085 442.676 22.5641C442.542 22.4636 442.409 22.3564 442.274 22.2576C441.872 21.9612 441.463 21.6799 441.056 21.3919C440.782 21.1977 440.509 20.9967 440.233 20.8058C440.161 20.7556 440.09 20.702 440.017 20.6534C439.286 20.1528 438.551 19.6672 437.813 19.1966C437.806 19.1933 437.801 19.1899 437.794 19.1849C437.739 19.1497 437.684 19.1179 437.629 19.0827C436.961 18.6608 436.291 18.2472 435.618 17.8503C435.449 17.7498 435.278 17.651 435.107 17.5539C434.556 17.2358 434.005 16.9277 433.458 16.6313C433.25 16.5191 433.044 16.4186 432.836 16.3098C432.552 16.1607 432.269 16.0134 431.987 15.8694C431.77 15.7588 431.549 15.6366 431.333 15.5294C430.983 15.357 430.636 15.2012 430.288 15.0371C430.036 14.9182 429.787 14.796 429.537 14.6838C429.435 14.6369 429.333 14.585 429.231 14.5398C428.534 14.2283 427.843 13.9353 427.155 13.659C427.15 13.6557 427.143 13.6557 427.138 13.6523C426.441 13.3743 425.748 13.1131 425.06 12.8703C424.969 12.8385 424.881 12.8134 424.79 12.7816C424.539 12.6945 424.291 12.6191 424.04 12.5371C423.687 12.4215 423.332 12.296 422.98 12.1905C422.804 12.1369 422.632 12.0967 422.456 12.0465C422.15 11.9577 421.846 11.8756 421.543 11.7953C421.309 11.7333 421.069 11.6596 420.837 11.601C420.589 11.5391 420.348 11.4938 420.102 11.4386C419.799 11.3683 419.495 11.2996 419.192 11.236C419.032 11.2025 418.868 11.159 418.708 11.1288C418.42 11.0736 418.139 11.0367 417.854 10.9882C417.504 10.9279 417.153 10.8659 416.806 10.8157C416.684 10.7973 416.558 10.7705 416.436 10.7554C416.145 10.7169 415.862 10.6985 415.574 10.6683C415.2 10.6265 414.825 10.5829 414.457 10.5544C414.348 10.5461 414.236 10.5277 414.129 10.521C413.874 10.5042 413.628 10.5076 413.377 10.4958C412.935 10.4758 412.494 10.4557 412.061 10.4523C411.938 10.4506 411.813 10.4389 411.691 10.4406C411.5 10.4406 411.315 10.4624 411.126 10.4674C410.575 10.4791 410.031 10.5042 409.492 10.5444C409.329 10.5561 409.16 10.5528 409 10.5678C408.879 10.5796 408.765 10.6064 408.645 10.6198C407.821 10.7052 407.009 10.819 406.213 10.9731C406.146 10.9865 406.074 10.9898 406.007 11.0032C405.989 11.0066 405.97 11.0133 405.952 11.0166C405.79 11.0501 405.632 11.0953 405.47 11.1305C404.974 11.2393 404.482 11.3549 404 11.4922C403.765 11.5592 403.536 11.6379 403.305 11.7099C402.996 11.807 402.682 11.8941 402.379 12.0012C402.302 12.028 402.23 12.0649 402.152 12.0933C401.689 12.2625 401.235 12.455 400.783 12.6509C400.56 12.7481 400.334 12.8335 400.115 12.9356C399.453 13.2454 398.803 13.5786 398.174 13.9453L385.473 21.3266C386.102 20.9599 386.752 20.6266 387.415 20.3169C387.631 20.2147 387.856 20.131 388.075 20.0355C388.529 19.8396 388.984 19.6454 389.451 19.4746C389.828 19.3373 390.215 19.2134 390.602 19.0928C390.834 19.0191 391.062 18.9404 391.298 18.8734C391.781 18.7378 392.273 18.6223 392.767 18.5117C392.929 18.4766 393.085 18.4297 393.249 18.3979C393.336 18.3811 393.425 18.3711 393.512 18.3543C394.306 18.202 395.118 18.0881 395.942 18.0027C396.223 17.9725 396.506 17.9491 396.791 17.9273C397.328 17.8871 397.874 17.862 398.423 17.8503C398.735 17.8436 399.043 17.8336 399.358 17.8369C399.791 17.8403 400.233 17.8603 400.674 17.8804C401.034 17.8972 401.392 17.9106 401.756 17.9391C402.124 17.9675 402.499 18.0127 402.873 18.0529C403.281 18.0981 403.69 18.1417 404.105 18.202C404.453 18.2522 404.805 18.3141 405.157 18.3761C405.599 18.4531 406.042 18.5302 406.49 18.6239C406.793 18.6859 407.097 18.7562 407.402 18.8265C407.879 18.9371 408.358 19.056 408.841 19.1849C409.145 19.267 409.45 19.349 409.756 19.4377C410.281 19.5884 410.808 19.7542 411.337 19.9284C411.588 20.0104 411.836 20.0875 412.087 20.1729C413.646 20.712 415.232 21.345 416.838 22.0751C417.084 22.1873 417.332 22.3079 417.578 22.4234C418.146 22.6913 418.715 22.9693 419.288 23.2607C419.569 23.403 419.849 23.5487 420.13 23.6977C420.885 24.0962 421.642 24.5031 422.404 24.9435C423.256 25.4358 424.1 25.9516 424.943 26.4824C424.991 26.5126 425.041 26.541 425.09 26.5728C425.909 27.0936 426.721 27.6378 427.53 28.1954C427.806 28.3863 428.081 28.5873 428.355 28.7832C428.896 29.1667 429.435 29.5535 429.971 29.952C430.298 30.1965 430.621 30.446 430.946 30.6955C431.431 31.0689 431.915 31.4457 432.396 31.8308C432.748 32.1121 433.096 32.3985 433.444 32.6865C433.903 33.0649 434.358 33.4501 434.812 33.8402C435.169 34.1467 435.524 34.4565 435.877 34.7696C436.323 35.1631 436.763 35.565 437.203 35.9702C437.557 36.2951 437.91 36.6216 438.262 36.9548C438.709 37.3768 439.151 37.8071 439.591 38.2408C439.916 38.559 440.241 38.8772 440.562 39.202C441.02 39.6625 441.47 40.1314 441.921 40.6036C442.219 40.9151 442.518 41.2232 442.813 41.538C443.332 42.0939 443.843 42.6599 444.354 43.2292C444.561 43.462 444.772 43.688 444.978 43.9225C445.697 44.738 446.407 45.5652 447.105 46.4058C447.222 46.5464 447.334 46.6921 447.451 46.8344C448.036 47.5444 448.615 48.2578 449.185 48.9845C449.933 49.939 450.672 50.9035 451.393 51.8848C452.405 53.2579 453.381 54.6628 454.34 56.0828C454.516 56.344 454.694 56.6019 454.868 56.8648C456.055 58.6532 457.199 60.4767 458.296 62.3287C458.436 62.5665 458.58 62.8026 458.719 63.0404C459.491 64.3599 460.241 65.6945 460.963 67.0408C461.226 67.5314 461.48 68.0254 461.737 68.5194C462.006 69.0385 462.281 69.5576 462.544 70.08C462.912 70.8118 463.269 71.5486 463.621 72.287C463.736 72.5315 463.858 72.7727 463.974 73.0171C464.424 73.9733 464.86 74.9345 465.282 75.899C465.392 76.1518 465.499 76.4063 465.608 76.6609C465.918 77.3792 466.221 78.0993 466.516 78.8227C466.65 79.1509 466.782 79.4808 466.913 79.8106C467.189 80.5039 467.455 81.1988 467.718 81.8954C467.83 82.1935 467.946 82.4932 468.055 82.7913C468.388 83.7022 468.709 84.6148 469.019 85.5274C469.048 85.6112 469.078 85.6949 469.106 85.7769C469.439 86.7732 469.756 87.7696 470.059 88.7676C470.158 89.0891 470.247 89.4123 470.342 89.7338C470.543 90.4203 470.741 91.1086 470.928 91.7951C471.032 92.1769 471.129 92.5587 471.23 92.9388C471.395 93.5802 471.556 94.2198 471.708 94.8595C471.799 95.2396 471.888 95.6197 471.975 95.9981C472.124 96.6579 472.263 97.3177 472.398 97.9774C472.469 98.3257 472.544 98.6723 472.611 99.0206C472.777 99.8813 472.929 100.739 473.068 101.596C473.088 101.723 473.113 101.852 473.135 101.98C473.291 102.962 473.426 103.942 473.547 104.92C473.582 105.196 473.607 105.473 473.639 105.749C473.718 106.449 473.792 107.147 473.852 107.844C473.882 108.18 473.907 108.517 473.932 108.852C473.981 109.511 474.021 110.17 474.053 110.826C474.068 111.142 474.086 111.461 474.098 111.775C474.131 112.708 474.153 113.639 474.15 114.56C474.146 115.528 474.121 116.476 474.078 117.41C474.066 117.676 474.044 117.934 474.029 118.197C473.992 118.837 473.949 119.471 473.894 120.094C473.862 120.458 473.82 120.814 473.781 121.173C473.725 121.7 473.663 122.224 473.592 122.74C473.54 123.12 473.483 123.497 473.423 123.87C473.348 124.348 473.266 124.818 473.179 125.284C473.1 125.701 473.018 126.113 472.931 126.521C472.84 126.94 472.747 127.353 472.646 127.764C472.529 128.244 472.405 128.718 472.276 129.185C472.176 129.55 472.072 129.914 471.961 130.27C471.79 130.831 471.605 131.379 471.414 131.92C471.312 132.211 471.211 132.508 471.104 132.792C470.759 133.7 470.392 134.582 469.992 135.428C469.682 136.084 469.359 136.726 469.017 137.345C469.012 137.354 469.007 137.36 469.004 137.369C468.667 137.977 468.314 138.564 467.947 139.135C467.418 139.962 466.851 140.739 466.26 141.486C466.117 141.665 465.973 141.84 465.828 142.015C465.255 142.704 464.662 143.365 464.039 143.981C463.992 144.028 463.949 144.08 463.902 144.125C463.237 144.772 462.535 145.364 461.815 145.927C461.641 146.064 461.464 146.197 461.285 146.329C460.548 146.875 459.793 147.394 459.004 147.853L471.707 140.472C472.495 140.013 473.251 139.494 473.987 138.948C474.165 138.815 474.342 138.683 474.517 138.546C475.237 137.983 475.938 137.39 476.603 136.744C476.65 136.699 476.693 136.647 476.74 136.6C477.363 135.984 477.956 135.322 478.529 134.634C478.674 134.458 478.818 134.284 478.961 134.105C479.55 133.358 480.118 132.581 480.649 131.754C480.664 131.731 480.682 131.71 480.697 131.685C481.047 131.138 481.382 130.57 481.705 129.987C481.71 129.979 481.715 129.972 481.719 129.964C482.045 129.371 482.358 128.762 482.656 128.135C482.67 128.107 482.68 128.075 482.693 128.047C483.092 127.201 483.46 126.32 483.803 125.411C483.834 125.332 483.87 125.262 483.899 125.183C483.976 124.974 484.038 124.75 484.113 124.539C484.304 123.998 484.488 123.45 484.661 122.889C484.706 122.74 484.761 122.601 484.806 122.45C484.868 122.241 484.915 122.017 484.976 121.804C485.105 121.337 485.23 120.863 485.346 120.381C485.394 120.185 485.451 119.999 485.498 119.8C485.547 119.585 485.583 119.358 485.63 119.14C485.717 118.731 485.801 118.319 485.88 117.901C485.92 117.685 485.97 117.479 486.009 117.259C486.052 117.007 486.084 116.742 486.124 116.487C486.183 116.114 486.242 115.737 486.293 115.357C486.32 115.163 486.355 114.977 486.379 114.781C486.419 114.458 486.446 114.12 486.481 113.79C486.519 113.431 486.56 113.076 486.593 112.711C486.607 112.566 486.627 112.427 486.638 112.281C486.679 111.801 486.7 111.305 486.729 110.814C486.744 110.551 486.766 110.293 486.777 110.027C486.781 109.962 486.787 109.9 486.789 109.835C486.824 109.012 486.844 108.175 486.848 107.326C486.848 107.276 486.848 107.227 486.849 107.177C486.851 106.394 486.841 105.613 486.818 104.83Z" fill="#0B1F33"/>
<path d="M459.019 147.818C479.256 136.056 479.2 98.1986 458.894 63.2606C438.589 28.3225 405.722 9.53423 385.486 21.2957C365.249 33.0572 365.305 70.9147 385.611 105.853C405.916 140.791 438.783 159.579 459.019 147.818Z" fill="#2554E7"/>
<path d="M422.23 122.24C404.349 111.916 389.846 86.5677 389.905 65.7384C389.963 44.9142 404.563 36.3691 422.444 46.6925C440.329 57.0192 454.832 82.368 454.774 103.191C454.713 124.02 440.115 132.565 422.23 122.24ZM422.481 33.3383C398.239 19.341 378.518 30.8851 378.438 59.119C378.357 87.358 397.947 121.597 422.191 135.594C446.438 149.593 466.159 138.051 466.239 109.81C466.32 81.5759 446.729 47.3372 422.481 33.3383Z" fill="#FFFEFF"/>
<path d="M422.304 93.4117C418.068 90.9653 414.638 84.9638 414.652 80.0307C414.665 75.0976 418.12 73.0765 422.355 75.5212C426.591 77.9677 430.027 83.9658 430.012 88.8989C430 93.8321 426.541 95.8565 422.304 93.4117ZM422.393 62.1603C411.835 56.0651 403.215 61.1104 403.18 73.4063C403.145 85.7023 411.708 100.669 422.266 106.764C432.829 112.863 441.444 107.814 441.479 95.5183C441.514 83.2223 432.956 68.2589 422.393 62.1603Z" fill="#FFFEFF"/>
<path d="M413.548 99.6653C414.616 98.0845 414.29 94.8544 412.556 91.5406C410.582 87.7662 407.461 85.1841 405.242 85.3516L418.988 84.3133C421.145 84.2212 422.423 86.4216 421.266 88.2401C421.281 88.2166 421.292 88.1865 421.306 88.1614C421.292 88.1882 421.282 88.2166 421.266 88.2401L413.548 99.6653Z" fill="#2252E7"/>
<path d="M404.518 94.4696C402.346 90.3185 402.385 86.2963 404.604 85.4875C406.824 84.6787 410.384 87.3881 412.556 91.5409C414.728 95.692 414.689 99.7142 412.469 100.523C410.25 101.332 406.69 98.6224 404.518 94.4696Z" fill="#FFFEFF"/>
<path d="M409.299 91.4902L406.121 94.8978C406.121 94.8978 408.902 98.282 411.086 100.583C411.58 100.665 412.054 100.675 412.471 100.523C413.548 100.131 414.102 98.972 414.147 97.4197L409.299 91.4902Z" fill="#E2F1FF"/>
<path d="M355.699 132.447C357.883 134.627 361.791 135.727 367.149 131.658C374.176 126.323 374.767 115.474 374.797 114.901L353.867 127.335C353.351 128.413 354.006 130.756 355.699 132.447Z" fill="#2252E7"/>
<path d="M346.912 118.262C348.161 120.853 350.459 122.872 351.793 123.046L372.274 111.141C371.648 110.824 359.757 104.819 351.636 108.115C345.437 110.63 345.301 114.922 346.912 118.262Z" fill="#2252E7"/>
<path d="M346.961 125.287L353.182 121.676C354.093 121.146 355.012 120.614 355.94 120.075L361.449 116.876C362.546 116.24 363.651 115.597 364.763 114.952L367.095 113.598C372.986 110.177 379.055 106.653 385.138 103.122L387.821 101.565C398.34 95.456 390.13 100.225 399.691 94.6723L400.813 94.0209C402.937 92.7885 405.016 91.5812 407.034 90.409C407.073 90.3872 407.113 90.3671 407.156 90.3521C407.26 90.3152 407.372 90.3018 407.491 90.3052C407.53 90.3069 407.573 90.3203 407.613 90.3253C407.696 90.337 407.776 90.3487 407.861 90.3772C407.873 90.3805 407.885 90.3805 407.896 90.3856C407.943 90.4023 407.992 90.4325 408.04 90.4542C408.104 90.4827 408.166 90.5078 408.23 90.5446C408.245 90.553 408.258 90.5564 408.272 90.5647C408.337 90.6032 408.404 90.6552 408.469 90.7004C408.508 90.7272 408.545 90.7489 408.583 90.7791C408.59 90.7858 408.598 90.7891 408.605 90.7942C408.717 90.8812 408.828 90.98 408.936 91.0872L408.938 91.0889C408.971 91.1207 409.002 91.1609 409.033 91.1944C409.122 91.2865 409.211 91.3769 409.295 91.4807C409.295 91.4807 409.298 91.4857 409.301 91.4891C409.315 91.5058 409.327 91.5226 409.34 91.5393C409.435 91.6599 409.527 91.7854 409.618 91.9177C409.651 91.968 409.683 92.0199 409.715 92.0718C409.759 92.1405 409.802 92.2041 409.844 92.2744C409.884 92.3431 409.923 92.4151 409.959 92.4854C410.02 92.5993 410.073 92.7131 410.124 92.8253C410.139 92.8588 410.149 92.8906 410.162 92.9225C410.191 92.9894 410.216 93.0547 410.239 93.12C410.276 93.2155 410.308 93.3093 410.338 93.403C410.358 93.4683 410.376 93.532 410.393 93.5956C410.403 93.6341 410.418 93.6743 410.427 93.7128C410.437 93.7564 410.44 93.7949 410.448 93.8384C410.465 93.9238 410.48 94.0075 410.492 94.0896C410.497 94.1231 410.507 94.1616 410.51 94.1951C410.514 94.2369 410.512 94.2738 410.514 94.314C410.517 94.3759 410.52 94.4362 410.52 94.4948C410.52 94.525 410.525 94.5568 410.524 94.5869C410.522 94.6288 410.514 94.6656 410.509 94.7058C410.504 94.7611 410.499 94.8146 410.489 94.8666C410.485 94.8883 410.485 94.9135 410.48 94.9335C410.474 94.9687 410.457 94.9938 410.447 95.0273C410.428 95.0876 410.41 95.1479 410.385 95.2015C410.376 95.2199 410.373 95.2433 410.363 95.2618C410.345 95.2986 410.318 95.3271 410.296 95.3589C410.279 95.3823 410.266 95.4074 410.247 95.4292C410.191 95.4978 410.125 95.5565 410.05 95.6L349.978 130.478L346.961 125.287Z" fill="#7EC8FF"/>
<path d="M347.051 128.4C346.284 126.935 346.297 125.515 347.081 125.23C347.865 124.944 349.121 125.902 349.888 127.367C350.654 128.832 350.641 130.252 349.857 130.537C349.074 130.821 347.818 129.865 347.051 128.4Z" fill="url(#paint8_linear_5876_95267)"/>
<path d="M349.857 130.536C350.641 130.25 350.654 128.832 349.888 127.367C349.121 125.901 347.865 124.945 347.081 125.23C346.297 125.516 346.284 126.934 347.051 128.4C347.818 129.865 349.074 130.821 349.857 130.536ZM347.18 128.333C346.619 127.261 346.47 126.179 346.806 125.638C346.888 125.506 346.997 125.416 347.131 125.367C347.836 125.111 349.039 126.057 349.759 127.435C350.32 128.507 350.47 129.589 350.134 130.129C350.052 130.26 349.943 130.352 349.809 130.401C349.104 130.655 347.9 129.709 347.18 128.333Z" fill="#FFFEFF"/>
<defs>
<linearGradient id="paint0_linear_5876_95267" x1="401.365" y1="179.751" x2="381.19" y2="661.059" gradientUnits="userSpaceOnUse">
<stop stop-color="#B5C7FF"/>
<stop offset="1" stop-color="#F4F8FF"/>
</linearGradient>
<linearGradient id="paint1_linear_5876_95267" x1="433.443" y1="94.8323" x2="483.554" y2="454.884" gradientUnits="userSpaceOnUse">
<stop stop-color="#D7E0FB"/>
<stop offset="0.42" stop-color="#E0E7FC"/>
<stop offset="0.7848" stop-color="#EEF2FF"/>
<stop offset="1" stop-color="#F4F8FF"/>
</linearGradient>
<linearGradient id="paint2_linear_5876_95267" x1="285.393" y1="265.449" x2="271.532" y2="664.524" gradientUnits="userSpaceOnUse">
<stop stop-color="#B5C7FF"/>
<stop offset="1" stop-color="#F4F8FF"/>
</linearGradient>
<linearGradient id="paint3_linear_5876_95267" x1="317.47" y1="195.636" x2="352.01" y2="495.458" gradientUnits="userSpaceOnUse">
<stop stop-color="#D7E0FB"/>
<stop offset="0.42" stop-color="#E0E7FC"/>
<stop offset="0.7848" stop-color="#EEF2FF"/>
<stop offset="1" stop-color="#F4F8FF"/>
</linearGradient>
<linearGradient id="paint4_linear_5876_95267" x1="169.425" y1="352.104" x2="160.748" y2="667.902" gradientUnits="userSpaceOnUse">
<stop stop-color="#B5C7FF"/>
<stop offset="1" stop-color="#F4F8FF"/>
</linearGradient>
<linearGradient id="paint5_linear_5876_95267" x1="201.502" y1="296.442" x2="223.267" y2="535.031" gradientUnits="userSpaceOnUse">
<stop stop-color="#D7E0FB"/>
<stop offset="0.42" stop-color="#E0E7FC"/>
<stop offset="0.7848" stop-color="#EEF2FF"/>
<stop offset="1" stop-color="#F4F8FF"/>
</linearGradient>
<linearGradient id="paint6_linear_5876_95267" x1="53.4597" y1="438.516" x2="48.7523" y2="671.169" gradientUnits="userSpaceOnUse">
<stop stop-color="#B5C7FF"/>
<stop offset="1" stop-color="#F4F8FF"/>
</linearGradient>
<linearGradient id="paint7_linear_5876_95267" x1="85.5368" y1="397.466" x2="97.4332" y2="574.188" gradientUnits="userSpaceOnUse">
<stop stop-color="#D7E0FB"/>
<stop offset="0.42" stop-color="#E0E7FC"/>
<stop offset="0.7848" stop-color="#EEF2FF"/>
<stop offset="1" stop-color="#F4F8FF"/>
</linearGradient>
<linearGradient id="paint8_linear_5876_95267" x1="353.568" y1="127.507" x2="346.519" y2="128.027" gradientUnits="userSpaceOnUse">
<stop offset="0.2157" stop-color="#005BC3"/>
<stop offset="0.4777" stop-color="#157ADB"/>
<stop offset="0.6028" stop-color="#208BE8"/>
<stop offset="0.9699" stop-color="#32A5FC"/>
</linearGradient>
</defs>
</svg>
