<svg width="205" height="192" viewBox="0 0 205 192" fill="none" xmlns="http://www.w3.org/2000/svg">
<path d="M131.803 156.477C131.794 156.031 131.83 156.097 131.695 156.097C131.724 156.226 131.76 156.353 131.803 156.477Z" fill="#FFE497"/>
<path d="M119.712 139.045C119.776 139.096 119.824 139.165 119.851 139.243C119.877 139.321 119.881 139.405 119.861 139.485C119.588 140.555 119.304 142.228 120.446 142.909C121.444 143.506 123.301 142.858 124.18 142.039C124.24 141.984 124.316 141.949 124.396 141.938C124.932 140.211 125.796 138.605 126.941 137.206C126.96 136.45 127.04 135.83 127.04 135.83C126.305 136.162 125.496 136.296 124.693 136.218C122.765 135.73 121.43 133.048 122.787 130.149C123.112 129.298 123.606 128.523 124.24 127.871C124.874 127.218 125.634 126.703 126.474 126.355C126.834 126.234 127.216 126.194 127.594 126.236C127.971 126.278 128.335 126.401 128.66 126.598C130.484 127.713 129.369 130.758 129.369 130.758C130.433 130.176 131.031 130.084 131.309 130.276L131.194 124.05C131.144 124.014 131.104 123.967 131.075 123.913C131.047 123.858 131.032 123.798 131.031 123.737C130.503 110.078 130.667 109.752 129.903 108.488C129.551 107.914 129.07 107.431 128.497 107.079C127.924 106.727 127.277 106.515 126.607 106.461C126.488 106.487 107.738 110.104 104.746 111.564L103.7 112.15C102.117 113.142 100.821 114.533 99.9442 116.184C99.0669 117.835 98.6385 119.689 98.7019 121.558V175.335C110.228 173.773 121.447 170.45 131.967 165.481L131.832 158.251C131.322 157.635 130.98 156.897 130.838 156.11L124.188 156.15C123.781 156.15 123.744 155.621 123.769 155.729C123.577 153.987 123.415 152.241 123.357 150.489C118.291 152.022 111.009 146.41 113.185 138.974C113.352 138.405 113.786 137.087 114.322 136.814C114.876 136.524 115.34 136.93 119.712 139.045Z" fill="white"/>
<path d="M131.309 130.269C131.026 130.076 130.428 130.168 129.369 130.75C131.208 125.728 125.662 123.992 122.787 130.141C121.432 133.04 122.763 135.723 124.693 136.211C125.496 136.289 126.305 136.155 127.04 135.823C127.04 135.823 126.96 136.444 126.941 137.199C126.92 138.012 126.941 139.747 127.749 139.883C128.964 140.086 131.293 138.868 131.293 137.954C130.925 136.259 130.417 134.597 129.774 132.986C131.046 132.854 131.934 130.691 131.309 130.269Z" fill="#E7E9EB"/>
<path d="M100.988 3.22036C99.4554 2.22611 97.6583 1.72007 95.833 1.76885C94.0078 1.81762 92.2401 2.41891 90.7625 3.4936C77.9909 12.8 68.7493 29.014 63.3481 44.1394C67.4322 45.5672 92.1357 53.192 129.234 43.4644C123.633 27.9286 114.943 11.7351 100.988 3.22036Z" fill="#2554E7"/>
<path d="M53.2736 119.438C53.0764 129.317 52.6797 155.74 57.2779 164.493C62.207 173.878 84.1544 178.997 97.8626 175.941V127.507C94.2593 127.87 71.8107 129.623 53.2736 119.438Z" fill="#2554E7"/>
<path d="M106.44 55.5808C106.47 55.6364 106.488 55.6977 106.493 55.7609C106.498 55.824 106.489 55.8875 106.468 55.947C106.446 56.0065 106.412 56.0607 106.368 56.1059C106.324 56.1512 106.27 56.1864 106.211 56.2094C92.6379 61.294 92.9375 81.4468 106.506 86.2085C106.575 86.2309 106.636 86.2717 106.684 86.3265C106.732 86.3813 106.764 86.448 106.776 86.5196C116.837 89.8406 127.078 81.9836 127.078 70.9914C127.078 59.822 116.538 51.9769 106.44 55.5808ZM118.959 60.6244C118.833 60.8662 118.633 61.0618 118.39 61.1834C118.146 61.3049 117.87 61.3462 117.601 61.3014C117.332 61.2565 117.085 61.1277 116.893 60.9335C116.702 60.7393 116.576 60.4894 116.535 60.2196C116.494 59.9498 116.538 59.6739 116.663 59.431C116.787 59.1882 116.985 58.9909 117.228 58.8674C117.471 58.7438 117.747 58.7003 118.016 58.7429C118.285 58.7855 118.533 58.9122 118.726 59.1049C118.953 59.2796 119.103 59.535 119.147 59.8179C119.19 60.1009 119.123 60.3897 118.959 60.6244ZM121.995 80.2135C121.477 80.8863 120.809 79.7145 120.967 79.5147C124.036 75.5273 124.478 67.3107 120.66 62.0965C120.337 61.6591 121.513 61.0057 121.83 61.4377C125.62 66.6184 126.059 74.9193 121.995 80.2135Z" fill="#E7E9EB"/>
<path d="M200.778 129.297C198.483 127.429 195.554 126.528 192.609 126.782C191.439 123.921 189.524 121.428 187.064 119.562C184.604 117.696 181.689 116.525 178.624 116.173C178.315 114.131 177.435 112.218 176.084 110.657C174.733 109.096 172.968 107.952 170.993 107.357C171.256 91.6078 149.823 87.0653 143.48 101.165C143.264 101.654 143.982 102.082 144.204 101.589C150.366 87.8861 170.72 92.8336 170.154 107.667C170.154 107.759 170.185 107.848 170.24 107.921C170.295 107.994 170.373 108.047 170.461 108.072C172.387 108.6 174.116 109.686 175.429 111.194C176.742 112.701 177.581 114.564 177.842 116.548C177.847 116.658 177.892 116.763 177.97 116.841C178.048 116.918 178.152 116.964 178.262 116.968C181.273 117.265 184.144 118.39 186.557 120.219C188.97 122.047 190.832 124.508 191.937 127.33C191.963 127.418 192.017 127.495 192.09 127.551C192.162 127.606 192.251 127.637 192.343 127.639C203.396 126.423 208.42 140.615 199.558 146.71C197.417 148.175 194.816 148.806 192.243 148.483C191.704 148.417 191.714 149.257 192.243 149.322C203.505 150.695 209.457 136.378 200.778 129.297Z" fill="#9AA3AD"/>
<path d="M182.993 151.467C183.735 150.305 184.135 148.957 184.148 147.577C184.16 146.197 183.783 144.841 183.061 143.666C182.339 142.491 181.301 141.544 180.066 140.933C178.831 140.322 177.449 140.073 176.079 140.214C177.894 130.811 170.051 125.644 164.584 128.464C164.104 128.712 164.529 129.436 165.007 129.19C169.998 126.613 177.25 131.707 175.154 140.578C175.138 140.649 175.14 140.723 175.16 140.793C175.181 140.863 175.218 140.927 175.27 140.979C175.321 141.03 175.385 141.068 175.455 141.089C175.525 141.109 175.598 141.111 175.67 141.095C176.991 140.869 178.349 141.056 179.561 141.63C180.772 142.204 181.778 143.138 182.442 144.304C183.106 145.471 183.396 146.813 183.272 148.15C183.148 149.487 182.617 150.754 181.751 151.778C181.495 152.077 181.731 152.615 182.158 152.48C183.005 152.204 183.913 152.18 184.774 152.411C185.634 152.641 186.409 153.117 187.005 153.779C187.601 154.442 187.992 155.264 188.132 156.145C188.271 157.027 188.152 157.929 187.79 158.744C187.575 159.234 188.292 159.662 188.513 159.17C188.925 158.295 189.097 157.326 189.009 156.362C188.921 155.399 188.578 154.477 188.015 153.691C187.452 152.905 186.689 152.285 185.806 151.894C184.923 151.503 183.952 151.356 182.993 151.467Z" fill="#9AA3AD"/>
<path d="M177.327 143.839C177.216 143.839 177.109 143.883 177.031 143.962C176.952 144.041 176.908 144.148 176.908 144.259C176.908 144.371 176.952 144.478 177.031 144.556C177.109 144.635 177.216 144.679 177.327 144.679C179.052 144.541 179.559 146.492 179.774 148.199C179.779 148.307 179.826 148.409 179.904 148.483C179.982 148.558 180.086 148.599 180.194 148.599C180.301 148.599 180.405 148.558 180.483 148.483C180.561 148.409 180.608 148.307 180.613 148.199C180.567 147.128 180.266 146.084 179.735 145.153C179.482 144.743 179.127 144.407 178.704 144.177C178.282 143.947 177.808 143.83 177.327 143.839ZM200.325 139.451C200.752 137.792 200.534 136.033 199.715 134.529C198.895 133.025 197.537 131.889 195.914 131.351C195.808 131.327 195.697 131.344 195.604 131.4C195.511 131.455 195.443 131.545 195.414 131.649C195.385 131.754 195.398 131.866 195.449 131.961C195.5 132.057 195.586 132.129 195.689 132.162C197.101 132.637 198.28 133.629 198.99 134.94C199.7 136.251 199.888 137.782 199.517 139.227C199.487 139.334 199.501 139.449 199.556 139.546C199.611 139.643 199.702 139.714 199.809 139.744C199.916 139.774 200.031 139.76 200.128 139.705C200.225 139.65 200.296 139.559 200.325 139.451ZM157.865 97.6131C157.326 97.639 157.326 98.4771 157.865 98.4533C159.184 98.423 160.468 98.8833 161.468 99.7456C162.468 100.608 163.114 101.811 163.28 103.122C163.329 103.656 164.167 103.662 164.118 103.122C163.948 101.588 163.213 100.173 162.057 99.154C160.9 98.1349 159.405 97.5854 157.865 97.6131ZM146.314 87.1522C148.396 83.9847 151.304 81.4481 154.721 79.8168C155.208 79.5846 154.784 78.86 154.299 79.0922C150.753 80.7936 147.74 83.434 145.584 86.7278C145.289 87.1814 146.018 87.6026 146.314 87.1522ZM152.583 86.879C154.284 85.3968 156.27 84.2801 158.419 83.5979C158.932 83.4359 158.713 82.6259 158.197 82.7879C155.911 83.5135 153.798 84.7028 151.99 86.2817C151.582 86.6403 152.176 87.2332 152.583 86.879ZM49.9529 111.08C47.309 110.278 44.5028 110.177 41.8084 110.787C39.114 111.397 36.6236 112.697 34.5805 114.56C32.5375 116.422 31.0117 118.785 30.1523 121.415C29.2929 124.045 29.1292 126.854 29.6773 129.567C27.7195 130.565 26.0664 132.074 24.8916 133.933C6.00744 128.108 -8.06728 151.27 5.40815 165.462C4.35867 167.344 3.80242 169.462 3.79135 171.618C3.79135 171.729 3.83553 171.836 3.91416 171.915C3.99279 171.994 4.09944 172.038 4.21064 172.038C4.32184 172.038 4.42849 171.994 4.50712 171.915C4.58575 171.836 4.62993 171.729 4.62993 171.618C4.63788 169.504 5.20826 167.43 6.28229 165.611C6.32701 165.53 6.34475 165.437 6.33292 165.346C6.32109 165.254 6.2803 165.169 6.21654 165.102C-7.11984 151.509 6.64769 128.849 24.9627 134.827C25.0518 134.85 25.1462 134.844 25.2316 134.809C25.3169 134.774 25.3886 134.713 25.4359 134.633C26.5978 132.687 28.3092 131.128 30.3542 130.156C30.4326 130.108 30.4936 130.036 30.5283 129.95C30.563 129.865 30.5696 129.771 30.5471 129.682C29.9774 127.096 30.093 124.405 30.8824 121.878C31.6718 119.351 33.1075 117.075 35.0468 115.275C36.9861 113.476 39.3615 112.217 41.937 111.623C44.5124 111.028 47.1983 111.12 49.7276 111.887C49.8321 111.91 49.9414 111.892 50.0329 111.837C50.1245 111.781 50.1916 111.693 50.2203 111.59C50.2491 111.487 50.2374 111.376 50.1877 111.282C50.138 111.187 50.054 111.114 49.9529 111.08ZM45.8376 138.359C37.3139 136.571 31.9246 141.452 32.1628 147.445C30.7175 147.335 29.2661 147.557 27.9196 148.095C26.573 148.632 25.3669 149.471 24.3934 150.547C23.4199 151.623 22.7047 152.908 22.3026 154.304C21.9004 155.699 21.8219 157.168 22.073 158.599C22.1613 159.13 22.9697 158.905 22.8814 158.375C22.6645 157.065 22.7496 155.723 23.1303 154.452C23.511 153.181 24.1771 152.013 25.0775 151.04C25.978 150.066 27.089 149.312 28.3253 148.835C29.5617 148.358 30.8906 148.171 32.2103 148.288C32.318 148.275 32.1736 148.636 32.6101 149.947C32.7794 150.457 33.5899 150.238 33.4185 149.723C32.9059 148.19 32.8586 146.538 33.2826 144.978C33.7066 143.417 34.5829 142.018 35.8006 140.957C39.5634 137.702 47.254 138.523 48.6088 141.051C48.8643 141.527 49.5886 141.104 49.3332 140.627C48.9516 140.016 48.4408 139.496 47.8368 139.104C47.2329 138.712 46.5504 138.458 45.8376 138.359Z" fill="#9AA3AD"/>
<path d="M10.5224 140.804C9.07434 141.452 7.85534 142.523 7.0249 143.877C6.19446 145.231 5.79128 146.804 5.86814 148.391C5.90264 148.931 6.74013 148.931 6.70672 148.391C6.63238 146.951 6.99843 145.523 7.75594 144.297C8.51346 143.071 9.62636 142.106 10.946 141.53C11.4407 141.32 11.0139 140.595 10.5224 140.804ZM36.1345 134.976C36.2423 135.505 37.0528 135.281 36.9429 134.752C36.8256 134.209 36.8584 133.643 37.0378 133.117C37.2173 132.591 37.5365 132.124 37.9613 131.766C38.386 131.408 38.9001 131.173 39.4483 131.086C39.9964 130.999 40.5579 131.063 41.0722 131.272C41.4483 131.413 41.6844 130.948 41.5454 130.656C38.6739 124.519 43.7313 119 48.5665 120.521C49.0818 120.684 49.3038 119.873 48.7897 119.711C43.7237 118.118 37.9949 123.44 40.4901 130.268C39.8654 130.173 39.2269 130.232 38.6303 130.441C38.0338 130.649 37.4973 131.001 37.0677 131.466C36.638 131.93 36.3284 132.493 36.1657 133.104C36.0031 133.716 35.9924 134.359 36.1345 134.976ZM33.8171 102.69C37.9741 101.699 42.3126 101.767 46.4367 102.888C46.5429 102.914 46.6553 102.898 46.7497 102.843C46.8442 102.787 46.9133 102.697 46.9423 102.591C46.9713 102.486 46.9579 102.373 46.9049 102.277C46.8519 102.181 46.7636 102.109 46.6587 102.078C42.3886 100.92 37.8971 100.852 33.594 101.88C33.0691 102.005 33.2922 102.815 33.8171 102.69ZM29.178 109.023C31.9208 107.455 35.0502 106.696 38.2051 106.834C38.744 106.858 38.744 106.018 38.2051 105.994C34.9013 105.856 31.6257 106.655 28.7544 108.298C28.6583 108.354 28.5885 108.446 28.5603 108.554C28.5321 108.662 28.5478 108.776 28.604 108.873C28.6602 108.969 28.7522 109.039 28.8599 109.067C28.9675 109.095 29.0819 109.08 29.178 109.023ZM75.5098 177.294C69.2065 174.342 62.0193 178.168 60.8111 183.916C57.4815 182.721 53.1938 184.914 51.9823 190.586C51.8745 191.113 52.6775 191.342 52.7907 190.81C53.9095 185.574 57.7014 183.625 60.6742 184.751C60.489 186.077 60.8029 187.424 61.5548 188.531C61.8684 188.963 62.596 188.546 62.2791 188.107C58.775 183.269 66.7188 174.09 75.0873 178.015C75.5734 178.247 75.9992 177.523 75.5098 177.294ZM83.0463 178.48C82.1444 178.253 81.1915 178.351 80.3542 178.756C79.5168 179.161 78.8482 179.848 78.4651 180.697C78.082 181.546 78.0088 182.503 78.2582 183.401C78.5077 184.299 79.064 185.08 79.8299 185.608C80.2718 185.92 80.6922 185.194 80.2524 184.882C79.6566 184.46 79.227 183.842 79.0381 183.136C78.8493 182.429 78.9131 181.679 79.2185 181.015C79.5239 180.351 80.0516 179.815 80.7102 179.499C81.3688 179.184 82.1167 179.11 82.8242 179.289C83.3481 179.419 83.5712 178.609 83.0463 178.48Z" fill="#9AA3AD"/>
<path d="M67.2414 180.088C66.5286 180.578 65.9344 181.222 65.5024 181.972C65.0704 182.723 64.8117 183.561 64.7451 184.424C64.7451 184.536 64.7893 184.642 64.8679 184.721C64.9466 184.8 65.0532 184.844 65.1644 184.844C65.2756 184.844 65.3823 184.8 65.4609 184.721C65.5395 184.642 65.5837 184.536 65.5837 184.424C65.6441 183.706 65.8618 183.01 66.2214 182.386C66.581 181.761 67.0735 181.224 67.664 180.813C67.7577 180.754 67.8256 180.662 67.8536 180.555C67.8817 180.449 67.8678 180.335 67.8149 180.238C67.7583 180.142 67.6663 180.073 67.5589 180.045C67.4516 180.017 67.3375 180.032 67.2414 180.088Z" fill="#9AA3AD"/>
<path d="M65.9567 151.047L47.0338 151.498L51.5856 153.603C52.3045 153.675 50.1057 153.757 70.8599 152.572L65.9567 151.047ZM45.4676 151.697C44.7131 153.83 36.0989 178.394 36.0601 178.502L42.2556 183.156C42.7374 181.739 40.7197 188.08 51.2902 154.396C51.2213 154.369 51.8453 154.645 45.4676 151.697Z" fill="#2554E7"/>
<path d="M161.383 106.703C160.036 105.873 160.362 106.094 141.838 105.407C140.584 73.1361 129.317 17.9913 100.724 2.08186C99.1751 1.23464 97.4254 0.825741 95.6623 0.89899C93.8993 0.97224 92.1894 1.52488 90.7159 2.49766C88.7228 3.89085 86.8498 5.44898 85.1164 7.1557C67.6842 23.6408 58.9244 49.4895 55.3297 73.3327C52.4529 92.4163 51.7437 130.702 52.9013 146.798C52.9401 147.338 53.7787 147.338 53.7399 146.798C52.6297 131.579 53.4704 99.3002 54.6906 85.703C57.3281 56.2903 67.335 20.5639 90.7623 3.49126C92.2401 2.41611 94.0083 1.81455 95.8339 1.76577C97.6596 1.717 99.4572 2.2233 100.99 3.21802C129.29 20.4851 139.172 72.3477 141.002 105.378L136.406 105.208C135.868 105.188 135.868 106.029 136.406 106.048C160.431 106.93 159.861 106.767 160.922 107.405C161.462 107.732 161.906 108.196 162.213 108.748C162.519 109.301 162.676 109.924 162.669 110.556C162.669 110.817 162.032 161.47 162.03 161.532C162.024 162.052 161.906 162.565 161.684 163.036C161.462 163.506 161.142 163.923 160.744 164.258C160.347 164.593 159.882 164.838 159.381 164.977C158.88 165.115 158.356 165.144 157.843 165.06L140.365 163.487C139.827 163.438 139.827 164.279 140.365 164.327L157.935 165.909C158.551 165.979 159.176 165.919 159.768 165.732C160.36 165.546 160.907 165.236 161.372 164.825C161.838 164.414 162.212 163.909 162.471 163.344C162.729 162.778 162.867 162.165 162.874 161.543C162.874 161.435 163.513 110.651 163.514 110.542C163.516 109.773 163.321 109.016 162.948 108.344C162.575 107.672 162.036 107.107 161.383 106.703Z" fill="#1D1D1B"/>
<path d="M130.579 107.98C130.147 107.299 129.56 106.729 128.868 106.316C128.175 105.903 127.395 105.66 126.591 105.604C125.95 105.585 125.309 105.661 124.69 105.829C106.292 110.054 105.163 109.938 102.535 111.908C101.199 112.909 100.093 114.184 99.291 115.65C98.4892 117.115 98.0106 118.736 97.8876 120.403C97.8326 121.193 97.8607 176.555 97.8607 176.555C97.8607 176.666 97.9048 176.773 97.9835 176.852C98.0621 176.931 98.1687 176.975 98.2799 176.975C98.3911 176.975 98.4978 176.931 98.5764 176.852C98.6551 176.773 98.6992 176.666 98.6992 176.555V121.551C98.6384 119.681 99.068 117.829 99.945 116.178C100.822 114.527 102.116 113.136 103.697 112.143C105.834 110.787 105.53 111.095 124.727 106.682C125.135 106.571 125.55 106.492 125.97 106.446C126.748 106.395 127.525 106.557 128.218 106.915C128.91 107.274 129.492 107.815 129.9 108.48C131.093 110.456 130.638 123.636 131.194 124.042C131.253 124.093 131.326 124.126 131.404 124.137C131.481 124.148 131.561 124.136 131.632 124.103C131.703 124.07 131.763 124.017 131.805 123.951C131.847 123.885 131.87 123.808 131.869 123.729C131.315 109.699 131.518 109.467 130.579 107.98ZM134.097 107.115C134.064 106.575 133.226 106.575 133.26 107.115L134.249 123.235C134.282 123.775 135.121 123.775 135.088 123.235C135.023 122.188 134.186 108.528 134.097 107.115Z" fill="#1D1D1B"/>
<path d="M167.465 159.424L162.275 152.675C162.059 152.451 161.768 152.315 161.458 152.292C161.148 152.269 160.841 152.361 160.595 152.551L158.036 154.529C156.646 153.002 154.886 151.859 152.928 151.211C153.424 151.544 153.951 152.006 153.962 152.475C155.224 153.149 156.372 154.016 157.366 155.046L152.342 158.928C151.513 157.747 149.621 154.956 149.611 153.512C149.309 153.336 149.106 153.205 149.106 153.205C149.106 153.205 149.714 154.717 149.121 155.041C149.794 156.605 150.65 158.083 151.671 159.445L149.573 161.065C149.33 161.253 149.163 161.523 149.104 161.826C149.046 162.129 149.1 162.442 149.257 162.708L154.298 169.091C154.383 169.236 154.496 169.362 154.631 169.462C154.765 169.563 154.919 169.635 155.081 169.675C155.244 169.715 155.413 169.723 155.579 169.697C155.745 169.671 155.903 169.612 156.046 169.523L167.218 161.373C167.378 161.273 167.513 161.14 167.614 160.981C167.716 160.823 167.781 160.644 167.805 160.457C167.828 160.271 167.81 160.081 167.751 159.902C167.692 159.724 167.595 159.56 167.465 159.424Z" fill="#2554E7"/>
<path d="M154.141 151.055C154.421 150.534 153.679 149.119 149.398 149.004C149.026 150.668 148.045 152.133 146.647 153.108C148.661 156.214 149.959 155.338 149.103 153.215C151.524 154.783 152.19 154.447 152.32 154.249C152.816 153.505 151.826 152.388 151.826 152.388C151.826 152.388 153.268 153.421 153.682 153.05C154.562 152.264 153.161 151.265 152.104 150.75C152.336 150.848 153.873 151.552 154.141 151.055ZM119.888 135.626C120.743 136.25 120.104 137.804 119.448 138.691C119.304 138.887 119.149 138.762 119.673 139.008C119.688 139.018 119.702 139.029 119.715 139.042C120.164 138.414 122.236 135.453 121.524 135.06C120.986 134.762 120.284 135.266 119.888 135.626ZM119.246 136.295C118.751 136.482 118.296 136.762 117.906 137.12C117.475 137.466 116.956 136.857 117.338 136.51C117.918 135.981 118.966 135.226 119.693 135.513C120.485 132.489 118.897 132.638 117.399 135.081C117.836 132.921 116.644 131.43 114.596 136.68L114.692 136.726C115.286 136.862 115.852 137.101 116.364 137.433L118.68 138.531C118.67 138.485 118.668 138.438 118.676 138.392C118.684 138.345 118.701 138.301 118.727 138.262C119.235 137.562 119.8 136.209 119.246 136.295Z" fill="#E7E9EB"/>
<path d="M137.281 155.727H137.056C136.309 156.193 135.747 156.082 131.693 156.101C131.849 156.873 132.25 157.573 132.835 158.099C133.42 158.624 134.158 158.946 134.941 159.017C135.048 159.047 135.139 159.118 135.194 159.215C135.249 159.312 135.263 159.427 135.233 159.534C135.204 159.642 135.133 159.733 135.036 159.788C134.94 159.843 134.825 159.857 134.718 159.827C133.758 159.707 132.862 159.279 132.163 158.609C131.464 157.939 130.999 157.06 130.837 156.105L124.187 156.145C124.079 156.141 123.977 156.097 123.9 156.021C123.823 155.946 123.777 155.844 123.771 155.736C122.183 155.821 116.442 156.492 114.178 161.784C111.537 167.958 121.548 176.224 121.548 176.224C121.548 176.224 126.498 176.116 127.928 175.121C127.928 175.121 121.218 166.414 123.198 163.107C124.768 160.486 126.856 160.053 129.132 161.19C128.298 160.28 127.446 159.38 126.532 158.554C126.13 158.191 126.725 157.599 127.124 157.96C134.233 164.384 143.476 178.912 143.412 179.458C144.562 179.549 147.813 179.668 149.16 178.318L137.281 155.727Z" fill="#0B1F33"/>
<path d="M123.357 150.482C123.45 153.266 123.798 155.843 123.772 155.734C123.778 155.842 123.824 155.944 123.901 156.019C123.978 156.095 124.081 156.139 124.188 156.142L130.839 156.102C130.998 157.059 131.462 157.939 132.162 158.61C132.861 159.281 133.758 159.707 134.719 159.825C134.826 159.855 134.941 159.84 135.037 159.785C135.134 159.73 135.205 159.639 135.235 159.532C135.264 159.424 135.25 159.31 135.195 159.213C135.14 159.116 135.049 159.045 134.942 159.015C134.16 158.943 133.422 158.621 132.837 158.096C132.252 157.57 131.851 156.87 131.694 156.099L135.707 156.074C136.126 156.107 136.545 156.014 136.911 155.808C137.277 155.601 137.573 155.291 137.763 154.915C138.141 154.071 137.998 154.041 135.975 146.628C139.182 148.954 142.505 151.117 145.929 153.108C146.036 153.181 146.163 153.218 146.293 153.216C146.422 153.214 146.548 153.172 146.653 153.096C148.079 152.099 149.072 150.595 149.43 148.89C149.449 148.818 149.45 148.743 149.431 148.671C149.412 148.599 149.374 148.533 149.322 148.481C145.784 145.544 135.389 137.531 130.953 136.443C131.144 137.085 131.235 137.523 131.212 137.415C131.354 137.488 136.874 139.318 148.551 148.93C148.218 150.3 147.412 151.507 146.276 152.338C142.807 150.551 133.773 144.081 130.674 141.8C130.237 141.476 129.819 142.209 130.25 142.526C130.358 142.604 133.901 145.159 134.897 145.864C134.994 146.217 136.988 153.459 137.069 153.815C137.136 154.092 137.098 154.385 136.962 154.635C136.826 154.886 136.601 155.077 136.333 155.171C136.072 155.261 136.589 155.221 124.565 155.299C123.954 149.628 123.665 143.883 126.652 139.02C127.203 138.128 126.888 139.031 126.939 137.198C126.859 137.262 126.787 137.334 126.723 137.414C125.701 138.778 124.912 140.302 124.389 141.925C123.786 142.386 123.111 142.743 122.39 142.979C120.41 143.519 119.057 142.612 119.86 139.472C119.881 139.383 119.874 139.29 119.84 139.205C119.805 139.119 119.745 139.047 119.668 138.998C119.142 138.751 119.294 138.89 119.442 138.681C121.234 136.254 119.992 134.079 117.333 136.5C117.26 136.577 117.219 136.68 117.218 136.786C117.218 136.893 117.258 136.996 117.33 137.073C117.403 137.151 117.502 137.199 117.608 137.205C117.714 137.212 117.819 137.178 117.901 137.11C118.248 136.812 118.629 136.556 119.035 136.346C119.325 136.246 119.567 136.149 119.391 136.959C119.259 137.383 119.059 137.783 118.797 138.141C118.689 138.288 118.643 138.357 118.672 138.526C115.215 136.889 114.851 136.521 114.32 136.798C113.79 137.076 113.35 138.403 113.183 138.958C111.004 146.417 118.332 152 123.357 150.482ZM115.133 146.362C114.248 145.079 113.738 143.574 113.662 142.016C113.586 140.458 113.946 138.91 114.702 137.547C114.66 137.572 114.734 137.565 114.81 137.594C115.154 137.73 115.479 137.943 115.814 138.102L118.975 139.599C118.665 141.022 118.625 142.799 120.023 143.627C120.67 143.91 121.379 144.02 122.081 143.944C122.782 143.868 123.452 143.61 124.023 143.195C123.518 145.296 123.287 147.453 123.337 149.614C120.488 150.583 116.865 148.809 115.133 146.362ZM106.506 86.2036C92.8915 81.4267 92.6726 61.2772 106.212 56.2044C106.711 56.0186 106.483 55.2097 105.99 55.3944C91.5463 60.802 91.9494 81.9829 106.284 87.0136C106.799 87.1939 106.994 86.3742 106.506 86.2036ZM73.2992 152.449C66.6261 150.373 66.195 150.232 66.0581 150.21C65.9212 150.187 55.9564 150.443 45.2176 150.697C45.1286 150.707 45.0439 150.741 44.9727 150.795C44.9015 150.849 44.8464 150.922 44.8134 151.006C44.7757 151.114 35.2959 178.142 35.1612 178.535C35.0265 178.928 34.9661 178.722 42.2837 184.218C42.4432 184.337 41.6812 184.414 51.0219 182.772C51.0921 182.753 51.1561 182.716 51.2075 182.664C51.2589 182.612 51.296 182.548 51.3151 182.478C51.5307 181.802 58.3492 159.943 58.4128 159.732L73.435 160.218C73.5458 160.217 73.6518 160.172 73.7302 160.094C73.8086 160.015 73.8531 159.909 73.8543 159.798C73.5902 152.437 73.7239 152.58 73.2992 152.449ZM65.9514 151.045L70.8546 152.57C47.9705 153.877 53.3932 153.601 51.5803 153.601L47.0285 151.496L65.9514 151.045ZM42.2557 183.153L36.0601 178.498C36.1 178.385 44.7143 153.809 45.4677 151.694C53.7166 155.508 50.5444 154.095 51.2882 154.394C42.2093 183.327 42.8194 181.497 42.2557 183.153ZM50.566 182.004L43.1061 183.323C53.0224 151.679 51.8368 155.447 52.1278 154.601L57.612 159.436C49.9559 184.087 50.8893 180.92 50.566 182.003V182.004ZM58.2522 158.892L53.1917 154.425C53.2994 154.419 72.3981 153.327 72.7839 153.299C72.8508 155.175 72.9995 159.218 72.9995 159.364L58.2522 158.892ZM143.412 179.458C143.479 178.895 134.25 164.406 127.124 157.96C126.726 157.599 126.129 158.191 126.533 158.554C129.939 161.632 136.611 169.473 142.638 179.632C142.685 179.705 142.753 179.762 142.833 179.794C142.913 179.827 143.001 179.835 143.085 179.816C143.17 179.797 143.246 179.752 143.305 179.688C143.363 179.625 143.401 179.544 143.412 179.458ZM148.35 179.99C146.6 180.427 144.803 180.645 143 180.638C143 180.638 138.819 180.197 138.379 180.746C137.94 181.294 138.819 183.941 148.61 182.84C151.475 182.515 150.294 179.487 148.35 179.99ZM126.898 176.349C125.149 176.787 123.352 177.005 121.549 176.997C121.549 176.997 117.368 176.557 116.928 177.105C116.488 177.653 117.368 180.302 127.159 179.198C130.024 178.876 128.84 175.85 126.898 176.349ZM128.655 126.59C130.479 127.706 129.364 130.75 129.364 130.75C131.592 129.533 131.795 130.446 131.288 131.663C131.173 131.997 130.971 132.294 130.705 132.526C130.438 132.757 130.116 132.915 129.769 132.982C129.769 132.982 129.866 133.241 130.011 133.641C135.575 134.163 136.08 131.166 136.178 130.37C136.286 129.488 133.759 129.433 133.759 129.433C137.208 127.556 136.658 125.397 133.651 126.402C133.651 126.402 136.292 125.079 135.577 124.142C134.862 123.204 130.791 123.481 128.645 124.25C128.147 124.409 127.692 124.681 127.315 125.044C126.938 125.407 126.65 125.852 126.471 126.345C126.831 126.226 127.213 126.186 127.59 126.228C127.967 126.271 128.33 126.394 128.655 126.59ZM126.181 128.64C126.666 128.883 126.411 129.206 126.743 129.396C126.839 129.452 126.953 129.467 127.06 129.439C127.168 129.411 127.26 129.341 127.316 129.246C127.526 128.843 127.019 127.941 126.403 127.827C126.296 127.797 126.181 127.812 126.084 127.867C125.987 127.923 125.916 128.014 125.886 128.122C125.857 128.23 125.871 128.345 125.927 128.442C125.982 128.539 126.074 128.611 126.181 128.64ZM124.992 130.966C125.621 130.966 125.621 129.805 124.992 129.805C124.364 129.805 124.365 130.966 124.992 130.966ZM122.592 133.683C124.072 134.212 126.626 132.892 125.933 132.195C125.459 131.718 124.658 133.23 123.131 132.951C122.852 132.9 122.426 132.723 122.303 133.167C122.277 133.274 122.292 133.386 122.346 133.482C122.399 133.578 122.487 133.649 122.592 133.683ZM160.955 153.985L160.505 161.947L150.718 161.765C150.61 161.77 150.509 161.817 150.435 161.895C150.361 161.973 150.32 162.077 150.32 162.184C150.32 162.292 150.361 162.396 150.435 162.474C150.509 162.552 150.61 162.598 150.718 162.604L160.899 162.795C161.009 162.792 161.114 162.747 161.192 162.669C161.27 162.59 161.315 162.485 161.318 162.375L161.794 153.985C161.824 153.452 160.986 153.447 160.955 153.985Z" fill="#1D1D1B"/>
</svg>
