<svg width="196" height="183" viewBox="0 0 196 183" fill="none" xmlns="http://www.w3.org/2000/svg">
<g clip-path="url(#clip0_4562_75062)">
<path d="M141.262 55.7028C155.756 32.4957 157.731 9.63669 147.177 2.23621C136.623 -5.16426 115.674 4.3904 98.6161 25.7994L49.8359 87.0232L99.8142 122.067L141.262 55.7028Z" fill="#00ADE3"/>
<path opacity="0.1" d="M135.554 51.7035L93.1269 117.379L87.9336 107.502L130.077 47.5918C141.992 30.6473 148.665 15.1621 148.695 6.54011C148.697 5.76226 149.811 5.56963 150.067 6.30429C153.071 14.8938 147.869 32.6454 135.554 51.7035Z" fill="white"/>
<path d="M99.8155 122.078C106.563 112.537 100.845 96.9579 87.0444 87.2798C73.2436 77.6018 56.5859 77.4901 49.8384 87.0304C43.091 96.5707 48.8088 112.15 62.6096 121.828C76.4104 131.506 93.0681 131.618 99.8155 122.078Z" fill="#00ADE3"/>
<path opacity="0.5" d="M99.8155 122.078C106.563 112.537 100.845 96.9579 87.0444 87.2798C73.2436 77.6018 56.5859 77.4901 49.8384 87.0304C43.091 96.5707 48.8088 112.15 62.6096 121.828C76.4104 131.506 93.0681 131.618 99.8155 122.078Z" fill="white"/>
<path opacity="0.1" d="M94.6285 76.4358C83.6589 68.7437 71.2204 66.549 63.2834 70.1439L50.9062 85.6742C58.2289 77.5145 73.9274 78.0725 87.0424 87.2685C100.163 96.4684 105.98 110.998 100.724 120.614L111.114 103.983C111.999 95.286 105.714 84.2089 94.6285 76.4358Z" fill="black"/>
<path opacity="0.2" d="M112.188 26.3672C109.146 31.1605 106.87 40.1359 115.895 46.4643C124.92 52.7926 132.639 47.6347 136.146 43.1676L112.188 26.3672Z" fill="black"/>
<path d="M138.281 37.6066C137.243 46.1742 127.302 52.4248 116.86 45.1028C106.417 37.7807 108.977 26.3541 116.728 22.4941C121.504 20.1161 127.585 21.1331 131.747 24.0512C135.908 26.9699 138.92 32.3278 138.281 37.6066Z" fill="white"/>
<path d="M118.28 43.0931C114.216 40.2435 112.14 36.529 112.434 32.6331C112.688 29.2627 114.756 26.2171 117.832 24.6853C121.463 22.8772 126.602 23.4405 130.33 26.0543C134.058 28.6682 136.323 33.2967 135.836 37.3095C135.425 40.7091 133.242 43.675 130.141 45.0494C126.556 46.6376 122.344 45.9428 118.28 43.0931Z" fill="#00ADE3"/>
<path opacity="0.3" d="M118.28 43.0931C114.216 40.2435 112.14 36.529 112.434 32.6331C112.688 29.2627 114.756 26.2171 117.832 24.6853C121.463 22.8772 126.602 23.4405 130.33 26.0543C134.058 28.6682 136.323 33.2967 135.836 37.3095C135.425 40.7091 133.242 43.675 130.141 45.0494C126.556 46.6376 122.344 45.9428 118.28 43.0931Z" fill="black"/>
<path d="M118.28 43.0979C114.216 40.2483 112.067 36.6374 112.227 32.9302C112.366 29.7225 114.288 26.8834 117.245 25.521C120.734 23.9129 125.774 24.6157 129.503 27.2295C133.23 29.8434 135.594 34.3324 135.249 38.1452C134.957 41.3755 132.921 44.1348 129.934 45.3464C126.483 46.746 122.344 45.9476 118.28 43.0979Z" fill="#00ADE3"/>
<path opacity="0.2" d="M118.28 43.0979C114.216 40.2483 112.067 36.6374 112.227 32.9302C112.366 29.7225 114.288 26.8834 117.245 25.521C120.734 23.9129 125.774 24.6157 129.503 27.2295C133.23 29.8434 135.594 34.3324 135.249 38.1452C134.957 41.3755 132.921 44.1348 129.934 45.3464C126.483 46.746 122.344 45.9476 118.28 43.0979Z" fill="white"/>
<path opacity="0.3" d="M132.319 29.8576L113.544 38.1037C112.599 36.4577 112.148 34.7087 112.223 32.9305C112.261 32.0563 112.428 31.2134 112.723 30.4229L124.841 25.1016C126.483 25.5174 128.085 26.2354 129.5 27.2285C130.563 27.9731 131.515 28.8652 132.319 29.8576Z" fill="white"/>
<path opacity="0.3" d="M135.016 35.1779L117.788 42.7384C116.691 41.9241 115.752 41.0565 114.973 40.1345L133.718 31.8984C134.316 32.9612 134.757 34.0732 135.016 35.1779Z" fill="white"/>
<path opacity="0.1" d="M153.804 20.3821C153.231 15.8014 149.694 10.5007 144.103 6.58089C138.518 2.66444 132.314 1.13466 127.785 2.13768C135.489 -0.990298 142.395 -1.11385 147.175 2.23732C151.954 5.58916 154.164 12.1055 153.804 20.3821Z" fill="black"/>
<path opacity="0.5" d="M87.0359 103.392C89.138 100.42 87.4354 95.6214 83.233 92.6744C79.0307 89.7275 73.9199 89.7479 71.8179 92.72C69.7158 95.6922 71.4184 100.491 75.6207 103.438C79.8231 106.384 84.9338 106.364 87.0359 103.392Z" fill="#00ADE3"/>
<path opacity="0.5" d="M67.182 100.578C65.08 103.55 59.9694 103.57 55.7668 100.624C51.5641 97.677 49.8611 92.8784 51.9631 89.9065C54.0651 86.9346 59.1756 86.914 63.3783 89.8607C67.5809 92.808 69.284 97.6059 67.182 100.578Z" fill="#00ADE3"/>
<path opacity="0.5" d="M96.3695 121.047C94.2675 124.018 89.1569 124.039 84.9543 121.092C80.7516 118.146 79.0486 113.347 81.1506 110.375C83.2526 107.403 88.3631 107.383 92.5658 110.329C96.7684 113.276 98.4708 118.074 96.3695 121.047Z" fill="#00ADE3"/>
<path opacity="0.5" d="M76.5179 118.25C74.4159 121.222 69.3054 121.242 65.1027 118.295C60.9001 115.349 59.197 110.55 61.299 107.578C63.401 104.606 68.5115 104.586 72.7142 107.533C76.9169 110.479 78.6199 115.277 76.5179 118.25Z" fill="#00ADE3"/>
<path opacity="0.5" d="M87.0354 103.373C86.8133 103.687 86.5491 103.973 86.2656 104.222C87.4303 101.257 85.6672 97.1495 81.9148 94.5184C78.1618 91.8866 73.6843 91.6182 71.2734 93.7093C71.4129 93.3599 71.5936 93.0158 71.8165 92.7016C73.9158 89.7331 79.0303 89.7105 83.2317 92.6558C87.4323 95.6018 89.1347 100.404 87.0354 103.373Z" fill="#00ADE3"/>
<path opacity="0.5" d="M67.1806 100.578C66.9578 100.893 66.6983 101.173 66.4108 101.427C67.5795 98.457 65.8217 94.3532 62.0634 91.7181C58.3103 89.0863 53.8328 88.8179 51.418 90.9143C51.5607 90.5596 51.7388 90.2215 51.961 89.9067C54.0643 86.9328 59.1749 86.9155 63.3762 89.8615C67.5828 92.8108 69.2832 97.6041 67.1806 100.578Z" fill="#00ADE3"/>
<path opacity="0.5" d="M96.372 121.048C96.1492 121.363 95.889 121.643 95.6022 121.897C96.7709 118.927 95.0085 114.82 91.2548 112.188C87.4964 109.553 83.0242 109.288 80.6094 111.385C80.7528 111.03 80.9302 110.692 81.153 110.377C83.2564 107.403 88.3616 107.382 92.5676 110.332C96.7689 113.277 98.4746 118.074 96.372 121.048Z" fill="#00ADE3"/>
<path opacity="0.5" d="M76.5204 118.242C76.2976 118.557 76.0428 118.841 75.7506 119.091C76.9153 116.126 75.1562 112.013 71.4032 109.382C67.6502 106.75 63.1687 106.487 60.7578 108.578C60.8952 108.22 61.078 107.886 61.3008 107.571C63.4041 104.597 68.5147 104.58 72.716 107.526C76.9173 110.471 78.6231 115.268 76.5204 118.242Z" fill="#00ADE3"/>
<path d="M82.9376 48.4051C82.9376 48.4051 73.9372 60.0402 66.0929 70.0592C63.8468 72.9281 60.2392 74.2965 56.6136 73.8495C49.7593 73.0045 38.5742 77.8463 38.5742 77.8463C38.5742 77.8463 59.7149 43.3017 82.9376 48.4051Z" fill="#00ADE3"/>
<path opacity="0.3" d="M82.9376 48.4051C82.9376 48.4051 73.9372 60.0402 66.0929 70.0592C63.8468 72.9281 60.2392 74.2965 56.6136 73.8495C49.7593 73.0045 38.5742 77.8463 38.5742 77.8463C38.5742 77.8463 59.7149 43.3017 82.9376 48.4051Z" fill="black"/>
<path d="M125.176 78.0234C125.176 78.0234 117.208 90.3819 110.378 101.113C108.423 104.186 108.345 108.029 109.989 111.277C113.098 117.419 112.289 129.536 112.289 129.536C112.289 129.536 137.828 98.0747 125.176 78.0234Z" fill="#00ADE3"/>
<path opacity="0.3" d="M125.176 78.0234C125.176 78.0234 117.208 90.3819 110.378 101.113C108.423 104.186 108.345 108.029 109.989 111.277C113.098 117.419 112.289 129.536 112.289 129.536C112.289 129.536 137.828 98.0747 125.176 78.0234Z" fill="black"/>
<path d="M154.273 166.891C162.575 146.589 126.596 140.837 112.324 145.931C98.0519 151.025 83.5314 154.813 82.9597 141.229C82.388 127.646 93.3796 119.221 88.1463 116.086C85.2411 114.346 84.4113 117.439 82.983 121.896C78.5869 135.607 53.7312 138.878 65.1671 158.731C76.6037 178.585 70.5305 174.274 51.2617 182.241C31.9922 190.209 41.9011 213.141 60.5415 213.141C79.182 213.141 137.922 213.141 172.677 213.141C224.068 213.141 175.413 115.19 154.273 166.891Z" fill="#00ADE3"/>
<path opacity="0.6" d="M154.273 166.891C162.575 146.589 126.596 140.837 112.324 145.931C98.0519 151.025 83.5314 154.813 82.9597 141.229C82.388 127.646 93.3796 119.221 88.1463 116.086C85.2411 114.346 84.4113 117.439 82.983 121.896C78.5869 135.607 53.7312 138.878 65.1671 158.731C76.6037 178.585 70.5305 174.274 51.2617 182.241C31.9922 190.209 41.9011 213.141 60.5415 213.141C79.182 213.141 137.922 213.141 172.677 213.141C224.068 213.141 175.413 115.19 154.273 166.891Z" fill="white"/>
<path d="M59.5721 96.1372C58.0764 90.9679 49.992 97.4816 42.0236 105.332C33.9906 113.246 30.1308 131.173 22.4299 140.513C14.6751 149.917 -7.33751 158.369 1.28727 172.448C14.0106 193.215 -15.2318 213.143 19.3967 213.143C54.0252 213.143 77.4393 213.143 90.4249 213.143C103.41 213.143 117.496 197.329 97.2705 186.554C77.0458 175.778 46.7453 200.872 38.5728 176.954C34.5176 165.086 49.2229 170.532 42.4172 151.092C35.6116 131.654 36.0519 126.365 39.5267 117.702C47.9801 96.63 61.8435 103.986 59.5721 96.1372Z" fill="#00ADE3"/>
<path opacity="0.6" d="M59.5721 96.1372C58.0764 90.9679 49.992 97.4816 42.0236 105.332C33.9906 113.246 30.1308 131.173 22.4299 140.513C14.6751 149.917 -7.33751 158.369 1.28727 172.448C14.0106 193.215 -15.2318 213.143 19.3967 213.143C54.0252 213.143 77.4393 213.143 90.4249 213.143C103.41 213.143 117.496 197.329 97.2705 186.554C77.0458 175.778 46.7453 200.872 38.5728 176.954C34.5176 165.086 49.2229 170.532 42.4172 151.092C35.6116 131.654 36.0519 126.365 39.5267 117.702C47.9801 96.63 61.8435 103.986 59.5721 96.1372Z" fill="white"/>
<path d="M74.2892 98.5169C76.0523 95.3126 82.0948 97.2369 81.9627 101.424C81.8307 105.613 66.1781 111.11 69.0859 125.581C71.9938 140.052 99.9328 141.096 106.492 155.594C113.05 170.093 87.6497 172.128 95.1978 181.194C102.746 190.261 126.167 169.439 142.826 174.794C159.484 180.149 176.143 213.138 145.58 213.138C115.018 213.138 71.8911 213.138 51.4148 213.138C30.9385 213.138 15.9851 171.029 35.6609 153.712C55.3359 136.395 39.4646 142.011 46.8106 130.909C54.1552 119.806 67.5343 110.794 74.2892 98.5169Z" fill="#00ADE3"/>
<path opacity="0.8" d="M74.2892 98.5169C76.0523 95.3126 82.0948 97.2369 81.9627 101.424C81.8307 105.613 66.1781 111.11 69.0859 125.581C71.9938 140.052 99.9328 141.096 106.492 155.594C113.05 170.093 87.6497 172.128 95.1978 181.194C102.746 190.261 126.167 169.439 142.826 174.794C159.484 180.149 176.143 213.138 145.58 213.138C115.018 213.138 71.8911 213.138 51.4148 213.138C30.9385 213.138 15.9851 171.029 35.6609 153.712C55.3359 136.395 39.4646 142.011 46.8106 130.909C54.1552 119.806 67.5343 110.794 74.2892 98.5169Z" fill="white"/>
</g>
<defs>
<clipPath id="clip0_4562_75062">
<rect width="196" height="214" fill="white"/>
</clipPath>
</defs>
</svg>
