<svg width="24" height="24" viewBox="0 0 24 24" fill="none" xmlns="http://www.w3.org/2000/svg">
<g clip-path="url(#clip0_5281_99753)">
<path d="M2 2.82031H22.3077V12.4097C22.3077 15.0489 20.9109 17.4878 18.6436 18.8075L12.1539 22.585L5.66411 18.8075C3.39673 17.4878 2 15.0489 2 12.4097L2 2.82031Z" fill="#FFDD2D"/>
<path fill-rule="evenodd" clip-rule="evenodd" d="M7.60156 7.76562V10.9475C8.03321 10.4562 8.81803 10.1237 9.71538 10.1237H10.6905V13.8226C10.6905 14.8067 10.4252 15.7703 10.0317 16.244H14.2734C13.8807 15.7698 13.6161 14.8074 13.6161 13.8245V10.1237H14.5913C15.4886 10.1237 16.2734 10.4562 16.705 10.9475V7.76562H7.60156Z" fill="#333333"/>
</g>
<defs>
<clipPath id="clip0_5281_99753">
<rect width="20.3077" height="24" fill="white" transform="translate(2)"/>
</clipPath>
</defs>
</svg>
