<svg width="72" height="72" viewBox="0 0 72 72" fill="none" xmlns="http://www.w3.org/2000/svg">
<rect width="72" height="72" rx="36" fill="url(#paint0_linear_3069_23770)"/>
<path d="M17.3318 34.9082C17.3318 34.9082 34.1251 27.7637 39.9492 25.248C42.1819 24.2418 49.7534 21.0217 49.7534 21.0217C49.7534 21.0217 53.248 19.613 52.9568 23.0342C52.8596 24.4431 52.0831 29.3737 51.3066 34.7069C50.1417 42.2539 48.8798 50.5053 48.8798 50.5053C48.8798 50.5053 48.6856 52.8197 47.0355 53.2222C45.3853 53.6247 42.6672 51.8135 42.1819 51.4109C41.7935 51.1091 34.9016 46.5808 32.3778 44.367C31.6982 43.7633 30.9217 42.5559 32.4748 41.147C35.9694 37.8264 40.1434 33.7007 42.6672 31.0844C43.8321 29.8768 44.9969 27.0593 40.1434 30.4806C33.2514 35.4113 26.4564 40.0402 26.4564 40.0402C26.4564 40.0402 24.9033 41.0464 21.9912 40.1407C19.079 39.2352 15.6815 38.0276 15.6815 38.0276C15.6815 38.0276 13.3519 36.5182 17.3318 34.9082Z" fill="white"/>
<defs>
<linearGradient id="paint0_linear_3069_23770" x1="0" y1="0" x2="72" y2="72" gradientUnits="userSpaceOnUse">
<stop offset="0.00361099" stop-color="#27A9E8"/>
<stop offset="1" stop-color="#23A0DC"/>
</linearGradient>
</defs>
</svg>
