<svg width="32" height="32" viewBox="0 0 32 32" fill="none" xmlns="http://www.w3.org/2000/svg">
<path d="M7.74741 3.99042C9.46103 5.43437 15.3273 1.23319 16.2155 1.4643C18.1033 1.95516 19.9986 2.6689 21.9174 3.168C23.9021 3.68437 26.4081 3.69104 26.3773 3.75539C26.208 4.10813 18.5551 6.20617 16.498 6.63425C15.7793 6.78375 8.90075 4.45225 7.57812 4.10813" stroke="#2554E7" stroke-width="1.48173" stroke-linecap="round" stroke-linejoin="round"/>
<path d="M13.5994 3.8623C3.94408 4.37584 6.37596 4.78839 5.82031 10.9006" stroke="#2554E7" stroke-width="1.48173" stroke-linecap="round" stroke-linejoin="round"/>
<path d="M10.1632 5.33398C9.52893 7.69861 9.52893 7.17473 10.1632 7.51877C10.9012 7.9192 15.8994 10.4071 16.8713 10.4071C18.4165 10.4071 21.9882 8.31649 22.7554 7.44329" stroke="#2554E7" stroke-width="1.48173" stroke-linecap="round" stroke-linejoin="round"/>
<path d="M22.5314 15.5908C21.5404 25.9406 8.30547 22.4046 9.8937 14.0067C9.30545 13.1817 8.21727 12.1504 9.89379 12.1504" stroke="#151414" stroke-opacity="0.9" stroke-width="1.48173" stroke-linecap="round" stroke-linejoin="round"/>
<path d="M17.6966 17.6279C16.6742 18.416 15.3889 18.7509 14.5156 17.6279" stroke="#151414" stroke-opacity="0.9" stroke-width="1.48173" stroke-linecap="round" stroke-linejoin="round"/>
<path d="M14.9844 14.3086C15.0339 13.9325 15.0532 13.5329 15.071 13.1533" stroke="#151414" stroke-opacity="0.9" stroke-width="1.48173" stroke-linecap="round" stroke-linejoin="round"/>
<path d="M18 14.3086C18.0928 13.9185 18.1297 13.5478 18.1297 13.1533" stroke="#151414" stroke-opacity="0.9" stroke-width="1.48173" stroke-linecap="round" stroke-linejoin="round"/>
<path d="M12.9297 22.4417C14.6003 23.1282 14.3457 25.787 15.3463 26.7657C16.2875 27.6864 19.4649 22.33 19.8255 22.1533" stroke="#151414" stroke-opacity="0.9" stroke-width="1.48173" stroke-linecap="round" stroke-linejoin="round"/>
<path d="M13.0769 22.5371C10.7788 23.1489 6.85316 25.4457 6.28125 29.469" stroke="#151414" stroke-opacity="0.9" stroke-width="1.48173" stroke-linecap="round" stroke-linejoin="round"/>
<path d="M20.3606 22.5371C22.6587 23.1489 26.5843 25.4457 27.1562 29.469" stroke="#151414" stroke-opacity="0.9" stroke-width="1.48173" stroke-linecap="round" stroke-linejoin="round"/>
<path d="M23.1758 13.1339C24.9769 12.9601 23.6908 14.7509 22.7812 15.2882" stroke="#151414" stroke-opacity="0.9" stroke-width="1.48173" stroke-linecap="round" stroke-linejoin="round"/>
</svg>
