<svg width="72" height="72" viewBox="0 0 72 72" fill="none" xmlns="http://www.w3.org/2000/svg">
<rect width="72" height="72" rx="36" fill="#FF0000"/>
<path fill-rule="evenodd" clip-rule="evenodd" d="M32.4193 40.3586V30.9102C35.9412 32.4885 38.6689 34.0132 41.895 35.657C39.2342 37.0624 35.9412 38.6393 32.4193 40.3586ZM52.047 26.211C51.4395 25.4487 50.4041 24.8553 49.3017 24.6589C46.0615 24.0729 25.8474 24.0712 22.6089 24.6589C21.7249 24.8167 20.9378 25.1982 20.2616 25.7909C17.4123 28.3095 18.3051 41.816 18.9919 44.0038C19.2807 44.9508 19.654 45.6338 20.1242 46.0821C20.73 46.6748 21.5594 47.083 22.5121 47.266C25.1799 47.7915 38.9243 48.0854 49.2453 47.3449C50.1963 47.1871 51.038 46.7658 51.7019 46.1479C54.3363 43.6394 54.1567 29.3744 52.047 26.211Z" fill="white"/>
</svg>
