<svg width="32" height="32" viewBox="0 0 32 32" fill="none" xmlns="http://www.w3.org/2000/svg">
<rect width="32" height="32" rx="16" fill="#EDF2FE"/>
<path d="M14.6376 11.3531L15.089 12.1621C15.4965 12.8922 15.3329 13.8499 14.6912 14.4916C14.6912 14.4916 13.9129 15.2701 15.3241 16.6813C16.7349 18.0921 17.5138 17.3142 17.5138 17.3142C18.1555 16.6725 19.1133 16.509 19.8433 16.9164L20.6523 17.3679C21.7548 17.9831 21.8849 19.5291 20.916 20.4982C20.3337 21.0804 19.6204 21.5335 18.8319 21.5634C17.5045 21.6137 15.2502 21.2778 12.9889 19.0165C10.7277 16.7552 10.3917 14.501 10.4421 13.1736C10.472 12.3851 10.925 11.6717 11.5073 11.0895C12.4763 10.1205 14.0223 10.2507 14.6376 11.3531Z" fill="#2554E7"/>
</svg>
