<svg width="155" height="111" viewBox="0 0 155 111" fill="none" xmlns="http://www.w3.org/2000/svg">
<path d="M142.947 0.718876L143.089 0.732658C143.479 0.770246 143.784 1.08933 143.814 1.48902C144.156 6.03804 144.198 14.2477 144.184 14.6554C145.54 10.0596 145.447 4.18828 145.288 2.1063C145.241 1.49528 145.608 1.12065 146.094 1.08223C146.101 1.08181 146.094 1.08223 146.101 1.08181C146.61 1.05049 146.951 1.54248 146.989 2.01818C147.162 4.19621 147.4 11.0895 145.232 17.5952C148.522 10.501 148.29 3.48245 148.244 0.847929C148.235 0.354269 148.652 -0.0328922 149.131 0.0205668L149.153 0.0230745C149.549 0.0673452 149.852 0.402297 149.866 0.810339C149.961 3.4599 149.947 8.83253 148.224 13.8422C150.466 10.1381 151.278 4.69906 151.531 2.43541C151.581 1.98644 151.984 1.621 152.415 1.71789C153.081 1.86783 153.073 2.35981 153.086 3.05228C153.2 2.66512 153.584 2.56446 153.804 2.59077C154.203 2.63838 154.506 2.98002 154.511 3.39182C154.536 5.9637 154.149 10.5399 151.437 15.6957C147.673 22.8684 142.736 28.3333 140.91 27.4053C138.91 26.3737 141.518 23.3988 142.126 14.8007C142.553 8.58695 142.266 3.7936 142.073 1.60805C142.029 1.09559 142.448 0.670847 142.947 0.718876ZM152.872 4.69363C152.25 10.727 149.109 16.2332 147.201 19.4784C149.757 15.9756 152.455 12.1808 152.872 4.69363Z" fill="#2554E7"/>
<path d="M60.1601 39.3575C61.9457 36.8858 64.2623 34.7584 66.897 32.8601C69.2737 31.1479 71.8539 29.6137 74.6399 28.3685C80.1325 25.9136 86.3642 24.4927 92.6528 24.5239C95.8227 24.5396 98.9822 24.885 102.011 25.6559C104.871 26.3841 107.543 27.4787 110.161 28.6495C112.547 29.7171 114.904 30.8387 117.389 31.753C118.036 31.9913 118.282 32.0751 118.853 32.252C119.522 32.4591 120.2 32.6451 120.888 32.8041C122.178 33.1019 123.272 33.2662 124.457 33.3237C127.28 33.4606 129.903 32.9234 132.373 31.7976C133.729 31.1799 134.981 30.401 136.07 29.5024C136.655 29.0201 137.238 28.5386 137.722 27.9854C137.912 27.7681 138.098 27.5504 138.299 27.3395C138.487 27.1428 138.667 26.9918 138.909 26.8298C139.41 26.495 139.353 26.5305 139.732 25.9609C140.002 25.556 140.893 25.5621 140.75 26.1329C140.61 26.6914 140.698 27.2679 140.504 27.8146C140.37 28.1924 140.13 28.5607 139.889 28.9012C139.498 29.4528 139.091 30.0034 138.617 30.512C137.689 31.5086 136.508 32.3714 135.263 33.0969C133.069 34.3741 130.476 35.2506 127.795 35.5438C122.094 36.1679 116.822 34.2994 111.926 32.1342C109.515 31.0682 107.142 29.9473 104.662 28.9877C102.001 27.9579 99.197 27.2564 96.2756 26.9228C90.1261 26.2205 83.7502 27.1195 78.1185 29.1989C75.0106 30.3465 72.0667 31.8235 69.3789 33.53C66.319 35.4729 63.5626 37.7204 60.809 39.9367C60.325 40.3271 59.8993 39.719 60.1601 39.3575Z" fill="#2554E7"/>
<path d="M138.464 27.6692C138.841 29.2652 140.311 30.2189 141.748 29.7998C143.184 29.3808 144.042 27.7472 143.665 26.1512C143.288 24.5552 141.818 23.6015 140.381 24.0206C138.945 24.4396 138.086 26.0737 138.464 27.6692Z" fill="#2554E7"/>
<path opacity="0.2" d="M138.464 27.6692C138.841 29.2652 140.311 30.2189 141.748 29.7998C143.184 29.3808 144.042 27.7472 143.665 26.1512C143.288 24.5552 141.818 23.6015 140.381 24.0206C138.945 24.4396 138.086 26.0737 138.464 27.6692Z" fill="#0B1F33"/>
<path d="M0.912048 26.1221L57.7936 82.9392L135.45 62.1273L136.867 56.8314L79.9916 -0.0078125L2.32912 20.8262L0.912048 26.1221Z" fill="#1F3249"/>
<path opacity="0.2" d="M79.9922 -0.0078125L78.5751 5.2875L0.912094 26.1221L2.32915 20.8262L79.9922 -0.0078125Z" fill="white"/>
<path opacity="0.2" d="M78.5742 5.28906L2.29597 24.8112L2.32825 20.8278L0.911186 26.1237L78.5742 5.28906Z" fill="white"/>
<path d="M57.7928 82.9408L135.449 62.1288L78.5742 5.28906L0.911133 26.1237L57.7928 82.9408Z" fill="#182B43"/>
<path d="M27.1168 36.6321C28.7598 30.7642 34.25 25.9399 43.2311 23.5307C61.3565 18.6681 86.8105 25.4803 100.084 38.7461C106.604 45.2618 108.964 52.12 107.536 57.9909C107.515 58.0853 107.502 58.1821 107.478 58.2754L99.8163 86.9042C101.405 80.9676 99.0686 73.9802 92.4327 67.3432C79.1586 54.075 53.7058 47.2634 35.5792 52.1278C26.515 54.5627 21.0009 59.4492 19.4123 65.3858L27.0648 36.7917C27.0792 36.7379 27.1013 36.6859 27.1168 36.6321Z" fill="#1F3249"/>
<path d="M23.7692 49.1399C25.4122 43.2721 30.9023 38.4477 39.8834 36.0385C58.0088 31.1759 83.4628 37.9881 96.7364 51.2539C103.256 57.7696 105.616 64.6278 104.189 70.4987C104.168 70.5931 104.155 70.69 104.13 70.7832L103.164 74.3949C104.752 68.4583 102.416 61.471 95.7801 54.8345C82.5059 41.5663 57.0532 34.7547 38.9266 39.6191C29.8624 42.054 24.3483 46.9405 22.7597 52.8771L23.7172 49.3001C23.7309 49.2457 23.753 49.1937 23.7692 49.1399Z" fill="#2554E7"/>
<path opacity="0.2" d="M87.6771 53.2128C96.0067 54.8576 99.8228 45.4958 93.4314 33.2891C95.8729 34.956 98.1153 36.7776 100.084 38.7458C106.604 45.2615 108.964 52.1197 107.536 57.9906C107.515 58.085 107.502 58.1818 107.478 58.2751L99.8163 86.9038C101.405 80.9672 99.0686 73.9799 92.4327 67.3428C79.1586 54.0747 53.7058 47.2631 35.5792 52.1275C35.5744 52.1287 35.5696 52.1305 35.5648 52.1317C35.5696 52.1299 35.5732 52.1281 35.578 52.1269C57.067 44.6698 76.5766 51.0212 87.6771 53.2128Z" fill="#0B1F33"/>
<path d="M53.4044 99.3651C31.202 93.4237 15.984 78.2159 19.4142 65.3975C22.8444 52.579 43.6238 47.004 65.8262 52.9454C88.0287 58.8867 103.247 74.0945 99.8164 86.913C96.3862 99.7314 75.6069 105.306 53.4044 99.3651Z" fill="#314157"/>
<path d="M53.8266 97.7803C32.4743 92.0665 17.7557 77.7524 20.9517 65.8089C24.1478 53.8654 44.0482 48.8153 65.4006 54.5291C86.753 60.243 101.472 74.5571 98.2755 86.5006C95.0795 98.4441 75.179 103.494 53.8266 97.7803Z" fill="#1F3249"/>
<path opacity="0.2" d="M62.2705 91.8634C75.4275 87.3911 77.2079 68.0721 66.3567 58.1562L84.6543 63.0529C86.9953 64.6206 89.1481 66.3299 91.0421 68.1719C103.881 80.6578 100.216 94.3503 82.8577 98.7551C66.1577 102.993 42.8721 97.087 29.6971 85.5144C39.656 90.729 53.3402 94.8983 62.2705 91.8634Z" fill="#0B1F33"/>
<path d="M91.043 68.1763C91.6885 68.8045 92.2813 69.4362 92.8438 70.0685C92.0405 70.3357 91.2115 70.5867 90.3383 70.8084C72.9797 75.2132 48.5006 68.6616 35.6621 56.1758C35.0166 55.5477 34.4238 54.9159 33.8614 54.2836C34.6646 54.0164 35.4936 53.7654 36.3668 53.5437C53.7254 49.1395 78.2045 55.6905 91.043 68.1763Z" fill="#0B1F33"/>
</svg>
