<svg width="24" height="24" viewBox="0 0 24 24" fill="none" xmlns="http://www.w3.org/2000/svg">
<path fill-rule="evenodd" clip-rule="evenodd" d="M12 8.25C9.92893 8.25 8.25 9.92893 8.25 12C8.25 14.0711 9.92893 15.75 12 15.75C14.0711 15.75 15.75 14.0711 15.75 12C15.75 9.92893 14.0711 8.25 12 8.25ZM9.75 12C9.75 10.7574 10.7574 9.75 12 9.75C13.2426 9.75 14.25 10.7574 14.25 12C14.25 13.2426 13.2426 14.25 12 14.25C10.7574 14.25 9.75 13.2426 9.75 12Z" fill="#9AA3AD"/>
<path fill-rule="evenodd" clip-rule="evenodd" d="M12.002 3.24716C7.48782 3.24716 4.44724 5.95136 2.68252 8.24402L2.65069 8.28536C2.25159 8.80369 1.88401 9.28108 1.63464 9.84556C1.36759 10.4501 1.25195 11.1089 1.25195 11.9972C1.25195 12.8855 1.36759 13.5443 1.63464 14.1488C1.88401 14.7133 2.25159 15.1907 2.6507 15.709L2.68252 15.7503C4.44724 18.043 7.48782 20.7472 12.002 20.7472C16.5161 20.7472 19.5567 18.043 21.3214 15.7503L21.3532 15.709C21.7524 15.1907 22.1199 14.7133 22.3693 14.1488C22.6364 13.5443 22.752 12.8855 22.752 11.9972C22.752 11.1089 22.6364 10.4501 22.3693 9.84556C22.1199 9.28107 21.7524 8.80368 21.3532 8.28534L21.3214 8.24402C19.5567 5.95136 16.5161 3.24716 12.002 3.24716ZM3.87117 9.15896C5.50059 7.04208 8.15231 4.74716 12.002 4.74716C15.8516 4.74716 18.5034 7.04208 20.1328 9.15896C20.5714 9.72875 20.8283 10.0693 20.9972 10.4517C21.1552 10.8092 21.252 11.2461 21.252 11.9972C21.252 12.7483 21.1552 13.1852 20.9972 13.5427C20.8283 13.9251 20.5714 14.2656 20.1328 14.8354C18.5034 16.9523 15.8516 19.2472 12.002 19.2472C8.15231 19.2472 5.50059 16.9523 3.87117 14.8354C3.43259 14.2656 3.17569 13.9251 3.00671 13.5427C2.84879 13.1852 2.75195 12.7483 2.75195 11.9972C2.75195 11.2461 2.84879 10.8092 3.00671 10.4517C3.17569 10.0693 3.43258 9.72875 3.87117 9.15896Z" fill="#9AA3AD"/>
</svg>
