<svg width="17" height="20" viewBox="0 0 17 20" fill="none" xmlns="http://www.w3.org/2000/svg">
<path fill-rule="evenodd" clip-rule="evenodd" d="M13.25 0.25C11.4551 0.25 10 1.70507 10 3.5C10 3.69591 10.0173 3.88776 10.0506 4.07412L5.31991 7.38558C5.29587 7.4024 5.27312 7.42038 5.25168 7.43939C4.69993 7.00747 4.00503 6.75 3.25 6.75C1.45507 6.75 0 8.2051 0 10C0 11.7949 1.45507 13.25 3.25 13.25C4.00503 13.25 4.69993 12.9925 5.25168 12.5606C5.27312 12.5796 5.29587 12.5976 5.31991 12.6144L10.0506 15.9259C10.0173 16.1122 10 16.3041 10 16.5C10 18.2949 11.4551 19.75 13.25 19.75C15.0449 19.75 16.5 18.2949 16.5 16.5C16.5 14.7051 15.0449 13.25 13.25 13.25C12.1972 13.25 11.2613 13.7506 10.6674 14.5267L6.18806 11.3911C6.38809 10.9694 6.5 10.4978 6.5 10C6.5 9.5022 6.38809 9.0306 6.18806 8.6089L10.6674 5.4733C11.2613 6.24942 12.1972 6.75 13.25 6.75C15.0449 6.75 16.5 5.29493 16.5 3.5C16.5 1.70507 15.0449 0.25 13.25 0.25ZM11.5 3.5C11.5 2.5335 12.2835 1.75 13.25 1.75C14.2165 1.75 15 2.5335 15 3.5C15 4.4665 14.2165 5.25 13.25 5.25C12.2835 5.25 11.5 4.4665 11.5 3.5ZM3.25 8.25C2.2835 8.25 1.5 9.0335 1.5 10C1.5 10.9665 2.2835 11.75 3.25 11.75C4.2165 11.75 5 10.9665 5 10C5 9.0335 4.2165 8.25 3.25 8.25ZM13.25 14.75C12.2835 14.75 11.5 15.5335 11.5 16.5C11.5 17.4665 12.2835 18.25 13.25 18.25C14.2165 18.25 15 17.4665 15 16.5C15 15.5335 14.2165 14.75 13.25 14.75Z" fill="white"/>
</svg>
