<svg width="28" height="28" viewBox="0 0 28 28" fill="none" xmlns="http://www.w3.org/2000/svg">
<path d="M2.12005 13.3035C2.12005 13.3035 12.8067 8.75705 16.513 7.15613C17.9338 6.51582 22.752 4.46664 22.752 4.46664C22.752 4.46664 24.9758 3.5702 24.7905 5.74735C24.7287 6.64388 24.2345 9.78155 23.7404 13.1754C22.9991 17.9781 22.196 23.2289 22.196 23.2289C22.196 23.2289 22.0725 24.7018 21.0224 24.9579C19.9723 25.214 18.2426 24.0615 17.9338 23.8052C17.6866 23.6132 13.3008 20.7316 11.6948 19.3228C11.2623 18.9386 10.7682 18.1702 11.7565 17.2737C13.9803 15.1605 16.6365 12.5351 18.2426 10.8702C18.9839 10.1017 19.7251 8.30878 16.6365 10.4859C12.2507 13.6237 7.92665 16.5693 7.92665 16.5693C7.92665 16.5693 6.93827 17.2096 5.08512 16.6333C3.23189 16.0571 1.06986 15.2886 1.06986 15.2886C1.06986 15.2886 -0.412594 14.3281 2.12005 13.3035Z" fill="#9AA3AD"/>
</svg>
