<svg width="44" height="44" viewBox="0 0 44 44" fill="none" xmlns="http://www.w3.org/2000/svg">
    <path opacity="0.5" d="M16.3197 3.66412H13.0014C12.6956 3.66476 12.3948 3.74187 12.1265 3.88844C11.8581 4.03501 11.6306 4.24638 11.4648 4.5033C11.299 4.76023 11.2001 5.05455 11.1771 5.35946C11.1541 5.66438 11.2077 5.97022 11.3331 6.24912L17.9697 21.1358C19.2197 20.501 20.6011 20.1682 22.0031 20.1641C23.0689 20.1693 24.1249 20.3681 25.1197 20.7508L18.0064 4.74579C17.8605 4.42127 17.6234 4.14621 17.3239 3.95415C17.0244 3.76208 16.6755 3.66131 16.3197 3.66412Z" fill="white"/>
    <path d="M27.6828 3.66412H31.0011C31.3069 3.66476 31.6077 3.74187 31.8761 3.88844C32.1444 4.03501 32.3719 4.24638 32.5377 4.5033C32.7035 4.76023 32.8024 5.05455 32.8255 5.35946C32.8485 5.66438 32.7949 5.97022 32.6695 6.24912L26.0328 21.1358C24.7828 20.501 23.4014 20.1682 21.9995 20.1641C20.9336 20.1693 19.8776 20.3681 18.8828 20.7508L25.9961 4.74579C26.142 4.42127 26.3791 4.14621 26.6786 3.95415C26.9781 3.76208 27.327 3.66131 27.6828 3.66412Z" fill="white"/>
    <path d="M22 40.3359C28.0751 40.3359 33 35.4111 33 29.3359C33 23.2608 28.0751 18.3359 22 18.3359C15.9249 18.3359 11 23.2608 11 29.3359C11 35.4111 15.9249 40.3359 22 40.3359Z" fill="white"/>
    <path d="M20.776 33.9302C20.5188 33.9272 20.2651 33.8702 20.0313 33.7629C19.7976 33.6555 19.5891 33.5001 19.4193 33.3068L16.9627 30.5568C16.6393 30.1922 16.4741 29.714 16.5033 29.2275C16.5325 28.741 16.7538 28.286 17.1185 27.9627C17.4832 27.6393 17.9614 27.4741 18.4479 27.5033C18.9344 27.5325 19.3893 27.7538 19.7127 28.1185L20.776 29.3285L24.296 25.3685C24.4561 25.1879 24.6502 25.0407 24.8672 24.9351C25.0842 24.8296 25.3199 24.7678 25.5608 24.7533C25.8017 24.7388 26.0431 24.772 26.2712 24.8508C26.4993 24.9296 26.7096 25.0526 26.8902 25.2127C27.0707 25.3728 27.218 25.5669 27.3235 25.7839C27.4291 26.0009 27.4909 26.2366 27.5053 26.4775C27.5198 26.7184 27.4867 26.9597 27.4079 27.1878C27.3291 27.4159 27.2061 27.6263 27.046 27.8068L22.151 33.3068C21.9792 33.5024 21.7677 33.6591 21.5306 33.7666C21.2936 33.8741 21.0363 33.9298 20.776 33.9302Z" fill="#09C274"/>
</svg>