<svg width="54" height="54" viewBox="0 0 54 54" fill="none" xmlns="http://www.w3.org/2000/svg">
<rect width="54" height="54" rx="27" fill="#EDF2FE"/>
<path d="M26.125 34.2889H23.5C22.2167 34.2889 21.1667 35.3389 21.1667 36.6222V36.9139H20C19.5217 36.9139 19.125 37.3105 19.125 37.7889C19.125 38.2672 19.5217 38.6639 20 38.6639H34C34.4783 38.6639 34.875 38.2672 34.875 37.7889C34.875 37.3105 34.4783 36.9139 34 36.9139H32.8333V36.6222C32.8333 35.3389 31.7833 34.2889 30.5 34.2889H27.875V31.6172C27.5833 31.6522 27.2917 31.6639 27 31.6639C26.7083 31.6639 26.4167 31.6522 26.125 31.6172V34.2889Z" fill="#2554E7"/>
<path d="M34.5602 26.5748C35.3302 26.2831 36.0068 25.8048 36.5435 25.2681C37.6285 24.0665 38.3402 22.6315 38.3402 20.9515C38.3402 19.2715 37.0218 17.9531 35.3418 17.9531H34.6885C33.9302 16.4015 32.3435 15.3281 30.5002 15.3281H23.5002C21.6568 15.3281 20.0702 16.4015 19.3118 17.9531H18.6585C16.9785 17.9531 15.6602 19.2715 15.6602 20.9515C15.6602 22.6315 16.3718 24.0665 17.4568 25.2681C17.9935 25.8048 18.6702 26.2831 19.4402 26.5748C20.6535 29.5615 23.5702 31.6615 27.0002 31.6615C30.4302 31.6615 33.3468 29.5615 34.5602 26.5748ZM30.3135 22.8531L29.5902 23.7398C29.4735 23.8681 29.3918 24.1248 29.4035 24.2998L29.4735 25.4431C29.5202 26.1431 29.0185 26.5048 28.3652 26.2481L27.3035 25.8281C27.1402 25.7698 26.8602 25.7698 26.6968 25.8281L25.6352 26.2481C24.9818 26.5048 24.4802 26.1431 24.5268 25.4431L24.5968 24.2998C24.6085 24.1248 24.5268 23.8681 24.4102 23.7398L23.6868 22.8531C23.2318 22.3165 23.4302 21.7215 24.1068 21.5465L25.2152 21.2665C25.3902 21.2198 25.6002 21.0565 25.6935 20.9048L26.3118 19.9481C26.6968 19.3531 27.3035 19.3531 27.6885 19.9481L28.3068 20.9048C28.4002 21.0565 28.6102 21.2198 28.7852 21.2665L29.8935 21.5465C30.5702 21.7215 30.7685 22.3165 30.3135 22.8531Z" fill="#2554E7"/>
</svg>
