<svg width="28" height="28" viewBox="0 0 28 28" fill="none" xmlns="http://www.w3.org/2000/svg">
<path d="M15.0331 6.85938H5.95645C3.96145 6.85938 2.32812 8.4927 2.32812 10.4877V23.7411C2.32812 25.4327 3.54146 26.1561 5.02312 25.3277L9.60811 22.7727C10.0981 22.5044 10.8915 22.5044 11.3698 22.7727L15.9548 25.3277C17.4365 26.1561 18.6498 25.4327 18.6498 23.7411V10.4877C18.6615 8.4927 17.0281 6.85938 15.0331 6.85938Z" fill="#2554E7"/>
<path opacity="0.4" d="M25.6615 5.96133V19.2147C25.6615 20.9063 24.4481 21.618 22.9665 20.8013L18.6615 18.398V10.488C18.6615 8.493 17.0281 6.85967 15.0331 6.85967H9.32812V5.96133C9.32812 3.96633 10.9614 2.33301 12.9565 2.33301H22.0331C24.0281 2.33301 25.6615 3.96633 25.6615 5.96133Z" fill="#2554E7"/>
</svg>
