<svg width="44" height="44" viewBox="0 0 44 44" fill="none" xmlns="http://www.w3.org/2000/svg">
<rect width="44" height="44" rx="22" fill="#179EDF" fill-opacity="0.08"/>
<path d="M29.7096 13.6467C29.7096 13.6467 31.6523 12.8892 31.4904 14.7288C31.4364 15.4863 30.9508 18.1376 30.573 21.0053L29.2779 29.5001C29.2779 29.5001 29.17 30.7446 28.1987 30.961C27.2273 31.1774 25.7704 30.2035 25.5005 29.9871C25.2847 29.8248 21.4534 27.3899 20.1043 26.1996C19.7265 25.8749 19.2948 25.2256 20.1582 24.4681L25.8243 19.0574C26.4719 18.4081 27.1194 16.8931 24.4213 18.7328L16.8665 23.873C16.8665 23.873 16.0031 24.414 14.3843 23.9271L10.8767 22.8449C10.8767 22.8449 9.58161 22.0333 11.7941 21.2217C17.1903 18.6786 23.8277 16.0815 29.7096 13.6467Z" fill="#179EDF"/>
</svg>
