<svg width="19" height="16" viewBox="0 0 19 16" fill="none" xmlns="http://www.w3.org/2000/svg">
<path d="M1.15625 12.5859H5.32292" stroke="#0B1F33" stroke-width="1.5" stroke-miterlimit="10" stroke-linecap="round" stroke-linejoin="round"/>
<path d="M17.8229 3.42188H13.6562" stroke="#0B1F33" stroke-width="1.5" stroke-miterlimit="10" stroke-linecap="round" stroke-linejoin="round"/>
<path d="M10.3203 12.5859H17.8203" stroke="#0B1F33" stroke-width="1.5" stroke-miterlimit="10" stroke-linecap="round" stroke-linejoin="round"/>
<path d="M8.65625 3.42188H1.15625" stroke="#0B1F33" stroke-width="1.5" stroke-miterlimit="10" stroke-linecap="round" stroke-linejoin="round"/>
<path d="M7.82031 15C6.4396 15 5.32031 13.8807 5.32031 12.5C5.32031 11.1192 6.4396 10 7.82031 10C9.20106 10 10.3203 11.1192 10.3203 12.5C10.3203 13.8807 9.20106 15 7.82031 15Z" stroke="#0B1F33" stroke-width="1.5" stroke-miterlimit="10" stroke-linecap="round" stroke-linejoin="round"/>
<path d="M11.1562 5.83594C12.537 5.83594 13.6562 4.71665 13.6562 3.33594C13.6562 1.95523 12.537 0.835938 11.1562 0.835938C9.7755 0.835938 8.65625 1.95523 8.65625 3.33594C8.65625 4.71665 9.7755 5.83594 11.1562 5.83594Z" stroke="#0B1F33" stroke-width="1.5" stroke-miterlimit="10" stroke-linecap="round" stroke-linejoin="round"/>
</svg>
