<svg width="32" height="32" viewBox="0 0 32 32" fill="none" xmlns="http://www.w3.org/2000/svg">
<rect width="32" height="32" rx="16" fill="#179EDF" fill-opacity="0.08"/>
<path d="M21.7803 9.73306C21.7803 9.73306 23.2373 9.16493 23.1158 10.5447C23.0754 11.1128 22.7111 13.1012 22.4278 15.252L21.4565 21.6231C21.4565 21.6231 21.3756 22.5565 20.6471 22.7188C19.9186 22.8811 18.8258 22.1507 18.6235 21.9884C18.4616 21.8666 15.5881 20.0405 14.5763 19.1477C14.293 18.9042 13.9692 18.4173 14.6167 17.8491L18.8663 13.7911C19.352 13.3042 19.8376 12.1679 17.814 13.5476L12.148 17.4028C12.148 17.4028 11.5004 17.8086 10.2863 17.4434L7.65558 16.6317C7.65558 16.6317 6.68425 16.023 8.3436 15.4143C12.3908 13.507 17.3689 11.5592 21.7803 9.73306Z" fill="#179EDF"/>
</svg>
