<svg width="54" height="54" viewBox="0 0 54 54" fill="none" xmlns="http://www.w3.org/2000/svg">
<rect width="54" height="54" rx="27" fill="#EDF2FE"/>
<g clip-path="url(#clip0_4562_75322)">
<path fill-rule="evenodd" clip-rule="evenodd" d="M28.7487 16.5C34.2255 16.5 38.6654 20.9398 38.6654 26.4167C38.6654 31.8935 34.2255 36.3333 28.7487 36.3333H28.1654V37.4883C28.1654 38.1391 27.6376 38.6672 26.9859 38.6667C24.1157 38.6639 21.2084 37.7066 19.0029 35.7452C16.776 33.7648 15.3346 30.8207 15.332 27.0101V26.4167C15.332 20.9398 19.7719 16.5 25.2487 16.5H28.7487ZM22.9154 24.6667C21.9489 24.6667 21.1654 25.4502 21.1654 26.4167C21.1654 27.3831 21.9489 28.1667 22.9154 28.1667C23.8819 28.1667 24.6654 27.3831 24.6654 26.4167C24.6654 25.4502 23.8819 24.6667 22.9154 24.6667ZM31.082 24.6667C30.1156 24.6667 29.332 25.4502 29.332 26.4167C29.332 27.3831 30.1156 28.1667 31.082 28.1667C32.0485 28.1667 32.832 27.3831 32.832 26.4167C32.832 25.4502 32.0485 24.6667 31.082 24.6667Z" fill="#2554E7"/>
</g>
<defs>
<clipPath id="clip0_4562_75322">
<rect width="28" height="28" fill="white" transform="translate(13 13)"/>
</clipPath>
</defs>
</svg>
