<svg width="54" height="54" viewBox="0 0 54 54" fill="none" xmlns="http://www.w3.org/2000/svg">
<rect width="54" height="54" rx="27" fill="#EDF2FE"/>
<path d="M26.125 34.2889H23.5C22.2167 34.2889 21.1667 35.3389 21.1667 36.6222V36.9139H20C19.5217 36.9139 19.125 37.3105 19.125 37.7889C19.125 38.2672 19.5217 38.6639 20 38.6639H34C34.4783 38.6639 34.875 38.2672 34.875 37.7889C34.875 37.3105 34.4783 36.9139 34 36.9139H32.8333V36.6222C32.8333 35.3389 31.7833 34.2889 30.5 34.2889H27.875V31.6172C27.5833 31.6522 27.2917 31.6639 27 31.6639C26.7083 31.6639 26.4167 31.6522 26.125 31.6172V34.2889Z" fill="#2554E7"/>
<path d="M34.5602 26.5826C35.3302 26.2909 36.0068 25.8126 36.5435 25.2759C37.6285 24.0743 38.3402 22.6393 38.3402 20.9593C38.3402 19.2793 37.0218 17.9609 35.3418 17.9609H34.6885C33.9302 16.4093 32.3435 15.3359 30.5002 15.3359H23.5002C21.6568 15.3359 20.0702 16.4093 19.3118 17.9609H18.6585C16.9785 17.9609 15.6602 19.2793 15.6602 20.9593C15.6602 22.6393 16.3718 24.0743 17.4568 25.2759C17.9935 25.8126 18.6702 26.2909 19.4402 26.5826C20.6535 29.5693 23.5702 31.6693 27.0002 31.6693C30.4302 31.6693 33.3468 29.5693 34.5602 26.5826ZM30.3135 22.8609L29.5902 23.7476C29.4735 23.8759 29.3918 24.1326 29.4035 24.3076L29.4735 25.4509C29.5202 26.1509 29.0185 26.5126 28.3652 26.2559L27.3035 25.8359C27.1402 25.7776 26.8602 25.7776 26.6968 25.8359L25.6352 26.2559C24.9818 26.5126 24.4802 26.1509 24.5268 25.4509L24.5968 24.3076C24.6085 24.1326 24.5268 23.8759 24.4102 23.7476L23.6868 22.8609C23.2318 22.3243 23.4302 21.7293 24.1068 21.5543L25.2152 21.2743C25.3902 21.2276 25.6002 21.0643 25.6935 20.9126L26.3118 19.9559C26.6968 19.3609 27.3035 19.3609 27.6885 19.9559L28.3068 20.9126C28.4002 21.0643 28.6102 21.2276 28.7852 21.2743L29.8935 21.5543C30.5702 21.7293 30.7685 22.3243 30.3135 22.8609Z" fill="#2554E7"/>
</svg>
