<svg width="25" height="24" viewBox="0 0 25 24" fill="none" xmlns="http://www.w3.org/2000/svg">
<path d="M2.48438 17.5H7.48438" stroke="#2554E7" stroke-width="1.8" stroke-miterlimit="10" stroke-linecap="round" stroke-linejoin="round"/>
<path d="M22.4844 6.5H17.4844" stroke="#2554E7" stroke-width="1.8" stroke-miterlimit="10" stroke-linecap="round" stroke-linejoin="round"/>
<path d="M13.4805 17.5H22.4805" stroke="#2554E7" stroke-width="1.8" stroke-miterlimit="10" stroke-linecap="round" stroke-linejoin="round"/>
<path d="M11.4844 6.5H2.48438" stroke="#2554E7" stroke-width="1.8" stroke-miterlimit="10" stroke-linecap="round" stroke-linejoin="round"/>
<path d="M10.4805 20.3984C8.82362 20.3984 7.48047 19.0553 7.48047 17.3984C7.48047 15.7415 8.82362 14.3984 10.4805 14.3984C12.1374 14.3984 13.4805 15.7415 13.4805 17.3984C13.4805 19.0553 12.1374 20.3984 10.4805 20.3984Z" stroke="#2554E7" stroke-width="1.8" stroke-miterlimit="10" stroke-linecap="round" stroke-linejoin="round"/>
<path d="M14.4844 9.39844C16.1413 9.39844 17.4844 8.0553 17.4844 6.39844C17.4844 4.74159 16.1413 3.39844 14.4844 3.39844C12.8275 3.39844 11.4844 4.74159 11.4844 6.39844C11.4844 8.0553 12.8275 9.39844 14.4844 9.39844Z" stroke="#2554E7" stroke-width="1.8" stroke-miterlimit="10" stroke-linecap="round" stroke-linejoin="round"/>
</svg>
