<svg width="36" height="36" viewBox="0 0 36 36" fill="none" xmlns="http://www.w3.org/2000/svg">
<path d="M13.5 33H22.5C30 33 33 30 33 22.5V13.5C33 6 30 3 22.5 3H13.5C6 3 3 6 3 13.5V22.5C3 30 6 33 13.5 33Z" fill="#2554E7" stroke="#2554E7" stroke-width="2.25" stroke-linecap="round" stroke-linejoin="round"/>
<path d="M13.6484 18.0002V15.7802C13.6484 12.9152 15.6734 11.7602 18.1484 13.1852L20.0684 14.2952L21.9884 15.4052C24.4634 16.8302 24.4634 19.1702 21.9884 20.5952L20.0684 21.7052L18.1484 22.8152C15.6734 24.2402 13.6484 23.0702 13.6484 20.2202V18.0002Z" stroke="white" stroke-width="2.25" stroke-miterlimit="10" stroke-linecap="round" stroke-linejoin="round"/>
</svg>
