<svg width="20" height="20" viewBox="0 0 20 20" fill="none" xmlns="http://www.w3.org/2000/svg">
<path d="M3.33594 4.9974V15.8307C3.33594 17.2115 4.45523 18.3307 5.83594 18.3307H14.1693C15.55 18.3307 16.6693 17.2115 16.6693 15.8307V7.4974C16.6693 6.11669 15.55 4.9974 14.1693 4.9974H3.33594ZM3.33594 4.9974V4.16406" stroke="#2554E7" stroke-width="1.5"/>
<path d="M15.0026 5.00062V5.62562H15.6276V5.00062H15.0026ZM4.2285 5.62562H15.0026V4.37562H4.2285V5.62562ZM15.6276 5.00062V3.58897H14.3776V5.00062H15.6276ZM13.0119 1.32034L4.01388 2.60576L4.19065 3.8432L13.1886 2.55777L13.0119 1.32034ZM4.01388 2.60576C3.26625 2.71256 2.71094 3.35285 2.71094 4.10806H3.96094C3.96094 3.97491 4.05885 3.86203 4.19065 3.8432L4.01388 2.60576ZM15.6276 3.58897C15.6276 2.19438 14.3924 1.12311 13.0119 1.32034L13.1886 2.55777C13.8162 2.46813 14.3776 2.95506 14.3776 3.58897H15.6276ZM4.2285 4.37562C4.08073 4.37562 3.96094 4.25583 3.96094 4.10806H2.71094C2.71094 4.94619 3.39037 5.62562 4.2285 5.62562V4.37562Z" fill="#2554E7"/>
<path d="M6.66406 10H13.3307" stroke="#2554E7" stroke-width="1.5" stroke-linecap="round"/>
<path d="M6.66406 12.9141H11.2474" stroke="#2554E7" stroke-width="1.5" stroke-linecap="round"/>
</svg>
