<svg width="16" height="16" viewBox="0 0 16 16" fill="none" xmlns="http://www.w3.org/2000/svg">
<path d="M9.57338 2.72171L10.1912 2.10379C11.215 1.07999 12.875 1.07999 13.8988 2.10379C14.9226 3.12759 14.9226 4.78751 13.8988 5.81131L13.2808 6.42923M9.57338 2.72171C9.57338 2.72171 9.65058 4.03479 10.8092 5.19339C11.9678 6.35199 13.2808 6.42923 13.2808 6.42923M9.57338 2.72171L3.89253 8.40254C3.50775 8.78734 3.31537 8.97967 3.14991 9.19181C2.95473 9.44207 2.78741 9.71281 2.65087 9.99927C2.53513 10.2421 2.4491 10.5003 2.27702 11.0165L1.54785 13.204M13.2808 6.42923L7.60005 12.1101C7.21525 12.4948 7.02291 12.6872 6.81078 12.8527C6.56053 13.0479 6.28977 13.2152 6.0033 13.3517C5.76045 13.4675 5.50233 13.5535 4.9861 13.7255L2.79859 14.4547M1.54785 13.204L1.36961 13.7387C1.28493 13.9927 1.35105 14.2728 1.5404 14.4622C1.72975 14.6515 2.00983 14.7177 2.26387 14.633L2.79859 14.4547M1.54785 13.204L2.79859 14.4547" stroke="#CAD0D6" stroke-width="1.5"/>
</svg>
