<svg width="44" height="44" viewBox="0 0 44 44" fill="none" xmlns="http://www.w3.org/2000/svg">
<rect width="44" height="44" rx="22" fill="#397EFF" fill-opacity="0.08"/>
<path d="M28.4221 15.0428C28.4221 15.0428 30.041 14.4116 29.9061 15.9446C29.8611 16.5759 29.4564 18.7852 29.1416 21.175L28.0624 28.254C28.0624 28.254 27.9724 29.2911 27.163 29.4714C26.3535 29.6518 25.1394 28.8402 24.9145 28.6598C24.7346 28.5246 21.5419 26.4955 20.4176 25.5036C20.1029 25.233 19.7431 24.6919 20.4626 24.0607L25.1844 19.5518C25.724 19.0107 26.2636 17.7482 24.0151 19.2812L17.7195 23.5647C17.7195 23.5647 17 24.0156 15.651 23.6098L12.728 22.708C12.728 22.708 11.6487 22.0317 13.4925 21.3553C17.9894 19.2361 23.5205 17.0718 28.4221 15.0428Z" fill="#397EFF"/>
</svg>
