<svg width="37" height="36" viewBox="0 0 37 36" fill="none" xmlns="http://www.w3.org/2000/svg">
<path d="M5 12L13.1749 17.45C15.0994 18.7329 16.0617 19.3745 17.1017 19.6238C18.0209 19.844 18.9791 19.844 19.8983 19.6238C20.9383 19.3745 21.9007 18.7329 23.8251 17.45L32 12M9.8 28.5H27.2C28.8801 28.5 29.7203 28.5 30.362 28.173C30.9265 27.8855 31.3854 27.4265 31.673 26.862C32 26.2203 32 25.3802 32 23.7V12.3C32 10.6198 32 9.77976 31.673 9.13803C31.3854 8.57354 30.9265 8.11459 30.362 7.82698C29.7203 7.5 28.8801 7.5 27.2 7.5H9.8C8.11985 7.5 7.27976 7.5 6.63803 7.82698C6.07354 8.11459 5.61459 8.57354 5.32698 9.13803C5 9.77976 5 10.6198 5 12.3V23.7C5 25.3802 5 26.2203 5.32698 26.862C5.61459 27.4265 6.07354 27.8855 6.63803 28.173C7.27976 28.5 8.11983 28.5 9.8 28.5Z" fill="#9AA3AD"/>
<path d="M5 12L13.1749 17.45C15.0994 18.7329 16.0617 19.3745 17.1017 19.6238C18.0209 19.844 18.9791 19.844 19.8983 19.6238C20.9383 19.3745 21.9007 18.7329 23.8252 17.45L32 12M9.8 28.5H27.2C28.8801 28.5 29.7203 28.5 30.362 28.173C30.9265 27.8855 31.3854 27.4265 31.673 26.862C32 26.2203 32 25.3802 32 23.7V12.3C32 10.6198 32 9.77976 31.673 9.13803C31.3854 8.57354 30.9265 8.11459 30.362 7.82698C29.7203 7.5 28.8801 7.5 27.2 7.5H9.8C8.11985 7.5 7.27976 7.5 6.63803 7.82698C6.07354 8.11459 5.61459 8.57354 5.32698 9.13803C5 9.77976 5 10.6198 5 12.3V23.7C5 25.3802 5 26.2203 5.32698 26.862C5.61459 27.4265 6.07354 27.8855 6.63803 28.173C7.27976 28.5 8.11983 28.5 9.8 28.5Z" stroke="#F3F4F5" stroke-width="1.5" stroke-linecap="round" stroke-linejoin="round"/>
</svg>
