<svg width="22" height="20" viewBox="0 0 22 20" fill="none" xmlns="http://www.w3.org/2000/svg">
<path fill-rule="evenodd" clip-rule="evenodd" d="M11 2.45876C10.8671 2.32021 10.7202 2.17671 10.5597 2.03291C9.6945 1.25784 8.34498 0.398438 6.6 0.398438C4.70003 0.398438 3.03124 1.04527 1.83468 2.25816C0.638125 3.47105 0 5.16262 0 7.08852C0 9.03109 0.917055 11.0629 2.62898 13.0754C4.34668 15.0946 6.93101 17.1763 10.4473 19.2475C10.789 19.4487 11.211 19.4487 11.5527 19.2475C15.0609 17.1811 17.6466 15.1469 19.3667 13.1492C21.0887 11.1494 22 9.11657 22 7.08852C22 5.16262 21.3619 3.47105 20.1653 2.25816C18.9688 1.04527 17.3 0.398438 15.4 0.398438C13.655 0.398438 12.3055 1.25784 11.4403 2.03291C11.2798 2.17671 11.1329 2.32021 11 2.45876Z" fill="#CAD0D6"/>
</svg>
