<svg width="54" height="54" viewBox="0 0 54 54" fill="none" xmlns="http://www.w3.org/2000/svg">
<rect width="54" height="54" rx="27" fill="#F14545" fill-opacity="0.08"/>
<g clip-path="url(#clip0_5876_95358)">
<path d="M27 38.083C27.9665 38.083 28.75 37.2995 28.75 36.333C28.75 35.3665 27.9665 34.583 27 34.583C26.0335 34.583 25.25 35.3665 25.25 36.333C25.25 37.2995 26.0335 38.083 27 38.083Z" fill="#F14545"/>
<path d="M26.8846 32.2498H27.118C27.4289 32.2369 27.7246 32.1115 27.9499 31.8969C28.1753 31.6823 28.3149 31.3931 28.343 31.0831L29.3346 17.2581C29.3346 16.6393 29.0888 16.0458 28.6512 15.6082C28.2136 15.1706 27.6201 14.9248 27.0013 14.9248C26.3825 14.9248 25.789 15.1706 25.3514 15.6082C24.9138 16.0458 24.668 16.6393 24.668 17.2581L25.6596 31.0831C25.6877 31.3931 25.8273 31.6823 26.0527 31.8969C26.278 32.1115 26.5737 32.2369 26.8846 32.2498Z" fill="#F14545"/>
</g>
<defs>
<clipPath id="clip0_5876_95358">
<rect width="28" height="28" fill="white" transform="translate(13 13)"/>
</clipPath>
</defs>
</svg>
