<svg width="143" height="32" viewBox="0 0 143 32" fill="none" xmlns="http://www.w3.org/2000/svg">
<g opacity="0.6" clip-path="url(#clip0_3433_7811)">
<path d="M54.0446 15.2003C56.0099 12.3279 56.5686 9.84532 55.6681 8.95498C55.3855 8.68204 54.9582 8.53906 54.3995 8.53906C53.1704 8.53906 51.3563 9.22143 49.3516 10.5602C50.1863 11.1971 51.0211 11.9184 51.8427 12.7308C52.6643 13.5496 53.4005 14.375 54.0446 15.2003Z" fill="white"/>
<path d="M45.2438 12.7386C46.0654 11.9262 46.9001 11.1984 47.7349 10.568C45.7302 9.22925 43.916 8.54688 42.6869 8.54688C42.1348 8.54688 41.701 8.68335 41.4183 8.9628C40.5179 9.85313 41.0765 12.3292 43.0418 15.2081C43.686 14.3763 44.4221 13.5509 45.2438 12.7386Z" fill="white"/>
<path d="M53.4659 16.0017C52.8217 15.1504 52.0593 14.273 51.1785 13.4022C50.2977 12.5314 49.4104 11.7775 48.5493 11.1406C47.6883 11.7775 46.801 12.5314 45.9202 13.4022C45.0394 14.273 44.277 15.1504 43.6328 16.0017C44.277 16.8531 45.0394 17.7304 45.9202 18.6012C46.801 19.4721 47.6883 20.2259 48.5493 20.8628C49.4104 20.2259 50.2977 19.4721 51.1785 18.6012C52.0593 17.7304 52.8217 16.8531 53.4659 16.0017Z" fill="white"/>
<path d="M43.0497 16.7969C41.0844 19.6693 40.5257 22.1519 41.4261 23.0422C42.3266 23.9325 44.8309 23.3801 47.7427 21.4305C46.9079 20.7936 46.0732 20.0658 45.2516 19.2599C44.4234 18.4476 43.6872 17.6222 43.0497 16.7969Z" fill="white"/>
<path d="M33.8439 0H8.09124C3.62167 0 0 3.58083 0 8V24C0 28.4192 3.62167 32 8.09124 32H32.365H56.6387C61.1082 32 64.7299 28.4192 64.7299 24V0H33.8439ZM32.365 31.0642H8.09124C4.15407 31.0642 0.946498 27.8928 0.946498 24V8C0.946498 4.10723 4.15407 0.935825 8.09124 0.935825H32.365V31.0642ZM56.3363 23.7011C55.8696 24.1625 55.1992 24.3834 54.4039 24.3834C52.833 24.3834 50.7362 23.5321 48.5474 22.0114C46.3587 23.5321 44.2619 24.3834 42.691 24.3834C41.8891 24.3834 41.2252 24.1625 40.7586 23.7011C39.3717 22.3298 40.1407 19.2689 42.4609 16C40.1407 12.7311 39.3717 9.67019 40.7586 8.29894C42.1454 6.9277 45.2413 7.68806 48.5474 9.98213C51.8536 7.68806 54.9494 6.9277 56.3363 8.29894C57.7232 9.67019 56.9542 12.7311 54.6339 16C56.9608 19.2689 57.7298 22.3298 56.3363 23.7011Z" fill="white"/>
<path d="M51.8427 19.2599C51.0211 20.0723 50.1863 20.8001 49.3516 21.4305C52.2568 23.3736 54.7676 23.926 55.6681 23.0422C56.5686 22.1519 56.0099 19.6758 54.0446 16.7969C53.3939 17.6222 52.6577 18.4476 51.8427 19.2599Z" fill="white"/>
<path d="M6.82859 9.7349C5.96097 10.8072 5.57317 12.2694 5.84266 13.4587C6.53938 16.5391 9.43146 17.033 11.5545 17.306C13.2306 17.5204 14.8344 17.8259 14.7949 19.3011C14.7489 20.8348 13.0005 21.2117 11.8503 21.2117C8.85962 21.2117 8.76102 19.0282 8.76102 19.0282H5.54688C5.59289 19.847 5.84266 21.1663 6.86803 22.297C7.98542 23.5383 9.66808 24.1622 11.8569 24.1622C13.5395 24.1622 15.071 23.6228 16.1621 22.661V23.9802H19.1593V20.2109L20.2176 19.0606L23.2477 23.9867H26.7379L22.3275 16.7796L26.7379 12.003H22.8533L19.1593 16.0062V7.99972H16.1621V9.93636C16.0635 9.81288 15.9583 9.6894 15.8466 9.56593C14.7555 8.42214 13.1846 7.84375 11.1733 7.84375C8.85304 7.85025 7.53189 8.87706 6.82859 9.7349ZM11.2324 10.6187C12.5799 10.6187 13.9273 10.9177 14.44 12.7698H16.1621V15.6033C14.0128 13.8551 9.34601 14.9534 8.84647 12.7763C8.58355 11.6325 9.73381 10.6187 11.2324 10.6187Z" fill="white"/>
<path d="M72.3687 21.9771C72.5725 22.0421 72.8025 22.0746 73.072 22.0746C73.4072 22.0746 73.6767 21.9771 73.8805 21.7756C74.0843 21.5742 74.2157 21.3077 74.2814 21.0153L70.0156 12.0859H72.8551L75.5894 18.4937L77.9886 12.0859H80.69L76.8449 20.8853C76.3388 22.0486 75.8195 22.9129 75.2477 23.4588C74.6758 24.0242 74.058 24.3036 73.3678 24.3036C73.1312 24.3036 72.9471 24.3036 72.796 24.2712C72.6251 24.2517 72.4936 24.2192 72.3753 24.1867L72.0532 24.0892C71.9678 24.0567 71.8823 24.0242 71.8035 24.0047V21.7496C71.9612 21.8471 72.1452 21.9316 72.3687 21.9771Z" fill="white"/>
<path d="M85.317 20.6517C85.1461 20.7037 84.962 20.7361 84.7648 20.7816C84.5611 20.8141 84.3442 20.8466 84.1273 20.8661C83.9104 20.8986 83.6934 20.8986 83.4897 20.8986C82.9704 20.8986 82.53 20.8466 82.1291 20.7686C81.7413 20.6712 81.4061 20.5347 81.1366 20.3397C80.8671 20.1383 80.6633 19.8718 80.5319 19.5404C80.4004 19.2219 80.3281 18.8255 80.3281 18.3641V15.1797H82.6418V17.9157C82.6418 18.1626 82.6746 18.3836 82.7404 18.5266C82.793 18.6955 82.8916 18.8255 83.023 18.923C83.1545 19.0205 83.3057 19.092 83.5094 19.1244C83.7132 19.1569 83.9432 19.1764 84.2127 19.1764C84.6137 19.1764 84.916 19.1439 85.1526 19.079C85.3893 18.9945 85.5733 18.91 85.7048 18.832V15.1797H88.0184V24.0115H85.7048V20.5282C85.6193 20.5542 85.4813 20.5997 85.317 20.6517Z" fill="white"/>
<path d="M96.9944 22.9088C97.0141 23.0778 97.0601 23.2272 97.1127 23.3052C97.1653 23.4222 97.2113 23.4872 97.2836 23.5392C97.3493 23.5912 97.4019 23.6237 97.4873 23.6367V24.0006H94.9173L94.7859 23.5847C94.7202 23.4157 94.7004 23.2207 94.7004 22.9673L94.1812 23.4807C93.9971 23.6302 93.8131 23.7601 93.5962 23.8771C93.3793 23.9941 93.1427 24.0916 92.86 24.1566C92.5774 24.2216 92.2422 24.2541 91.8544 24.2541C91.4534 24.2541 91.0853 24.2021 90.7435 24.0851C90.4083 23.9681 90.1257 23.7861 89.8693 23.5717C89.6327 23.3377 89.4355 23.0583 89.2975 22.7073C89.1661 22.3759 89.0938 21.9795 89.0938 21.5311C89.0938 21.1671 89.1463 20.8357 89.2646 20.5173C89.383 20.1988 89.5473 19.9389 89.751 19.7049C89.9679 19.471 90.2243 19.276 90.5201 19.1265C90.8224 18.9575 91.1576 18.8601 91.5454 18.8081L93.8131 18.4766C93.8985 18.4571 93.984 18.4571 94.0826 18.4246C94.1812 18.4052 94.2666 18.3727 94.3521 18.3077C94.4375 18.2557 94.5032 18.1907 94.5558 18.1062C94.6084 18.0087 94.6413 17.8917 94.6413 17.7423C94.6413 17.5928 94.6084 17.4628 94.5755 17.3459C94.523 17.2159 94.4441 17.1119 94.3389 17.0274C94.2206 16.9299 94.0891 16.8584 93.9051 16.813C93.7211 16.761 93.4844 16.748 93.215 16.748C92.8929 16.748 92.6628 16.7805 92.4788 16.8324C92.275 16.8974 92.1239 17.0014 92.0253 17.0989C91.9069 17.2159 91.8215 17.3459 91.7755 17.4823L91.6769 17.9632H89.3632C89.3632 17.8658 89.383 17.7163 89.4158 17.5148C89.4487 17.3329 89.5144 17.1184 89.6196 16.8844C89.705 16.67 89.8562 16.436 90.0205 16.2021C90.1914 15.9681 90.4083 15.7536 90.7107 15.5522C90.9802 15.3702 91.3351 15.2013 91.7361 15.0843C92.137 14.9673 92.6103 14.9023 93.1821 14.8828C93.9708 14.8828 94.6281 14.9673 95.1277 15.1168C95.6141 15.2857 96.0019 15.5002 96.2845 15.7472C96.554 16.0136 96.738 16.293 96.8366 16.6115C96.9221 16.9299 96.9681 17.2419 96.9681 17.5603V22.2394C96.9484 22.5319 96.9615 22.7463 96.9944 22.9088ZM94.2075 19.8934C94.0563 19.9584 93.8723 20.0233 93.6356 20.0623L93.0178 20.1793C92.7483 20.2313 92.5117 20.2768 92.3145 20.3483C92.1107 20.4133 91.9464 20.4978 91.8084 20.5952C91.6769 20.7122 91.5717 20.8422 91.506 20.9917C91.4403 21.1411 91.4074 21.3231 91.4074 21.5571C91.4074 21.739 91.4403 21.908 91.4929 22.038C91.5586 22.1874 91.644 22.2849 91.7623 22.3889C91.8609 22.4734 91.9792 22.5579 92.1173 22.5904C92.2685 22.6424 92.4196 22.6554 92.5905 22.6554C92.676 22.6554 92.7943 22.6359 92.9258 22.6229C93.0572 22.6034 93.1952 22.5709 93.3596 22.5254C93.5107 22.4604 93.6619 22.3954 93.8131 22.2914C93.9643 22.2069 94.0957 22.077 94.214 21.9275C94.3455 21.778 94.4507 21.5961 94.5164 21.3621C94.5821 21.1476 94.6347 20.8942 94.6347 20.6017V19.6919C94.4967 19.7764 94.3455 19.8414 94.2075 19.8934Z" fill="white"/>
<path d="M103.48 17.6812C103.414 17.4993 103.309 17.3498 103.197 17.2328C103.066 17.1028 102.915 17.0184 102.744 16.9534C102.56 16.9014 102.343 16.8689 102.087 16.8689C101.699 16.8689 101.396 16.9534 101.166 17.1353C100.93 17.3173 100.746 17.5318 100.627 17.7982C100.496 18.0777 100.424 18.3766 100.378 18.695C100.345 19.0135 100.312 19.3059 100.312 19.5919C100.312 19.8713 100.332 20.1898 100.365 20.5017C100.397 20.8331 100.463 21.1126 100.601 21.379C100.719 21.6455 100.884 21.8794 101.14 22.0419C101.377 22.2239 101.692 22.3084 102.1 22.3084C102.369 22.3084 102.606 22.2564 102.803 22.1394C102.987 22.0419 103.158 21.9054 103.289 21.756C103.421 21.587 103.526 21.4245 103.592 21.2426C103.644 21.0736 103.677 20.9111 103.677 20.7617H106.096C106.096 20.9111 106.076 21.0931 106.03 21.327C105.965 21.574 105.879 21.808 105.761 22.0744C105.643 22.3214 105.478 22.5878 105.288 22.8543C105.071 23.1207 104.834 23.3547 104.532 23.5496C104.229 23.7641 103.894 23.9331 103.493 24.063C103.092 24.193 102.619 24.2645 102.1 24.2645C101.429 24.2645 100.825 24.167 100.305 23.9656C99.7861 23.7511 99.3457 23.4521 98.9974 23.0557C98.6424 22.6593 98.3729 22.1784 98.1889 21.5805C98.0048 21.0021 97.9062 20.3327 97.9062 19.5919C97.9062 18.8315 98.0048 18.1621 98.2086 17.5837C98.4124 17.0184 98.695 16.5244 99.0631 16.1215C99.4312 15.7251 99.8715 15.4262 100.391 15.2247C100.897 15.0102 101.482 14.9062 102.106 14.9062C102.376 14.9062 102.658 14.9387 102.961 14.9712C103.243 15.0037 103.533 15.0882 103.815 15.1857C104.098 15.3027 104.367 15.4327 104.637 15.6016C104.887 15.7706 105.123 15.985 105.34 16.232C105.544 16.479 105.708 16.7779 105.846 17.1093C105.978 17.4408 106.063 17.8372 106.096 18.2856H103.677C103.612 18.0647 103.559 17.8437 103.48 17.6812Z" fill="white"/>
<path d="M114.17 15.1719V17.0305H111.468V24.0037H109.155V17.0305H106.453V15.1719H114.17Z" fill="white"/>
<path d="M120.609 18.3628V15.1784H122.923V24.0102H120.609V20.2279H117.204V24.0102H114.891V15.1719H117.204V18.3563H120.609V18.3628Z" fill="white"/>
<path d="M126.823 20.6179L130.083 15.1719H132.515V24.0037H130.202V18.6747H130.169L127.014 24.0037H124.477V15.1719H126.79V20.6179H126.823Z" fill="white"/>
<path d="M139.762 15.1719H142.851L139.157 18.8437L143.003 24.0037H139.979L137.363 20.2669L136.423 21.2157V24.0037H134.109V15.1719H136.423V18.5252L139.762 15.1719Z" fill="white"/>
</g>
<defs>
<clipPath id="clip0_3433_7811">
<rect width="143" height="32" fill="white"/>
</clipPath>
</defs>
</svg>
