<svg width="124" height="28" viewBox="0 0 124 28" fill="none" xmlns="http://www.w3.org/2000/svg">
<path d="M46.8664 13.2973C48.5705 10.7839 49.055 8.61172 48.2742 7.83268C48.0291 7.59385 47.6586 7.46875 47.1742 7.46875C46.1083 7.46875 44.5352 8.06583 42.7969 9.23723C43.5207 9.7945 44.2446 10.4257 44.957 11.1365C45.6695 11.853 46.3078 12.5752 46.8664 13.2973Z" fill="#9AA3AD"/>
<path d="M39.2346 11.1443C39.947 10.4335 40.6709 9.79663 41.3947 9.24504C39.6564 8.07364 38.0833 7.47656 37.0175 7.47656C36.5387 7.47656 36.1625 7.59598 35.9174 7.84049C35.1366 8.61954 35.6211 10.7861 37.3252 13.3052C37.8838 12.5773 38.5221 11.8551 39.2346 11.1443Z" fill="#9AA3AD"/>
<path d="M46.3625 14.0035C45.8039 13.2585 45.1428 12.4909 44.3791 11.7289C43.6153 10.9669 42.8459 10.3073 42.0992 9.75C41.3526 10.3073 40.5831 10.9669 39.8194 11.7289C39.0556 12.4909 38.3945 13.2585 37.8359 14.0035C38.3945 14.7484 39.0556 15.516 39.8194 16.278C40.5831 17.04 41.3526 17.6996 42.0992 18.2569C42.8459 17.6996 43.6153 17.04 44.3791 16.278C45.1428 15.516 45.8039 14.7484 46.3625 14.0035Z" fill="#9AA3AD"/>
<path d="M37.3331 14.7031C35.6289 17.2165 35.1444 19.3887 35.9253 20.1678C36.7061 20.9468 38.8776 20.4635 41.4025 18.7576C40.6787 18.2003 39.9549 17.5634 39.2424 16.8583C38.5243 16.1475 37.8859 15.4253 37.3331 14.7031Z" fill="#9AA3AD"/>
<path d="M29.3471 0H7.01618C3.14047 0 0 3.13322 0 7V21C0 24.8668 3.14047 28 7.01618 28H28.0647H49.1133C52.989 28 56.1294 24.8668 56.1294 21V0H29.3471ZM28.0647 27.1812H7.01618C3.60213 27.1812 0.820739 24.4062 0.820739 21V7C0.820739 3.59383 3.60213 0.818846 7.01618 0.818846H28.0647V27.1812ZM48.8511 20.7384C48.4464 21.1422 47.865 21.3355 47.1754 21.3355C45.8132 21.3355 43.995 20.5906 42.0971 19.2599C40.1991 20.5906 38.381 21.3355 37.0188 21.3355C36.3234 21.3355 35.7477 21.1422 35.3431 20.7384C34.1405 19.5386 34.8073 16.8603 36.8193 14C34.8073 11.1397 34.1405 8.46141 35.3431 7.26158C36.5457 6.06174 39.2302 6.72705 42.0971 8.73436C44.964 6.72705 47.6485 6.06174 48.8511 7.26158C50.0537 8.46141 49.3868 11.1397 47.3749 14C49.3925 16.8603 50.0594 19.5386 48.8511 20.7384Z" fill="#9AA3AD"/>
<path d="M44.957 16.8583C44.2446 17.5691 43.5207 18.206 42.7969 18.7576C45.3161 20.4578 47.4933 20.9411 48.2742 20.1678C49.055 19.3887 48.5706 17.2222 46.8664 14.7031C46.3021 15.4253 45.6638 16.1475 44.957 16.8583Z" fill="#9AA3AD"/>
<path d="M5.92392 8.51413C5.17157 9.45239 4.8353 10.7318 5.06898 11.7725C5.67314 14.4678 8.18095 14.9 10.0219 15.1388C11.4753 15.3265 12.866 15.5937 12.8318 16.8846C12.7919 18.2266 11.2758 18.5564 10.2784 18.5564C7.68509 18.5564 7.59959 16.6457 7.59959 16.6457H4.8125C4.8524 17.3622 5.06898 18.5166 5.95811 19.506C6.92704 20.5921 8.38614 21.138 10.2841 21.138C11.7432 21.138 13.0712 20.666 14.0173 19.8244V20.9788H16.6163V17.6807L17.534 16.6742L20.1615 20.9845H23.1879L19.3635 14.6782L23.1879 10.4987H19.8195L16.6163 14.0015V6.99585H14.0173V8.69041C13.9318 8.58236 13.8406 8.47432 13.7437 8.36628C12.7976 7.36547 11.4354 6.85938 9.69134 6.85938C7.67939 6.86506 6.53377 7.76352 5.92392 8.51413ZM9.74263 9.28748C10.911 9.28748 12.0795 9.54906 12.524 11.1697H14.0173V13.649C12.1536 12.1193 8.10686 13.0803 7.67369 11.1754C7.4457 10.1746 8.44313 9.28748 9.74263 9.28748Z" fill="#9AA3AD"/>
<path d="M62.7514 19.2329C62.9281 19.2897 63.1276 19.3182 63.3612 19.3182C63.6519 19.3182 63.8856 19.2329 64.0623 19.0566C64.239 18.8803 64.353 18.6472 64.41 18.3913L60.7109 10.5781H63.1732L65.5442 16.1849L67.6245 10.5781H69.9671L66.6328 18.2776C66.1939 19.2954 65.7437 20.0517 65.2478 20.5294C64.7519 21.0241 64.2162 21.2686 63.6177 21.2686C63.4125 21.2686 63.253 21.2686 63.1219 21.2402C62.9737 21.2231 62.8597 21.1947 62.7571 21.1663L62.4778 21.081C62.4037 21.0525 62.3296 21.0241 62.2612 21.007V19.0339C62.398 19.1191 62.5576 19.1931 62.7514 19.2329Z" fill="#9AA3AD"/>
<path d="M73.9822 18.0692C73.834 18.1147 73.6745 18.1431 73.5035 18.183C73.3268 18.2114 73.1387 18.2398 72.9506 18.2569C72.7625 18.2853 72.5744 18.2853 72.3977 18.2853C71.9475 18.2853 71.5656 18.2398 71.2179 18.1716C70.8817 18.0863 70.591 17.9669 70.3573 17.7963C70.1236 17.62 69.9469 17.3869 69.8329 17.0968C69.7189 16.8182 69.6562 16.4713 69.6562 16.0676V13.2812H71.6625V15.6752C71.6625 15.8913 71.691 16.0847 71.748 16.2098C71.7936 16.3576 71.8791 16.4713 71.9931 16.5566C72.1071 16.6419 72.2382 16.7045 72.4148 16.7329C72.5915 16.7613 72.791 16.7784 73.0247 16.7784C73.3724 16.7784 73.6346 16.75 73.8397 16.6931C74.0449 16.6192 74.2045 16.5453 74.3185 16.477V13.2812H76.3248V21.0091H74.3185V17.9612C74.2444 17.9839 74.1247 18.0237 73.9822 18.0692Z" fill="#9AA3AD"/>
<path d="M84.1087 20.0462C84.1258 20.194 84.1657 20.3248 84.2113 20.3931C84.2569 20.4954 84.2968 20.5523 84.3595 20.5978C84.4165 20.6433 84.4621 20.6717 84.5362 20.6831V21.0015H82.3076L82.1936 20.6376C82.1367 20.4897 82.1196 20.3191 82.1196 20.0974L81.6693 20.5466C81.5097 20.6774 81.3501 20.7911 81.162 20.8935C80.9739 20.9958 80.7687 21.0811 80.5237 21.138C80.2786 21.1948 79.9879 21.2233 79.6516 21.2233C79.304 21.2233 78.9848 21.1778 78.6884 21.0754C78.3977 20.9731 78.1526 20.8139 77.9304 20.6262C77.7252 20.4215 77.5542 20.177 77.4345 19.8699C77.3205 19.5799 77.2578 19.233 77.2578 18.8407C77.2578 18.5222 77.3034 18.2322 77.406 17.9536C77.5086 17.6749 77.6511 17.4475 77.8278 17.2428C78.0159 17.0381 78.2381 16.8675 78.4946 16.7367C78.7568 16.5888 79.0475 16.5035 79.3838 16.458L81.3501 16.168C81.4242 16.151 81.4983 16.151 81.5838 16.1225C81.6693 16.1055 81.7434 16.0771 81.8175 16.0202C81.8916 15.9747 81.9486 15.9178 81.9942 15.8439C82.0398 15.7586 82.0683 15.6563 82.0683 15.5255C82.0683 15.3947 82.0398 15.281 82.0113 15.1786C81.9657 15.0649 81.8973 14.9739 81.8061 14.9C81.7035 14.8147 81.5895 14.7521 81.4299 14.7123C81.2703 14.6668 81.0651 14.6554 80.8314 14.6554C80.5522 14.6554 80.3527 14.6839 80.1931 14.7294C80.0164 14.7862 79.8853 14.8772 79.7998 14.9625C79.6972 15.0649 79.6231 15.1786 79.5832 15.298L79.4977 15.7188H77.4915C77.4915 15.6335 77.5086 15.5027 77.5371 15.3264C77.5656 15.1672 77.6226 14.9796 77.7138 14.7749C77.7879 14.5872 77.919 14.3825 78.0615 14.1778C78.2096 13.9731 78.3977 13.7854 78.6599 13.6091C78.8936 13.4499 79.2014 13.3021 79.549 13.1997C79.8967 13.0974 80.3071 13.0405 80.8029 13.0234C81.4869 13.0234 82.0569 13.0974 82.49 13.2281C82.9118 13.376 83.2481 13.5636 83.4932 13.7797C83.7268 14.0129 83.8864 14.2574 83.9719 14.536C84.046 14.8147 84.0859 15.0876 84.0859 15.3662V19.4605C84.0688 19.7164 84.0802 19.904 84.1087 20.0462ZM81.6921 17.4077C81.561 17.4645 81.4014 17.5214 81.1962 17.5555L80.6605 17.6579C80.4268 17.7034 80.2216 17.7432 80.0506 17.8057C79.8739 17.8626 79.7314 17.9365 79.6117 18.0218C79.4977 18.1242 79.4066 18.2379 79.3496 18.3687C79.2926 18.4995 79.2641 18.6587 79.2641 18.8634C79.2641 19.0226 79.2926 19.1705 79.3382 19.2842C79.3952 19.415 79.4692 19.5003 79.5718 19.5913C79.6573 19.6652 79.7599 19.7391 79.8796 19.7675C80.0107 19.813 80.1418 19.8244 80.29 19.8244C80.3641 19.8244 80.4667 19.8074 80.5807 19.796C80.6947 19.7789 80.8143 19.7505 80.9568 19.7107C81.0879 19.6538 81.219 19.597 81.3501 19.506C81.4812 19.432 81.5952 19.3183 81.6978 19.1875C81.8118 19.0567 81.903 18.8975 81.96 18.6928C82.017 18.5052 82.0626 18.2834 82.0626 18.0275V17.2314C81.9429 17.3053 81.8118 17.3622 81.6921 17.4077Z" fill="#9AA3AD"/>
<path d="M89.7317 15.475C89.6747 15.3158 89.5835 15.185 89.4866 15.0826C89.3726 14.9689 89.2415 14.895 89.0933 14.8381C88.9337 14.7926 88.7457 14.7642 88.5234 14.7642C88.1871 14.7642 87.9249 14.8381 87.7254 14.9973C87.5202 15.1565 87.3607 15.3442 87.2581 15.5773C87.1441 15.8219 87.0814 16.0834 87.0415 16.3621C87.013 16.6407 86.9845 16.8966 86.9845 17.1468C86.9845 17.3913 87.0016 17.6699 87.0301 17.9429C87.0586 18.2329 87.1156 18.4774 87.2353 18.7106C87.3379 18.9437 87.4803 19.1484 87.7026 19.2906C87.9078 19.4498 88.1814 19.5237 88.5348 19.5237C88.7685 19.5237 88.9736 19.4782 89.1446 19.3759C89.3042 19.2906 89.4524 19.1712 89.5664 19.0404C89.6804 18.8925 89.7716 18.7504 89.8286 18.5911C89.8742 18.4433 89.9027 18.3011 89.9027 18.1704H92.0001C92.0001 18.3011 91.983 18.4604 91.9431 18.6651C91.8861 18.8812 91.812 19.0859 91.7094 19.319C91.6068 19.5351 91.4643 19.7682 91.2991 20.0014C91.111 20.2345 90.9058 20.4392 90.6436 20.6098C90.3814 20.7975 90.0908 20.9453 89.7431 21.0591C89.3954 21.1728 88.985 21.2353 88.5348 21.2353C87.9534 21.2353 87.4291 21.15 86.9788 20.9738C86.5285 20.7861 86.1466 20.5245 85.8446 20.1777C85.5368 19.8308 85.3031 19.41 85.1435 18.8868C84.9839 18.3807 84.8984 17.795 84.8984 17.1468C84.8984 16.4815 84.9839 15.8958 85.1606 15.3897C85.3373 14.895 85.5824 14.4628 85.9016 14.1102C86.2207 13.7634 86.6026 13.5018 87.0529 13.3255C87.4917 13.1379 87.999 13.0469 88.5405 13.0469C88.7741 13.0469 89.0192 13.0753 89.2814 13.1037C89.5265 13.1322 89.7773 13.2061 90.0224 13.2914C90.2674 13.3937 90.5011 13.5075 90.7348 13.6553C90.9514 13.8032 91.1566 13.9908 91.3447 14.2069C91.5213 14.423 91.6638 14.6846 91.7835 14.9746C91.8975 15.2646 91.9716 15.6115 92.0001 16.0038H89.9027C89.8457 15.8105 89.8001 15.6171 89.7317 15.475Z" fill="#9AA3AD"/>
<path d="M98.996 13.2812V14.9076H96.6535V21.0091H94.6472V14.9076H92.3047V13.2812H98.996Z" fill="#9AA3AD"/>
<path d="M104.584 16.0733V13.2869H106.59V21.0148H104.584V17.7053H101.631V21.0148H99.625V13.2812H101.631V16.0676H104.584V16.0733Z" fill="#9AA3AD"/>
<path d="M109.972 18.0465L112.799 13.2812H114.908V21.0091H112.902V16.3462H112.873L110.138 21.0091H107.938V13.2812H109.944V18.0465H109.972Z" fill="#9AA3AD"/>
<path d="M121.191 13.2812H123.87L120.666 16.4941L124.001 21.0091H121.379L119.11 17.7394L118.295 18.5696V21.0091H116.289V13.2812H118.295V16.2154L121.191 13.2812Z" fill="#9AA3AD"/>
</svg>
