<svg width="208" height="38" viewBox="0 0 208 38" fill="none" xmlns="http://www.w3.org/2000/svg">
<path d="M37.2857 19.1038C37.2857 29.3784 28.9565 37.7075 18.6819 37.7075C8.40732 37.7075 0.078125 29.3784 0.078125 19.1038C0.078125 8.82919 8.40732 0.5 18.6819 0.5C28.9565 0.5 37.2857 8.82919 37.2857 19.1038Z" fill="#0B1F33"/>
<path d="M22.636 11.3851V28.2736H24.6151V9.80176H15.5111V13.76C15.5111 26.1625 11.289 26.7431 9.44183 26.7431C9.17795 26.7431 8.91406 26.7167 8.91406 26.7167V28.2736C8.91406 28.2736 9.17795 28.4055 9.7321 28.4055C11.8168 28.4055 17.2264 27.7458 17.2264 14.2878V11.3851H22.636Z" fill="white"/>
<path d="M58.9757 12.334H53.0965V15.4888C53.0965 17.4963 52.9817 19.3127 52.7523 20.9378C52.5229 22.563 52.2361 23.9013 51.8919 24.9529C51.5478 25.9854 51.1176 26.8935 50.6014 27.6774C50.0851 28.4422 49.588 29.0254 49.11 29.4269C48.6512 29.8093 48.1254 30.1152 47.5327 30.3446C46.9591 30.574 46.4907 30.7079 46.1274 30.7461C45.7641 30.8035 45.3722 30.8322 44.9516 30.8322C44.7795 30.8322 44.617 30.8226 44.464 30.8035C44.3111 30.7844 44.2059 30.7652 44.1485 30.7461L44.0625 30.6888V28.9967C44.2537 29.0158 44.4449 29.0254 44.6361 29.0254C44.9994 29.0254 45.3339 29.0062 45.6399 28.968C45.9458 28.9106 46.3377 28.7768 46.8157 28.5665C47.2937 28.3562 47.7143 28.0789 48.0776 27.7348C48.46 27.3715 48.8519 26.8362 49.2534 26.1288C49.6741 25.4213 50.0182 24.5896 50.2859 23.6337C50.5536 22.6586 50.7734 21.4254 50.9455 19.934C51.1367 18.4427 51.2323 16.7698 51.2323 14.9152V10.6133H61.1267V30.6888H58.9757V12.334Z" fill="#0B1F33"/>
<path d="M72.3313 29.5416C73.7461 29.5416 74.9124 29.2357 75.8301 28.6238C76.767 27.9929 77.3119 27.1994 77.4649 26.2435H79.4724C79.2047 27.9069 78.4113 29.1592 77.092 30.0005C75.7728 30.8417 74.1859 31.2623 72.3313 31.2623C69.9605 31.2623 68.0676 30.5358 66.6528 29.0827C65.2571 27.6296 64.5592 25.8228 64.5592 23.6623C64.5592 21.5018 65.2475 19.695 66.6241 18.242C68.0198 16.7889 69.9031 16.0623 72.2739 16.0623C74.7403 16.0623 76.6045 16.7315 77.8664 18.0699C79.1283 19.3891 79.7592 21.0621 79.7592 23.0888V23.9491H66.5667C66.6241 25.4978 67.1212 26.8171 68.0581 27.9069C69.014 28.9967 70.4384 29.5416 72.3313 29.5416ZM72.2739 17.7831C70.6105 17.7831 69.32 18.2228 68.4022 19.1023C67.4845 19.9627 66.9013 21.0525 66.6528 22.3718H77.6943C77.6369 21.8173 77.5031 21.2915 77.2928 20.7944C77.0825 20.2782 76.7766 19.7906 76.3751 19.3318C75.9735 18.8538 75.4191 18.481 74.7117 18.2133C74.0042 17.9265 73.1917 17.7831 72.2739 17.7831Z" fill="#0B1F33"/>
<path d="M92.3814 28.6812V26.8171C92.3814 26.4347 92.3719 26.167 92.3528 26.014C92.3528 25.842 92.3145 25.6221 92.238 25.3544C92.1807 25.0867 92.0755 24.8955 91.9226 24.7808C91.7696 24.647 91.5497 24.5323 91.2629 24.4367C90.9762 24.3411 90.6129 24.2933 90.1731 24.2933H85.0682V30.6888H83.0607V16.6359H85.0682V22.7159H90.1731C90.6129 22.7159 90.9762 22.6586 91.2629 22.5438C91.5497 22.41 91.7696 22.2762 91.9226 22.1423C92.0755 21.9894 92.1807 21.7504 92.238 21.4254C92.3145 21.1003 92.3528 20.8422 92.3528 20.651C92.3719 20.4407 92.3814 20.1061 92.3814 19.6472V18.9303C92.3814 17.9169 92.5248 17.2382 92.8116 16.894C93.0984 16.5308 93.672 16.3491 94.5324 16.3491H95.5361V17.9265H95.106C94.7427 17.9265 94.5037 17.9934 94.389 18.1272C94.2934 18.242 94.2456 18.5096 94.2456 18.9303V20.2208C94.2456 20.7753 94.1787 21.2533 94.0448 21.6548C93.9301 22.0563 93.7772 22.3527 93.586 22.5438C93.4139 22.7159 93.2322 22.8593 93.0411 22.974C92.8499 23.0696 92.6969 23.1174 92.5822 23.1174L92.3814 23.1461V23.4329C92.4388 23.4329 92.5057 23.4425 92.5822 23.4616C92.6778 23.4616 92.8403 23.5094 93.0697 23.605C93.2992 23.7006 93.4999 23.8344 93.672 24.0065C93.8632 24.1786 94.0257 24.4462 94.1595 24.8095C94.3125 25.1728 94.389 25.603 94.389 26.1001V28.251C94.389 28.4805 94.389 28.643 94.389 28.7386C94.4081 28.8342 94.4559 28.9202 94.5324 28.9967C94.628 29.0732 94.7714 29.1114 94.9626 29.1114H95.6795V30.6888H94.389C93.586 30.6888 93.0506 30.5645 92.7829 30.3159C92.5153 30.0674 92.3814 29.5225 92.3814 28.6812Z" fill="#0B1F33"/>
<path d="M97.6748 18.2133V16.6359H110.294V18.2133H104.988V30.6888H102.98V18.2133H97.6748Z" fill="#0B1F33"/>
<path d="M123.5 30.6888V27.3906C123.079 27.9069 122.601 28.4231 122.066 28.9393C121.549 29.4364 120.785 29.9527 119.771 30.488C118.758 31.0042 117.754 31.2623 116.76 31.2623C115.441 31.2623 114.437 30.9564 113.749 30.3446C113.079 29.7137 112.745 28.8724 112.745 27.8208C112.745 27.1134 112.917 26.4729 113.261 25.8993C113.605 25.3066 114.016 24.8286 114.494 24.4654C114.991 24.083 115.613 23.7388 116.358 23.4329C117.123 23.127 117.802 22.8976 118.395 22.7446C119.006 22.5725 119.714 22.4291 120.517 22.3144C121.339 22.1806 121.922 22.1041 122.266 22.085C122.61 22.0467 123.022 22.0085 123.5 21.9703C123.48 20.6893 123.136 19.6759 122.467 18.9303C121.817 18.1655 120.632 17.7831 118.911 17.7831C117.4 17.7831 116.253 18.1464 115.469 18.8729C114.705 19.5994 114.322 20.5267 114.322 21.6548H112.315C112.315 19.934 112.946 18.5766 114.207 17.5823C115.469 16.569 117.037 16.0623 118.911 16.0623C120.058 16.0623 121.033 16.1962 121.836 16.4638C122.658 16.7315 123.299 17.0852 123.758 17.525C124.236 17.9456 124.608 18.5096 124.876 19.2171C125.144 19.9054 125.316 20.5841 125.392 21.2533C125.469 21.9225 125.507 22.7255 125.507 23.6623V27.6774C125.507 28.5569 125.603 29.1114 125.794 29.3408C126.004 29.5703 126.387 29.685 126.941 29.685H127.371V30.6888H123.5ZM123.5 25.8133V23.5476C117.668 24.1021 114.752 25.4787 114.752 27.6774C114.752 28.9202 115.613 29.5416 117.333 29.5416C118.462 29.5416 119.599 29.1305 120.746 28.3084C121.894 27.4862 122.811 26.6545 123.5 25.8133Z" fill="#0B1F33"/>
<path d="M133.469 19.5899C132.551 20.7944 132.092 22.1519 132.092 23.6623C132.092 25.1728 132.551 26.5303 133.469 27.7348C134.406 28.9393 135.667 29.5416 137.254 29.5416C138.822 29.5416 140.027 28.9489 140.868 27.7635C141.709 26.5781 142.13 25.211 142.13 23.6623C142.13 22.1137 141.709 20.7466 140.868 19.5612C140.027 18.3758 138.822 17.7831 137.254 17.7831C135.667 17.7831 134.406 18.3854 133.469 19.5899ZM132.092 29.5416V35.851H130.085V16.6359H131.805V19.6472H132.092C132.13 19.5516 132.188 19.4274 132.264 19.2744C132.341 19.1023 132.522 18.8155 132.809 18.414C133.096 17.9934 133.421 17.6301 133.784 17.3242C134.147 16.9992 134.654 16.7124 135.304 16.4638C135.954 16.1962 136.652 16.0623 137.398 16.0623C139.444 16.0623 141.078 16.7889 142.302 18.242C143.526 19.695 144.137 21.5018 144.137 23.6623C144.137 25.7846 143.516 27.5818 142.273 29.054C141.03 30.5262 139.453 31.2623 137.541 31.2623C136.757 31.2623 136.031 31.1381 135.362 30.8895C134.711 30.641 134.195 30.3446 133.813 30.0005C133.43 29.6563 133.096 29.3121 132.809 28.968C132.541 28.6047 132.36 28.2988 132.264 28.0503L132.092 27.6774H131.805L132.092 29.5416Z" fill="#0B1F33"/>
<path d="M159.781 16.6359V30.6888H157.773V18.8729L149.743 30.6888H147.449V16.6359H149.456V28.4518L157.487 16.6359H159.781Z" fill="#0B1F33"/>
<path d="M164.751 34.1303H165.899C166.587 34.1303 167.075 34.0347 167.361 33.8435C167.667 33.6523 167.954 33.2412 168.222 32.6103L168.996 30.7174L162.228 16.6359H164.436L169.942 28.4518L174.789 16.6359H176.94L170.057 33.1265C169.579 34.2737 169.12 35.0098 168.681 35.3348C168.241 35.6789 167.505 35.851 166.472 35.851H164.751V34.1303Z" fill="#0B1F33"/>
<path d="M185.113 30.6888L181.241 19.0737V30.6888H179.377V16.6359H182.188L186.117 28.5665L190.046 16.6359H192.856V30.6888H190.849V19.0737L186.977 30.6888H185.113Z" fill="#0B1F33"/>
<path d="M197.391 14.1426C197.104 13.4612 196.961 12.745 196.961 11.9939C196.961 11.2427 197.104 10.5304 197.391 9.85668C197.685 9.17526 198.08 8.58676 198.575 8.09118C199.071 7.59561 199.656 7.20456 200.329 6.91806C201.011 6.62381 201.727 6.47668 202.478 6.47668C203.229 6.47668 203.942 6.62381 204.615 6.91806C205.297 7.20456 205.885 7.59561 206.381 8.09118C206.876 8.58676 207.267 9.17526 207.554 9.85668C207.848 10.5304 207.995 11.2427 207.995 11.9939C207.995 12.745 207.848 13.4612 207.554 14.1426C207.267 14.8163 206.876 15.4009 206.381 15.8965C205.885 16.3921 205.297 16.7831 204.615 17.0697C203.942 17.3639 203.229 17.511 202.478 17.511C201.727 17.511 201.011 17.3639 200.329 17.0697C199.656 16.7831 199.071 16.3921 198.575 15.8965C198.08 15.4009 197.685 14.8163 197.391 14.1426ZM203.756 13.5038V14.8396H205.266V14.433H205.15C204.925 14.433 204.77 14.3866 204.685 14.2936C204.608 14.2007 204.569 13.9762 204.569 13.62V13.3064C204.569 13.0199 204.503 12.7876 204.371 12.6095C204.247 12.4314 204.124 12.3229 204 12.2842L203.802 12.2262V12.11C203.833 12.1023 203.872 12.0906 203.918 12.0752C203.965 12.0597 204.046 12.0171 204.162 11.9474C204.286 11.8777 204.395 11.7964 204.488 11.7035C204.58 11.6106 204.666 11.4789 204.743 11.3086C204.82 11.1382 204.859 10.9485 204.859 10.7394C204.859 9.68632 204.085 9.1559 202.536 9.14816H200.213V14.8396H201.026V12.4585H202.594C203.036 12.4585 203.338 12.5436 203.5 12.714C203.671 12.8766 203.756 13.1399 203.756 13.5038ZM201.026 11.8196V9.78699H202.513C203.535 9.78699 204.046 10.12 204.046 10.7859C204.046 11.0956 203.93 11.3473 203.698 11.5409C203.473 11.7267 203.117 11.8196 202.629 11.8196H201.026ZM199.098 8.62548C198.177 9.55468 197.716 10.6775 197.716 11.9939C197.716 13.3102 198.177 14.433 199.098 15.3622C200.02 16.2914 201.146 16.756 202.478 16.756C203.81 16.756 204.937 16.2914 205.858 15.3622C206.78 14.433 207.24 13.3102 207.24 11.9939C207.24 10.6775 206.78 9.55468 205.858 8.62548C204.937 7.69627 203.81 7.23167 202.478 7.23167C201.146 7.23167 200.02 7.69627 199.098 8.62548Z" fill="#0B1F33"/>
</svg>
