<svg width="141" height="40" viewBox="0 0 141 40" fill="none" xmlns="http://www.w3.org/2000/svg">
<path d="M39.89 1.316V30C39.89 34.7929 35.8692 38.684 30.9353 38.684H10.3118C5.36949 38.684 1.35703 34.7847 1.35703 30V10C1.35703 5.20715 5.37787 1.316 10.3118 1.316H39.89ZM41.2471 0H10.3118C4.61558 0 0 4.47604 0 10V30C0 35.524 4.61558 40 10.3118 40H30.9353C36.6315 40 41.2471 35.524 41.2471 30V0Z" fill="#6D7985"/>
<path d="M34.0853 14.9956H29.1346L24.4269 19.9997V9.99965H20.6071V12.4204C20.4815 12.2661 20.3474 12.1118 20.205 11.9574C18.8145 10.5277 16.8125 9.80469 14.2492 9.80469C11.2922 9.80469 9.60846 11.0882 8.71215 12.1686C7.60642 13.509 7.1122 15.3368 7.45564 16.8234C8.34358 20.6739 12.0293 21.2913 14.735 21.6325C16.8711 21.9005 18.915 22.2823 18.8648 24.1264C18.8061 26.0435 16.5779 26.5147 15.112 26.5147C11.3006 26.5147 11.1749 23.7852 11.1749 23.7852H7.07031C7.12895 24.8088 7.44727 26.4578 8.75404 27.8713C10.1781 29.4229 12.3225 30.2027 15.112 30.2027C17.2564 30.2027 19.2082 29.5285 20.5987 28.3262V29.9753H24.4185V25.2555L25.7672 23.8177L29.6289 29.9753H34.0769L28.4561 20.9663L34.0853 14.9956ZM20.5987 19.5041C17.8595 17.3189 11.9121 18.6918 11.2754 15.9704C10.9404 14.5407 12.4063 13.2734 14.3162 13.2734C16.0334 13.2734 17.7507 13.6471 18.404 15.9623H20.5987V19.5041Z" fill="#6D7985"/>
<path d="M50.9749 27.4733C51.2345 27.5545 51.5277 27.5952 51.8712 27.5952C52.2984 27.5952 52.6418 27.4733 52.9015 27.2215C53.1612 26.9697 53.3287 26.6366 53.4125 26.271L47.9844 15.1094H51.6031L55.0879 23.1191L58.1454 15.1094H61.5882L56.6878 26.1086C56.0428 27.5627 55.381 28.6431 54.6523 29.3255C53.9235 30.0322 53.1361 30.3815 52.2565 30.3815C51.9549 30.3815 51.7204 30.3815 51.5277 30.3409C51.3099 30.3165 51.1424 30.2759 50.9916 30.2353L50.5812 30.1134C50.4723 30.0728 50.3634 30.0322 50.2628 30.0078V27.189C50.4639 27.3108 50.6984 27.4164 50.9749 27.4733Z" fill="#6D7985"/>
<path d="M67.4829 25.8165C67.2652 25.8815 67.0306 25.9221 66.7793 25.979C66.5196 26.0196 66.2432 26.0602 65.9668 26.0846C65.6903 26.1252 65.4139 26.1252 65.1542 26.1252C64.4924 26.1252 63.9312 26.0602 63.4202 25.9628C62.926 25.8409 62.4988 25.6703 62.1553 25.4266C61.8119 25.1829 61.5522 24.8417 61.3847 24.4274C61.2171 24.0294 61.125 23.5338 61.125 22.9571V18.9766H64.0736V22.3965C64.0736 22.7052 64.1155 22.9814 64.1993 23.1602C64.2663 23.3714 64.3919 23.5338 64.5595 23.6557C64.727 23.7775 64.9197 23.8669 65.1793 23.9075C65.439 23.9481 65.7322 23.9725 66.0757 23.9725C66.5866 23.9725 66.972 23.9319 67.2735 23.8506C67.5751 23.745 67.8096 23.6394 67.9772 23.542V18.9766H70.9258V30.0164H67.9772V25.6622C67.8683 25.6947 67.7007 25.7515 67.4829 25.8165Z" fill="#6D7985"/>
<path d="M82.3657 28.6341C82.3908 28.8453 82.4495 29.0321 82.5165 29.1296C82.5835 29.2758 82.6421 29.357 82.7343 29.422C82.8181 29.487 82.8851 29.5276 82.994 29.5439V29.9988H79.7187L79.5511 29.4789C79.4674 29.2677 79.4422 29.024 79.4422 28.7072L78.7805 29.3489C78.5459 29.5358 78.3114 29.6982 78.0349 29.8445C77.7585 29.9907 77.4569 30.1125 77.0967 30.1938C76.7365 30.275 76.301 30.3156 75.8151 30.3156C75.3041 30.3156 74.835 30.2506 74.3994 30.1044C73.9722 29.9582 73.612 29.7307 73.2853 29.4627C72.9838 29.1702 72.7325 28.8209 72.5566 28.3822C72.389 27.9679 72.2969 27.4724 72.2969 26.9119C72.2969 26.457 72.3639 26.0427 72.5147 25.6446C72.6655 25.2466 72.8749 24.9216 73.1345 24.6292C73.411 24.3367 73.7377 24.093 74.1146 23.9062C74.5 23.695 74.9272 23.5731 75.4214 23.5081L78.3114 23.0938C78.4203 23.0695 78.5292 23.0695 78.6548 23.0289C78.7805 23.0045 78.8894 22.9639 78.9983 22.8826C79.1072 22.8176 79.1909 22.7364 79.2579 22.6308C79.325 22.509 79.3668 22.3627 79.3668 22.1759C79.3668 21.9891 79.325 21.8266 79.2831 21.6804C79.2161 21.5179 79.1155 21.3879 78.9815 21.2823C78.8307 21.1605 78.6632 21.0711 78.4286 21.0142C78.1941 20.9492 77.8925 20.933 77.5491 20.933C77.1386 20.933 76.8454 20.9736 76.6109 21.0386C76.3512 21.1198 76.1585 21.2498 76.0329 21.3717C75.8821 21.5179 75.7732 21.6804 75.7146 21.851L75.5889 22.4521H72.6403C72.6403 22.3302 72.6655 22.1434 72.7073 21.8916C72.7492 21.6641 72.833 21.396 72.967 21.1036C73.0759 20.8355 73.2686 20.5431 73.478 20.2506C73.6958 19.9582 73.9722 19.6901 74.3576 19.4383C74.701 19.2108 75.1533 18.9996 75.6643 18.8534C76.1753 18.7072 76.7784 18.6259 77.5072 18.6016C78.5124 18.6016 79.3501 18.7072 79.9867 18.894C80.6066 19.1052 81.1008 19.3733 81.461 19.682C81.8045 20.015 82.039 20.3644 82.1647 20.7624C82.2736 21.1605 82.3322 21.5504 82.3322 21.9484V27.7973C82.2987 28.1629 82.3238 28.431 82.3657 28.6341ZM78.814 24.8648C78.6213 24.946 78.3868 25.0272 78.0852 25.076L77.2978 25.2222C76.9543 25.2872 76.6528 25.344 76.4015 25.4334C76.1418 25.5146 75.9324 25.6202 75.7565 25.7421C75.5889 25.8883 75.4549 26.0508 75.3711 26.2376C75.2874 26.4245 75.2455 26.6519 75.2455 26.9444C75.2455 27.1718 75.2874 27.383 75.3544 27.5455C75.4382 27.7324 75.5471 27.8542 75.6978 27.9842C75.8235 28.0898 75.9743 28.1954 76.1502 28.236C76.3428 28.301 76.5355 28.3172 76.7533 28.3172C76.8622 28.3172 77.013 28.2929 77.1805 28.2766C77.348 28.2523 77.524 28.2116 77.7334 28.1548C77.926 28.0735 78.1187 27.9923 78.3114 27.8623C78.504 27.7567 78.6716 27.5943 78.8224 27.4074C78.9899 27.2206 79.1239 26.9931 79.2077 26.7007C79.2914 26.4326 79.3585 26.1158 79.3585 25.7502V24.6129C79.1826 24.7185 78.9899 24.7998 78.814 24.8648Z" fill="#6D7985"/>
<path d="M90.6347 22.1093C90.551 21.8819 90.4169 21.6951 90.2745 21.5488C90.107 21.3864 89.9143 21.2808 89.6965 21.1995C89.462 21.1345 89.1855 21.0939 88.8589 21.0939C88.3646 21.0939 87.9793 21.1995 87.6861 21.427C87.3845 21.6544 87.15 21.9225 86.9992 22.2556C86.8317 22.6049 86.7395 22.9786 86.6809 23.3766C86.639 23.7747 86.5971 24.1402 86.5971 24.4977C86.5971 24.847 86.6223 25.245 86.6641 25.6349C86.706 26.0492 86.7898 26.3985 86.9657 26.7316C87.1165 27.0647 87.3259 27.3571 87.6526 27.5602C87.9542 27.7877 88.3562 27.8933 88.8756 27.8933C89.2191 27.8933 89.5206 27.8283 89.7719 27.6821C90.0065 27.5602 90.2243 27.3896 90.3918 27.2028C90.5593 26.9916 90.6934 26.7885 90.7771 26.561C90.8441 26.3498 90.886 26.1467 90.886 25.9599H93.9687C93.9687 26.1467 93.9435 26.3742 93.8849 26.6666C93.8011 26.9753 93.6922 27.2678 93.5415 27.6008C93.3907 27.9095 93.1813 28.2426 92.9383 28.5756C92.6619 28.9087 92.3603 29.2011 91.975 29.4448C91.5897 29.7129 91.1625 29.9241 90.6515 30.0866C90.1405 30.2491 89.5374 30.3384 88.8756 30.3384C88.0212 30.3384 87.2505 30.2166 86.5888 29.9648C85.927 29.6967 85.3658 29.323 84.9218 28.8275C84.4694 28.3319 84.126 27.7308 83.8914 26.9834C83.6569 26.2604 83.5312 25.4237 83.5312 24.4977C83.5312 23.5472 83.6569 22.7105 83.9166 21.9875C84.1763 21.2808 84.5365 20.6634 85.0056 20.1597C85.4747 19.6642 86.0359 19.2905 86.6977 19.0387C87.3427 18.7706 88.0882 18.6406 88.884 18.6406C89.2274 18.6406 89.5876 18.6812 89.973 18.7219C90.3332 18.7625 90.7017 18.8681 91.0619 18.9899C91.4221 19.1362 91.7656 19.2986 92.109 19.5098C92.4273 19.721 92.7289 19.9891 93.0053 20.2978C93.265 20.6065 93.4744 20.9802 93.6503 21.3945C93.8179 21.8088 93.9268 22.3043 93.9687 22.8648H90.886C90.8023 22.5886 90.7352 22.3124 90.6347 22.1093Z" fill="#6D7985"/>
<path d="M104.256 18.9688V21.2921H100.813V30.0086H97.8647V21.2921H94.4219V18.9688H104.256Z" fill="#6D7985"/>
<path d="M112.46 22.9574V18.9769H115.408V30.0167H112.46V25.2888H108.12V30.0167H105.172V18.9688H108.12V22.9493H112.46V22.9574Z" fill="#6D7985"/>
<path d="M120.381 25.7762L124.536 18.9688H127.635V30.0086H124.687V23.3473H124.645L120.624 30.0086H117.391V18.9688H120.339V25.7762H120.381Z" fill="#6D7985"/>
<path d="M136.876 18.9688H140.813L136.105 23.5585L141.006 30.0086H137.152L133.818 25.3376L132.62 26.5236V30.0086H129.672V18.9688H132.62V23.1605L136.876 18.9688Z" fill="#6D7985"/>
</svg>
