<svg width="270" height="49" viewBox="0 0 270 49" fill="none" xmlns="http://www.w3.org/2000/svg">
<circle cx="24.2362" cy="24.6346" r="24.1346" fill="white"/>
<path d="M29.3639 14.6243V36.5338H31.9314V12.5703H20.1209V17.7053C20.1209 33.7951 14.6435 34.5482 12.2472 34.5482C11.9048 34.5482 11.5625 34.514 11.5625 34.514V36.5338C11.5625 36.5338 11.9048 36.7049 12.6237 36.7049C15.3282 36.7049 22.3461 35.8491 22.3461 18.39V14.6243H29.3639Z" fill="#0B1F33"/>
<path d="M76.5109 15.8495H68.8838V19.9421C68.8838 22.5465 68.735 24.9029 68.4373 27.0112C68.1397 29.1195 67.7676 30.8557 67.3212 32.2199C66.8747 33.5593 66.3166 34.7375 65.6469 35.7545C64.9772 36.7466 64.3323 37.5031 63.7122 38.024C63.1169 38.5201 62.4348 38.9169 61.6659 39.2146C60.9218 39.5122 60.3141 39.6859 59.8429 39.7355C59.3716 39.8099 58.8631 39.8471 58.3174 39.8471C58.0942 39.8471 57.8834 39.8347 57.6849 39.8099C57.4865 39.7851 57.3501 39.7603 57.2757 39.7355L57.1641 39.661V37.4659C57.4121 37.4907 57.6601 37.5031 57.9082 37.5031C58.3794 37.5031 58.8135 37.4783 59.2104 37.4287C59.6072 37.3543 60.1157 37.1807 60.7358 36.9078C61.3559 36.635 61.9016 36.2753 62.3728 35.8289C62.8689 35.3576 63.3774 34.6631 63.8983 33.7454C64.4439 32.8276 64.8904 31.7487 65.2377 30.5085C65.5849 29.2435 65.8702 27.6437 66.0934 25.709C66.3414 23.7743 66.4654 21.604 66.4654 19.198V13.6172H79.3013V39.661H76.5109V15.8495Z" fill="white"/>
<path d="M93.8371 38.1728C95.6725 38.1728 97.1856 37.776 98.3761 36.9823C99.5915 36.1637 100.298 35.1344 100.497 33.8942H103.101C102.754 36.0521 101.725 37.6768 100.013 38.7681C98.3017 39.8595 96.243 40.4052 93.8371 40.4052C90.7614 40.4052 88.3059 39.4626 86.4704 37.5775C84.6597 35.6925 83.7544 33.3485 83.7544 30.5457C83.7544 27.7429 84.6473 25.3989 86.4332 23.5139C88.2438 21.6288 90.687 20.6862 93.7627 20.6862C96.9623 20.6862 99.3807 21.5544 101.018 23.2906C102.655 25.0021 103.473 27.1724 103.473 29.8016V30.9178H86.3588C86.4332 32.9268 87.0781 34.6383 88.2934 36.0521C89.5336 37.4659 91.3815 38.1728 93.8371 38.1728ZM93.7627 22.9186C91.6047 22.9186 89.9305 23.4891 88.7399 24.63C87.5493 25.7462 86.7928 27.16 86.4704 28.8714H100.795C100.72 28.1521 100.546 27.47 100.274 26.8251C100.001 26.1554 99.6039 25.523 99.083 24.9277C98.5622 24.3076 97.8429 23.8239 96.9251 23.4766C96.0074 23.1046 94.9532 22.9186 93.7627 22.9186Z" fill="white"/>
<path d="M119.848 37.0567V34.6383C119.848 34.1422 119.836 33.795 119.811 33.5965C119.811 33.3733 119.761 33.0881 119.662 32.7408C119.588 32.3936 119.451 32.1455 119.253 31.9967C119.054 31.8231 118.769 31.6743 118.397 31.5502C118.025 31.4262 117.554 31.3642 116.983 31.3642H110.361V39.661H107.756V21.4303H110.361V29.3179H116.983C117.554 29.3179 118.025 29.2435 118.397 29.0947C118.769 28.9211 119.054 28.7474 119.253 28.5738C119.451 28.3754 119.588 28.0653 119.662 27.6437C119.761 27.222 119.811 26.8872 119.811 26.6391C119.836 26.3663 119.848 25.9322 119.848 25.3369V24.4068C119.848 23.0922 120.034 22.2117 120.406 21.7652C120.778 21.2939 121.522 21.0583 122.638 21.0583H123.941V23.1046H123.383C122.911 23.1046 122.601 23.1914 122.452 23.365C122.328 23.5139 122.266 23.8611 122.266 24.4068V26.081C122.266 26.8003 122.18 27.4204 122.006 27.9413C121.857 28.4622 121.659 28.8466 121.411 29.0947C121.187 29.3179 120.952 29.5039 120.704 29.6528C120.456 29.7768 120.257 29.8388 120.109 29.8388L119.848 29.876V30.2481C119.922 30.2481 120.009 30.2605 120.109 30.2853C120.233 30.2853 120.443 30.3473 120.741 30.4713C121.039 30.5953 121.299 30.7689 121.522 30.9922C121.77 31.2154 121.981 31.5626 122.155 32.0339C122.353 32.5052 122.452 33.0633 122.452 33.7082V36.4986C122.452 36.7962 122.452 37.0071 122.452 37.1311C122.477 37.2551 122.539 37.3667 122.638 37.4659C122.763 37.5651 122.949 37.6147 123.197 37.6147H124.127V39.661H122.452C121.411 39.661 120.716 39.4998 120.369 39.1774C120.022 38.8549 119.848 38.148 119.848 37.0567Z" fill="white"/>
<path d="M126.715 23.4766V21.4303H143.086V23.4766H136.203V39.661H133.598V23.4766H126.715Z" fill="white"/>
<path d="M160.218 39.661V35.3824C159.672 36.0521 159.052 36.7218 158.357 37.3915C157.688 38.0364 156.695 38.7061 155.381 39.4006C154.066 40.0703 152.764 40.4052 151.474 40.4052C149.763 40.4052 148.461 40.0083 147.568 39.2146C146.7 38.3961 146.265 37.3047 146.265 35.9405C146.265 35.0228 146.489 34.1918 146.935 33.4477C147.382 32.6788 147.915 32.0587 148.535 31.5875C149.18 31.0914 149.986 30.6449 150.953 30.2481C151.945 29.8512 152.826 29.5535 153.595 29.3551C154.389 29.1319 155.306 28.9459 156.348 28.797C157.415 28.6234 158.171 28.5242 158.618 28.4994C159.064 28.4498 159.597 28.4002 160.218 28.3506C160.193 26.6887 159.746 25.3741 158.878 24.4068C158.035 23.4146 156.497 22.9186 154.265 22.9186C152.305 22.9186 150.817 23.3898 149.8 24.3324C148.808 25.2749 148.312 26.4779 148.312 27.9413H145.707C145.707 25.709 146.526 23.9479 148.163 22.6581C149.8 21.3435 151.834 20.6862 154.265 20.6862C155.753 20.6862 157.018 20.8599 158.06 21.2071C159.126 21.5544 159.957 22.0132 160.552 22.5837C161.172 23.1294 161.656 23.8611 162.003 24.7788C162.351 25.6718 162.574 26.5523 162.673 27.4204C162.772 28.2886 162.822 29.3303 162.822 30.5457V35.7545C162.822 36.8954 162.946 37.6147 163.194 37.9124C163.467 38.21 163.963 38.3589 164.682 38.3589H165.24V39.661H160.218ZM160.218 33.3361V30.3969C152.652 31.1162 148.87 32.902 148.87 35.7545C148.87 37.3667 149.986 38.1728 152.218 38.1728C153.682 38.1728 155.158 37.6395 156.646 36.573C158.134 35.5064 159.325 34.4275 160.218 33.3361Z" fill="white"/>
<path d="M173.151 25.2625C171.96 26.8251 171.365 28.5862 171.365 30.5457C171.365 32.5052 171.96 34.2662 173.151 35.8289C174.366 37.3915 176.003 38.1728 178.062 38.1728C180.096 38.1728 181.658 37.4039 182.75 35.8661C183.841 34.3283 184.387 32.5548 184.387 30.5457C184.387 28.5366 183.841 26.7631 182.75 25.2253C181.658 23.6875 180.096 22.9186 178.062 22.9186C176.003 22.9186 174.366 23.6999 173.151 25.2625ZM171.365 38.1728V46.358H168.76V21.4303H170.993V25.3369H171.365C171.414 25.2129 171.489 25.0517 171.588 24.8533C171.687 24.63 171.923 24.258 172.295 23.7371C172.667 23.1914 173.088 22.7201 173.56 22.3233C174.031 21.9016 174.688 21.5296 175.532 21.2071C176.375 20.8599 177.28 20.6862 178.248 20.6862C180.902 20.6862 183.022 21.6288 184.61 23.5139C186.197 25.3989 186.991 27.7429 186.991 30.5457C186.991 33.2989 186.185 35.6304 184.573 37.5403C182.96 39.4502 180.914 40.4052 178.434 40.4052C177.417 40.4052 176.474 40.2439 175.606 39.9215C174.763 39.599 174.093 39.2146 173.597 38.7681C173.101 38.3216 172.667 37.8752 172.295 37.4287C171.948 36.9574 171.712 36.5606 171.588 36.2381L171.365 35.7545H170.993L171.365 38.1728Z" fill="white"/>
<path d="M207.285 21.4303V39.661H204.681V24.3324L194.263 39.661H191.287V21.4303H193.891V36.759L204.309 21.4303H207.285Z" fill="white"/>
<path d="M213.734 44.1257H215.222C216.115 44.1257 216.747 44.0017 217.119 43.7537C217.516 43.5056 217.888 42.9723 218.235 42.1538L219.24 39.6983L210.459 21.4303H213.324L220.468 36.759L226.756 21.4303H229.546L220.617 42.8235C219.997 44.3117 219.401 45.2667 218.831 45.6883C218.26 46.1348 217.305 46.358 215.966 46.358H213.734V44.1257Z" fill="white"/>
<path d="M240.148 39.661L235.126 24.5928V39.661H232.707V21.4303H236.353L241.451 36.9078L246.548 21.4303H250.194V39.661H247.589V24.5928L242.567 39.661H240.148Z" fill="white"/>
<path d="M256.073 18.195C255.701 17.311 255.516 16.3818 255.516 15.4074C255.516 14.433 255.701 13.5088 256.073 12.6349C256.455 11.7509 256.967 10.9874 257.61 10.3445C258.253 9.70157 259.011 9.19428 259.885 8.82259C260.769 8.44086 261.699 8.25 262.673 8.25C263.647 8.25 264.572 8.44086 265.446 8.82259C266.33 9.19428 267.093 9.70157 267.736 10.3445C268.379 10.9874 268.886 11.7509 269.258 12.6349C269.64 13.5088 269.83 14.433 269.83 15.4074C269.83 16.3818 269.64 17.311 269.258 18.195C268.886 19.069 268.379 19.8274 267.736 20.4703C267.093 21.1132 266.33 21.6205 265.446 21.9922C264.572 22.374 263.647 22.5648 262.673 22.5648C261.699 22.5648 260.769 22.374 259.885 21.9922C259.011 21.6205 258.253 21.1132 257.61 20.4703C256.967 19.8274 256.455 19.069 256.073 18.195ZM264.331 17.3663V19.0991H266.289V18.5717H266.139C265.847 18.5717 265.646 18.5115 265.536 18.3909C265.436 18.2704 265.385 17.9791 265.385 17.517V17.1101C265.385 16.7384 265.3 16.4371 265.129 16.206C264.968 15.975 264.808 15.8343 264.647 15.7841L264.391 15.7088V15.5581C264.431 15.548 264.481 15.533 264.541 15.5129C264.602 15.4928 264.707 15.4375 264.858 15.3471C265.019 15.2567 265.159 15.1512 265.28 15.0307C265.4 14.9102 265.511 14.7394 265.611 14.5184C265.712 14.2974 265.762 14.0513 265.762 13.78C265.762 12.4139 264.757 11.7257 262.748 11.7157H259.735V19.0991H260.79V16.0101H262.824C263.396 16.0101 263.788 16.1206 263.999 16.3416C264.22 16.5526 264.331 16.8941 264.331 17.3663ZM260.79 15.1814V12.5444H262.718C264.044 12.5444 264.707 12.9764 264.707 13.8403C264.707 14.2421 264.557 14.5686 264.255 14.8197C263.964 15.0608 263.502 15.1814 262.869 15.1814H260.79ZM258.288 11.0376C257.093 12.2431 256.495 13.6997 256.495 15.4074C256.495 17.1151 257.093 18.5717 258.288 19.7772C259.484 20.9827 260.945 21.5854 262.673 21.5854C264.401 21.5854 265.862 20.9827 267.058 19.7772C268.253 18.5717 268.851 17.1151 268.851 15.4074C268.851 13.6997 268.253 12.2431 267.058 11.0376C265.862 9.83216 264.401 9.22943 262.673 9.22943C260.945 9.22943 259.484 9.83216 258.288 11.0376Z" fill="#0B1F33"/>
</svg>
