<svg width="162" height="199" viewBox="0 0 162 199" fill="none" xmlns="http://www.w3.org/2000/svg">
<path d="M80.5 162.612L52.7798 191.217C48.8099 195.314 46.825 197.362 45.1441 198.071C41.3136 199.687 37.0646 198.304 35.0496 194.787C34.1654 193.244 33.8898 190.46 33.3387 184.893C33.0276 181.75 32.872 180.178 32.3997 178.861C31.3425 175.914 29.121 173.622 26.2651 172.53C24.9895 172.043 23.4664 171.883 20.4205 171.561C15.0254 170.993 12.3277 170.709 10.8321 169.796C7.42422 167.717 6.08476 163.332 7.64994 159.379C8.3368 157.644 10.3217 155.596 14.2916 151.5L32.3997 132.813L41.5006 123.742L80.5 162.612L119.499 123.742L128.6 132.813L146.708 151.5C150.679 155.596 152.663 157.644 153.35 159.379C154.915 163.332 153.576 167.717 150.168 169.796C148.672 170.709 145.975 170.993 140.58 171.561C137.534 171.883 136.011 172.043 134.735 172.53C131.879 173.622 129.658 175.914 128.6 178.861C128.128 180.178 127.972 181.75 127.661 184.893C127.11 190.46 126.834 193.244 125.95 194.787C123.936 198.304 119.687 199.687 115.856 198.071C114.175 197.362 112.19 195.314 108.22 191.217L80.5 162.612Z" fill="#B1C3F7"/>
<rect y="0.742188" width="162" height="162" rx="81" fill="#2554E7"/>
</svg>
